<svg width="1399" height="195" viewBox="0 0 1399 195" fill="none" xmlns="http://www.w3.org/2000/svg">
<path d="M398.398 26.6016H414.198V150.702H398.398V26.6016Z" fill="#354D68"/>
<path d="M433.197 60.7015H444.797L448.797 70.9016C458.497 65.0016 467.097 59.1016 480.897 59.1016C499.797 59.1016 508.597 73.1015 508.597 88.7015V150.602H492.797V88.5016C492.797 78.0016 486.897 73.4016 478.997 73.4016C466.397 73.4016 460.197 76.6016 448.597 82.6016V150.702H432.797V60.6016H433.197V60.7015Z" fill="#354D68"/>
<path d="M519.802 63.5984L535.902 60.6984V52.2985C535.902 32.1985 549.302 17.5984 570.402 17.3984C578.802 17.3984 596.702 20.2985 604.802 22.9985V32.8984C604.602 32.8984 574.902 31.2985 574.902 31.2985C564.402 30.6985 551.702 34.7985 551.702 52.5984V60.6984L612.602 62.4985V150.798H596.702V74.8984H551.502V150.798H535.702V74.8984H519.602V63.5984H519.802Z" fill="#354D68"/>
<path d="M630.798 60.7015H642.398L646.398 70.9016C656.098 65.0016 664.698 59.1016 678.498 59.1016C697.398 59.1016 706.198 73.1015 706.198 88.7015V150.602H690.398V88.5016C690.398 78.0016 684.498 73.4016 676.598 73.4016C663.998 73.4016 657.798 76.6016 646.198 82.6016V150.702H630.398V60.6016H630.798V60.7015Z" fill="#354D68"/>
<path d="M722.297 35.6984C722.297 33.1984 723.697 31.3984 726.397 31.3984H737.497C739.997 31.3984 741.497 33.2984 741.497 35.6984V46.4985C741.497 48.9985 739.897 50.2985 737.497 50.2985H726.397C723.997 50.2985 722.297 48.6985 722.297 46.4985V35.6984ZM723.797 60.6984H739.597V150.798H723.797V60.6984Z" fill="#354D68"/>
<path d="M752.602 63.9985L768.802 60.4985L772.102 35.3984H784.502V60.4985H809.302V74.4985H784.502V117.298C784.502 131.598 788.202 134.798 793.702 136.398C793.702 136.398 806.702 139.898 807.902 139.898V150.398H791.402C778.202 150.398 769.002 142.298 769.002 118.298V74.3984H752.802L752.602 63.9985Z" fill="#354D68"/>
<path d="M860.602 150.595L851.802 177.195H869.202L906.302 60.6953H889.302L865.402 135.695C865.102 135.695 857.402 138.095 854.702 128.995L834.502 60.6953H817.602L838.602 130.895C843.802 148.695 854.602 150.595 860.602 150.595Z" fill="#354D68"/>
<path d="M933.797 26.6016L967.897 126.102L996.497 26.6016H1013.8L1003 64.2015L1025 126.902L1054.4 26.6016H1071.4L1033.5 150.702H1016.8L995.197 90.7015L976.097 150.702H959.397L916.797 26.6016H933.797Z" fill="#354D68"/>
<path d="M1069.7 119.095C1069.7 105.695 1077.8 95.9946 1093.4 95.9946C1093.4 95.9946 1128.3 96.1946 1128.3 95.9946C1128.3 95.9946 1128.5 86.2946 1128.3 86.0946C1128.3 75.8946 1123 72.8946 1114.8 72.8946C1103.7 72.8946 1086.6 73.8946 1072.6 74.9946V64.2946C1084.7 60.5946 1099.2 58.9946 1116 58.8946C1131.6 58.6946 1144 66.0946 1144 85.7946V150.595H1132.1L1128.4 139.895C1127.9 140.395 1108.3 151.495 1093.4 151.495C1079.6 151.295 1069.8 142.395 1069.8 128.695V119.095H1069.7ZM1095 137.395C1107.7 137.395 1128.3 129.295 1128.3 129.295V107.195L1094.7 109.595C1087.7 110.195 1085.3 115.195 1085.3 120.095V127.395C1085.5 135.295 1089.6 137.395 1095 137.395Z" fill="#354D68"/>
<path d="M1161.6 17.8984H1177.4V117.498C1177.4 131.798 1181.1 134.998 1186.6 136.398C1186.6 136.398 1199.6 139.898 1200.8 139.898V150.398H1184.6C1170.9 150.398 1161.8 142.298 1161.8 118.398V17.8984H1161.6Z" fill="#354D68"/>
<path d="M1213.3 17.8984H1229.1V117.498C1229.1 131.798 1232.8 134.998 1238.3 136.398C1238.3 136.398 1251.3 139.898 1252.5 139.898V150.398H1236.2C1222.5 150.398 1213.4 142.298 1213.4 118.398V17.8984H1213.3Z" fill="#354D68"/>
<path d="M1296.2 60.1016C1318.8 60.1016 1331.8 62.3015 1331.8 92.2015C1331.8 106.002 1324.3 113.402 1307.9 113.402H1272.3C1272.3 133.302 1276.9 137.302 1290.1 137.302C1305.2 137.302 1317.5 137.502 1330.2 135.502V146.802C1316.7 150.902 1300.6 151.602 1286.4 151.602C1263.3 151.602 1256.5 140.002 1256.5 105.302C1256.6 65.5016 1268 60.1016 1296.2 60.1016ZM1306.4 99.7015C1313.2 99.7015 1316.3 97.0016 1316.3 91.9016C1316.3 75.8015 1313.4 74.2015 1296.9 74.2015C1279.4 74.2015 1272.4 74.5016 1272.6 99.8016L1306.4 99.7015Z" fill="#354D68"/>
<path d="M1341.5 63.9985L1357.7 60.4985L1361 35.3984H1373.4V60.4985H1398.2V74.4985H1373.4V117.298C1373.4 131.598 1377.1 134.798 1382.6 136.398C1382.6 136.398 1395.6 139.898 1396.8 139.898V150.398H1380.2C1367 150.398 1357.8 142.298 1357.8 118.298V74.3984H1341.6V64.0984H1341.5V63.9985Z" fill="#354D68"/>
<path d="M175.9 46.8C175.5 45.7 174.6 45.4 174.2 45.3C173.8 45.2 172.7 45 171.7 46L166.6 51.1L165.8 51.9L125.1 11.5C117.7 4.1 107.8 0 97.2 0C86.7 0 76.8 4.1 69.4 11.5L11.5 69.5C4 77 0 86.9 0 97.4C0 108 4 117.9 11.5 125.4L69.5 183.1C76.9 190.5 86.8 194.6 97.3 194.6C107.8 194.6 117.7 190.5 125.1 183.1C125.1 183.1 138.2 170 138.3 169.9C140 168.2 142.1 165.8 143.2 162.7C144.1 160.2 144.4 157.6 144 155C143.7 152.4 142.7 149.9 141.2 147.7C140.6 146.9 140 146.1 139.2 145.4C132.8 139.1 122.4 139.1 116 145.5L101.8 159.7C100.9 160.6 99.9 161.2 98.7 161.4C97.3 161.7 96.5 161.6 95.3 161.2C94.2 160.8 93.2 160.1 92.3 159.3L34.7 101.7C33.8 100.8 33.2 99.7 33 98.5C32.7 96.9 33 95.3 33.8 94L34.1 93.7C34.8 93 92.2 35.7 92.7 35.2C93.6 34.3 94.8 33.7 96 33.4C96.4 33.3 96.8 33.3 97.2 33.3C98.9 33.3 100.5 34 101.7 35.2L142.3 75.5L140.3 77.5L136.3 81.5C135.4 82.4 135.5 83.5 135.6 84C135.7 84.4 136.1 85.3 137.1 85.7L173.7 90.2C175.2 90.2 176.7 89.6 177.7 88.5C178.8 87.4 179.4 86 179.4 84.4L175.9 46.8Z" fill="url(#paint0_linear_502_53105)"/>
<path opacity="0.49" d="M34.3974 101.3C32.6974 99.5 32.4974 96.2 33.8974 94C33.8974 94 14.7974 114.8 23.9974 137.8L36.0974 149.8L53.6974 120.6L34.3974 101.3Z" fill="url(#paint1_linear_502_53105)"/>
<path opacity="0.49" d="M93.7031 160.603C115.203 180.403 138.803 169.403 138.803 169.403C138.803 169.403 141.903 166.503 143.203 162.803C140.003 161.203 116.903 144.703 116.903 144.703L103.303 158.303C98.4031 164.103 93.7031 160.603 93.7031 160.603Z" fill="url(#paint2_linear_502_53105)"/>
<path opacity="0.49" d="M79.5984 48.3991C79.5984 48.3991 93.3984 34.4991 93.3984 34.5991C93.3984 34.5991 97.0984 31.6991 100.898 34.3991C100.898 34.3991 77.9984 15.5991 53.5984 27.3991L46.3984 34.5991L79.5984 48.3991Z" fill="url(#paint3_linear_502_53105)"/>
<path d="M146.5 147.8C146.9 148.9 147.8 149.2 148.2 149.3C148.6 149.4 149.7 149.6 150.7 148.6L155.8 143.5L156.6 142.7L197.3 183.1C204.7 190.5 214.6 194.6 225.2 194.6C235.7 194.6 245.6 190.5 253 183.1L310.9 125.1C318.4 117.6 322.4 107.7 322.4 97.2C322.4 86.6 318.4 76.7 310.9 69.2L252.9 11.5C245.5 4.1 235.6 0 225.1 0C214.6 0 204.7 4.1 197.3 11.5C197.3 11.5 184.2 24.6 184.1 24.7C182.4 26.4 180.3 28.8 179.2 31.9C178.3 34.4 178 37 178.4 39.6C178.7 42.2 179.7 44.7 181.2 46.9C181.8 47.7 182.4 48.5 183.2 49.2C189.6 55.5 200 55.5 206.4 49.1L220.6 34.9C221.5 34 222.5 33.4 223.7 33.2C225.1 32.9 225.9 33 227.1 33.4C228.2 33.8 229.2 34.5 230.1 35.3L287.7 92.9C288.6 93.8 289.2 94.9 289.4 96.1C289.7 97.7 289.4 99.3 288.6 100.6L288.3 100.9C287.6 101.6 230.2 158.9 229.7 159.4C228.8 160.3 227.6 160.9 226.4 161.2C226 161.3 225.6 161.3 225.2 161.3C223.5 161.3 221.9 160.6 220.7 159.4L180.1 119.1L182.1 117.1L186.1 113.1C187 112.2 186.9 111.1 186.8 110.6C186.7 110.2 186.3 109.3 185.3 108.9L148.7 104.4C147.2 104.4 145.7 105 144.7 106.1C143.6 107.2 143 108.6 143 110.2L146.5 147.8Z" fill="url(#paint4_linear_502_53105)"/>
<path opacity="0.49" d="M288.003 93.2969C289.703 95.0969 289.903 98.3969 288.503 100.597C288.503 100.597 307.603 79.7969 298.403 56.7969L286.303 44.7969L268.703 73.9969L288.003 93.2969Z" fill="url(#paint5_linear_502_53105)"/>
<path opacity="0.49" d="M228.703 34.0034C207.203 14.2034 183.603 25.2033 183.603 25.2033C183.603 25.2033 180.503 28.1034 179.203 31.8034C182.403 33.4034 205.503 49.9033 205.503 49.9033L219.203 36.3034C224.003 30.4034 228.703 34.0034 228.703 34.0034Z" fill="url(#paint6_linear_502_53105)"/>
<path opacity="0.49" d="M242.8 146.203C242.8 146.203 229 160.103 229 160.003C229 160.003 225.3 162.903 221.5 160.203C221.5 160.203 244.4 179.003 268.8 167.203L276 160.003L242.8 146.203Z" fill="url(#paint7_linear_502_53105)"/>
<defs>
<linearGradient id="paint0_linear_502_53105" x1="89.7489" y1="-24.8678" x2="89.7489" y2="352.035" gradientUnits="userSpaceOnUse">
<stop offset="0.00510204" stop-color="#00BFE1"/>
<stop offset="0.9651" stop-color="#2738AB"/>
</linearGradient>
<linearGradient id="paint1_linear_502_53105" x1="17.3374" y1="107.087" x2="41.6188" y2="127.395" gradientUnits="userSpaceOnUse">
<stop offset="0.0348857" stop-color="#1B1464"/>
<stop offset="1" stop-color="#1B1464" stop-opacity="0"/>
</linearGradient>
<linearGradient id="paint2_linear_502_53105" x1="111.513" y1="172.079" x2="123.079" y2="155.675" gradientUnits="userSpaceOnUse">
<stop offset="0.0348857" stop-color="#1B1464"/>
<stop offset="1" stop-color="#1B1464" stop-opacity="0"/>
</linearGradient>
<linearGradient id="paint3_linear_502_53105" x1="78.9252" y1="21.5655" x2="70.2443" y2="43.0387" gradientUnits="userSpaceOnUse">
<stop offset="0.0348857" stop-color="#1B1464"/>
<stop offset="1" stop-color="#1B1464" stop-opacity="0"/>
</linearGradient>
<linearGradient id="paint4_linear_502_53105" x1="232.749" y1="-24.8678" x2="232.749" y2="352.035" gradientUnits="userSpaceOnUse">
<stop offset="0.00510204" stop-color="#00BFE1"/>
<stop offset="0.9651" stop-color="#2738AB"/>
</linearGradient>
<linearGradient id="paint5_linear_502_53105" x1="305.139" y1="87.4879" x2="280.858" y2="67.1798" gradientUnits="userSpaceOnUse">
<stop offset="0.0348857" stop-color="#1B1464"/>
<stop offset="1" stop-color="#1B1464" stop-opacity="0"/>
</linearGradient>
<linearGradient id="paint6_linear_502_53105" x1="211.013" y1="22.4942" x2="199.446" y2="38.8977" gradientUnits="userSpaceOnUse">
<stop offset="0.0348857" stop-color="#1B1464"/>
<stop offset="1" stop-color="#1B1464" stop-opacity="0"/>
</linearGradient>
<linearGradient id="paint7_linear_502_53105" x1="243.587" y1="172.995" x2="252.267" y2="151.522" gradientUnits="userSpaceOnUse">
<stop offset="0.0348857" stop-color="#1B1464"/>
<stop offset="1" stop-color="#1B1464" stop-opacity="0"/>
</linearGradient>
</defs>
</svg>
