<svg width="1920" height="553" viewBox="0 0 1920 553" fill="none" xmlns="http://www.w3.org/2000/svg">
<g clip-path="url(#clip0_179_51675)">
<g clip-path="url(#clip1_179_51675)">
<path d="M1587.09 332.739C1575.81 375.816 1544.27 411.801 1496.78 439.975C1449.3 468.15 1385.9 488.492 1311.02 500.283C1161.25 523.864 965.624 513.224 759.645 462.751C553.667 412.279 376.384 331.542 256.266 241.83C196.207 196.973 150.459 149.887 122.554 103.238C94.6508 56.5911 84.6069 10.4154 95.8803 -32.6615C107.154 -75.7383 138.699 -111.723 186.183 -139.897C233.67 -168.072 297.064 -188.414 371.949 -200.205C521.716 -223.786 717.344 -213.146 923.322 -162.673C1129.3 -112.201 1306.58 -31.4644 1426.7 58.2483C1486.76 103.105 1532.51 150.191 1560.41 196.84C1588.32 243.487 1598.36 289.663 1587.09 332.739Z" stroke="url(#paint0_linear_179_51675)" stroke-opacity="0.3"/>
<path d="M1925 415.557C1908.6 478.22 1862.72 530.547 1793.69 571.502C1724.67 612.459 1632.53 642.021 1523.71 659.155C1306.07 693.422 1021.81 677.958 722.511 604.62C423.217 531.282 165.608 413.966 -8.94482 283.598C-96.2219 218.413 -162.714 149.98 -203.277 82.1698C-243.839 14.3616 -258.456 -52.7904 -242.057 -115.454C-225.657 -178.117 -179.773 -230.444 -110.747 -271.399C-41.7189 -312.355 50.4191 -341.918 159.239 -359.052C376.878 -393.319 661.142 -377.855 960.436 -304.517C1259.73 -231.179 1517.34 -113.863 1691.89 16.5049C1779.17 81.6898 1845.66 150.123 1886.22 217.933C1926.79 285.741 1941.4 352.893 1925 415.557Z" stroke="url(#paint1_linear_179_51675)" stroke-opacity="0.3"/>
<path d="M2336.19 516.31C2313.56 602.806 2250.23 675.018 2154.99 731.525C2059.75 788.035 1932.63 828.817 1782.52 852.452C1482.3 899.722 1090.18 878.39 677.335 777.228C264.493 676.067 -90.859 514.241 -331.648 334.402C-452.044 244.482 -543.778 150.074 -599.744 56.514C-655.709 -37.044 -675.89 -129.72 -653.254 -216.216C-630.617 -302.712 -567.284 -374.924 -472.047 -431.432C-376.807 -487.941 -249.693 -528.723 -99.5792 -552.358C200.645 -599.629 592.765 -578.296 1005.61 -477.135C1418.45 -375.973 1773.8 -214.147 2014.59 -34.3088C2134.99 55.6111 2226.72 150.019 2282.69 243.58C2338.65 337.138 2358.83 429.814 2336.19 516.31Z" stroke="url(#paint2_linear_179_51675)" stroke-opacity="0.3"/>
</g>
<g filter="url(#filter0_bi_179_51675)">
<rect x="206" y="409.141" width="101" height="101" rx="50.5" transform="rotate(-15 206 409.141)" fill="#163B92" fill-opacity="0.15"/>
<rect x="206.612" y="409.494" width="100" height="100" rx="50" transform="rotate(-15 206.612 409.494)" stroke="#163B92"/>
</g>
<g opacity="0.8">
<path fill-rule="evenodd" clip-rule="evenodd" d="M245.666 435.02L243.352 440.174C242.454 441.649 242.48 443.516 243.384 445.282L250.01 458.205C251.115 460.36 253.422 462.161 256.17 462.856L272.046 466.814C274.794 467.509 277.306 467.008 278.898 465.449L288.146 456.482C288.754 455.848 289.175 455.098 289.379 454.278L289.394 454.293L292.008 448.519L288.993 450.788C288.945 450.681 288.893 450.573 288.838 450.466L282.213 437.543C281.108 435.388 278.801 433.587 276.053 432.892L260.177 428.934C257.429 428.239 254.917 428.74 253.325 430.299L247.547 435.901L245.666 435.02Z" fill="url(#paint3_radial_179_51675)"/>
<path d="M291.55 444.491L284.89 431.563C283.78 429.407 281.467 427.602 278.716 426.901L262.823 422.908C260.072 422.207 257.56 422.702 255.971 424.256L246.74 433.193C245.152 434.747 244.954 437.049 246.062 439.203L252.723 452.131C253.833 454.287 256.145 456.093 258.896 456.793L274.79 460.786C277.541 461.487 280.053 460.993 281.641 459.439L290.872 450.501C292.346 448.966 292.713 446.75 291.55 444.491Z" fill="url(#paint4_linear_179_51675)"/>
</g>
<g clip-path="url(#clip2_179_51675)">
<path d="M263.766 442.873C264.173 443.776 265.309 444.304 266.297 444.057C266.332 444.047 266.366 444.036 266.401 444.025C267.37 443.725 267.776 442.763 267.304 441.874C266.838 440.982 265.681 440.504 264.715 440.811C263.788 441.098 263.369 442.005 263.766 442.873Z" fill="white"/>
<path d="M257.034 444.473C256.712 444.55 256.559 444.857 256.695 445.148C256.83 445.439 257.195 445.614 257.513 445.53C257.835 445.453 257.981 445.149 257.852 444.856C257.724 444.563 257.355 444.396 257.034 444.473Z" fill="white"/>
<path d="M258.78 433.567C258.99 433.354 258.935 433.001 258.663 432.789C258.392 432.577 257.993 432.582 257.783 432.795C257.572 433.008 257.624 433.355 257.896 433.567C258.171 433.785 258.566 433.788 258.78 433.567Z" fill="white"/>
<path d="M262.038 435.87C262.364 435.539 262.284 435.002 261.864 434.673C261.443 434.345 260.834 434.348 260.508 434.678C260.182 435.009 260.262 435.546 260.682 435.875C261.103 436.203 261.712 436.2 262.038 435.87Z" fill="white"/>
<path d="M257.094 439.669C257.529 439.763 257.929 439.543 257.991 439.169C258.046 438.797 257.743 438.417 257.304 438.316C256.869 438.222 256.47 438.442 256.408 438.816C256.346 439.19 256.659 439.574 257.094 439.669Z" fill="white"/>
<path d="M260.165 443.177C259.667 443.301 259.435 443.765 259.64 444.22C259.845 444.674 260.408 444.937 260.905 444.812C261.403 444.688 261.635 444.224 261.43 443.769C261.228 443.321 260.662 443.052 260.165 443.177Z" fill="white"/>
<path d="M262.019 448.871C261.752 449.145 261.813 449.585 262.166 449.861C262.515 450.13 263.014 450.131 263.287 449.854C263.554 449.579 263.493 449.139 263.14 448.864C262.791 448.594 262.285 448.596 262.019 448.871Z" fill="white"/>
<path d="M261.723 440.762C262.35 440.901 262.924 440.583 262.999 440.049C263.081 439.513 262.643 438.968 262.02 438.836C261.393 438.697 260.819 439.015 260.744 439.549C260.659 440.078 261.096 440.624 261.723 440.762Z" fill="white"/>
<path d="M270.291 433.243C270.819 433.361 271.313 433.09 271.383 432.639C271.453 432.188 271.08 431.719 270.552 431.601C270.024 431.484 269.531 431.755 269.461 432.206C269.387 432.665 269.757 433.128 270.291 433.243Z" fill="white"/>
<path d="M270.598 429.849C270.944 429.926 271.254 429.749 271.3 429.454C271.347 429.158 271.105 428.863 270.759 428.785C270.412 428.707 270.103 428.885 270.053 429.174C270.013 429.467 270.259 429.769 270.598 429.849Z" fill="white"/>
<path d="M273.04 438.221C272.052 438.468 271.577 439.406 271.991 440.307C272.397 441.209 273.537 441.744 274.522 441.491C274.556 441.481 274.591 441.47 274.619 441.461C275.581 441.163 275.987 440.202 275.521 439.31C275.086 438.46 273.991 437.978 273.04 438.221Z" fill="white"/>
<path d="M264.722 439.703C265.302 440.152 266.083 440.31 266.748 440.104C267.709 439.806 268.116 438.844 267.65 437.952C267.521 437.704 267.329 437.475 267.084 437.284C266.233 436.623 265.015 436.63 264.366 437.297C263.714 437.972 263.874 439.048 264.722 439.703Z" fill="white"/>
<path d="M277.336 433.402C277.602 433.127 277.531 432.683 277.182 432.414C276.832 432.145 276.33 432.153 276.063 432.428C275.797 432.702 275.865 433.14 276.207 433.411C276.563 433.678 277.062 433.679 277.336 433.402Z" fill="white"/>
<path d="M273.165 435.29C272.783 435.682 272.871 436.313 273.37 436.699C273.868 437.085 274.584 437.085 274.966 436.693C275.348 436.301 275.26 435.67 274.761 435.284C274.262 434.898 273.55 434.904 273.165 435.29Z" fill="white"/>
<path d="M264.527 431.451C264.932 431.348 265.124 430.963 264.963 430.592C264.801 430.22 264.327 430.004 263.919 430.101C263.515 430.204 263.318 430.583 263.48 430.954C263.652 431.33 264.12 431.548 264.527 431.451Z" fill="white"/>
<path d="M266.705 435.61C267.289 435.466 267.564 434.915 267.319 434.384C267.081 433.851 266.412 433.54 265.832 433.691C265.248 433.834 264.973 434.386 265.218 434.917C265.462 435.447 266.124 435.761 266.705 435.61Z" fill="white"/>
<path d="M266.178 446.985C266.56 446.593 266.472 445.962 265.973 445.576C265.475 445.19 264.759 445.19 264.377 445.582C263.995 445.974 264.083 446.605 264.582 446.991C265.081 447.377 265.796 447.377 266.178 446.985Z" fill="white"/>
<path d="M268.094 436.786C267.957 437.694 268.697 438.62 269.759 438.853C270.821 439.086 271.794 438.548 271.931 437.64C272.068 436.732 271.328 435.807 270.266 435.574C269.892 435.489 269.514 435.503 269.175 435.608C268.586 435.79 268.183 436.233 268.094 436.786Z" fill="white"/>
<path d="M274.631 442.573C273.78 441.912 272.562 441.919 271.913 442.586C271.258 443.255 271.417 444.331 272.265 444.985C273.117 445.647 274.335 445.639 274.983 444.972C275.635 444.312 275.489 443.247 274.645 442.584C274.642 442.577 274.642 442.577 274.631 442.573Z" fill="white"/>
<path d="M277.629 441.508C277.002 441.369 276.429 441.687 276.354 442.221C276.272 442.757 276.709 443.302 277.333 443.434C277.96 443.573 278.533 443.255 278.608 442.721C278.693 442.192 278.256 441.646 277.629 441.508Z" fill="white"/>
<path d="M279.719 438.058C279.514 437.604 278.951 437.341 278.454 437.466C277.956 437.59 277.724 438.054 277.929 438.509C278.134 438.963 278.697 439.226 279.195 439.101C279.685 438.979 279.921 438.506 279.719 438.058Z" fill="white"/>
<path d="M281.831 436.739C281.509 436.816 281.356 437.122 281.492 437.413C281.627 437.704 281.992 437.88 282.31 437.796C282.632 437.719 282.778 437.414 282.649 437.121C282.514 436.83 282.152 436.661 281.831 436.739Z" fill="white"/>
<path d="M282.239 442.606C281.804 442.512 281.404 442.732 281.342 443.106C281.287 443.478 281.59 443.858 282.028 443.959C282.464 444.053 282.863 443.833 282.925 443.459C282.987 443.085 282.674 442.701 282.239 442.606Z" fill="white"/>
<path d="M268.74 452.424C268.394 452.346 268.085 452.524 268.035 452.813C267.988 453.108 268.23 453.403 268.57 453.483C268.916 453.561 269.225 453.384 269.275 453.095C269.332 452.803 269.086 452.502 268.74 452.424Z" fill="white"/>
<path d="M280.557 448.704C280.347 448.917 280.403 449.27 280.674 449.482C280.945 449.694 281.345 449.689 281.555 449.476C281.765 449.262 281.713 448.916 281.442 448.704C281.167 448.486 280.771 448.482 280.557 448.704Z" fill="white"/>
<path d="M271.265 445.488C271.402 444.58 270.662 443.655 269.597 443.415C268.534 443.182 267.561 443.72 267.417 444.63C267.274 445.541 268.021 446.464 269.086 446.703C269.46 446.787 269.838 446.774 270.177 446.669C270.776 446.491 271.179 446.048 271.265 445.488Z" fill="white"/>
<path d="M269.055 449.032C268.527 448.915 268.034 449.186 267.964 449.637C267.893 450.088 268.267 450.557 268.794 450.674C269.322 450.792 269.816 450.521 269.886 450.07C269.963 449.617 269.589 449.148 269.055 449.032Z" fill="white"/>
<path d="M274.724 450.851C274.32 450.954 274.127 451.339 274.289 451.711C274.451 452.082 274.925 452.298 275.333 452.201C275.737 452.098 275.933 451.719 275.771 451.348C275.599 450.972 275.132 450.754 274.724 450.851Z" fill="white"/>
<path d="M272.559 446.69C271.975 446.834 271.7 447.385 271.945 447.916C272.183 448.449 272.851 448.76 273.432 448.61C274.013 448.46 274.291 447.915 274.046 447.384C273.811 446.857 273.14 446.54 272.559 446.69Z" fill="white"/>
<path d="M277.304 446.409C276.981 446.745 277.061 447.283 277.489 447.609C277.916 447.936 278.525 447.932 278.848 447.595C279.174 447.265 279.094 446.727 278.673 446.399C278.246 446.072 277.634 446.07 277.304 446.409Z" fill="white"/>
</g>
<g clip-path="url(#clip3_179_51675)">
<g filter="url(#filter1_f_179_51675)">
<ellipse cx="177.161" cy="177.02" rx="177.161" ry="177.02" transform="matrix(-1 0 0 1 399.359 -324)" fill="url(#paint5_linear_179_51675)"/>
</g>
<g filter="url(#filter2_f_179_51675)">
<rect width="170.248" height="241.352" transform="matrix(-1 0 0 1 307.328 -160.359)" fill="url(#paint6_linear_179_51675)"/>
</g>
<g filter="url(#filter3_bi_179_51675)">
<rect x="99.0938" y="15" width="53.8764" height="53.8764" rx="26.9382" transform="rotate(45 99.0938 15)" fill="#2C2B45" fill-opacity="0.15"/>
<rect x="99.0938" y="15.4535" width="53.2351" height="53.2351" rx="26.6175" transform="rotate(45 99.0938 15.4535)" stroke="#2C2B45" stroke-width="0.641386"/>
<g opacity="0.75">
<path fill-rule="evenodd" clip-rule="evenodd" d="M97.5426 65.4567L105.687 64.6008C106.455 64.5198 107.113 64.2217 107.584 63.7502L110.45 61.2969L108.512 61.1999L109.622 55.0836C109.858 53.824 109.309 52.4511 108.124 51.3398L101.304 44.9037C100.118 43.7935 98.5506 43.2429 97.1921 43.3849L89.9314 44.1479L89.9347 42.7873L87.6125 44.7217C87.0022 45.1103 86.5782 45.7092 86.4364 46.4659L85.1125 53.7579C84.8763 55.0175 85.4259 56.3905 86.6116 57.5031L93.4323 63.9392C94.5925 64.9885 96.1209 65.6086 97.5439 65.458L97.5426 65.4567Z" fill="url(#paint7_radial_179_51675)"/>
<path d="M100.527 62.9098L108.672 62.0539C110.029 61.9107 111.047 61.0884 111.283 59.8288L112.607 52.5368C112.843 51.2772 112.293 49.9042 111.109 48.7929L104.288 42.3568C103.102 41.2466 101.535 40.696 100.177 40.838L92.032 41.6939C90.6748 41.8371 89.6569 42.6595 89.4207 43.9191L88.0969 51.2111C87.8607 52.4707 88.4103 53.8436 89.596 54.9562L96.4167 61.3923C97.5769 62.4416 99.1053 63.0617 100.528 62.9111L100.527 62.9098Z" fill="url(#paint8_linear_179_51675)"/>
<path d="M98.7937 48.3313L98.6555 48.9954L97.9919 52.3827L101.87 56.0078L106.914 51.4457L98.7948 48.3302L98.7937 48.3313Z" fill="white"/>
<path d="M101.106 56.0995L97.2283 52.4744L98.0312 48.4219L93.9954 52.8134L101.106 56.0995Z" fill="white"/>
</g>
</g>
</g>
<g filter="url(#filter4_ii_179_51675)">
<path d="M152.026 223.99C158.669 253.348 187.634 271.811 216.722 265.23C245.81 258.648 264.006 229.514 257.363 200.156C250.721 170.799 221.755 152.335 192.667 158.917C163.579 165.499 145.384 194.633 152.026 223.99Z" fill="url(#paint9_linear_179_51675)"/>
</g>
<path d="M152.058 223.983C158.697 253.323 187.645 271.775 216.715 265.198C245.785 258.62 263.97 229.504 257.331 200.164C250.693 170.824 221.745 152.372 192.675 158.949C163.604 165.527 145.419 194.643 152.058 223.983Z" stroke="url(#paint10_linear_179_51675)" stroke-width="0.0656921" stroke-linecap="round"/>
<path d="M286.5 61L288.834 85.4567L308.067 69.7868L292.136 88.7039L317 91L292.136 93.2961L308.067 112.213L288.834 96.5433L286.5 121L284.166 96.5433L264.933 112.213L280.864 93.2961L256 91L280.864 88.7039L264.933 69.7868L284.166 85.4567L286.5 61Z" fill="white"/>
<g clip-path="url(#clip4_179_51675)">
<g filter="url(#filter5_f_179_51675)">
<circle cx="1852.5" cy="136.641" r="301.5" fill="url(#paint11_linear_179_51675)"/>
</g>
<g filter="url(#filter6_bi_179_51675)">
<rect x="1513" y="361" width="76.6056" height="76.6056" rx="38.3028" fill="#444444" fill-opacity="0.15"/>
<rect x="1513.42" y="361.421" width="75.7637" height="75.7637" rx="37.8819" stroke="#C94F84" stroke-width="0.841819"/>
<g opacity="0.75">
<path fill-rule="evenodd" clip-rule="evenodd" d="M1560.84 388.136L1562.77 390.927C1563.33 391.526 1563.72 392.286 1563.87 393.127L1565.58 402.647L1565.59 402.647C1565.88 404.307 1565.23 405.972 1564.01 407.148L1556.48 414.011C1555.18 415.205 1553.51 415.627 1551.91 415.158L1542.67 412.501C1541.5 412.158 1540.59 411.368 1540.07 410.347L1538.34 407.838L1539.5 408.208L1537.96 399.625C1537.67 398.039 1538.24 396.318 1539.54 395.124L1547.06 388.261C1548.36 387.067 1550.04 386.645 1551.63 387.113L1560.87 389.77C1560.98 389.801 1561.08 389.836 1561.18 389.874L1560.84 388.136Z" fill="#FD509E"/>
<path d="M1563.43 399.496L1561.69 389.988C1561.4 388.404 1560.28 387.102 1558.68 386.629L1549.42 383.949C1547.82 383.477 1546.14 383.893 1544.85 385.081L1537.33 391.909C1536.03 393.097 1535.47 394.814 1535.76 396.398L1537.5 405.906C1537.79 407.491 1538.91 408.792 1540.51 409.265L1549.77 411.944C1551.37 412.417 1553.05 412.001 1554.35 410.813L1561.86 403.985C1563.08 402.815 1563.74 401.155 1563.43 399.496L1563.43 399.496Z" fill="url(#paint12_linear_179_51675)"/>
</g>
<path d="M1554.33 390.747C1550.99 389.205 1547.12 390.486 1545.6 393.638C1545.3 394.29 1545.12 394.906 1545.05 395.665C1545.01 396.172 1545.38 396.604 1545.91 396.675C1546.44 396.745 1546.8 396.382 1546.91 395.911C1546.96 395.405 1547.11 394.862 1547.34 394.355C1548.44 392.144 1551.28 391.265 1553.66 392.45C1556.03 393.634 1557.12 396.414 1556.02 398.624C1554.99 400.69 1552.41 401.604 1550.09 400.709C1550.09 400.709 1549.21 400.387 1548.74 400.172C1548.59 400.1 1548.4 400.101 1548.24 400.029L1548.16 399.993L1548.2 399.921L1548.65 399.34L1550.97 396.293C1551.25 395.895 1551.21 395.352 1550.78 395.065C1550.34 394.777 1549.78 394.779 1549.5 395.178C1549.5 395.178 1543.81 402.542 1543.78 402.614C1543.5 403.013 1543.57 403.483 1543.89 403.807L1543.97 403.843C1544.41 404.13 1544.89 404.092 1545.21 403.802C1545.21 403.802 1545.21 403.802 1545.25 403.729C1545.28 403.657 1546.04 402.605 1546.04 402.605C1546.56 401.88 1547.63 401.586 1548.55 401.836C1548.7 401.908 1549.51 402.194 1549.51 402.194C1552.99 403.446 1556.76 401.768 1557.78 398.473C1558.88 395.648 1557.41 392.254 1554.33 390.747Z" fill="white"/>
<path d="M1548.73 404.112C1548.22 403.788 1547.55 403.827 1547.24 404.298C1546.85 404.734 1547.01 405.42 1547.49 405.816C1547.97 406.212 1548.68 406.101 1548.95 405.702L1548.99 405.63C1549.33 405.086 1549.25 404.435 1548.73 404.112Z" fill="white"/>
</g>
<g filter="url(#filter7_b_179_51675)">
<rect x="1708" y="26" width="103.544" height="103.544" rx="51.7719" fill="#C29B26" fill-opacity="0.15"/>
<rect x="1708.42" y="26.4209" width="102.702" height="102.702" rx="51.351" stroke="#C29B26" stroke-width="0.841819"/>
<g opacity="0.75">
<path fill-rule="evenodd" clip-rule="evenodd" d="M1771.07 56.8594L1775.94 60.6686C1776.89 61.3175 1777.66 62.1789 1778.18 63.1903L1785.19 76.6758H1785.2C1786.42 79.0279 1786.1 81.7543 1784.66 83.9722L1775.58 97.0678C1774.02 99.3419 1771.5 100.615 1768.71 100.534L1752.62 100.144C1750.78 100.09 1749.11 99.4114 1747.86 98.3053L1743.59 94.957L1745.65 95.0623L1739.28 82.8243C1738.12 80.5782 1738.26 77.8019 1739.82 75.5278L1748.9 62.4323C1750.46 60.1582 1752.98 58.8854 1755.77 58.9665L1771.86 59.3565C1772.05 59.3623 1772.25 59.3753 1772.45 59.3954L1771.07 56.8594Z" fill="url(#paint13_radial_179_51675)"/>
<path d="M1780.27 72.7988L1773.26 59.3134C1772.09 57.0673 1769.72 55.5606 1766.93 55.4795L1750.84 55.0896C1748.06 55.0085 1745.54 56.2812 1743.98 58.5553L1734.9 71.6509C1733.34 73.925 1733.2 76.7013 1734.36 78.9473L1741.37 92.4328C1742.54 94.6819 1744.92 96.1855 1747.7 96.2666L1763.79 96.6565C1766.58 96.7377 1769.09 95.4649 1770.66 93.1908L1779.74 80.0953C1781.18 77.8773 1781.5 75.1509 1780.28 72.7988H1780.27Z" fill="url(#paint14_linear_179_51675)"/>
<path d="M1745.88 70.8353L1750.85 63.4609L1759.78 63.6824L1757.87 66.4026L1752.35 66.3495L1749.12 70.957L1745.88 70.8353ZM1762.28 68.4988L1758.93 68.4365L1755.86 73.0938L1750.18 72.9908L1748.27 75.711L1749.72 78.4936L1755.4 78.5965L1757.91 83.4129L1761.26 83.4753L1763.17 80.7552L1760.66 75.9387L1763.9 71.3313L1762.4 68.4427L1762.28 68.502L1762.28 68.4988ZM1766.23 76.0978L1764.79 73.3153L1762.88 76.0354L1764.33 78.818L1766.23 76.0978ZM1768.62 76.2444L1765.38 80.8519L1766.83 83.6344L1771.86 76.3661L1767.91 68.7671L1766.12 71.428L1768.62 76.2444H1768.62ZM1760.37 66.493L1763.73 66.5554L1765.17 69.338L1767.08 66.6178L1765.63 63.8353L1762.28 63.7729L1760.37 66.493ZM1758.91 85.3376L1760.35 88.1202L1763.71 88.1826L1765.61 85.4624L1764.17 82.6798L1762.26 85.4L1758.91 85.3376ZM1752.28 83.1446L1755.63 83.207L1754.19 80.4245L1750.84 80.3621L1752.28 83.1446ZM1751.45 70.9975L1754.81 71.0599L1756.71 68.3398L1753.36 68.2774L1751.45 70.9975ZM1746 75.5082L1747.91 72.7881L1744.55 72.7257L1742.65 75.4459L1744.09 78.2284L1747.45 78.2908L1746 75.5082ZM1748.51 80.3247L1745.15 80.2623L1749.11 87.8613L1758.03 88.0827L1756.58 85.3002L1750.9 85.1972L1748.39 80.3808L1748.51 80.3247Z" fill="white"/>
</g>
</g>
<g filter="url(#filter8_iii_179_51675)">
<ellipse cx="1868" cy="283" rx="105" ry="105" fill="url(#paint15_linear_179_51675)"/>
</g>
<path d="M1760.5 427L1762.83 451.457L1782.07 435.787L1766.14 454.704L1791 457L1766.14 459.296L1782.07 478.213L1762.83 462.543L1760.5 487L1758.17 462.543L1738.93 478.213L1754.86 459.296L1730 457L1754.86 454.704L1738.93 435.787L1758.17 451.457L1760.5 427Z" fill="white"/>
</g>
</g>
<defs>
<filter id="filter0_bi_179_51675" x="183.3" y="360.3" width="169.103" height="169.095" filterUnits="userSpaceOnUse" color-interpolation-filters="sRGB">
<feFlood flood-opacity="0" result="BackgroundImageFix"/>
<feGaussianBlur in="BackgroundImageFix" stdDeviation="11.35"/>
<feComposite in2="SourceAlpha" operator="in" result="effect1_backgroundBlur_179_51675"/>
<feBlend mode="normal" in="SourceGraphic" in2="effect1_backgroundBlur_179_51675" result="shape"/>
<feColorMatrix in="SourceAlpha" type="matrix" values="0 0 0 0 0 0 0 0 0 0 0 0 0 0 0 0 0 0 127 0" result="hardAlpha"/>
<feOffset/>
<feGaussianBlur stdDeviation="14.1"/>
<feComposite in2="hardAlpha" operator="arithmetic" k2="-1" k3="1"/>
<feColorMatrix type="matrix" values="0 0 0 0 0.0784314 0 0 0 0 0.235294 0 0 0 0 0.596078 0 0 0 0.15 0"/>
<feBlend mode="normal" in2="shape" result="effect2_innerShadow_179_51675"/>
</filter>
<filter id="filter1_f_179_51675" x="-154.961" y="-524" width="754.32" height="754.039" filterUnits="userSpaceOnUse" color-interpolation-filters="sRGB">
<feFlood flood-opacity="0" result="BackgroundImageFix"/>
<feBlend mode="normal" in="SourceGraphic" in2="BackgroundImageFix" result="shape"/>
<feGaussianBlur stdDeviation="100" result="effect1_foregroundBlur_179_51675"/>
</filter>
<filter id="filter2_f_179_51675" x="-62.9219" y="-360.359" width="570.25" height="641.352" filterUnits="userSpaceOnUse" color-interpolation-filters="sRGB">
<feFlood flood-opacity="0" result="BackgroundImageFix"/>
<feBlend mode="normal" in="SourceGraphic" in2="BackgroundImageFix" result="shape"/>
<feGaussianBlur stdDeviation="100" result="effect1_foregroundBlur_179_51675"/>
</filter>
<filter id="filter3_bi_179_51675" x="38.3" y="-7.7" width="121.588" height="121.595" filterUnits="userSpaceOnUse" color-interpolation-filters="sRGB">
<feFlood flood-opacity="0" result="BackgroundImageFix"/>
<feGaussianBlur in="BackgroundImageFix" stdDeviation="11.35"/>
<feComposite in2="SourceAlpha" operator="in" result="effect1_backgroundBlur_179_51675"/>
<feBlend mode="normal" in="SourceGraphic" in2="effect1_backgroundBlur_179_51675" result="shape"/>
<feColorMatrix in="SourceAlpha" type="matrix" values="0 0 0 0 0 0 0 0 0 0 0 0 0 0 0 0 0 0 127 0" result="hardAlpha"/>
<feOffset/>
<feGaussianBlur stdDeviation="14.1"/>
<feComposite in2="hardAlpha" operator="arithmetic" k2="-1" k3="1"/>
<feColorMatrix type="matrix" values="0 0 0 0 0.227451 0 0 0 0 0.231373 0 0 0 0 0.345098 0 0 0 0.52 0"/>
<feBlend mode="normal" in2="shape" result="effect2_innerShadow_179_51675"/>
</filter>
<filter id="filter4_ii_179_51675" x="148.156" y="154.306" width="125.598" height="113.257" filterUnits="userSpaceOnUse" color-interpolation-filters="sRGB">
<feFlood flood-opacity="0" result="BackgroundImageFix"/>
<feBlend mode="normal" in="SourceGraphic" in2="BackgroundImageFix" result="shape"/>
<feColorMatrix in="SourceAlpha" type="matrix" values="0 0 0 0 0 0 0 0 0 0 0 0 0 0 0 0 0 0 127 0" result="hardAlpha"/>
<feOffset dx="15.02" dy="-3.28"/>
<feGaussianBlur stdDeviation="12.5128"/>
<feComposite in2="hardAlpha" operator="arithmetic" k2="-1" k3="1"/>
<feColorMatrix type="matrix" values="0 0 0 0 0.625 0 0 0 0 0.0338542 0 0 0 0 0.0338542 0 0 0 0.76 0"/>
<feBlend mode="normal" in2="shape" result="effect1_innerShadow_179_51675"/>
<feColorMatrix in="SourceAlpha" type="matrix" values="0 0 0 0 0 0 0 0 0 0 0 0 0 0 0 0 0 0 127 0" result="hardAlpha"/>
<feOffset dx="-2.5" dy="1"/>
<feGaussianBlur stdDeviation="3.75383"/>
<feComposite in2="hardAlpha" operator="arithmetic" k2="-1" k3="1"/>
<feColorMatrix type="matrix" values="0 0 0 0 1 0 0 0 0 0.829417 0 0 0 0 0.629167 0 0 0 1 0"/>
<feBlend mode="normal" in2="effect1_innerShadow_179_51675" result="effect2_innerShadow_179_51675"/>
</filter>
<filter id="filter5_f_179_51675" x="1351" y="-364.859" width="1003" height="1003" filterUnits="userSpaceOnUse" color-interpolation-filters="sRGB">
<feFlood flood-opacity="0" result="BackgroundImageFix"/>
<feBlend mode="normal" in="SourceGraphic" in2="BackgroundImageFix" result="shape"/>
<feGaussianBlur stdDeviation="100" result="effect1_foregroundBlur_179_51675"/>
</filter>
<filter id="filter6_bi_179_51675" x="1490.3" y="338.3" width="122.009" height="122.009" filterUnits="userSpaceOnUse" color-interpolation-filters="sRGB">
<feFlood flood-opacity="0" result="BackgroundImageFix"/>
<feGaussianBlur in="BackgroundImageFix" stdDeviation="11.35"/>
<feComposite in2="SourceAlpha" operator="in" result="effect1_backgroundBlur_179_51675"/>
<feBlend mode="normal" in="SourceGraphic" in2="effect1_backgroundBlur_179_51675" result="shape"/>
<feColorMatrix in="SourceAlpha" type="matrix" values="0 0 0 0 0 0 0 0 0 0 0 0 0 0 0 0 0 0 127 0" result="hardAlpha"/>
<feOffset/>
<feGaussianBlur stdDeviation="14.1"/>
<feComposite in2="hardAlpha" operator="arithmetic" k2="-1" k3="1"/>
<feColorMatrix type="matrix" values="0 0 0 0 0.784314 0 0 0 0 0.313726 0 0 0 0 0.533333 0 0 0 0.04 0"/>
<feBlend mode="normal" in2="shape" result="effect2_innerShadow_179_51675"/>
</filter>
<filter id="filter7_b_179_51675" x="1685.3" y="3.3" width="148.947" height="148.947" filterUnits="userSpaceOnUse" color-interpolation-filters="sRGB">
<feFlood flood-opacity="0" result="BackgroundImageFix"/>
<feGaussianBlur in="BackgroundImageFix" stdDeviation="11.35"/>
<feComposite in2="SourceAlpha" operator="in" result="effect1_backgroundBlur_179_51675"/>
<feBlend mode="normal" in="SourceGraphic" in2="effect1_backgroundBlur_179_51675" result="shape"/>
</filter>
<filter id="filter8_iii_179_51675" x="1727.96" y="127.949" width="245.036" height="280.072" filterUnits="userSpaceOnUse" color-interpolation-filters="sRGB">
<feFlood flood-opacity="0" result="BackgroundImageFix"/>
<feBlend mode="normal" in="SourceGraphic" in2="BackgroundImageFix" result="shape"/>
<feColorMatrix in="SourceAlpha" type="matrix" values="0 0 0 0 0 0 0 0 0 0 0 0 0 0 0 0 0 0 127 0" result="hardAlpha"/>
<feOffset dx="-35.0358" dy="-50.0511"/>
<feGaussianBlur stdDeviation="40.05"/>
<feComposite in2="hardAlpha" operator="arithmetic" k2="-1" k3="1"/>
<feColorMatrix type="matrix" values="0 0 0 0 0.676044 0 0 0 0 0.235556 0 0 0 0 0.883333 0 0 0 0.76 0"/>
<feBlend mode="normal" in2="shape" result="effect1_innerShadow_179_51675"/>
<feColorMatrix in="SourceAlpha" type="matrix" values="0 0 0 0 0 0 0 0 0 0 0 0 0 0 0 0 0 0 127 0" result="hardAlpha"/>
<feOffset dy="20.0205"/>
<feGaussianBlur stdDeviation="20"/>
<feComposite in2="hardAlpha" operator="arithmetic" k2="-1" k3="1"/>
<feColorMatrix type="matrix" values="0 0 0 0 0.7625 0 0 0 0 1 0 0 0 0 1 0 0 0 0.25 0"/>
<feBlend mode="normal" in2="effect1_innerShadow_179_51675" result="effect2_innerShadow_179_51675"/>
<feColorMatrix in="SourceAlpha" type="matrix" values="0 0 0 0 0 0 0 0 0 0 0 0 0 0 0 0 0 0 127 0" result="hardAlpha"/>
<feOffset/>
<feGaussianBlur stdDeviation="12"/>
<feComposite in2="hardAlpha" operator="arithmetic" k2="-1" k3="1"/>
<feColorMatrix type="matrix" values="0 0 0 0 1 0 0 0 0 1 0 0 0 0 1 0 0 0 0.26 0"/>
<feBlend mode="normal" in2="effect2_innerShadow_179_51675" result="effect3_innerShadow_179_51675"/>
</filter>
<linearGradient id="paint0_linear_179_51675" x1="147.654" y1="-57.5525" x2="1426.46" y2="490.727" gradientUnits="userSpaceOnUse">
<stop stop-color="#484848"/>
<stop offset="0.491388" stop-color="#484848" stop-opacity="0.36"/>
<stop offset="1" stop-color="#484848"/>
</linearGradient>
<linearGradient id="paint1_linear_179_51675" x1="-166.613" y1="-151.565" x2="1691.41" y2="645.047" gradientUnits="userSpaceOnUse">
<stop stop-color="#484848"/>
<stop offset="0.491388" stop-color="#484848" stop-opacity="0.36"/>
<stop offset="1" stop-color="#484848"/>
</linearGradient>
<linearGradient id="paint2_linear_179_51675" x1="-549.009" y1="-265.98" x2="2013.81" y2="832.806" gradientUnits="userSpaceOnUse">
<stop stop-color="#484848"/>
<stop offset="0.491388" stop-color="#484848" stop-opacity="0.36"/>
<stop offset="1" stop-color="#484848"/>
</linearGradient>
<radialGradient id="paint3_radial_179_51675" cx="0" cy="0" r="1" gradientUnits="userSpaceOnUse" gradientTransform="translate(267.82 470.675) rotate(-77.5185) scale(41.9667 41.9478)">
<stop stop-color="#3C6BDB"/>
<stop offset="1" stop-color="#103EAC"/>
</radialGradient>
<linearGradient id="paint4_linear_179_51675" x1="262.708" y1="411.544" x2="270.877" y2="453.055" gradientUnits="userSpaceOnUse">
<stop stop-color="#3B6BDB"/>
<stop offset="1" stop-color="#113FAD"/>
</linearGradient>
<linearGradient id="paint5_linear_179_51675" x1="177.161" y1="0" x2="177.161" y2="354.041" gradientUnits="userSpaceOnUse">
<stop stop-color="#F9B862"/>
<stop offset="1" stop-color="#941C0E"/>
</linearGradient>
<linearGradient id="paint6_linear_179_51675" x1="85.1238" y1="0" x2="85.1238" y2="241.352" gradientUnits="userSpaceOnUse">
<stop stop-color="#FFF9F0" stop-opacity="0"/>
<stop offset="1" stop-color="#FABD6D"/>
<stop offset="1" stop-color="white" stop-opacity="0.35"/>
</linearGradient>
<radialGradient id="paint7_radial_179_51675" cx="0" cy="0" r="1" gradientUnits="userSpaceOnUse" gradientTransform="translate(97.913 42.0747) rotate(91.7145) scale(28.4168 28.6193)">
<stop stop-color="#565A81"/>
<stop offset="1" stop-color="#242447"/>
</radialGradient>
<linearGradient id="paint8_linear_179_51675" x1="111.409" y1="48.1496" x2="89.7585" y2="56.8164" gradientUnits="userSpaceOnUse">
<stop stop-color="#565A81"/>
<stop offset="0.91" stop-color="#242447"/>
</linearGradient>
<linearGradient id="paint9_linear_179_51675" x1="246.499" y1="186" x2="148.499" y2="241" gradientUnits="userSpaceOnUse">
<stop stop-color="#FFC56F"/>
<stop offset="1" stop-color="#6D1400"/>
</linearGradient>
<linearGradient id="paint10_linear_179_51675" x1="596.026" y1="88.9382" x2="620.081" y2="195.251" gradientUnits="userSpaceOnUse">
<stop stop-color="#BDBDBD"/>
<stop offset="1" stop-color="#BDBDBD" stop-opacity="0"/>
</linearGradient>
<linearGradient id="paint11_linear_179_51675" x1="1852.5" y1="-164.859" x2="2189" y2="528" gradientUnits="userSpaceOnUse">
<stop stop-color="#24A6CF" stop-opacity="0"/>
<stop offset="1" stop-color="#7154D8"/>
</linearGradient>
<linearGradient id="paint12_linear_179_51675" x1="1545.99" y1="384.145" x2="1552.85" y2="411.866" gradientUnits="userSpaceOnUse">
<stop stop-color="#FD82BF"/>
<stop offset="1" stop-color="#FD54A0"/>
</linearGradient>
<radialGradient id="paint13_radial_179_51675" cx="0" cy="0" r="1" gradientUnits="userSpaceOnUse" gradientTransform="translate(1749.31 66.7847) rotate(38.6279) scale(42.9732 42.8663)">
<stop stop-color="#F6C527"/>
<stop offset="1" stop-color="#DDAD13"/>
</radialGradient>
<linearGradient id="paint14_linear_179_51675" x1="1745.41" y1="56.7148" x2="1765.68" y2="96.8704" gradientUnits="userSpaceOnUse">
<stop stop-color="#FEF200"/>
<stop offset="1" stop-color="#F3BA2F"/>
</linearGradient>
<linearGradient id="paint15_linear_179_51675" x1="1770.15" y1="242.34" x2="1893.91" y2="294.17" gradientUnits="userSpaceOnUse">
<stop stop-color="#96CDFE"/>
<stop offset="1" stop-color="#0A89CA"/>
</linearGradient>
<clipPath id="clip0_179_51675">
<rect width="1920" height="553" fill="white"/>
</clipPath>
<clipPath id="clip1_179_51675">
<rect width="1920" height="821" fill="white" transform="translate(0 -238)"/>
</clipPath>
<clipPath id="clip2_179_51675">
<rect width="27.162" height="24.888" fill="white" transform="matrix(0.955305 -0.295822 0.462809 0.886825 250.93 434.125)"/>
</clipPath>
<clipPath id="clip3_179_51675">
<rect width="617" height="520" fill="white" transform="matrix(-1 0 0 1 616 -238)"/>
</clipPath>
<clipPath id="clip4_179_51675">
<rect width="539" height="907" fill="white" transform="translate(1381 -238)"/>
</clipPath>
</defs>
</svg>
