<svg width="736" height="500" viewBox="0 0 736 500" fill="none" xmlns="http://www.w3.org/2000/svg">
<g clip-path="url(#clip0_1396_84789)">
<path fill-rule="evenodd" clip-rule="evenodd" d="M-461.201 373.335L341.383 111.63L342.53 112.001L-460.055 373.706L-461.201 373.335ZM-175.791 331.52L-99.2123 356.314L-175.733 381.265L-252.312 356.472L-175.791 331.52ZM-21.479 381.481L-98.0661 356.685L-174.586 381.636L-97.9993 406.432L-21.479 381.481ZM-20.3328 381.852L56.2423 406.644L-20.2779 431.595L-96.853 406.803L-20.3328 381.852ZM133.959 431.806L57.3886 407.015L-19.1317 431.967L57.4392 456.757L133.959 431.806ZM135.106 432.177L211.677 456.968L135.157 481.919L58.5854 457.128L135.106 432.177ZM289.402 482.132L212.823 457.339L136.303 482.29L212.882 507.084L289.402 482.132ZM290.548 482.503L367.127 507.297L290.607 532.248L214.028 507.455L290.548 482.503ZM444.849 532.46L368.274 507.668L291.753 532.619L368.328 557.412L444.849 532.46ZM445.995 532.831L522.57 557.623L446.05 582.575L369.475 557.783L445.995 532.831ZM574.945 574.58L523.716 557.994L447.196 582.946L498.434 599.535L497.289 599.908L446.05 583.319L369.522 608.273L420.762 624.863L419.617 625.236L368.377 608.647L317.164 625.346L316.017 624.975L367.231 608.276L290.656 583.484L239.445 600.182L238.299 599.811L289.509 583.113L212.934 558.321L161.726 575.018L160.58 574.647L211.788 557.949L135.209 533.156L83.9996 549.854L82.8534 549.483L134.063 532.785L57.4839 507.992L6.273 524.69L5.12674 524.319L56.3376 507.62L-20.2335 482.83L-71.4379 499.526L-72.5841 499.155L-21.3798 482.458L-97.9506 457.668L-149.172 474.37L-150.319 473.999L-99.0969 457.297L-175.672 432.504L-226.891 449.206L-228.037 448.835L-176.818 432.133L-253.405 407.337L-304.61 424.034L-305.756 423.663L-254.552 406.966L-331.131 382.173L-382.336 398.87L-383.483 398.499L-332.277 381.802L-383.515 365.213L-382.369 364.839L-331.131 381.428L-254.603 356.474L-305.843 339.885L-304.697 339.511L-253.458 356.101L-176.938 331.149L-228.186 314.557L-227.041 314.183L-175.792 330.776L-99.2602 305.82L-150.507 289.228L-149.361 288.855L-98.1147 305.447L-21.6026 280.498L-72.8427 263.908L-71.6972 263.535L-20.4571 280.124L56.0589 255.174L4.82922 238.588L5.9747 238.214L57.2043 254.801L133.74 229.844L82.4933 213.252L83.6387 212.878L134.886 229.47L211.402 204.52L160.165 187.932L161.311 187.558L212.547 204.147L289.091 179.187L237.845 162.596L238.99 162.222L290.237 178.814L366.753 153.864L315.517 137.275L316.662 136.902L367.898 153.49L419.102 136.794L420.248 137.165L369.045 153.861L445.624 178.655L496.829 161.958L497.975 162.329L446.77 179.026L523.357 203.822L574.548 187.13L575.694 187.501L524.503 204.193L601.078 228.985L652.266 212.294L653.413 212.665L602.224 229.356L678.795 254.147L730.001 237.45L731.147 237.821L679.942 254.518L756.513 279.309L807.712 262.614L808.858 262.985L757.659 279.68L834.238 304.473L885.438 287.778L886.584 288.149L835.384 304.844L911.963 329.638L963.165 312.942L964.311 313.313L913.109 330.009L989.684 354.801L1040.88 338.106L1042.03 338.477L990.831 355.172L1067.41 379.964L1118.6 363.27L1119.75 363.641L1068.55 380.335L1119.79 396.925L1118.65 397.299L1067.41 380.709L990.89 405.659L1042.12 422.246L1040.98 422.619L989.745 406.033L913.201 430.992L964.442 447.582L963.296 447.955L912.056 431.365L835.54 456.316L886.77 472.902L885.624 473.276L834.394 456.689L757.858 481.646L809.106 498.238L807.96 498.611L756.713 482.019L680.197 506.97L731.434 523.558L730.288 523.932L679.051 507.343L602.539 532.292L653.77 548.879L652.624 549.252L601.393 532.665L524.862 557.621L576.09 574.207L574.945 574.58ZM368.329 558.156L444.904 582.948L368.376 607.902L291.801 583.11L368.329 558.156ZM989.685 355.546L1066.26 380.338L989.744 405.288L913.169 380.496L989.685 355.546ZM912.024 380.869L988.599 405.662L912.055 430.621L835.48 405.829L912.024 380.869ZM834.334 406.202L910.909 430.994L834.393 455.944L757.818 431.152L834.334 406.202ZM756.673 431.526L833.248 456.318L756.712 481.275L680.137 456.483L756.673 431.526ZM678.991 456.856L755.566 481.648L679.05 506.598L602.475 481.806L678.991 456.856ZM601.33 482.18L677.905 506.972L601.393 531.921L524.818 507.129L601.33 482.18ZM523.672 507.502L600.247 532.294L523.715 557.25L447.14 532.458L523.672 507.502ZM367.183 557.785L290.608 532.993L214.08 557.947L290.655 582.739L367.183 557.785ZM988.539 355.175L911.964 330.382L835.448 355.333L912.023 380.125L988.539 355.175ZM910.877 380.498L834.302 355.706L757.758 380.665L834.334 405.458L910.877 380.498ZM833.188 405.831L756.613 381.039L680.097 405.989L756.672 430.781L833.188 405.831ZM755.527 431.155L678.952 406.363L602.415 431.319L678.99 456.111L755.527 431.155ZM677.845 456.485L601.27 431.693L524.754 456.643L601.329 481.435L677.845 456.485ZM600.183 481.809L523.608 457.017L447.096 481.965L523.671 506.758L600.183 481.809ZM522.526 507.131L445.951 482.339L369.419 507.294L445.994 532.086L522.526 507.131ZM212.883 507.828L289.462 532.622L212.934 557.576L136.355 532.783L212.883 507.828ZM834.239 305.218L910.818 330.011L834.302 354.962L757.723 330.168L834.239 305.218ZM756.577 330.542L833.156 355.335L756.612 380.294L680.033 355.501L756.577 330.542ZM678.888 355.874L755.467 380.668L678.951 405.618L602.372 380.825L678.888 355.874ZM601.226 381.198L677.805 405.992L601.269 430.948L524.69 406.155L601.226 381.198ZM523.545 406.528L600.124 431.322L523.608 456.272L447.029 431.479L523.545 406.528ZM445.883 431.852L522.462 456.645L445.95 481.594L369.371 456.801L445.883 431.852ZM368.226 457.174L444.805 481.968L368.273 506.923L291.694 482.13L368.226 457.174ZM211.736 507.457L135.157 482.664L58.6293 507.618L135.208 532.411L211.736 507.457ZM833.092 304.847L756.513 280.053L679.997 305.004L756.576 329.797L833.092 304.847ZM755.431 330.171L678.852 305.377L602.308 330.336L678.887 355.13L755.431 330.171ZM677.742 355.503L601.163 330.71L524.647 355.66L601.226 380.454L677.742 355.503ZM600.08 380.827L523.501 356.034L446.965 380.99L523.544 405.784L600.08 380.827ZM522.398 406.157L445.819 381.364L369.303 406.314L445.882 431.107L522.398 406.157ZM444.737 431.481L368.158 406.688L291.646 431.636L368.225 456.43L444.737 431.481ZM367.079 456.803L290.5 432.01L213.969 456.965L290.547 481.759L367.079 456.803ZM57.4399 457.502L134.011 482.293L57.4831 507.247L-19.0881 482.456L57.4399 457.502ZM678.796 254.892L755.367 279.682L678.851 304.633L602.28 279.842L678.796 254.892ZM601.135 280.215L677.706 305.006L601.162 329.965L524.591 305.174L601.135 280.215ZM523.445 305.548L600.016 330.339L523.5 355.289L446.929 330.498L523.445 305.548ZM445.784 330.872L522.355 355.663L445.819 380.619L369.248 355.828L445.784 330.872ZM368.102 356.202L444.673 380.993L368.157 405.943L291.586 381.152L368.102 356.202ZM290.441 381.526L367.012 406.316L290.5 431.265L213.929 406.475L290.441 381.526ZM212.783 406.848L289.354 431.639L212.822 456.594L136.251 431.803L212.783 406.848ZM56.2937 457.131L-20.2772 432.34L-96.8052 457.294L-20.2343 482.085L56.2937 457.131ZM677.65 254.52L601.079 229.73L524.563 254.68L601.134 279.471L677.65 254.52ZM599.988 279.844L523.417 255.053L446.874 280.013L523.444 304.803L599.988 279.844ZM522.299 305.177L445.728 280.386L369.212 305.336L445.783 330.127L522.299 305.177ZM444.637 330.501L368.067 305.71L291.53 330.667L368.101 355.457L444.637 330.501ZM366.956 355.831L290.385 331.04L213.869 355.99L290.44 380.781L366.956 355.831ZM289.294 381.154L212.724 356.364L136.211 381.313L212.782 406.103L289.294 381.154ZM211.637 406.477L135.066 381.686L58.534 406.642L135.105 431.432L211.637 406.477ZM-97.9985 407.177L-21.4234 431.969L-97.9514 456.923L-174.526 432.131L-97.9985 407.177ZM523.358 204.566L599.933 229.359L523.417 254.309L446.842 229.517L523.358 204.566ZM445.696 229.89L522.271 254.682L445.727 279.641L369.152 254.849L445.696 229.89ZM368.007 255.223L444.582 280.015L368.066 304.965L291.491 280.173L368.007 255.223ZM290.345 280.547L366.92 305.339L290.384 330.295L213.809 305.503L290.345 280.547ZM212.664 305.877L289.239 330.669L212.723 355.619L136.148 330.827L212.664 305.877ZM135.002 331.201L211.577 355.993L135.065 380.942L58.4901 356.149L135.002 331.201ZM57.3446 356.523L133.92 381.315L57.3878 406.27L-19.1873 381.478L57.3446 356.523ZM-99.1447 406.806L-175.732 382.01L-252.26 406.964L-175.673 431.76L-99.1447 406.806ZM522.211 204.195L445.624 179.399L369.108 204.349L445.695 229.145L522.211 204.195ZM444.55 229.519L367.963 204.723L291.419 229.682L368.006 254.478L444.55 229.519ZM366.86 254.852L290.273 230.056L213.757 255.006L290.344 279.802L366.86 254.852ZM289.199 280.175L212.612 255.379L136.076 280.336L212.663 305.132L289.199 280.175ZM211.517 305.506L134.93 280.71L58.4143 305.66L135.001 330.456L211.517 305.506ZM133.856 330.829L57.2689 306.033L-19.2432 330.982L57.3438 355.778L133.856 330.829ZM56.1984 356.152L-20.3887 331.356L-96.9206 356.311L-20.3335 381.107L56.1984 356.152ZM-253.457 356.845L-176.878 381.639L-253.406 406.593L-329.985 381.799L-253.457 356.845ZM367.899 154.235L444.478 179.028L367.962 203.978L291.383 179.185L367.899 154.235ZM290.238 179.558L366.817 204.352L290.273 229.311L213.694 204.518L290.238 179.558ZM212.548 204.891L289.127 229.685L212.611 254.635L136.032 229.841L212.548 204.891ZM134.887 230.215L211.466 255.008L134.93 279.965L58.3506 255.172L134.887 230.215ZM57.2051 255.545L133.784 280.339L57.2681 305.289L-19.3109 280.495L57.2051 255.545ZM-20.4564 280.869L56.1226 305.662L-20.3895 330.611L-96.9685 305.818L-20.4564 280.869ZM-98.1139 306.191L-21.535 330.985L-98.0669 355.94L-174.646 331.147L-98.1139 306.191ZM-461.179 390.549L341.953 650.572L343.098 650.199L-460.033 390.175L-461.179 390.549ZM393.181 111.947L1196.31 371.971L1197.46 371.597L394.326 111.574L393.181 111.947ZM1196.33 388.434L393.744 650.139L394.89 650.511L1197.48 388.805L1196.33 388.434Z" fill="url(#paint0_linear_1396_84789)"/>
</g>
<defs>
<linearGradient id="paint0_linear_1396_84789" x1="115.014" y1="207.038" x2="112.066" y2="402.558" gradientUnits="userSpaceOnUse">
<stop stop-color="white" stop-opacity="0"/>
<stop offset="1" stop-color="white" stop-opacity="0.16"/>
</linearGradient>
<clipPath id="clip0_1396_84789">
<rect width="736" height="500" fill="white"/>
</clipPath>
</defs>
</svg>
