<svg width="1920" height="1200" viewBox="0 0 1920 1200" preserveAspectRatio="none" fill="none" xmlns="http://www.w3.org/2000/svg">
<g clip-path="url(#clip0_1376_84353)">
<rect width="1920" height="1200" fill="#0A0D17"/>
<path fill-rule="evenodd" clip-rule="evenodd" d="M1841.5 1149.5V1200H1842.5V1149.5L1920 1149.5V1148.5L1842.5 1148.5V1067.5H1920V1066.5H1842.5V985.5H1920V984.5H1842.5V903.504H1920V902.504H1842.5V821.504H1920V820.504H1842.5V739.504H1920V738.504H1842.5V657.504H1920V656.504H1842.5V575.504H1920V574.504H1842.5V493.504H1920V492.504H1842.5V411.504H1920V410.504H1842.5V329.504H1920V328.504H1842.5V246.504H1920V245.504H1842.5V164.504H1920V163.504H1842.5V82.504H1920V81.504H1842.5V27H1841.5V81.504H1762.5V15H1761.5V81.504H1682.5V15H1681.5V81.504H1602.5V15H1601.5V81.504H1521.5V14H1520.5V81.504H1441.5V14H1440.5V81.504H1361.5V14H1360.5V81.504H1281.5V14H1280.5V81.504H1201.5V14H1200.5V81.504H1121.5V14H1120.5V81.504H1041.5V14H1040.5V81.504H961.5V14H960.5V81.504L881.5 81.5042V14H880.5V81.5042H801.5V14H800.5V81.5042H721.5V14H720.5V81.5042H641.5V14H640.5V81.5042H561.5V14H560.5V81.5042H481.5V14H480.5V81.5042H401.5V14H400.5V81.5042H321.5V14H320.5V81.5042H241.5V14H240.5V81.5042H161.5V14H160.5V81.5042H81.5V14H80.5V81.5042H1.5V14H0.5V81.5042H0V82.5042H0.5V163.504H0V164.504H0.5V245.504H0V246.504H0.5V328.504H0V329.504H0.5V410.504H0V411.504H0.5V492.504H0V493.504H0.5V574.504H0V575.504H0.5V656.504H0V657.504H0.5V738.504H0V739.504H0.5V820.504H0V821.504H0.5V902.504H0V903.504H0.5V984.5H0V985.5H0.5V1066.5H0V1067.5H0.5V1148.5H0V1149.5H0.5V1187H1.5V1149.5L80.5 1149.5V1187H81.5V1149.5H160.5V1187H161.5V1149.5L240.5 1149.5V1187H241.5V1149.5L320.5 1149.5V1187H321.5V1149.5L400.5 1149.5V1187H401.5V1149.5H480.5V1187H481.5V1149.5L560.5 1149.5V1187H561.5V1149.5L640.5 1149.5V1187H641.5V1149.5H720.5V1187H721.5V1149.5L800.5 1149.5V1187H801.5V1149.5L880.5 1149.5V1187H881.5V1149.5L960.5 1149.5V1187H961.5V1149.5H1040.5V1187H1041.5V1149.5L1120.5 1149.5V1187H1121.5V1149.5L1200.5 1149.5V1187H1201.5V1149.5H1280.5V1187H1281.5V1149.5L1360.5 1149.5V1187H1361.5V1149.5L1440.5 1149.5V1187H1441.5V1149.5H1520.5V1187H1521.5V1149.5L1601.5 1149.5V1188H1602.5V1149.5L1681.5 1149.5V1188H1682.5V1149.5L1761.5 1149.5V1188H1762.5V1149.5H1841.5ZM1841.5 163.504V82.504H1762.5V163.504H1841.5ZM1761.5 163.504V82.504H1682.5V163.504H1761.5ZM1681.5 163.504V82.504H1602.5V163.504H1681.5ZM1601.5 163.504V82.504H1521.5V163.504H1601.5ZM1520.5 163.504V82.504H1441.5V163.504H1520.5ZM1440.5 163.504V82.504H1361.5V163.504H1440.5ZM1360.5 163.504V82.504H1281.5V163.504H1360.5ZM1280.5 163.504V82.504H1201.5V163.504H1280.5ZM1200.5 163.504V82.504H1121.5V163.504H1200.5ZM1120.5 163.504V82.504H1041.5V163.504H1120.5ZM1040.5 163.504V82.504H961.5V163.504H1040.5ZM960.5 163.504V82.504L881.5 82.5042V163.504L960.5 163.504ZM880.5 163.504V82.5042H801.5V163.504H880.5ZM800.5 163.504V82.5042H721.5V163.504H800.5ZM720.5 163.504V82.5042H641.5V163.504H720.5ZM640.5 163.504V82.5042H561.5V163.504H640.5ZM560.5 163.504V82.5042H481.5V163.504H560.5ZM480.5 163.504V82.5042H401.5V163.504H480.5ZM400.5 163.504V82.5042H321.5V163.504H400.5ZM320.5 163.504V82.5042H241.5V163.504H320.5ZM240.5 163.504V82.5042H161.5V163.504H240.5ZM160.5 163.504V82.5042H81.5V163.504H160.5ZM80.5 163.504V82.5042H1.5V163.504H80.5ZM1.5 164.504H80.5V245.504H1.5V164.504ZM81.5 164.504H160.5V245.504H81.5V164.504ZM161.5 164.504H240.5V245.504H161.5V164.504ZM241.5 164.504H320.5V245.504H241.5V164.504ZM321.5 164.504H400.5V245.504H321.5V164.504ZM401.5 164.504H480.5V245.504H401.5V164.504ZM481.5 164.504H560.5V245.504H481.5V164.504ZM561.5 164.504H640.5V245.504H561.5V164.504ZM641.5 164.504H720.5V245.504H641.5V164.504ZM721.5 164.504H800.5V245.504H721.5V164.504ZM801.5 164.504H880.5V245.504H801.5V164.504ZM881.5 164.504L960.5 164.504V245.504L881.5 245.504V164.504ZM961.5 164.504H1040.5V245.504H961.5V164.504ZM1041.5 164.504H1120.5V245.504H1041.5V164.504ZM1121.5 164.504H1200.5V245.504H1121.5V164.504ZM1201.5 164.504H1280.5V245.504H1201.5V164.504ZM1281.5 164.504H1360.5V245.504H1281.5V164.504ZM1361.5 164.504H1440.5V245.504H1361.5V164.504ZM1441.5 164.504H1520.5V245.504H1441.5V164.504ZM1521.5 164.504H1601.5V245.504H1521.5V164.504ZM1602.5 164.504H1681.5V245.504H1602.5V164.504ZM1682.5 164.504H1761.5V245.504H1682.5V164.504ZM1762.5 164.504H1841.5V245.504H1762.5V164.504ZM1841.5 328.504V246.504H1762.5V328.504H1841.5ZM1761.5 328.504V246.504H1682.5V328.504H1761.5ZM1681.5 328.504V246.504H1602.5V328.504H1681.5ZM1601.5 328.504V246.504H1521.5V328.504H1601.5ZM1520.5 328.504V246.504H1441.5V328.504H1520.5ZM1440.5 328.504V246.504H1361.5V328.504H1440.5ZM1360.5 328.504V246.504H1281.5V328.504H1360.5ZM1280.5 328.504V246.504H1201.5V328.504H1280.5ZM1200.5 328.504V246.504H1121.5V328.504H1200.5ZM1120.5 328.504V246.504H1041.5V328.504H1120.5ZM1040.5 328.504V246.504H961.5V328.504H1040.5ZM960.5 328.504V246.504L881.5 246.504V328.504L960.5 328.504ZM880.5 328.504V246.504H801.5V328.504H880.5ZM800.5 328.504V246.504H721.5V328.504H800.5ZM720.5 328.504V246.504H641.5V328.504H720.5ZM640.5 328.504V246.504H561.5V328.504H640.5ZM560.5 328.504V246.504H481.5V328.504H560.5ZM480.5 328.504V246.504H401.5V328.504H480.5ZM400.5 328.504V246.504H321.5V328.504H400.5ZM320.5 328.504V246.504H241.5V328.504H320.5ZM240.5 328.504V246.504H161.5V328.504H240.5ZM160.5 328.504V246.504H81.5V328.504H160.5ZM80.5 328.504V246.504H1.5V328.504H80.5ZM1.5 329.504H80.5V410.504H1.5V329.504ZM81.5 329.504H160.5V410.504H81.5V329.504ZM161.5 329.504H240.5V410.504H161.5V329.504ZM241.5 329.504H320.5V410.504H241.5V329.504ZM321.5 329.504H400.5V410.504H321.5V329.504ZM401.5 329.504H480.5V410.504H401.5V329.504ZM481.5 329.504H560.5V410.504H481.5V329.504ZM561.5 329.504H640.5V410.504H561.5V329.504ZM641.5 329.504H720.5V410.504H641.5V329.504ZM721.5 329.504H800.5V410.504H721.5V329.504ZM801.5 329.504H880.5V410.504H801.5V329.504ZM881.5 329.504L960.5 329.504V410.504L881.5 410.504V329.504ZM961.5 329.504H1040.5V410.504H961.5V329.504ZM1041.5 329.504H1120.5V410.504H1041.5V329.504ZM1121.5 329.504H1200.5V410.504H1121.5V329.504ZM1201.5 329.504H1280.5V410.504H1201.5V329.504ZM1281.5 329.504H1360.5V410.504H1281.5V329.504ZM1361.5 329.504H1440.5V410.504H1361.5V329.504ZM1441.5 329.504H1520.5V410.504H1441.5V329.504ZM1521.5 329.504H1601.5V410.504H1521.5V329.504ZM1602.5 329.504H1681.5V410.504H1602.5V329.504ZM1682.5 329.504H1761.5V410.504H1682.5V329.504ZM1762.5 329.504H1841.5V410.504H1762.5V329.504ZM1841.5 492.504V411.504H1762.5V492.504H1841.5ZM1761.5 492.504V411.504H1682.5V492.504H1761.5ZM1681.5 492.504V411.504H1602.5V492.504H1681.5ZM1601.5 492.504V411.504H1521.5V492.504H1601.5ZM1520.5 492.504V411.504H1441.5V492.504H1520.5ZM1440.5 492.504V411.504H1361.5V492.504H1440.5ZM1360.5 492.504V411.504H1281.5V492.504H1360.5ZM1280.5 492.504V411.504H1201.5V492.504H1280.5ZM1200.5 492.504V411.504H1121.5V492.504H1200.5ZM1120.5 492.504V411.504H1041.5V492.504H1120.5ZM1040.5 492.504V411.504H961.5V492.504H1040.5ZM960.5 492.504V411.504L881.5 411.504V492.504L960.5 492.504ZM880.5 492.504V411.504H801.5V492.504H880.5ZM800.5 492.504V411.504H721.5V492.504H800.5ZM720.5 492.504V411.504H641.5V492.504H720.5ZM640.5 492.504V411.504H561.5V492.504H640.5ZM560.5 492.504V411.504H481.5V492.504H560.5ZM480.5 492.504V411.504H401.5V492.504H480.5ZM400.5 492.504V411.504H321.5V492.504H400.5ZM320.5 492.504V411.504H241.5V492.504H320.5ZM240.5 492.504V411.504H161.5V492.504H240.5ZM160.5 492.504V411.504H81.5V492.504H160.5ZM80.5 492.504V411.504H1.5V492.504H80.5ZM1.5 493.504H80.5V574.504H1.5V493.504ZM81.5 493.504H160.5V574.504H81.5V493.504ZM161.5 493.504H240.5V574.504H161.5V493.504ZM241.5 493.504H320.5V574.504H241.5V493.504ZM321.5 493.504H400.5V574.504H321.5V493.504ZM401.5 493.504H480.5V574.504H401.5V493.504ZM481.5 493.504H560.5V574.504H481.5V493.504ZM561.5 493.504H640.5V574.504H561.5V493.504ZM641.5 493.504H720.5V574.504H641.5V493.504ZM721.5 493.504H800.5V574.504H721.5V493.504ZM801.5 493.504H880.5V574.504H801.5V493.504ZM881.5 493.504L960.5 493.504V574.504L881.5 574.504V493.504ZM961.5 493.504H1040.5V574.504H961.5V493.504ZM1041.5 493.504H1120.5V574.504H1041.5V493.504ZM1121.5 493.504H1200.5V574.504H1121.5V493.504ZM1201.5 493.504H1280.5V574.504H1201.5V493.504ZM1281.5 493.504H1360.5V574.504H1281.5V493.504ZM1361.5 493.504H1440.5V574.504H1361.5V493.504ZM1441.5 493.504H1520.5V574.504H1441.5V493.504ZM1521.5 493.504H1601.5V574.504H1521.5V493.504ZM1602.5 493.504H1681.5V574.504H1602.5V493.504ZM1682.5 493.504H1761.5V574.504H1682.5V493.504ZM1762.5 493.504H1841.5V574.504H1762.5V493.504ZM1841.5 656.504V575.504H1762.5V656.504H1841.5ZM1761.5 656.504V575.504H1682.5V656.504H1761.5ZM1681.5 656.504V575.504H1602.5V656.504H1681.5ZM1601.5 656.504V575.504H1521.5V656.504H1601.5ZM1520.5 656.504V575.504H1441.5V656.504H1520.5ZM1440.5 656.504V575.504H1361.5V656.504H1440.5ZM1360.5 656.504V575.504H1281.5V656.504H1360.5ZM1280.5 656.504V575.504H1201.5V656.504H1280.5ZM1200.5 656.504V575.504H1121.5V656.504H1200.5ZM1120.5 656.504V575.504H1041.5V656.504H1120.5ZM1040.5 656.504V575.504H961.5V656.504H1040.5ZM960.5 656.504V575.504L881.5 575.504V656.504L960.5 656.504ZM880.5 656.504V575.504H801.5V656.504H880.5ZM800.5 656.504V575.504H721.5V656.504H800.5ZM720.5 656.504V575.504H641.5V656.504H720.5ZM640.5 656.504V575.504H561.5V656.504H640.5ZM560.5 656.504V575.504H481.5V656.504H560.5ZM480.5 656.504V575.504H401.5V656.504H480.5ZM400.5 656.504V575.504H321.5V656.504H400.5ZM320.5 656.504V575.504H241.5V656.504H320.5ZM240.5 656.504V575.504H161.5V656.504H240.5ZM160.5 656.504V575.504H81.5V656.504H160.5ZM80.5 656.504V575.504H1.5V656.504H80.5ZM1.5 657.504H80.5V738.504H1.5V657.504ZM81.5 657.504H160.5V738.504H81.5V657.504ZM161.5 657.504H240.5V738.504H161.5V657.504ZM241.5 657.504H320.5V738.504H241.5V657.504ZM321.5 657.504H400.5V738.504H321.5V657.504ZM401.5 657.504H480.5V738.504L401.5 738.504V657.504ZM481.5 657.504H560.5V738.504H481.5V657.504ZM561.5 657.504H640.5V738.504H561.5V657.504ZM641.5 657.504H720.5V738.504H641.5V657.504ZM721.5 657.504H800.5V738.504H721.5V657.504ZM801.5 657.504H880.5V738.504H801.5V657.504ZM881.5 657.504L960.5 657.504V738.504H881.5V657.504ZM961.5 657.504H1040.5V738.504H961.5V657.504ZM1041.5 657.504H1120.5V738.504H1041.5V657.504ZM1121.5 657.504H1200.5V738.504H1121.5V657.504ZM1201.5 657.504H1280.5V738.504H1201.5V657.504ZM1281.5 657.504H1360.5V738.504H1281.5V657.504ZM1361.5 657.504H1440.5V738.504L1361.5 738.504V657.504ZM1441.5 657.504H1520.5V738.504H1441.5V657.504ZM1521.5 657.504H1601.5V738.504H1521.5V657.504ZM1602.5 657.504H1681.5V738.504H1602.5V657.504ZM1682.5 657.504H1761.5V738.504H1682.5V657.504ZM1762.5 657.504H1841.5V738.504H1762.5V657.504ZM1841.5 820.504V739.504H1762.5V820.504H1841.5ZM1761.5 820.504V739.504H1682.5V820.504H1761.5ZM1681.5 820.504V739.504H1602.5V820.504H1681.5ZM1601.5 820.504V739.504H1521.5V820.504H1601.5ZM1520.5 820.504V739.504H1441.5V820.504H1520.5ZM1440.5 820.504V739.504L1361.5 739.504V820.504L1440.5 820.504ZM1360.5 820.504V739.504H1281.5V820.504H1360.5ZM1280.5 820.504V739.504H1201.5V820.504H1280.5ZM1200.5 820.504V739.504H1121.5V820.504H1200.5ZM1120.5 820.504V739.504H1041.5V820.504H1120.5ZM1040.5 820.504V739.504H961.5V820.504H1040.5ZM960.5 820.504V739.504H881.5V820.504H960.5ZM880.5 820.504V739.504H801.5V820.504H880.5ZM800.5 820.504V739.504H721.5V820.504H800.5ZM720.5 820.504V739.504H641.5V820.504H720.5ZM640.5 820.504V739.504H561.5V820.504H640.5ZM560.5 820.504V739.504H481.5V820.504H560.5ZM480.5 820.504V739.504L401.5 739.504V820.504L480.5 820.504ZM400.5 820.504V739.504H321.5V820.504H400.5ZM320.5 820.504V739.504H241.5V820.504H320.5ZM240.5 820.504V739.504H161.5V820.504H240.5ZM160.5 820.504V739.504H81.5V820.504H160.5ZM80.5 820.504V739.504H1.5V820.504H80.5ZM1.5 821.504H80.5V902.504H1.5V821.504ZM81.5 821.504H160.5V902.504H81.5V821.504ZM161.5 821.504H240.5V902.504H161.5V821.504ZM241.5 821.504H320.5V902.504H241.5V821.504ZM321.5 821.504H400.5V902.504H321.5V821.504ZM401.5 821.504L480.5 821.504V902.504L401.5 902.504V821.504ZM481.5 821.504H560.5V902.504H481.5V821.504ZM561.5 821.504H640.5V902.504H561.5V821.504ZM641.5 821.504H720.5V902.504H641.5V821.504ZM721.5 821.504H800.5V902.504H721.5V821.504ZM801.5 821.504H880.5V902.504H801.5V821.504ZM881.5 821.504H960.5V902.504H881.5V821.504ZM961.5 821.504H1040.5V902.504H961.5V821.504ZM1041.5 821.504H1120.5V902.504H1041.5V821.504ZM1121.5 821.504H1200.5V902.504H1121.5V821.504ZM1201.5 821.504H1280.5V902.504H1201.5V821.504ZM1281.5 821.504H1360.5V902.504H1281.5V821.504ZM1361.5 821.504L1440.5 821.504V902.504L1361.5 902.504V821.504ZM1441.5 821.504H1520.5V902.504H1441.5V821.504ZM1521.5 821.504H1601.5V902.504H1521.5V821.504ZM1602.5 821.504H1681.5V902.504H1602.5V821.504ZM1682.5 821.504H1761.5V902.504H1682.5V821.504ZM1762.5 821.504H1841.5V902.504H1762.5V821.504ZM1841.5 984.5V903.504H1762.5V984.5H1841.5ZM1761.5 984.5V903.504H1682.5V984.5H1761.5ZM1681.5 984.5V903.504H1602.5V984.5L1681.5 984.5ZM1601.5 984.5V903.504H1521.5V984.5H1601.5ZM1520.5 984.5V903.504H1441.5V984.5H1520.5ZM1440.5 984.5V903.504L1361.5 903.504V984.5H1440.5ZM1360.5 984.5V903.504H1281.5V984.5H1360.5ZM1280.5 984.5V903.504H1201.5V984.5H1280.5ZM1200.5 984.5V903.504H1121.5V984.5L1200.5 984.5ZM1120.5 984.5V903.504H1041.5V984.5H1120.5ZM1040.5 984.5V903.504H961.5V984.5H1040.5ZM960.5 984.5V903.504H881.5V984.5H960.5ZM880.5 984.5V903.504H801.5V984.5H880.5ZM800.5 984.5V903.504H721.5V984.5H800.5ZM720.5 984.5V903.504H641.5V984.5L720.5 984.5ZM640.5 984.5V903.504H561.5V984.5H640.5ZM560.5 984.5V903.504H481.5V984.5H560.5ZM480.5 984.5V903.504L401.5 903.504V984.5H480.5ZM400.5 984.5V903.504H321.5V984.5H400.5ZM320.5 984.5V903.504H241.5V984.5H320.5ZM240.5 984.5V903.504H161.5V984.5L240.5 984.5ZM160.5 984.5V903.504H81.5V984.5H160.5ZM80.5 984.5V903.504H1.5V984.5H80.5ZM1.5 985.5H80.5V1066.5H1.5V985.5ZM81.5 985.5H160.5V1066.5H81.5V985.5ZM161.5 985.5L240.5 985.5V1066.5L161.5 1066.5V985.5ZM241.5 985.5H320.5V1066.5H241.5V985.5ZM321.5 985.5H400.5V1066.5H321.5V985.5ZM401.5 985.5H480.5V1066.5H401.5V985.5ZM481.5 985.5H560.5V1066.5H481.5V985.5ZM561.5 985.5H640.5V1066.5H561.5V985.5ZM641.5 985.5L720.5 985.5V1066.5L641.5 1066.5V985.5ZM721.5 985.5H800.5V1066.5H721.5V985.5ZM801.5 985.5H880.5V1066.5H801.5V985.5ZM881.5 985.5H960.5V1066.5H881.5V985.5ZM961.5 985.5H1040.5V1066.5H961.5V985.5ZM1041.5 985.5H1120.5V1066.5H1041.5V985.5ZM1121.5 985.5L1200.5 985.5V1066.5L1121.5 1066.5V985.5ZM1201.5 985.5H1280.5V1066.5H1201.5V985.5ZM1281.5 985.5H1360.5V1066.5H1281.5V985.5ZM1361.5 985.5H1440.5V1066.5H1361.5V985.5ZM1441.5 985.5H1520.5V1066.5H1441.5V985.5ZM1521.5 985.5H1601.5V1066.5H1521.5V985.5ZM1602.5 985.5L1681.5 985.5V1066.5L1602.5 1066.5V985.5ZM1682.5 985.5H1761.5V1066.5H1682.5V985.5ZM1762.5 985.5H1841.5V1066.5H1762.5V985.5ZM1841.5 1148.5V1067.5H1762.5V1148.5H1841.5ZM1761.5 1148.5V1067.5H1682.5V1148.5L1761.5 1148.5ZM1681.5 1148.5V1067.5L1602.5 1067.5V1148.5L1681.5 1148.5ZM1601.5 1148.5V1067.5H1521.5V1148.5L1601.5 1148.5ZM1520.5 1148.5V1067.5H1441.5V1148.5H1520.5ZM1440.5 1148.5V1067.5H1361.5V1148.5L1440.5 1148.5ZM1360.5 1148.5V1067.5H1281.5V1148.5L1360.5 1148.5ZM1280.5 1148.5V1067.5H1201.5V1148.5H1280.5ZM1200.5 1148.5V1067.5L1121.5 1067.5V1148.5L1200.5 1148.5ZM1120.5 1148.5V1067.5H1041.5V1148.5L1120.5 1148.5ZM1040.5 1148.5V1067.5H961.5V1148.5H1040.5ZM960.5 1148.5V1067.5H881.5V1148.5L960.5 1148.5ZM880.5 1148.5V1067.5H801.5V1148.5L880.5 1148.5ZM800.5 1148.5V1067.5H721.5V1148.5L800.5 1148.5ZM720.5 1148.5V1067.5L641.5 1067.5V1148.5H720.5ZM640.5 1148.5V1067.5H561.5V1148.5L640.5 1148.5ZM560.5 1148.5V1067.5H481.5V1148.5L560.5 1148.5ZM480.5 1148.5V1067.5H401.5V1148.5H480.5ZM400.5 1148.5V1067.5H321.5V1148.5L400.5 1148.5ZM320.5 1148.5V1067.5H241.5V1148.5L320.5 1148.5ZM240.5 1148.5V1067.5L161.5 1067.5V1148.5L240.5 1148.5ZM160.5 1148.5V1067.5H81.5V1148.5H160.5ZM80.5 1148.5V1067.5H1.5V1148.5L80.5 1148.5ZM1920 0.504028L0 0.50415V-0.49585L1920 -0.495972V0.504028Z" fill="url(#paint0_linear_1376_84353)"/>
<path style="mix-blend-mode:screen" d="M3697.98 -411.443C3697.98 -1227.45 3036.46 -1889 2220.49 -1889C1404.33 -1889 743 -1227.45 743 -411.443C743 404.563 1404.33 1066.11 2220.49 1066.11C3036.46 1066.11 3697.98 404.563 3697.98 -411.443Z" fill="url(#paint1_radial_1376_84353)"/>
<path style="mix-blend-mode:screen" d="M1292.98 1279.56C1292.98 463.551 631.456 -198 -184.512 -198C-1000.48 -198 -1662 463.551 -1662 1279.56C-1662 2095.75 -1000.48 2757.11 -184.512 2757.11C631.456 2757.11 1292.98 2095.75 1292.98 1279.56Z" fill="url(#paint2_radial_1376_84353)"/>
</g>
<defs>
<linearGradient id="paint0_linear_1376_84353" x1="1117" y1="842.5" x2="1136" y2="1340" gradientUnits="userSpaceOnUse">
<stop stop-color="#0D111C"/>
<stop offset="1" stop-color="#0D111C" stop-opacity="0"/>
</linearGradient>
<radialGradient id="paint1_radial_1376_84353" cx="0" cy="0" r="1" gradientUnits="userSpaceOnUse" gradientTransform="translate(2220.4 -411.499) scale(1477.49 1477.56)">
<stop stop-color="#274498"/>
<stop offset="1" stop-color="#0F1D40" stop-opacity="0"/>
</radialGradient>
<radialGradient id="paint2_radial_1376_84353" cx="0" cy="0" r="1" gradientUnits="userSpaceOnUse" gradientTransform="translate(-889.567 1217.64) scale(1477.49 1477.56)">
<stop stop-color="#274498"/>
<stop offset="1" stop-color="#0F1D40" stop-opacity="0"/>
</radialGradient>
<clipPath id="clip0_1376_84353">
<rect width="1920" height="1200" fill="white"/>
</clipPath>
</defs>
</svg>
