<svg width="629" height="338" viewBox="0 0 629 338" fill="none" xmlns="http://www.w3.org/2000/svg">
<path d="M0 242.594H9.90002V320.594H0V242.594Z" fill="white"/>
<path d="M21.9031 264H29.2031L31.7031 270.4C37.8031 266.7 43.2031 263 51.9031 263C63.8031 263 69.3031 271.8 69.3031 281.6V320.5H59.4031V281.5C59.4031 274.9 55.7031 272 50.7031 272C42.8031 272 38.9031 274 31.6031 277.8V320.6H21.7031V264H21.9031Z" fill="white"/>
<path d="M76.3031 265.797L86.4031 263.997V258.697C86.4031 246.097 94.8031 236.897 108.103 236.797C113.403 236.797 124.603 238.597 129.703 240.297V246.497C129.603 246.497 110.903 245.497 110.903 245.497C104.303 245.097 96.3031 247.697 96.3031 258.897V263.997L134.603 265.097V320.597H124.603V272.897H96.2031V320.597H86.3031V272.897H76.2031V265.797H76.3031Z" fill="white"/>
<path d="M146.098 264H153.398L155.898 270.4C161.998 266.7 167.398 263 176.098 263C187.998 263 193.498 271.8 193.498 281.6V320.5H183.598V281.5C183.598 274.9 179.898 272 174.898 272C166.998 272 163.098 274 155.798 277.8V320.6H145.898V264H146.098Z" fill="white"/>
<path d="M203.602 248.294C203.602 246.694 204.502 245.594 206.202 245.594H213.202C214.802 245.594 215.702 246.794 215.702 248.294V255.094C215.702 256.694 214.702 257.494 213.202 257.494H206.202C204.702 257.494 203.602 256.494 203.602 255.094V248.294ZM204.502 263.994H214.402V320.594H204.502V263.994Z" fill="white"/>
<path d="M222.602 266.094L232.802 263.894L234.902 248.094H242.702V263.894H258.302V272.694H242.702V299.594C242.702 308.594 245.002 310.594 248.502 311.594C248.502 311.594 256.702 313.794 257.402 313.794V320.394H247.002C238.702 320.394 232.902 315.294 232.902 300.194V272.594H222.702L222.602 266.094Z" fill="white"/>
<path d="M290.5 320.5L285 337.2H295.9L319.2 264H308.5L293.5 311.1C293.3 311.1 288.5 312.6 286.8 306.9L274.1 264H263.5L276.7 308.1C279.9 319.3 286.7 320.5 290.5 320.5Z" fill="white"/>
<path d="M336.497 242.594L357.897 305.094L375.897 242.594H386.797L379.997 266.194L393.797 305.594L412.297 242.594H422.997L399.197 320.594H388.697L375.097 282.894L363.097 320.594H352.597L325.797 242.594H336.497Z" fill="white"/>
<path d="M421.898 300.7C421.898 292.3 426.998 286.2 436.798 286.2C436.798 286.2 458.698 286.3 458.698 286.2C458.698 286.2 458.798 280.1 458.698 280C458.698 273.6 455.398 271.7 450.198 271.7C443.198 271.7 432.498 272.3 423.698 273V266.3C431.298 264 440.398 263 450.998 262.9C460.798 262.8 468.598 267.4 468.598 279.8V320.5H461.098L458.798 313.8C458.498 314.1 446.198 321.1 436.798 321.1C428.098 321 421.998 315.4 421.998 306.8V300.7H421.898ZM437.798 312.2C445.798 312.2 458.698 307.1 458.698 307.1V293.2L437.598 294.7C433.198 295.1 431.698 298.2 431.698 301.3V305.9C431.798 310.9 434.398 312.2 437.798 312.2Z" fill="white"/>
<path d="M479.602 237.094H489.502V299.694C489.502 308.694 491.802 310.694 495.302 311.594C495.302 311.594 503.502 313.794 504.202 313.794V320.394H494.002C485.402 320.394 479.702 315.294 479.702 300.294V237.094H479.602Z" fill="white"/>
<path d="M512.102 237.094H522.002V299.694C522.002 308.694 524.302 310.694 527.802 311.594C527.802 311.594 536.002 313.794 536.702 313.794V320.394H526.502C517.902 320.394 512.202 315.294 512.202 300.294V237.094H512.102Z" fill="white"/>
<path d="M564.197 263.594C578.397 263.594 586.597 264.994 586.597 283.794C586.597 292.494 581.897 297.094 571.597 297.094H549.197C549.197 309.594 552.097 312.094 560.397 312.094C569.897 312.094 577.597 312.194 585.597 310.994V318.094C577.097 320.694 566.997 321.094 558.097 321.094C543.597 321.094 539.297 313.794 539.297 291.994C539.297 266.994 546.497 263.594 564.197 263.594ZM570.597 288.494C574.897 288.494 576.797 286.794 576.797 283.594C576.797 273.494 574.997 272.494 564.597 272.494C553.597 272.494 549.197 272.694 549.297 288.594L570.597 288.494Z" fill="white"/>
<path d="M592.703 266.094L602.903 263.894L605.003 248.094H612.803V263.894H628.403V272.694H612.803V299.594C612.803 308.594 615.103 310.594 618.603 311.594C618.603 311.594 626.803 313.794 627.503 313.794V320.394H617.103C608.803 320.394 603.003 315.294 603.003 300.194V272.594H592.803V266.094H592.703Z" fill="white"/>
<path d="M328.9 46.8C328.5 45.7 327.6 45.4 327.2 45.3C326.8 45.2 325.7 45 324.7 46L319.6 51.1L318.8 51.9L278.1 11.5C270.7 4.1 260.8 0 250.2 0C239.7 0 229.8 4.1 222.4 11.5L164.5 69.5C157 77 153 86.9 153 97.4C153 108 157 117.9 164.5 125.4L222.5 183.1C229.9 190.5 239.8 194.6 250.3 194.6C260.8 194.6 270.7 190.5 278.1 183.1C278.1 183.1 291.2 170 291.3 169.9C293 168.2 295.1 165.8 296.2 162.7C297.1 160.2 297.4 157.6 297 155C296.7 152.4 295.7 149.9 294.2 147.7C293.6 146.9 293 146.1 292.2 145.4C285.8 139.1 275.4 139.1 269 145.5L254.8 159.7C253.9 160.6 252.9 161.2 251.7 161.4C250.3 161.7 249.5 161.6 248.3 161.2C247.2 160.8 246.2 160.1 245.3 159.3L187.7 101.7C186.8 100.8 186.2 99.7 186 98.5C185.7 96.9 186 95.3 186.8 94L187.1 93.7C187.8 93 245.2 35.7 245.7 35.2C246.6 34.3 247.8 33.7 249 33.4C249.4 33.3 249.8 33.3 250.2 33.3C251.9 33.3 253.5 34 254.7 35.2L295.3 75.5L293.3 77.5L289.3 81.5C288.4 82.4 288.5 83.5 288.6 84C288.7 84.4 289.1 85.3 290.1 85.7L326.7 90.2C328.2 90.2 329.7 89.6 330.7 88.5C331.8 87.4 332.4 86 332.4 84.4L328.9 46.8Z" fill="url(#paint0_linear_502_53047)"/>
<path opacity="0.49" d="M187.397 101.3C185.697 99.5 185.497 96.2 186.897 94C186.897 94 167.797 114.8 176.997 137.8L189.097 149.8L206.697 120.6L187.397 101.3Z" fill="url(#paint1_linear_502_53047)"/>
<path opacity="0.49" d="M246.703 160.603C268.203 180.403 291.803 169.403 291.803 169.403C291.803 169.403 294.903 166.503 296.203 162.803C293.003 161.203 269.903 144.703 269.903 144.703L256.303 158.303C251.403 164.103 246.703 160.603 246.703 160.603Z" fill="url(#paint2_linear_502_53047)"/>
<path opacity="0.49" d="M232.598 48.3991C232.598 48.3991 246.398 34.4991 246.398 34.5991C246.398 34.5991 250.098 31.6991 253.898 34.3991C253.898 34.3991 230.998 15.5991 206.598 27.3991L199.398 34.5991L232.598 48.3991Z" fill="url(#paint3_linear_502_53047)"/>
<path d="M299.5 147.8C299.9 148.9 300.8 149.2 301.2 149.3C301.6 149.4 302.7 149.6 303.7 148.6L308.8 143.5L309.6 142.7L350.3 183.1C357.7 190.5 367.6 194.6 378.2 194.6C388.7 194.6 398.6 190.5 406 183.1L463.9 125.1C471.4 117.6 475.4 107.7 475.4 97.2C475.4 86.6 471.4 76.7 463.9 69.2L405.9 11.5C398.5 4.1 388.6 0 378.1 0C367.6 0 357.7 4.1 350.3 11.5C350.3 11.5 337.2 24.6 337.1 24.7C335.4 26.4 333.3 28.8 332.2 31.9C331.3 34.4 331 37 331.4 39.6C331.7 42.2 332.7 44.7 334.2 46.9C334.8 47.7 335.4 48.5 336.2 49.2C342.6 55.5 353 55.5 359.4 49.1L373.6 34.9C374.5 34 375.5 33.4 376.7 33.2C378.1 32.9 378.9 33 380.1 33.4C381.2 33.8 382.2 34.5 383.1 35.3L440.7 92.9C441.6 93.8 442.2 94.9 442.4 96.1C442.7 97.7 442.4 99.3 441.6 100.6L441.3 100.9C440.6 101.6 383.2 158.9 382.7 159.4C381.8 160.3 380.6 160.9 379.4 161.2C379 161.3 378.6 161.3 378.2 161.3C376.5 161.3 374.9 160.6 373.7 159.4L333.1 119.1L335.1 117.1L339.1 113.1C340 112.2 339.9 111.1 339.8 110.6C339.7 110.2 339.3 109.3 338.3 108.9L301.7 104.4C300.2 104.4 298.7 105 297.7 106.1C296.6 107.2 296 108.6 296 110.2L299.5 147.8Z" fill="url(#paint4_linear_502_53047)"/>
<path opacity="0.49" d="M441.003 93.2969C442.703 95.0969 442.903 98.3969 441.503 100.597C441.503 100.597 460.603 79.7969 451.403 56.7969L439.303 44.7969L421.703 73.9969L441.003 93.2969Z" fill="url(#paint5_linear_502_53047)"/>
<path opacity="0.49" d="M381.703 34.0033C360.203 14.2034 336.603 25.2033 336.603 25.2033C336.603 25.2033 333.503 28.1033 332.203 31.8033C335.403 33.4033 358.503 49.9033 358.503 49.9033L372.203 36.3033C377.003 30.4033 381.703 34.0033 381.703 34.0033Z" fill="url(#paint6_linear_502_53047)"/>
<path opacity="0.49" d="M395.8 146.203C395.8 146.203 382 160.103 382 160.003C382 160.003 378.3 162.903 374.5 160.203C374.5 160.203 397.4 179.003 421.8 167.203L429 160.003L395.8 146.203Z" fill="url(#paint7_linear_502_53047)"/>
<defs>
<linearGradient id="paint0_linear_502_53047" x1="242.7" y1="-24.8661" x2="242.7" y2="352.037" gradientUnits="userSpaceOnUse">
<stop offset="0.00510204" stop-color="#00BFE1"/>
<stop offset="0.9651" stop-color="#2738AB"/>
</linearGradient>
<linearGradient id="paint1_linear_502_53047" x1="170.288" y1="107.089" x2="194.57" y2="127.397" gradientUnits="userSpaceOnUse">
<stop offset="0.0348857" stop-color="#1B1464"/>
<stop offset="1" stop-color="#1B1464" stop-opacity="0"/>
</linearGradient>
<linearGradient id="paint2_linear_502_53047" x1="264.463" y1="172.081" x2="276.03" y2="155.677" gradientUnits="userSpaceOnUse">
<stop offset="0.0348857" stop-color="#1B1464"/>
<stop offset="1" stop-color="#1B1464" stop-opacity="0"/>
</linearGradient>
<linearGradient id="paint3_linear_502_53047" x1="231.876" y1="21.5672" x2="223.196" y2="43.0406" gradientUnits="userSpaceOnUse">
<stop offset="0.0348857" stop-color="#1B1464"/>
<stop offset="1" stop-color="#1B1464" stop-opacity="0"/>
</linearGradient>
<linearGradient id="paint4_linear_502_53047" x1="385.7" y1="-24.8661" x2="385.7" y2="352.037" gradientUnits="userSpaceOnUse">
<stop offset="0.00510204" stop-color="#00BFE1"/>
<stop offset="0.9651" stop-color="#2738AB"/>
</linearGradient>
<linearGradient id="paint5_linear_502_53047" x1="458.09" y1="87.4897" x2="433.809" y2="67.1816" gradientUnits="userSpaceOnUse">
<stop offset="0.0348857" stop-color="#1B1464"/>
<stop offset="1" stop-color="#1B1464" stop-opacity="0"/>
</linearGradient>
<linearGradient id="paint6_linear_502_53047" x1="363.964" y1="22.4959" x2="352.397" y2="38.8995" gradientUnits="userSpaceOnUse">
<stop offset="0.0348857" stop-color="#1B1464"/>
<stop offset="1" stop-color="#1B1464" stop-opacity="0"/>
</linearGradient>
<linearGradient id="paint7_linear_502_53047" x1="396.538" y1="172.997" x2="405.218" y2="151.523" gradientUnits="userSpaceOnUse">
<stop offset="0.0348857" stop-color="#1B1464"/>
<stop offset="1" stop-color="#1B1464" stop-opacity="0"/>
</linearGradient>
</defs>
</svg>
