<svg width="100%" height="100%" viewBox="0 0 189 229" fill="none" xmlns="http://www.w3.org/2000/svg">
<path d="M146.267 179.156L125.408 166.969L109.621 144.5L130.544 156.623L146.267 179.156Z" fill="#0F141E"/>
<path d="M154.962 104.644L134.039 92.4573L164.852 83L185.711 95.1231L154.962 104.644Z" fill="#0F141E"/>
<path d="M130.547 156.624L109.625 144.5C121.798 129.457 130.801 110.606 134.035 92.4531L154.957 104.64C151.724 122.729 142.721 141.581 130.547 156.624Z" fill="#0F141E"/>
<path d="M154.96 104.638L185.71 95.1172C180.511 124.314 165.929 154.781 146.274 179.155L130.551 156.622C142.724 141.579 151.727 122.728 154.96 104.638Z" fill="#101E33"/>
<path d="M68.6012 182.774L47.7422 170.587C57.0622 176.046 69.9961 175.284 84.2614 167.033C93.4546 161.701 102.141 153.83 109.622 144.5L130.544 156.623C123.063 165.954 114.377 173.824 105.12 179.156C90.8551 187.407 77.9213 188.169 68.6012 182.774Z" fill="#0F141E"/>
<path d="M120.398 45.2891L141.257 57.4757C150.514 62.8074 156.22 74.2324 156.284 90.4178C156.284 95.0513 155.776 99.8117 154.952 104.636L134.03 92.4489C134.854 87.6885 135.361 82.9281 135.361 78.2312C135.298 62.0458 129.592 50.6842 120.398 45.2891Z" fill="#0F141E"/>
<path d="M104.68 24.7881C150.455 -1.67985 187.672 19.5199 187.862 72.1384C187.862 79.6281 187.102 87.3082 185.707 95.1153L154.957 104.636C155.781 99.8122 156.288 95.0519 156.288 90.4184C156.162 57.8571 133.084 44.6549 104.806 61.0307L104.68 24.7881Z" fill="#0F141E"/>
<path d="M142.777 6.81803L163.699 19.0047C148.61 10.182 127.687 11.4515 104.672 24.7806L83.75 12.594C106.828 -0.671718 127.687 -1.94115 142.777 6.81803Z" fill="#0F141E"/>
<path d="M104.799 61.0308L83.8768 48.8442L83.75 12.6016L104.672 24.7882L104.799 61.0308Z" fill="#0F141E"/>
<path d="M46.2272 221.235L25.3681 209.048C10.4688 200.416 1.27557 182.009 1.14876 155.795C1.02196 103.176 37.985 39.0695 83.7608 12.6016L104.683 24.7882C58.9074 51.2561 21.9444 115.3 22.0712 167.982C22.1346 194.132 31.3912 212.539 46.2272 221.235Z" fill="#101E33"/>
<path d="M146.91 91.3641C140.443 88.0001 122.247 80.8913 100.817 93.3318C79.3872 105.709 61.3178 133.764 54.9142 144.49C53.5194 146.839 53.5194 149.378 54.8508 150.203L41.6633 142.523C40.2685 141.634 40.2685 139.095 41.7267 136.81C48.0669 126.02 66.1997 97.9653 87.5659 85.5882C108.996 73.2111 127.255 80.32 133.659 83.6206L146.91 91.3641Z" fill="#0F141E"/>
<path d="M100.812 93.2708C122.242 80.8937 140.438 88.0026 146.841 91.3666C148.3 92.0648 148.3 94.6672 146.905 97.0791C140.501 107.806 122.368 135.861 100.939 148.238C79.5726 160.615 61.3763 153.569 54.9094 150.205C53.5146 149.444 53.5146 146.841 54.9094 144.493C61.3129 133.766 79.3824 105.648 100.812 93.2708Z" fill="#101E33"/>
<path d="M100.875 103.619C109.054 98.9226 115.774 102.731 115.774 112.188C115.774 121.646 109.181 133.134 100.938 137.895C92.7596 142.655 86.0391 138.847 86.0391 129.389C86.0391 119.868 92.6328 108.38 100.875 103.619Z" fill="#0F141E"/>
<path fill-rule="evenodd" clip-rule="evenodd" d="M147.859 97.7145C141.138 109.076 123.069 136.877 101.576 149.318C93.0802 154.205 84.204 156.49 75.7716 156.49C68.2269 156.49 60.9357 154.649 54.4054 151.285C54.2786 151.222 54.0249 151.095 53.6445 150.904C53.6445 150.523 53.6445 150.143 53.6445 149.698C53.6445 147.858 53.6445 145.89 53.8347 144.049C53.8347 143.986 53.8982 143.986 53.8982 143.922C60.6821 132.561 78.6247 104.76 100.181 92.2559C111.023 86.0356 123.259 83.4967 135.559 86.0991L133.086 84.6393C120.089 77.9112 103.668 77.6573 88.1349 86.6069C79.5123 91.5577 71.3335 99.2379 64.3594 107.235C65.6274 104.57 67.0222 101.967 68.4805 99.3649C74.1232 93.5889 80.3999 88.3841 86.9303 84.5758C108.804 71.9448 127.254 78.9902 134.164 82.6081C134.164 82.6081 142.85 87.6859 147.542 90.4152C149.888 91.6847 149.317 95.2391 147.859 97.7145ZM146.337 92.4463C145.703 92.0655 144.943 91.6847 144.118 91.3673C136.32 87.8763 120.153 83.4333 101.386 94.3505C79.6391 106.918 61.0625 136.369 55.927 145.128C54.659 147.159 55.0394 148.937 55.4832 149.191C62.0769 152.555 79.6391 159.219 100.371 147.286C121.357 135.1 139.236 107.68 145.894 96.4451C146.654 95.1757 147.225 92.8271 146.337 92.4463Z" fill="#212534"/>
<path fill-rule="evenodd" clip-rule="evenodd" d="M116.917 112.188C116.98 122.026 110.069 134.022 101.573 138.909C92.4436 144.177 84.8989 139.671 84.8989 129.388C84.8355 119.55 91.7462 107.554 100.242 102.603C109.308 97.3985 116.917 101.778 116.917 112.188ZM114.571 112.188C114.571 103.619 108.865 100.382 101.447 104.634C93.5849 109.204 87.1813 120.312 87.2447 129.388C87.2447 137.894 92.8874 141.194 100.369 136.878C108.231 132.308 114.634 121.264 114.571 112.188Z" fill="#10131C"/>
<path d="M104.675 24.7812L104.738 61.0239C76.3978 77.4632 53.5733 117.197 53.6367 149.695C53.7001 182.383 76.7148 195.585 105.119 179.146C114.375 173.814 123.061 165.944 130.543 156.613L146.266 179.146C134.156 194.125 120.145 206.82 105.245 215.452C59.4063 241.92 22.1896 220.657 22.0628 167.975C21.936 115.293 58.899 51.2492 104.675 24.7812Z" fill="#0F141E"/>
<path fill-rule="evenodd" clip-rule="evenodd" d="M189 72.1277V72.8259C189 79.9983 188.239 87.5515 186.908 95.2951C181.709 124.175 167.253 155.022 147.155 179.904C134.665 195.391 120.4 208.022 105.817 216.464C92.5031 224.144 79.6326 228.016 68.0301 228.016C59.9148 228.016 52.37 226.111 45.7762 222.303L45.7128 222.24C45.7128 222.24 45.7128 222.24 45.6494 222.24L24.727 210.116C8.87663 200.85 0.0638338 181.554 0.000432395 155.784C-0.062969 133.125 6.84779 107.037 19.5281 82.4102C19.8451 81.839 20.5425 81.5851 21.1131 81.9024C21.6837 82.2198 21.9373 82.918 21.6203 83.4892C9.13024 107.799 2.28288 133.505 2.34628 155.784C2.40968 180.665 10.7787 199.263 25.9316 208.022L34.8712 213.227C22.5079 198.882 19.7817 176.793 21.3033 157.942C22.3177 145.502 25.044 133.759 28.8481 122.271C32.8424 110.401 36.266 102.594 42.099 91.6136C59.0271 60.1314 82.0418 37.0275 102.33 24.7774L83.7537 13.9871C67.9667 23.2541 52.6236 37.4084 39.4361 54.9267C39.0557 55.498 38.3583 55.6249 37.7877 55.1806C37.2805 54.7998 37.2171 54.0381 37.5975 53.5304C51.102 35.5677 66.8889 21.0326 83.1831 11.6387C105.881 -1.56356 127.247 -3.53124 143.351 5.79918L164.147 17.8589L164.21 17.9224C164.21 17.9859 164.273 17.9859 164.273 17.9859C164.273 17.9859 164.273 17.9859 164.337 17.9859C180.124 27.2529 188.937 46.4214 189 72.1277ZM104.676 23.4445C124.267 12.2099 138.469 11.1943 151.149 13.035L142.21 7.8938C127.247 -0.865377 107.402 0.84839 86.1629 12.5908L95.9902 18.3667L104.676 23.4445ZM134.031 82.4737C134.116 81.035 134.158 79.6386 134.158 78.2845C134.158 68.8907 132.066 61.0836 128.325 55.1806C121.351 55.0537 113.552 57.2752 105.374 62.0357C77.3501 78.2211 54.7158 117.574 54.7792 149.691C54.8427 159.021 56.7447 166.828 60.3586 172.795C67.3961 172.985 75.3847 170.827 83.6903 166.003C92.3763 160.925 101.062 153.245 108.734 143.724C109.621 142.582 110.446 141.439 111.27 140.233C111.587 140.17 111.904 139.98 112.284 139.853C112.411 139.726 112.601 139.726 112.792 139.662C114.63 138.837 116.025 137.314 117.166 135.727C117.293 135.6 117.293 135.537 117.483 135.346C115.645 138.393 113.616 141.376 111.397 144.169L117.103 147.469L130.227 155.086C142.463 139.662 150.579 121.382 153.622 105.197L146.014 100.754C146.458 100.056 146.838 99.3573 147.218 98.786L154.002 102.721C156.602 86.155 154.763 66.6056 140.625 58.4177C137.772 56.7674 134.602 55.8788 131.241 55.4345C134.602 61.4644 136.504 69.1445 136.504 78.2845C136.567 80.1252 136.504 81.9024 136.313 83.8701C135.045 83.1084 134.158 82.6006 134.158 82.6006C134.158 82.6006 134.094 82.5372 134.031 82.4737ZM144.809 179.078L137.962 169.304L130.481 158.577C122.872 167.78 114.377 175.207 105.754 180.221C91.6155 188.345 78.2378 189.678 68.0935 183.839C58.0761 178.063 52.4968 165.94 52.4334 149.691C52.37 117.066 75.2579 77.142 103.598 60.3853L103.535 26.872C83.0563 39.1856 61.056 61.1471 44.0644 92.8197C39.2459 101.896 34.998 110.973 31.0037 123.286C27.3898 134.394 24.6002 146.009 23.6492 158.133C18.9575 215.448 55.6669 242.741 104.676 214.432C118.751 206.308 132.573 194.058 144.809 179.078ZM116.025 149.5L109.875 146.01C102.267 155.34 93.6443 162.957 84.8315 168.034C76.7795 172.668 69.0446 175.016 61.9436 175.143C64.0358 177.873 66.4451 180.158 69.2982 181.808C78.6182 187.139 91.1717 185.87 104.549 178.126C112.982 173.302 121.287 165.94 128.705 156.927L116.025 149.5ZM184.245 96.8185L156.031 105.514C152.925 121.953 144.492 140.995 132.066 156.673L146.394 177.174C165.288 153.372 178.983 124.302 184.245 96.8185ZM186.718 72.1277C186.654 47.31 178.222 28.7127 163.069 19.9535C145.316 9.67102 123.506 15.447 105.881 25.4756L106.008 58.989C117.293 52.8956 130.671 49.9759 141.829 56.3866C156.919 65.0823 159.201 85.4569 156.475 102.912L184.752 94.2161C186.02 86.5994 186.718 79.1731 186.718 72.1277Z" fill="url(#paint0_linear_354_97563)"/>
<path d="M100.872 114.331C97.829 116.108 95.293 120.425 95.293 123.979C95.3564 127.533 97.829 128.993 100.936 127.216C103.979 125.439 106.515 121.123 106.515 117.568C106.452 113.95 103.979 112.554 100.872 114.331Z" fill="url(#paint1_linear_354_97563)"/>
<path d="M59.6637 136.828C57.7617 139.875 56.1767 142.477 54.9086 144.508C54.7184 144.762 54.5916 145.143 54.4648 145.397C54.5282 145.143 54.7184 144.762 54.9086 144.508C56.0499 142.477 57.6983 139.875 59.6637 136.828Z" fill="#101E33"/>
<path d="M59.6637 136.82C57.7617 139.867 56.1767 142.469 54.9086 144.5C54.7184 144.754 54.5916 145.135 54.4648 145.389C54.5282 145.135 54.7184 144.754 54.9086 144.5C56.0499 142.469 57.6983 139.867 59.6637 136.82Z" fill="#0F141E"/>
<defs>
<linearGradient id="paint0_linear_354_97563" x1="-1.37812" y1="-6.77009" x2="169.343" y2="246.985" gradientUnits="userSpaceOnUse">
<stop stop-color="#0661DB"/>
<stop offset="1" stop-color="#69A7FA"/>
</linearGradient>
<linearGradient id="paint1_linear_354_97563" x1="95.2111" y1="113.134" x2="106.24" y2="128.533" gradientUnits="userSpaceOnUse">
<stop stop-color="#0661DB"/>
<stop offset="1" stop-color="#69A7FA"/>
</linearGradient>
</defs>
</svg>
