<svg width="300" height="300" viewBox="0 0 300 300" fill="none" xmlns="http://www.w3.org/2000/svg">
<circle cx="150" cy="150" r="150" fill="url(#paint0_linear_1721_57569)"/>
<path d="M174.162 61H156.719C155.389 61 154.252 61.7964 153.788 63.0644L97.6002 217.054C97.1982 218.051 98.0023 219.118 99.0616 219.118H116.505C117.835 219.118 118.971 218.322 119.435 217.054L175.623 63.0644C176.025 62.067 175.221 61 174.162 61ZM143.605 61H126.162C124.832 61 123.696 61.7964 123.232 63.0644L67.1054 216.992C66.7034 217.99 67.5075 219.057 68.5668 219.057H86.0101C87.3399 219.057 88.4765 218.26 88.9405 216.992L145.067 63.0644C145.469 62.067 144.734 61 143.605 61ZM166.245 120.652C165.781 119.253 163.778 119.253 163.314 120.652L154.26 145.549C153.997 146.214 153.997 147.01 154.26 147.683L179.559 216.992C180.023 218.191 181.159 219.057 182.489 219.057H199.933C201 219.057 201.796 217.99 201.394 216.992L166.245 120.652ZM231.889 216.992L181.492 78.7758C181.028 77.3763 179.025 77.3763 178.562 78.7758L169.507 103.673C169.245 104.338 169.245 105.134 169.507 105.807L210.054 216.992C210.518 218.191 211.654 219.057 212.984 219.057H230.427C231.556 219.126 232.291 217.99 231.889 216.992Z" fill="white"/>
<defs>
<linearGradient id="paint0_linear_1721_57569" x1="150" y1="0" x2="150" y2="300" gradientUnits="userSpaceOnUse">
<stop stop-color="#28A0F0"/>
<stop offset="1" stop-color="#1B4ADD"/>
</linearGradient>
</defs>
</svg>
