<svg width="300" height="300" viewBox="0 0 300 300" fill="none" xmlns="http://www.w3.org/2000/svg">
<circle cx="150" cy="150" r="150" fill="url(#paint0_linear_1721_57557)"/>
<path d="M99.8456 84.2316L150.5 55L201.154 84.2316L182.531 95.0306L150.5 76.5979L118.469 95.0306L99.8456 84.2316ZM201.154 121.097L182.531 110.298L150.5 128.731L118.469 110.298L99.8456 121.097V142.695L131.877 161.128V197.993L150.5 208.792L169.123 197.993V161.128L201.154 142.695V121.097ZM201.154 179.56V157.962L182.531 168.761V190.359L201.154 179.56ZM214.377 187.194L182.346 205.627V227.224L233 197.993V139.53L214.377 150.329V187.194ZM195.754 102.664L214.377 113.463V135.061L233 124.262V102.664L214.377 91.8654L195.754 102.664ZM131.877 213.447V235.044L150.5 245.843L169.123 235.044V213.447L150.5 224.245L131.877 213.447ZM99.8456 179.56L118.469 190.359V168.761L99.8456 157.962V179.56ZM131.877 102.664L150.5 113.463L169.123 102.664L150.5 91.8654L131.877 102.664ZM86.6229 113.463L105.246 102.664L86.6229 91.8654L68 102.664V124.262L86.6229 135.061V113.463ZM86.6229 150.329L68 139.53V197.993L118.654 227.224V205.627L86.6229 187.194V150.329Z" fill="white"/>
<defs>
<linearGradient id="paint0_linear_1721_57557" x1="150" y1="0" x2="150" y2="300" gradientUnits="userSpaceOnUse">
<stop stop-color="#FDEF02"/>
<stop offset="1" stop-color="#F3BB2E"/>
</linearGradient>
</defs>
</svg>
