<svg width="300" height="300" viewBox="0 0 300 300" fill="none" xmlns="http://www.w3.org/2000/svg">
<circle cx="150" cy="150" r="150" fill="url(#paint0_linear_1721_57587)"/>
<path d="M196.391 119.711C192.68 117.856 188.969 117.856 185.257 119.711L159.278 135.484L141.649 145.69L114.742 160.536C111.031 162.392 107.319 162.392 103.608 160.536L83.1959 148.474C79.4845 146.618 77.6288 142.907 77.6288 138.268V115.072C77.6288 111.361 79.4845 107.649 83.1959 104.866L103.608 92.8041C107.319 90.9483 111.031 90.9483 114.742 92.8041L135.154 104.866C138.866 106.722 140.721 110.433 140.721 115.072V130.845L158.35 120.639V104.866C158.35 101.155 156.494 97.4433 152.783 94.6597L115.67 72.3917C111.959 70.5361 108.247 70.5361 104.536 72.3917L65.567 95.5875C61.8557 97.4433 60 101.155 60 104.866V148.474C60 152.185 61.8557 155.897 65.567 158.68L103.608 180.948C107.319 182.804 111.031 182.804 114.742 180.948L140.721 166.103L158.35 155.897L184.33 141.051C188.041 139.196 191.752 139.196 195.464 141.051L215.876 153.113C219.587 154.969 221.443 158.68 221.443 163.319V186.515C221.443 190.226 219.587 193.938 215.876 196.721L196.391 206.927C192.68 208.783 188.969 208.783 185.257 206.927L164.845 194.866C161.134 193.01 159.278 189.299 159.278 184.66V169.814L141.649 180.02V195.793C141.649 199.505 143.505 203.216 147.216 206L185.257 228.267C188.969 230.123 192.68 230.123 196.391 228.267L234.432 206C238.144 204.144 240 200.433 240 195.793V151.258C240 147.546 238.144 143.835 234.432 141.051L196.391 119.711Z" fill="white"/>
<defs>
<linearGradient id="paint0_linear_1721_57587" x1="150" y1="0" x2="150" y2="300" gradientUnits="userSpaceOnUse">
<stop stop-color="#9E74E7"/>
<stop offset="1" stop-color="#421A89"/>
</linearGradient>
</defs>
</svg>
