<svg width="300" height="300" viewBox="0 0 300 300" fill="none" xmlns="http://www.w3.org/2000/svg">
<circle cx="150" cy="150" r="150" fill="url(#paint0_linear_1721_57611)"/>
<path d="M175.864 150.453V169.072C175.864 173.505 174.091 175.278 169.658 175.278H131.534C127.101 175.278 125.328 173.505 125.328 169.072V130.948C125.328 126.515 127.101 124.742 131.534 124.742H169.658C174.091 124.742 175.864 126.515 175.864 130.948V150.453Z" fill="white"/>
<path d="M125.864 100.211V118.83C125.864 123.263 124.091 125.036 119.658 125.036H81.5343C77.1013 125.036 75.3281 123.263 75.3281 118.83V80.7062C75.3281 76.2732 77.1013 74.5 81.5343 74.5H119.658C124.091 74.5 125.864 76.2732 125.864 80.7062V100.211Z" fill="white"/>
<path d="M225.341 99.7112V118.33C225.341 122.763 223.567 124.536 219.134 124.536H181.011C176.578 124.536 174.805 122.763 174.805 118.33V80.2062C174.805 75.7732 176.578 74 181.011 74H219.134C223.567 74 225.341 75.7732 225.341 80.2062V99.7112Z" fill="white"/>
<path d="M225.005 200.188V218.806C225.005 223.239 223.231 225.012 218.798 225.012H180.675C176.242 225.012 174.469 223.239 174.469 218.806V180.683C174.469 176.25 176.242 174.477 180.675 174.477H218.798C223.231 174.477 225.005 176.25 225.005 180.683V200.188Z" fill="white"/>
<path d="M125.536 200.188V218.806C125.536 223.239 123.763 225.012 119.33 225.012H81.2062C76.7732 225.012 75 223.239 75 218.806V180.683C75 176.25 76.7732 174.477 81.2062 174.477H119.33C123.763 174.477 125.536 176.25 125.536 180.683V200.188Z" fill="white"/>
<defs>
<linearGradient id="paint0_linear_1721_57611" x1="150" y1="0" x2="150" y2="300" gradientUnits="userSpaceOnUse">
<stop stop-color="#3F4E74"/>
<stop offset="1" stop-color="#000012"/>
</linearGradient>
</defs>
</svg>
