<svg width="300" height="300" viewBox="0 0 300 300" fill="none" xmlns="http://www.w3.org/2000/svg">
<circle cx="150" cy="150" r="150" fill="url(#paint0_linear_1684_64599)"/>
<path d="M89.4993 202.239C79.3628 202.671 69.3602 199.798 60.998 194.053C57.3854 191.294 54.4993 187.696 52.5895 183.571C50.6797 179.446 49.8036 174.917 50.0369 170.378C50.0814 167.732 50.3259 165.094 50.7683 162.486C52.0351 155.46 53.8374 147.031 56.1753 137.201C62.8014 110.405 79.9009 97.0068 107.474 97.0068C114.385 96.8937 121.247 98.1867 127.643 100.807C133.32 103.033 138.205 106.9 141.673 111.915C145.17 117.083 146.958 123.218 146.783 129.456C146.733 132.052 146.488 134.641 146.052 137.201C144.589 145.873 142.836 154.301 140.792 162.486C137.385 175.834 131.49 185.821 123.108 192.447C114.733 198.975 103.531 202.239 89.4993 202.239ZM91.5466 181.192C96.6087 181.332 101.547 179.617 105.433 176.369C109.728 172.475 112.649 167.297 113.763 161.608C116.005 152.452 117.708 144.462 118.873 137.638C119.265 135.566 119.46 133.462 119.457 131.353C119.457 122.485 114.829 118.052 105.574 118.054C100.471 117.932 95.4927 119.643 91.5434 122.877C87.3283 126.812 84.4636 131.978 83.3577 137.638C81.6032 144.166 79.8498 152.156 78.0975 161.607C77.7009 163.629 77.5051 165.686 77.513 167.746C77.5131 176.71 82.1909 181.192 91.5466 181.192Z" fill="white"/>
<path d="M153.518 200.692C153.054 200.719 152.59 200.642 152.159 200.465C151.729 200.288 151.345 200.016 151.034 199.67C150.547 198.885 150.39 197.939 150.596 197.039L170.765 102.036C170.943 100.988 171.514 100.047 172.362 99.4045C173.145 98.7582 174.125 98.3977 175.14 98.3824H214.018C223.172 97.9333 232.245 100.278 240.035 105.105C243.238 107.203 245.838 110.099 247.581 113.508C249.324 116.917 250.149 120.721 249.974 124.546C249.96 127.104 249.665 129.653 249.096 132.147C247.484 141.995 242.211 150.87 234.334 156.995C227.027 162.354 216.991 165.034 204.226 165.034H184.498L177.775 197.042C177.596 198.09 177.025 199.031 176.178 199.673C175.396 200.319 174.417 200.679 173.403 200.695L153.518 200.692ZM205.258 144.859C209.087 144.943 212.838 143.762 215.928 141.499C219.108 139.164 221.298 135.723 222.067 131.853C222.338 130.407 222.484 128.94 222.504 127.468C222.587 126.279 222.408 125.087 221.978 123.975C221.549 122.864 220.88 121.86 220.019 121.036C217.58 119.235 214.56 118.402 211.543 118.698H194.006L188.452 144.859H205.258Z" fill="white"/>
<defs>
<linearGradient id="paint0_linear_1684_64599" x1="150" y1="0" x2="150" y2="300" gradientUnits="userSpaceOnUse">
<stop stop-color="#FE3F3F"/>
<stop offset="1" stop-color="#D71B1A"/>
</linearGradient>
</defs>
</svg>
