<svg width="300" height="300" viewBox="0 0 300 300" fill="none" xmlns="http://www.w3.org/2000/svg">
<circle cx="150" cy="150" r="150" fill="url(#paint0_linear_1721_57551)"/>
<path d="M232.15 191.346L204.912 219.804C204.316 220.425 203.6 220.918 202.807 221.252C202.009 221.59 201.151 221.763 200.285 221.762H71.1621C70.5479 221.763 69.9462 221.588 69.4281 221.258C68.9159 220.932 68.5105 220.463 68.262 219.91C68.0167 219.361 67.9413 218.751 68.0457 218.159C68.1517 217.565 68.4317 217.015 68.8501 216.58L96.1089 188.122C96.7031 187.503 97.4169 187.011 98.207 186.677C99.0029 186.34 99.8582 186.165 100.722 186.164H229.838C230.452 186.164 231.054 186.339 231.572 186.669C232.084 186.995 232.489 187.464 232.739 188.017C232.984 188.566 233.059 189.176 232.954 189.767C232.848 190.362 232.568 190.911 232.15 191.346ZM204.912 134.04C204.316 133.419 203.6 132.926 202.807 132.592C202.009 132.255 201.151 132.081 200.285 132.082H71.1621C70.5478 132.081 69.9462 132.256 69.4281 132.586C68.9159 132.912 68.5105 133.381 68.262 133.935C68.0167 134.483 67.9413 135.093 68.0457 135.685C68.1518 136.279 68.4317 136.829 68.8501 137.264L96.1089 165.722C96.7031 166.341 97.4169 166.833 98.207 167.168C99.0029 167.505 99.8582 167.679 100.722 167.68H229.838C230.452 167.681 231.054 167.505 231.572 167.176C232.084 166.849 232.489 166.381 232.739 165.827C232.984 165.278 233.059 164.669 232.954 164.077C232.848 163.483 232.568 162.933 232.15 162.498L204.912 134.04ZM71.1621 113.598H200.285C201.151 113.599 202.009 113.426 202.807 113.088C203.6 112.754 204.316 112.261 204.912 111.64L232.15 83.1823C232.569 82.7469 232.848 82.1973 232.954 81.603C233.059 81.0111 232.983 80.4015 232.739 79.8527C232.489 79.2992 232.084 78.8306 231.572 78.5045C231.054 78.1745 230.452 77.9995 229.838 78H100.722C99.8578 78.001 99.0025 78.1752 98.2067 78.5124C97.4166 78.8468 96.7027 79.3386 96.1086 79.9576L68.8568 108.416C68.4388 108.851 68.159 109.4 68.0528 109.993C67.9481 110.585 68.0228 111.194 68.2673 111.742C68.5149 112.296 68.9192 112.765 69.4304 113.091C69.9475 113.421 70.5483 113.597 71.1621 113.598Z" fill="url(#paint1_linear_1721_57551)"/>
<defs>
<linearGradient id="paint0_linear_1721_57551" x1="150" y1="0" x2="150" y2="300" gradientUnits="userSpaceOnUse">
<stop stop-color="#283046"/>
<stop offset="1" stop-color="#050917"/>
</linearGradient>
<linearGradient id="paint1_linear_1721_57551" x1="83.9292" y1="226.918" x2="215.386" y2="74.802" gradientUnits="userSpaceOnUse">
<stop offset="0.08" stop-color="#9945FF"/>
<stop offset="0.3" stop-color="#8752F3"/>
<stop offset="0.5" stop-color="#5497D5"/>
<stop offset="0.6" stop-color="#43B4CA"/>
<stop offset="0.72" stop-color="#28E0B9"/>
<stop offset="0.97" stop-color="#19FB9B"/>
</linearGradient>
</defs>
</svg>
