<svg width="300" height="300" viewBox="0 0 300 300" fill="none" xmlns="http://www.w3.org/2000/svg">
<circle cx="150" cy="150" r="150" fill="url(#paint0_linear_1721_57676)"/>
<path d="M247.555 158.473C243.488 156.022 239.434 153.548 235.375 151.083C234.156 150.342 232.933 149.609 231.634 148.826C231.892 148.676 232.044 148.577 232.206 148.497C237.085 146.081 241.965 143.666 246.845 141.251C248.058 140.651 248.067 140.645 247.821 139.348C246.441 131.796 244.442 124.37 241.844 117.145C238.969 109.187 235.179 101.59 230.552 94.5055C226.218 87.8908 221.071 81.8459 215.231 76.5126C207.413 69.3731 198.415 63.6443 188.637 59.5811C182.29 56.9409 175.683 54.9743 168.925 53.7138C163.834 52.7645 158.677 52.2105 153.5 52.0568C150.816 51.9639 148.128 51.985 145.435 52.1201C141.255 52.317 137.088 52.7411 132.954 53.3907C127.957 54.1927 123.023 55.3496 118.19 56.8524C110.28 59.2914 102.696 62.6815 95.6036 66.9482C88.094 71.4323 81.2501 76.9464 75.2715 83.3298C71.7299 87.123 68.5298 91.221 65.7083 95.5763C62.0085 101.302 59.0215 107.457 56.8137 113.906C54.9851 119.219 53.6842 124.699 52.9297 130.267C52.4602 133.493 52.1806 136.745 52.0924 140.004C52.067 140.219 52.1135 140.437 52.2247 140.623C52.3359 140.809 52.5055 140.953 52.7071 141.033C55.9307 142.668 59.1394 144.332 62.3564 145.98C64.2051 146.926 66.0604 147.86 68.0062 148.848C67.3174 149.274 66.7106 149.646 66.1081 150.024C61.5561 152.881 57.0029 155.737 52.4485 158.59C52.2731 158.675 52.135 158.822 52.0604 159.002C51.9859 159.182 51.9801 159.383 52.0442 159.567C52.2395 160.515 52.3744 161.477 52.5452 162.43C53.5612 168.188 54.9585 173.873 56.7281 179.446C58.9178 186.359 61.7748 193.042 65.2588 199.403C69.0435 206.317 73.6638 212.74 79.0157 218.528C82.4174 222.203 86.1229 225.586 90.0928 228.64C98.0268 234.733 106.905 239.487 116.375 242.713C122.631 244.858 129.092 246.353 135.654 247.175C138.702 247.584 141.769 247.84 144.843 247.941C149.197 248.084 153.556 247.968 157.896 247.594C161.466 247.256 165.015 246.803 168.53 246.116C173.957 245.063 179.294 243.589 184.492 241.706C191.93 239.021 199.027 235.474 205.638 231.137C211.989 226.995 217.817 222.102 222.994 216.563C225.14 214.253 227.184 211.863 229.093 209.356C232.912 204.34 236.201 198.942 238.908 193.248C242.96 184.687 245.731 175.576 247.131 166.208C247.462 163.97 247.693 161.718 247.966 159.471C248.02 159.283 248.009 159.082 247.935 158.901C247.86 158.72 247.726 158.569 247.555 158.473ZM237.048 179.727C234.448 188.427 230.31 196.59 224.83 203.831C216.209 215.257 205.229 223.776 192.402 229.993C175.411 238.149 156.492 241.443 137.743 239.51C126.166 238.376 114.922 234.987 104.647 229.536C98.1729 226.086 92.1952 221.778 86.876 216.728C80.3692 210.527 74.8894 203.333 70.6416 195.413C65.5075 185.949 62.2025 175.844 60.0845 165.32C59.9747 165.019 59.9823 164.688 60.106 164.393C60.2297 164.098 60.4602 163.86 60.7515 163.728C68.2629 158.996 75.7429 154.215 83.2307 149.446C83.3847 149.347 83.5293 149.235 83.74 149.085C82.7363 148.501 81.7877 147.934 80.8263 147.391C74.1699 143.629 67.5083 139.875 60.8416 136.131C60.5488 136.014 60.309 135.793 60.1675 135.512C60.026 135.23 59.9927 134.906 60.0738 134.601C60.6212 130.612 61.4396 126.665 62.5234 122.788C65.6427 111.952 71.0302 101.903 78.3287 93.3064C85.1525 85.2283 93.3422 78.4111 102.525 73.1654C112.087 67.6359 122.511 63.7517 133.361 61.6749C137.021 60.9704 140.72 60.4829 144.438 60.215C147.72 59.9604 151.014 59.8836 154.304 59.9851C158.008 60.1109 161.7 60.4561 165.363 61.0189C172.718 62.1384 179.896 64.2141 186.713 67.1933C194.775 70.721 202.228 75.5026 208.794 81.3607C217.796 89.366 224.788 98.8987 230.276 109.575C234.349 117.641 237.573 126.106 239.9 134.836C239.952 134.945 239.981 135.064 239.984 135.184C239.987 135.305 239.964 135.425 239.916 135.536C239.869 135.647 239.798 135.747 239.709 135.828C239.62 135.909 239.514 135.971 239.4 136.008C231.768 140.208 224.148 144.428 216.538 148.669C216.344 148.777 216.102 148.833 215.967 149.117C217.517 150.083 219.066 151.048 220.615 152.014C226.945 155.968 233.276 159.92 239.609 163.87C239.754 163.931 239.875 164.04 239.951 164.178C240.027 164.317 240.054 164.477 240.027 164.633C239.502 169.745 238.505 174.799 237.048 179.727Z" fill="white" stroke="white" stroke-width="6"/>
<path d="M149.309 136.777C153.133 130.636 156.903 124.583 160.673 118.53C161.75 116.801 162.826 115.071 163.9 113.34C163.957 113.215 164.05 113.111 164.167 113.041C164.284 112.971 164.42 112.938 164.557 112.947C168.193 113.053 171.83 113.141 175.467 113.236C175.551 113.251 175.633 113.275 175.713 113.307C174.644 115.129 173.593 116.923 172.54 118.718C167.284 127.673 162.024 136.627 156.76 145.577C156.62 145.783 156.546 146.025 156.547 146.273C156.547 146.522 156.623 146.764 156.763 146.968C163.627 159.695 170.48 172.426 177.325 185.162C177.779 186.006 177.776 186.003 176.831 186.022C172.821 186.104 168.811 186.182 164.802 186.283C164.6 186.305 164.397 186.262 164.222 186.161C164.047 186.06 163.908 185.906 163.826 185.72C158.745 176.958 153.653 168.202 148.55 159.452C148.446 159.272 148.337 159.095 148.227 158.909C147.916 158.982 147.872 159.27 147.753 159.47C142.598 168.162 137.451 176.86 132.313 185.562C132.213 185.799 132.036 185.995 131.811 186.118C131.586 186.241 131.326 186.284 131.073 186.24C127.331 185.944 123.584 185.706 119.828 185.448C119.774 185.088 120.03 184.875 120.174 184.632C127.528 172.227 134.891 159.828 142.262 147.434C142.46 147.179 142.568 146.865 142.569 146.542C142.57 146.219 142.464 145.905 142.268 145.649C135.636 135.004 129.025 124.345 122.436 113.672C122.252 113.468 122.138 113.211 122.11 112.937C123.418 112.813 124.728 112.684 126.038 112.566C128.506 112.342 130.977 112.143 133.442 111.892C133.734 111.817 134.042 111.847 134.314 111.976C134.586 112.104 134.805 112.324 134.932 112.596C139.538 120.414 144.17 128.217 148.828 136.004C148.969 136.24 149.118 136.471 149.309 136.777Z" fill="white" stroke="white" stroke-width="4"/>
<defs>
<linearGradient id="paint0_linear_1721_57676" x1="150" y1="0" x2="150" y2="300" gradientUnits="userSpaceOnUse">
<stop stop-color="#064C7B"/>
<stop offset="1" stop-color="#003264"/>
</linearGradient>
</defs>
</svg>
