<svg version="1.1" id="Layer_1" xmlns="http://www.w3.org/2000/svg" x="0" y="0" viewBox="0 0 115.8 27.2" xml:space="preserve"><style>.st0{fill:#fff}</style><path class="st0" d="M58.2 15c-2.3 0-4.2 1.9-4.2 4.3 0 2.3 1.9 4.2 4.3 4.2 2.3 0 4.2-1.9 4.2-4.2 0-2.3-1.8-4.2-4.1-4.2h-.2zm0 6.8c-1.4.1-2.7-1-2.8-2.4-.1-1.4 1-2.7 2.4-2.8 1.4-.1 2.7 1 2.8 2.4v.2c0 1.4-1 2.5-2.4 2.6zM48.8 15c-2.3 0-4.2 1.9-4.2 4.3s1.9 4.2 4.3 4.2c2.3 0 4.2-1.9 4.2-4.2 0-2.3-1.8-4.2-4.1-4.3h-.2zm0 6.8c-1.4.1-2.7-1-2.8-2.4-.1-1.4 1-2.7 2.4-2.8 1.4-.1 2.7 1 2.8 2.4v.2c.1 1.4-.9 2.5-2.4 2.6.1 0 .1 0 0 0zm-11-5.5v1.8h4.3c-.1.8-.4 1.7-1 2.3-.9.9-2.1 1.4-3.3 1.3-2.7 0-4.8-2.1-4.8-4.8s2.1-4.8 4.8-4.8c1.2 0 2.4.4 3.3 1.3l1.3-1.3c-1.2-1.2-2.8-1.9-4.5-1.9-3.6-.1-6.7 2.7-6.8 6.4-.1 3.6 2.7 6.7 6.3 6.8h.5c3.2.2 6-2.2 6.2-5.5v-.6c0-.4 0-.8-.1-1.1l-6.2.1zm45.3 1.4c-.7-2.1-2.9-3.2-4.9-2.5-1.7.5-2.8 2.1-2.7 3.8v.3c-.1 2.3 1.8 4.2 4.1 4.2h.2c1.4 0 2.8-.7 3.5-1.9l-1.4-1c-.4.7-1.2 1.2-2.1 1.2-.9 0-1.7-.5-2.1-1.3l5.7-2.4-.3-.4zm-5.8 1.4c-.1-1.3.9-2.4 2.2-2.5.7 0 1.3.3 1.6.9l-3.8 1.6zm-4.7 4.1h1.9V10.7h-1.9v12.5zm-3-7.3c-.6-.6-1.5-1-2.3-1-2.3.1-4.2 2.1-4 4.5.1 2.2 1.9 3.9 4 4 .9 0 1.7-.3 2.2-1h.1v.6c0 1.6-.9 2.5-2.3 2.5-1 0-1.8-.6-2.1-1.5l-1.6.7c.6 1.5 2.1 2.5 3.8 2.5 2.2 0 4-1.3 4-4.4v-7.6h-1.7v.7zm-2.2 5.9c-1.4-.1-2.4-1.4-2.3-2.8.1-1.3 1.1-2.2 2.4-2.4 1.3.1 2.3 1.2 2.3 2.5v.1c0 1.3-.9 2.5-2.4 2.6zm24.4-11.1h-4.5v12.5h1.9v-4.7h2.6c2.1.2 4-1.5 4.2-3.6.2-2.1-1.5-4-3.6-4.2h-.6zm0 6h-2.6v-4.3h2.7c1.2.1 2.1 1.1 2 2.3-.1 1.1-1 2-2.1 2zm11.6-1.8c-1.4-.1-2.7.7-3.4 1.9l1.7.7c.3-.6 1-1 1.7-.9 1-.1 1.9.6 2 1.6v.2c-.6-.3-1.3-.5-2-.5-1.8 0-3.6 1-3.6 2.8.1 1.6 1.4 2.8 3 2.8h.1c1 .1 1.9-.4 2.4-1.2h.1v1h1.8v-4.8c-.1-2.3-1.8-3.5-3.8-3.6zm-.3 6.9c-.6 0-1.5-.3-1.5-1.1 0-1 1.1-1.3 2-1.3.6 0 1.2.1 1.7.4-.1 1.1-1 2-2.2 2zm10.7-6.6l-2.1 5.4h-.1l-2.2-5.4h-2l3.3 7.6-1.9 4.2h2l5.1-11.8h-2.1zm-16.8 8h1.9V10.7H97v12.5z"/><linearGradient id="SVGID_1_" gradientUnits="userSpaceOnUse" x1="11.828" y1="1355.467" x2="-4.952" y2="1372.248" gradientTransform="translate(0 -1353.52)"><stop offset="0" stop-color="#00a0ff"/><stop offset=".01" stop-color="#00a1ff"/><stop offset=".26" stop-color="#00beff"/><stop offset=".51" stop-color="#00d2ff"/><stop offset=".76" stop-color="#00dfff"/><stop offset="1" stop-color="#00e3ff"/></linearGradient><path d="M.5.8c-.4.4-.5.9-.5 1.4v22.1c0 .5.1 1 .5 1.4l.1.1L13 13.4v-.3L.5.8z" fill="url(#SVGID_1_)"/><linearGradient id="SVGID_2_" gradientUnits="userSpaceOnUse" x1="23.85" y1="1366.78" x2="-.34" y2="1366.78" gradientTransform="translate(0 -1353.52)"><stop offset="0" stop-color="#ffe000"/><stop offset=".41" stop-color="#ffbd00"/><stop offset=".78" stop-color="orange"/><stop offset="1" stop-color="#ff9c00"/></linearGradient><path d="M17 17.5l-4.1-4.1v-.3L17 9h.1l4.9 2.8c1.4.8 1.4 2.1 0 2.9l-4.9 2.8H17z" fill="url(#SVGID_2_)"/><linearGradient id="SVGID_3_" gradientUnits="userSpaceOnUse" x1="14.848" y1="1369.057" x2="-7.912" y2="1391.807" gradientTransform="translate(0 -1353.52)"><stop offset="0" stop-color="#ff3a44"/><stop offset="1" stop-color="#c31162"/></linearGradient><path d="M17.1 17.5l-4.2-4.2L.5 25.7c.6.5 1.5.5 2.1.1l14.5-8.3" fill="url(#SVGID_3_)"/><linearGradient id="SVGID_4_" gradientUnits="userSpaceOnUse" x1="-2.678" y1="1346.938" x2="7.482" y2="1357.098" gradientTransform="translate(0 -1353.52)"><stop offset="0" stop-color="#32a071"/><stop offset=".07" stop-color="#2da771"/><stop offset=".48" stop-color="#15cf74"/><stop offset=".8" stop-color="#06e775"/><stop offset="1" stop-color="#00f076"/></linearGradient><path d="M17.1 9L2.5.7C1.9.2 1 .3.4.8l12.5 12.5L17.1 9z" fill="url(#SVGID_4_)"/><path d="M17 17.4L2.5 25.6c-.6.4-1.4.4-2 0l-.1.1.1.1c.6.5 1.4.5 2 0l14.6-8.3-.1-.1z" opacity=".2"/><path d="M.5 25.6c-.4-.4-.5-.9-.5-1.4v.1c0 .5.1 1 .5 1.4v-.1zM22 14.5l-5 2.8.1.1 4.9-2.8c.6-.3 1-.8 1-1.4-.1.6-.5 1.1-1 1.3z" opacity=".12"/><path d="M2.5.9l19.5 11c.5.3.9.7 1 1.3-.1-.6-.4-1.2-1-1.4L2.5.7C1.1-.1 0 .6 0 2.2v.2C0 .7 1.1.1 2.5.9z" opacity=".25" fill="#fff"/><path class="st0" d="M49.3 2.1l-2 2.5-2.1-2.7v4.2h-1.1V.3c.7-.2 1.4-.2 1.8.6.4.6.9 1.3 1.4 1.9.4-.6.9-1.1 1.2-1.7.3-.7 1.2-1.1 1.9-.8v5.9h-1.1V2.1zm5.6.2c1 1.3 1.9 2.4 2.8 3.5.3.3.6.5 1 .6V.3h-1.2v3.6c-.9-1.1-1.7-2.1-2.4-3.1-.3-.5-.8-.7-1.3-.4v5.9h1.1v-4zm33.5.2c.9 1.1 1.7 2.2 2.6 3.2.3.3.7.5 1 .7V.3h-1.1v3.6C90 2.8 89.2 1.8 88.5.8c-.3-.5-.9-.7-1.4-.5v5.8h1.1V2.6l.2-.1zm-45.2.8C43.3 1.5 42 .1 40.3 0s-3.1 1.3-3.2 3v.3C37 4.9 38.3 6.4 40 6.5c1.7.1 3.2-1.2 3.2-2.9v-.3zm-3 2c-1 0-1.9-.8-1.9-1.8v-.2c-.1-1.1.6-2 1.7-2.1h.2c1.1 0 1.9.8 2 1.8v.2c.1 1-.6 2-1.6 2.1h-.4zm39.2-2c.1-1.7-1.2-3.2-2.9-3.2-1.7-.1-3.2 1.2-3.2 2.9v.3c-.1 1.7 1.2 3.2 2.9 3.2 1.7.1 3.2-1.2 3.2-2.9v-.3zm-3.2 2c-1 0-1.9-.9-1.9-1.9v-.2c-.1-1.1.7-2 1.8-2.1 1.1-.1 2 .7 2.1 1.8v.4c.1 1-.7 1.9-1.8 2h-.2zm10-2C86.3 1.6 85 .2 83.3.1 81.5-.1 80.1 1.3 80 3v.3c-.1 1.7 1.3 3.1 3 3.2 1.7.1 3.1-1.2 3.2-2.9v-.3zm-3.1 2c-1 0-1.9-.8-1.9-1.8v-.2c-.1-1.1.7-2 1.7-2.1 1.1-.2 2 .6 2.1 1.7v.3c.1 1-.6 2-1.6 2.1h-.3zm22.9-2c.1-1.7-1.2-3.1-2.9-3.2-1.7-.1-3.1 1.2-3.2 2.9v.3c-.1 1.7 1.2 3.1 2.9 3.2 1.7.1 3.1-1.2 3.2-2.9v-.3zm-3.1 2c-1 0-1.9-.8-1.9-1.9v-.2c-.1-1.1.7-2 1.7-2.1 1.1-.1 2 .7 2.1 1.7v.4c.1 1-.7 2-1.7 2.1h-.2zM60.5.9c-1.1 1.2-1.3 3.1-.3 4.5 1.1 1.2 3 1.4 4.3.4.3-.2.4-.4.5-.7.1-.8 0-1.6 0-2.4h-2.5v1h1.4c.2 1.2-.2 1.6-1.4 1.6-.8 0-1.5-.5-1.8-1.3-.3-.8-.2-1.8.5-2.4.6-.6 1.5-.7 2.2-.4.3.1.5.2.7.4l.8-.6C63.6-.2 61.7-.2 60.5.9zm10.6 5.4c.9-.2 1.5-.9 1.4-1.8 0-.9-.6-1.6-1.5-1.7-.5-.1-1.1-.2-1.6-.3-.2-.1-.5-.4-.5-.6s.3-.5.5-.6c.8-.4 1.4 0 2.1.5l.8-.5c-.7-1-2-1.5-3.2-1.1-1 .3-1.5.9-1.5 1.7s.5 1.4 1.5 1.6c.5.1.9.1 1.4.3.3.1.7.5.7.7 0 .3-.4.6-.7.8-.9.3-1.8 0-2.3-.8l-.9.5c.8 1.2 2.4 1.8 3.8 1.3zM32.2.9c-1.2 1.4-1.2 3.4 0 4.7 1.2 1.1 3.4 1 4.4-.1l-.6-.8c-1.3.8-2.4.7-3.1 0-.6-.8-.7-1.9-.1-2.8.7-.8 1.6-.9 3.2-.2l.7-.6C35.5-.2 33.5-.3 32.2.9zm62.2.4h1.9v4.8h1.2V1.3h1.8v-1h-4.9v1zM52.5.3h-1v5.9h1V.3z"/></svg>