<svg id="Layer_1" data-name="Layer 1" xmlns="http://www.w3.org/2000/svg" xmlns:xlink="http://www.w3.org/1999/xlink" viewBox="0 0 206.88 28"><defs><style>.cls-1{fill:#fff;}.cls-2{fill:url(#linear-gradient);}.cls-3,.cls-4,.cls-5,.cls-7,.cls-8,.cls-9{opacity:0.49;isolation:isolate;}.cls-3{fill:url(#linear-gradient-2);}.cls-4{fill:url(#linear-gradient-3);}.cls-5{fill:url(#linear-gradient-4);}.cls-6{fill:url(#linear-gradient-5);}.cls-7{fill:url(#linear-gradient-6);}.cls-8{fill:url(#linear-gradient-7);}.cls-9{fill:url(#linear-gradient-8);}</style><linearGradient id="linear-gradient" x1="821.52" y1="1008.38" x2="821.52" y2="954.15" gradientTransform="matrix(1, 0, 0, -1, 0, 1608)" gradientUnits="userSpaceOnUse"><stop offset="0.01" stop-color="#00bfe1"/><stop offset="0.97" stop-color="#2738ab"/></linearGradient><linearGradient id="linear-gradient-2" x1="812.04" y1="988.78" x2="815.53" y2="985.86" gradientTransform="matrix(1, 0, 0, -1, -0.94, 1607.39)" gradientUnits="userSpaceOnUse"><stop offset="0.03" stop-color="#1b1464"/><stop offset="1" stop-color="#1b1464" stop-opacity="0"/></linearGradient><linearGradient id="linear-gradient-3" x1="3638.35" y1="-148.14" x2="3636.69" y2="-150.5" gradientTransform="matrix(-1, 0, 0, 1, 4463, 776.09)" xlink:href="#linear-gradient-2"/><linearGradient id="linear-gradient-4" x1="3643.04" y1="-169.79" x2="3644.29" y2="-166.7" gradientTransform="matrix(-1, 0, 0, 1, 4463, 776.09)" xlink:href="#linear-gradient-2"/><linearGradient id="linear-gradient-5" x1="842.09" y1="1008.38" x2="842.09" y2="954.15" xlink:href="#linear-gradient"/><linearGradient id="linear-gradient-6" x1="3808.62" y1="265.13" x2="3812.11" y2="262.21" gradientTransform="matrix(-1, 0, 0, 1, 4661.13, 350.66)" xlink:href="#linear-gradient-2"/><linearGradient id="linear-gradient-7" x1="641.78" y1="575.52" x2="640.11" y2="573.16" gradientTransform="matrix(1, 0, 0, -1, 197.19, 1181.96)" xlink:href="#linear-gradient-2"/><linearGradient id="linear-gradient-8" x1="646.46" y1="553.87" x2="647.71" y2="556.96" gradientTransform="matrix(1, 0, 0, -1, 197.19, 1181.96)" xlink:href="#linear-gradient-2"/></defs><title>Infinity_main_horizontal_white</title><path class="cls-1" d="M865,607.38h2.37V626H865Z" transform="translate(-808.61 -603.2)"/><path class="cls-1" d="M870.22,612.5H872l.6,1.54c1.45-.89,2.74-1.78,4.82-1.78,2.84,0,4.16,2.11,4.16,4.45V626h-2.38v-9.33c0-1.58-.88-2.27-2.07-2.27a8.53,8.53,0,0,0-4.56,1.38V626h-2.38V612.49h.06Z" transform="translate(-808.61 -603.2)"/><path class="cls-1" d="M883.23,612.94l2.42-.44v-1.26a5,5,0,0,1,5.18-5.24,22.87,22.87,0,0,1,5.17.84v1.49l-4.5-.24c-1.57-.09-3.48.52-3.48,3.2v1.21l9.15.27V626h-2.39v-11.4H888V626h-2.37v-11.4H883.2v-1.7Z" transform="translate(-808.61 -603.2)"/><path class="cls-1" d="M899.9,612.5h1.74l.6,1.54c1.46-.89,2.75-1.78,4.82-1.78,2.84,0,4.16,2.11,4.16,4.45V626h-2.37v-9.33c0-1.58-.88-2.27-2.07-2.27a8.59,8.59,0,0,0-4.57,1.38V626h-2.37V612.49h.06Z" transform="translate(-808.61 -603.2)"/><path class="cls-1" d="M913.64,608.75a.59.59,0,0,1,.62-.65h1.67a.6.6,0,0,1,.6.65v1.62a.53.53,0,0,1-.6.57h-1.67a.58.58,0,0,1-.62-.57Zm.23,3.75h2.37V626h-2.37Z" transform="translate(-808.61 -603.2)"/><path class="cls-1" d="M918.19,613l2.44-.53.49-3.77H923v3.77h3.73v2.11H923V621c0,2.15.56,2.63,1.39,2.87,0,0,2,.53,2.13.53V626H924c-2,0-3.36-1.21-3.36-4.82v-6.59h-2.44l0-1.56Z" transform="translate(-808.61 -603.2)"/><path class="cls-1" d="M934.41,626l-1.32,4h2.61l5.58-17.5h-2.56l-3.59,11.27a1.27,1.27,0,0,1-1.6-1l-3-10.26H928l3.15,10.55C931.89,625.72,933.51,626,934.41,626Z" transform="translate(-808.61 -603.2)"/><path class="cls-1" d="M945.41,607.38l5.12,15,4.29-15h2.6L955.8,613l3.3,9.42,4.42-15.07h2.55L960.38,626h-2.51l-3.24-9-2.87,9h-2.51l-6.4-18.64Z" transform="translate(-808.61 -603.2)"/><path class="cls-1" d="M965.82,621.27a3.25,3.25,0,0,1,3.56-3.47s5.24,0,5.24,0,0-1.45,0-1.48c0-1.53-.8-2-2-2-1.67,0-4.23.15-6.34.31V613a23.5,23.5,0,0,1,6.52-.81c2.34,0,4.21,1.08,4.21,4V626h-1.79l-.56-1.61a12.8,12.8,0,0,1-5.25,1.74,3.34,3.34,0,0,1-3.55-3.42v-1.45Zm3.8,2.75a18.41,18.41,0,0,0,5-1.21v-3.32l-5,.36a1.45,1.45,0,0,0-1.41,1.57v1.1C968.19,623.71,968.81,624,969.62,624Z" transform="translate(-808.61 -603.2)"/><path class="cls-1" d="M979.62,606.08H982V621c0,2.15.56,2.63,1.38,2.84,0,0,2,.53,2.14.53V626h-2.44c-2.05,0-3.42-1.21-3.42-4.8V606.08Z" transform="translate(-808.61 -603.2)"/><path class="cls-1" d="M987.38,606.08h2.38V621c0,2.15.55,2.63,1.38,2.84,0,0,2,.53,2.13.53V626h-2.45c-2.05,0-3.42-1.21-3.42-4.8V606.08Z" transform="translate(-808.61 -603.2)"/><path class="cls-1" d="M999.84,612.41c3.39,0,5.34.33,5.34,4.82,0,2.08-1.12,3.19-3.59,3.19h-5.34c0,3,.69,3.59,2.67,3.59a38.31,38.31,0,0,0,6-.27v1.69a23.37,23.37,0,0,1-6.58.73c-3.47,0-4.49-1.75-4.49-7C993.89,613.22,995.6,612.41,999.84,612.41Zm1.53,6c1,0,1.48-.41,1.48-1.17,0-2.42-.43-2.66-2.91-2.66-2.63,0-3.68.05-3.65,3.85l5.08,0Z" transform="translate(-808.61 -603.2)"/><path class="cls-1" d="M1006.64,613l2.43-.53.5-3.77h1.86v3.77h4.06v2.11h-4.06V621c0,2.15.56,2.63,1.38,2.87,0,0,2.29.53,2.47.53V626h-2.83c-2,0-3.36-1.21-3.36-4.82v-6.59h-2.44V613h0Z" transform="translate(-808.61 -603.2)"/><path class="cls-2" d="M833.92,609.93a.34.34,0,0,0-.24-.21.34.34,0,0,0-.36.1l-.74.73-.11.12-5.86-5.82a5.69,5.69,0,0,0-8,0l-8.33,8.35a5.7,5.7,0,0,0,0,8l8.34,8.31a5.67,5.67,0,0,0,8,0l1.9-1.9a2.85,2.85,0,0,0,.71-1,2.21,2.21,0,0,0,.11-1.11,2.42,2.42,0,0,0-.4-1,2.21,2.21,0,0,0-.29-.33,2.37,2.37,0,0,0-3.34,0l-2,2a.8.8,0,0,1-.45.24.74.74,0,0,1-.49,0,1.24,1.24,0,0,1-.43-.27l-8.29-8.29a.82.82,0,0,1-.24-.46.93.93,0,0,1,.11-.64l0-.05c.1-.1,8.36-8.34,8.43-8.42a1.07,1.07,0,0,1,.47-.25.55.55,0,0,1,.18,0,.91.91,0,0,1,.64.27l5.85,5.8-.29.29-.58.58a.36.36,0,0,0,.12.6l5.26.65a.78.78,0,0,0,.58-.25.79.79,0,0,0,.24-.59Z" transform="translate(-808.61 -603.2)"/><path class="cls-3" d="M813.56,617.78a.92.92,0,0,1-.07-1s-2.75,3-1.43,6.3l1.75,1.72,2.53-4.2Z" transform="translate(-808.61 -603.2)"/><path class="cls-4" d="M822.09,626.31a6.07,6.07,0,0,0,6.49,1.26,2.67,2.67,0,0,0,.64-1c-.46-.23-3.79-2.6-3.79-2.6l-2,2A1,1,0,0,1,822.09,626.31Z" transform="translate(-808.61 -603.2)"/><path class="cls-5" d="M820.06,610.16s2-2,2-2a.92.92,0,0,1,1.08,0s-3.3-2.71-6.81-1l-1,1Z" transform="translate(-808.61 -603.2)"/><path class="cls-6" d="M829.69,624.47a.34.34,0,0,0,.25.21.32.32,0,0,0,.35-.1l.74-.73.11-.12,5.86,5.82a5.69,5.69,0,0,0,8,0l8.34-8.35a5.72,5.72,0,0,0,0-8L845,604.85a5.67,5.67,0,0,0-8,0l-1.9,1.9a2.83,2.83,0,0,0-.7,1,2.21,2.21,0,0,0-.12,1.11,2.42,2.42,0,0,0,.4,1.05,3,3,0,0,0,.29.33,2.37,2.37,0,0,0,3.34,0l2-2a.83.83,0,0,1,.45-.24.74.74,0,0,1,.49,0,1.16,1.16,0,0,1,.43.27l8.29,8.29a.82.82,0,0,1,.24.46.93.93,0,0,1-.11.64l0,.05c-.1.1-8.36,8.34-8.43,8.42a1.07,1.07,0,0,1-.47.25.55.55,0,0,1-.18,0,.91.91,0,0,1-.64-.27l-5.84-5.8.28-.29.58-.58a.36.36,0,0,0-.12-.6l-5.26-.65a.84.84,0,0,0-.82.84Z" transform="translate(-808.61 -603.2)"/><path class="cls-7" d="M850.05,616.62a.92.92,0,0,1,.07,1s2.75-3,1.43-6.3l-1.74-1.72-2.54,4.2Z" transform="translate(-808.61 -603.2)"/><path class="cls-8" d="M841.52,608.09a6.07,6.07,0,0,0-6.49-1.26,2.57,2.57,0,0,0-.63.95c.46.23,3.78,2.6,3.78,2.6l2-2A1,1,0,0,1,841.52,608.09Z" transform="translate(-808.61 -603.2)"/><path class="cls-9" d="M843.55,624.24s-2,2-2,2a.92.92,0,0,1-1.08,0s3.3,2.71,6.81,1l1-1Z" transform="translate(-808.61 -603.2)"/></svg>