<svg width="250" height="100" viewBox="0 0 250 100" fill="none" xmlns="http://www.w3.org/2000/svg">
<path d="M107.668 44.7576C107.124 42.6375 105.752 41.0862 103.071 41.0862C99.1143 41.0862 97.4596 44.5757 97.4596 48.1169C97.4596 51.658 99.1143 55.1494 103.071 55.1494C105.944 55.1494 107.518 53.0044 107.775 50.3155H110.929C110.671 54.7358 107.543 57.7847 103.077 57.7847C97.5438 57.7847 94.2344 53.3894 94.2344 48.1149C94.2344 42.8405 97.5323 38.4375 103.065 38.4375C107.227 38.4624 110.51 40.7645 110.898 44.7461L107.668 44.7576Z" fill="#4C4C4C"/>
<path d="M112.836 50.64C112.836 46.5549 115.291 43.6094 119.583 43.6094C123.875 43.6094 126.33 46.5549 126.33 50.64C126.33 54.7251 123.875 57.6994 119.583 57.6994C115.291 57.6994 112.836 54.7519 112.836 50.64ZM123.383 50.64C123.383 48.3418 122.22 45.9363 119.583 45.9363C116.946 45.9363 115.783 48.3399 115.783 50.64C115.783 52.9402 116.946 55.3725 119.583 55.3725C122.22 55.3725 123.383 52.967 123.383 50.64Z" fill="#4C4C4C"/>
<path d="M128.867 38.875H131.815V41.6673H128.867V38.875ZM128.867 43.9694H131.815V57.3355H128.867V43.9694Z" fill="#4C4C4C"/>
<path d="M135.023 43.9733H137.816V45.9383L137.867 45.99C138.291 45.2621 138.899 44.6588 139.63 44.2408C140.361 43.8229 141.189 43.6051 142.031 43.6094C144.927 43.6094 146.762 45.1607 146.762 48.158V57.3375H143.814V48.9356C143.762 46.8423 142.935 45.9383 141.204 45.9383C139.239 45.9383 137.971 47.4877 137.971 49.4527V57.3394H135.023V43.9733Z" fill="#4C4C4C"/>
<path d="M166.381 57.3385H164.312L163.822 55.1667C162.099 57.1317 160.513 57.7771 158.268 57.7771C152.739 57.7809 149.422 53.376 149.422 48.1073C149.422 42.8386 152.739 38.4375 158.264 38.4375C162.286 38.4375 165.684 40.5825 166.174 44.7461H163.02C162.709 42.3158 160.591 41.0747 158.264 41.0747C154.308 41.0747 152.653 44.5642 152.653 48.1054C152.653 51.6466 154.308 55.1379 158.264 55.1379C161.572 55.1897 163.382 53.1998 163.435 50.0704H158.523V47.617H166.375L166.381 57.3385Z" fill="#4C4C4C"/>
<path d="M171.783 51.4157C171.783 53.5109 172.921 55.3725 175.376 55.3725C177.083 55.3725 178.117 54.6217 178.632 53.1489H181.426C180.781 56.0696 178.299 57.6994 175.376 57.6994C171.19 57.6994 168.836 54.7768 168.836 50.6668C168.836 46.8652 171.326 43.6094 175.3 43.6094C179.513 43.6094 182.099 47.4091 181.608 51.4157H171.783ZM178.661 49.4775C178.557 47.6159 177.29 45.9363 175.3 45.9363C173.256 45.9363 171.862 47.4857 171.783 49.4775H178.661Z" fill="#4C4C4C"/>
<path d="M192.881 48.4433C192.647 46.8135 191.458 45.9363 189.83 45.9363C188.298 45.9363 186.158 46.7369 186.158 50.7952C186.158 53.0187 187.141 55.3725 189.7 55.3725C191.406 55.3725 192.595 54.2348 192.881 52.3216H195.828C195.284 55.7861 193.147 57.6994 189.7 57.6994C185.511 57.6994 183.211 54.7251 183.211 50.7952C183.211 46.7618 185.41 43.6094 189.803 43.6094C192.906 43.6094 195.549 45.1607 195.828 48.4433H192.881Z" fill="#4C4C4C"/>
<path d="M198.32 38.875H201.268V49.3721L206.594 43.9694H210.214L205.094 48.8799L210.704 57.3355H207.103L203.018 50.8449L201.26 52.5514V57.3393H198.32V38.875Z" fill="#4C4C4C"/>
<path d="M211.5 50.64C211.5 46.5549 213.955 43.6094 218.247 43.6094C222.539 43.6094 224.996 46.5549 224.996 50.64C224.996 54.7251 222.539 57.6994 218.247 57.6994C213.955 57.6994 211.5 54.7519 211.5 50.64ZM222.049 50.64C222.049 48.3418 220.884 45.9363 218.247 45.9363C215.61 45.9363 214.447 48.3399 214.447 50.64C214.447 52.9402 215.61 55.3725 218.247 55.3725C220.884 55.3725 222.049 52.967 222.049 50.64Z" fill="#4C4C4C"/>
<path d="M77.859 50.313C77.882 55.5403 76.3545 60.6571 73.4695 65.0162C70.5845 69.3753 66.4717 72.781 61.6511 74.8027C56.8305 76.8243 51.5187 77.371 46.3873 76.3738C41.256 75.3765 36.5356 72.88 32.8232 69.1999C29.1107 65.5199 26.5729 60.8216 25.5307 55.6992C24.4884 50.5768 24.9886 45.2604 26.9679 40.4223C28.9472 35.5841 32.3167 31.4416 36.6503 28.5185C40.984 25.5954 46.0872 24.023 51.3144 24.0003C58.3237 23.9697 65.058 26.7247 70.0361 31.6593C75.0141 36.5939 77.828 43.3038 77.859 50.313Z" fill="#8DC63F"/>
<path d="M75.8791 50.3249C75.901 55.1594 74.4888 59.8918 71.8211 63.9237C69.1534 67.9556 65.35 71.1059 60.8919 72.9761C56.4337 74.8464 51.5211 75.3527 46.7753 74.4309C42.0294 73.5091 37.6635 71.2007 34.2296 67.7976C30.7957 64.3945 28.4481 60.0496 27.4836 55.3122C26.5191 50.5749 26.9811 45.6579 28.8111 41.1831C30.6411 36.7083 33.757 32.8767 37.7647 30.1728C41.7723 27.4688 46.4918 26.0141 51.3263 25.9924C57.8087 25.9639 64.037 28.5113 68.6413 33.0744C73.2457 37.6375 75.8492 43.8425 75.8791 50.3249Z" fill="#F9E988"/>
<path d="M51.8769 27.574C53.4308 27.2982 55.021 27.2982 56.5749 27.574C58.1438 27.8225 59.6603 28.3306 61.0622 29.0775C62.4564 29.8435 63.6611 30.8835 64.86 31.8583C66.0589 32.8331 67.2521 33.831 68.3878 34.9226C69.5471 35.9973 70.5588 37.2209 71.3965 38.5615C72.259 39.8915 72.9659 41.3161 73.5032 42.8074C74.524 45.8066 74.8783 49.0376 74.3689 52.1191H74.2176C73.7062 49.0644 73.0129 46.1533 71.9194 43.3839C71.4061 41.9894 70.8021 40.6299 70.1114 39.3141C69.3908 37.9982 68.5966 36.7239 67.7328 35.4972C66.8542 34.257 65.7776 33.17 64.5459 32.2797C63.3048 31.3948 61.878 30.8222 60.4972 30.2783C59.1163 29.7344 57.747 29.1713 56.3067 28.7576C54.8665 28.3439 53.4033 28.0337 51.875 27.733L51.8769 27.574Z" fill="white"/>
<path d="M63.8304 41.6937C62.0569 41.1804 60.2183 40.4526 58.3568 39.7172C58.2495 39.2499 57.8358 38.6677 56.9989 37.9571C55.7827 36.9018 53.4979 36.9287 51.5234 37.396C49.3439 36.8827 47.1912 36.7008 45.1247 37.2044C28.2232 41.8603 37.8068 53.2193 31.6016 64.6376C32.4845 66.5107 42.001 77.4387 55.7712 74.5066C55.7712 74.5066 51.0618 63.1897 61.6892 57.7583C70.3094 53.3361 76.5376 45.1544 63.8304 41.6937Z" fill="#8BC53F"/>
<path d="M65.9164 49.1283C65.9176 49.3309 65.8586 49.5293 65.7469 49.6985C65.6353 49.8676 65.476 49.9998 65.2892 50.0784C65.1024 50.157 64.8965 50.1785 64.6976 50.14C64.4986 50.1016 64.3155 50.0051 64.1714 49.8626C64.0273 49.7201 63.9287 49.5381 63.888 49.3395C63.8474 49.141 63.8665 48.9349 63.943 48.7472C64.0195 48.5595 64.1499 48.3988 64.3178 48.2853C64.4856 48.1717 64.6834 48.1105 64.8861 48.1094C65.1576 48.1084 65.4186 48.215 65.6117 48.406C65.8048 48.597 65.9144 48.8567 65.9164 49.1283Z" fill="white"/>
<path d="M51.5234 37.3875C52.7549 37.4756 57.2077 38.9197 58.3568 39.7087C57.3992 36.9317 54.176 36.5621 51.5234 37.3875Z" fill="#009345"/>
<path d="M52.6956 44.4123C52.6959 45.3472 52.419 46.2612 51.8999 47.0388C51.3808 47.8163 50.6427 48.4225 49.779 48.7805C48.9154 49.1386 47.9649 49.2324 47.0479 49.0503C46.1309 48.8681 45.2885 48.4181 44.6273 47.7571C43.9661 47.0962 43.5157 46.254 43.3332 45.337C43.1506 44.4201 43.2441 43.4696 43.6018 42.6058C43.9595 41.742 44.5653 41.0037 45.3427 40.4842C46.12 39.9648 47.0339 39.6875 47.9689 39.6875C48.5895 39.6872 49.2041 39.8093 49.7776 40.0466C50.351 40.2839 50.8721 40.6319 51.311 41.0707C51.75 41.5094 52.0982 42.0304 52.3357 42.6037C52.5733 43.1771 52.6956 43.7916 52.6956 44.4123Z" fill="white"/>
<path d="M51.2902 44.4576C51.2902 45.1152 51.0952 45.758 50.7298 46.3047C50.3645 46.8515 49.8452 47.2776 49.2377 47.5293C48.6302 47.7809 47.9617 47.8468 47.3168 47.7185C46.6718 47.5902 46.0794 47.2735 45.6144 46.8085C45.1495 46.3436 44.8328 45.7512 44.7045 45.1062C44.5762 44.4613 44.6421 43.7928 44.8937 43.1852C45.1454 42.5777 45.5715 42.0585 46.1183 41.6931C46.665 41.3278 47.3078 41.1328 47.9654 41.1328C48.8472 41.1328 49.6928 41.4831 50.3164 42.1066C50.9399 42.7301 51.2902 43.5758 51.2902 44.4576Z" fill="#58595B"/>
<path d="M69.7449 51.2108C65.9145 53.9093 61.5594 55.9566 55.381 55.9566C52.489 55.9566 51.903 52.8923 49.9916 54.39C49.0053 55.1676 45.5273 56.9066 42.7675 56.7744C40.0078 56.6423 35.5339 55.0239 34.2871 49.1328C33.793 55.0239 33.5402 59.3638 31.3281 64.3375C35.7331 71.3911 46.236 76.8322 55.7698 74.488C54.7451 67.3348 60.9963 60.329 64.5183 56.7438C65.859 55.3859 68.4062 53.17 69.7449 51.207V51.2108Z" fill="#8BC53F"/>
<path d="M69.5935 51.3875C68.4042 52.4715 66.9889 53.274 65.5486 53.9826C64.0909 54.6747 62.5712 55.2281 61.0096 55.6354C59.4468 56.0395 57.817 56.344 56.1661 56.1946C54.5152 56.0452 52.8279 55.4841 51.7344 54.2469L51.7861 54.1875C53.1267 55.057 54.6742 55.3634 56.214 55.4075C57.7748 55.4549 59.3359 55.3265 60.8679 55.0244C62.4155 54.7005 63.9293 54.2324 65.3897 53.6264C66.851 53.0231 68.2969 52.324 69.5418 51.3281L69.5935 51.3875Z" fill="#58595B"/>
</svg>
