<svg width="250" height="100" viewBox="0 0 250 100" fill="none" xmlns="http://www.w3.org/2000/svg">
<path d="M36.4689 47.6797C38.1017 49.8579 33.3198 54.0711 34.394 52.3316H24.2081C23.1063 50.8898 22.3487 49.3147 21.9844 47.6797H36.4689Z" fill="url(#paint0_linear_469_53823)"/>
<path d="M33.53 60.2707C32.0826 61.4252 30.5178 62.4241 28.8614 63.251L28.0505 63.6586L27.2352 63.2521C19.572 59.4066 15 52.7819 15 45.5241V37H19.6741V45.523C19.6741 46.0673 19.7097 46.6093 19.7841 47.148C20.3728 51.5578 23.3497 55.6266 28.0327 58.3669C28.0374 58.371 28.0426 58.3743 28.0483 58.3769L28.0605 58.3691L28.0805 58.3569C29.7734 59.3037 31.6169 59.9504 33.53 60.2707Z" fill="url(#paint1_linear_469_53823)"/>
<path d="M41.0279 47.6808C40.8114 49.3652 40.3492 51.0089 39.6561 52.5593C38.3754 55.4385 36.316 58.0588 33.6035 60.2392C31.6912 59.9187 29.8484 59.2709 28.1562 58.3242C28.7672 57.9632 29.3603 57.5723 29.9324 57.1524C29.989 57.1157 30.0435 57.0746 30.0968 57.0324C33.263 54.7525 35.544 51.4484 36.5537 47.6797L41.0279 47.6808Z" fill="url(#paint2_linear_469_53823)"/>
<path d="M41.1534 37H19.7266V41.6719H41.1534V37Z" fill="url(#paint3_linear_469_53823)"/>
<path d="M41.0312 41.7266V45.5754C41.0312 45.7342 41.0257 45.8942 41.0201 46.053H36.3438C36.3493 45.8942 36.3515 45.7342 36.3515 45.5754V41.7266H41.0312Z" fill="url(#paint4_linear_469_53823)"/>
<path d="M69.2905 49.4912C69.2905 51.074 69.1127 52.368 68.7551 53.3699C68.2731 54.8097 67.3239 56.047 66.0582 56.8855C64.7761 57.6925 63.2839 58.1022 61.7695 58.0629C59.0815 58.0629 57.021 57.1498 55.5848 55.3215C54.488 53.903 53.9126 52.1502 53.9553 50.3576C53.9553 48.2271 54.5918 46.4377 55.8636 44.9871C57.3076 43.3398 59.3225 42.5156 61.9106 42.5156C63.6389 42.5156 65.1029 42.9599 66.3047 43.8463C67.1622 44.4728 67.8942 45.4014 68.5018 46.631L64.9052 48.1216C64.6653 47.5362 64.2987 47.0109 63.83 46.5865C63.2398 46.1023 62.4961 45.8446 61.7329 45.8601C60.0778 45.8601 58.9227 46.7121 58.2717 48.416C58.0284 49.0362 57.904 49.6968 57.9052 50.3631C57.8854 51.002 57.9921 51.6385 58.2194 52.236C58.4466 52.8334 58.7898 53.38 59.2292 53.8442C59.8823 54.5373 60.7543 54.8828 61.8428 54.8806C62.8092 54.8806 63.5756 54.5995 64.1421 54.0375C64.5564 53.5821 64.813 53.0067 64.8752 52.3947H61.744V49.4901L69.2905 49.4912ZM88.8609 51.4194C88.8698 52.1748 88.7942 52.9279 88.6354 53.6665C88.3892 54.6884 87.8402 55.6121 87.0603 56.3168C85.8729 57.4386 84.2857 58.0007 82.2985 58.0007C80.2769 58.0007 78.6986 57.4286 77.5623 56.2857C76.9489 55.6612 76.5219 54.878 76.3293 54.0242C76.1512 53.1716 76.0718 52.3013 76.0927 51.4306V42.9821H79.8982V50.8963C79.8982 51.5339 79.9093 52.007 79.9315 52.3192C80.0004 53.3133 80.4502 54.0064 81.2811 54.3985C81.6365 54.5651 82.0253 54.6484 82.4185 54.6429C83.346 54.6429 84.0457 54.3196 84.5178 53.6698C84.8688 53.1922 85.0432 52.2681 85.0432 50.8963V42.9833H88.8498L88.8609 51.4194ZM108.902 57.6141H104.838L103.896 55.0627H98.6433L97.6359 57.6141H93.6171L99.2376 42.9833H103.393L108.902 57.6141ZM102.868 52.1703L101.294 47.5051L99.6952 52.1703H102.868ZM127.144 57.6141H122.424L118.789 51.9937V57.6141H114.974V42.9833H120.893C122.622 42.9833 123.901 43.5009 124.729 44.5361C125.401 45.3705 125.757 46.4144 125.737 47.4852C125.737 48.7792 125.351 49.8111 124.579 50.583C124.013 51.114 123.307 51.4717 122.542 51.6127L127.144 57.6141ZM121.794 47.6951C121.799 47.4479 121.751 47.2024 121.653 46.9755C121.555 46.7486 121.409 46.5454 121.225 46.3799C120.866 46.0434 120.289 45.8768 119.492 45.8779H118.782V49.5212H119.492C120.298 49.5212 120.873 49.3534 121.225 49.018C121.408 48.8502 121.553 48.6455 121.65 48.4174C121.748 48.1893 121.796 47.9431 121.791 47.6951H121.794ZM145.962 50.2931C145.94 51.8071 145.46 53.279 144.585 54.5149C143.71 55.7507 142.482 56.6926 141.061 57.2165C140.317 57.4775 139.534 57.6112 138.745 57.6119H133.126V42.9821H138.745C140.104 42.9768 141.435 43.3758 142.567 44.1284C143.703 44.8586 144.618 45.8862 145.211 47.0997C145.702 48.0923 145.959 49.1856 145.962 50.2931ZM142.016 50.2931C142.035 49.3419 141.736 48.4115 141.166 47.6495C140.417 46.6532 139.294 46.1556 137.794 46.1567H136.924V54.4429H137.794C139.294 54.4429 140.417 53.9442 141.166 52.9479C141.734 52.1814 142.032 51.2473 142.012 50.2931H142.016ZM164.92 57.6141H160.858L159.914 55.0627H154.661L153.654 57.6141H149.634L155.254 42.9833H159.411L164.92 57.6141ZM158.884 52.1703L157.311 47.5051L155.724 52.1703H158.884ZM183.162 57.6141H178.428L174.795 51.9937V57.6141H170.994V42.9833H176.911C178.639 42.9833 179.918 43.5009 180.747 44.5361C181.418 45.3714 181.775 46.4144 181.755 47.4852C181.755 48.7792 181.368 49.8111 180.596 50.583C180.03 51.1146 179.323 51.4721 178.56 51.6127L183.162 57.6141ZM177.814 47.6951C177.817 47.4479 177.768 47.2027 177.67 46.976C177.571 46.7492 177.426 46.546 177.243 46.3799C176.883 46.0445 176.307 45.8779 175.512 45.8779H174.801V49.5212H175.505C176.309 49.5212 176.885 49.3546 177.236 49.018C177.419 48.8503 177.566 48.6458 177.665 48.4178C177.764 48.1899 177.814 47.9436 177.811 47.6951H177.814ZM192.955 57.6141H189.148V42.9833H192.953L192.955 57.6141ZM214.324 57.6141H210.26L209.316 55.0627H204.064L203.058 57.6141H199.036L204.656 42.9833H208.803L214.324 57.6141ZM208.291 52.1703L206.717 47.5051L205.118 52.1703H208.291ZM235.006 57.6141H231.201L224.201 48.6548V57.6141H220.396V42.9833H224.201L231.201 51.9337V42.9833H235.006V57.6141Z" fill="url(#paint5_linear_469_53823)"/>
<defs>
<linearGradient id="paint0_linear_469_53823" x1="36.8121" y1="47.6797" x2="26.3097" y2="57.4101" gradientUnits="userSpaceOnUse">
<stop stop-color="#000756"/>
<stop offset="1" stop-color="#0042B8"/>
</linearGradient>
<linearGradient id="paint1_linear_469_53823" x1="33.53" y1="37" x2="10.2625" y2="42.1173" gradientUnits="userSpaceOnUse">
<stop stop-color="#000756"/>
<stop offset="1" stop-color="#0042B8"/>
</linearGradient>
<linearGradient id="paint2_linear_469_53823" x1="41.0279" y1="47.6808" x2="25.6959" y2="52.6515" gradientUnits="userSpaceOnUse">
<stop stop-color="#000756"/>
<stop offset="1" stop-color="#0042B8"/>
</linearGradient>
<linearGradient id="paint3_linear_469_53823" x1="41.1534" y1="37" x2="32.0717" y2="50.1793" gradientUnits="userSpaceOnUse">
<stop stop-color="#000756"/>
<stop offset="1" stop-color="#0042B8"/>
</linearGradient>
<linearGradient id="paint4_linear_469_53823" x1="41.0312" y1="41.7266" x2="35.5096" y2="43.6182" gradientUnits="userSpaceOnUse">
<stop stop-color="#000756"/>
<stop offset="1" stop-color="#0042B8"/>
</linearGradient>
<linearGradient id="paint5_linear_469_53823" x1="235.006" y1="42.5156" x2="218.649" y2="102.773" gradientUnits="userSpaceOnUse">
<stop stop-color="#000756"/>
<stop offset="1" stop-color="#0042B8"/>
</linearGradient>
</defs>
</svg>
