<svg width="250" height="100" viewBox="0 0 250 100" fill="none" xmlns="http://www.w3.org/2000/svg">
<path d="M84.7344 70.8296V41.2858H89.1301L89.5487 43.6706H89.758C91.0139 42.0371 93.1482 40.8672 96.1198 40.8672C101.558 40.8672 105.913 45.304 105.913 51.8713C105.913 58.4387 101.562 62.8755 96.1198 62.8755C93.1893 62.8755 91.141 61.6607 90.0533 60.2814H89.844V70.8259H84.7381L84.7344 70.8296ZM100.803 51.8751C100.803 48.0251 98.3326 45.5993 95.3199 45.5993C92.3072 45.5993 89.8365 48.0251 89.8365 51.8751C89.8365 55.725 92.3072 58.1509 95.3199 58.1509C98.3326 58.1509 100.803 55.725 100.803 51.8751Z" fill="#22143D"/>
<path d="M108.5 51.8713C108.5 45.4685 113.101 40.8672 119.254 40.8672C125.406 40.8672 130.007 45.4685 130.007 51.8713C130.007 58.2742 125.406 62.8755 119.254 62.8755C113.101 62.8755 108.5 58.2294 108.5 51.8713ZM124.86 51.8713C124.86 48.1036 122.349 45.5955 119.254 45.5955C116.159 45.5955 113.606 48.1074 113.606 51.8713C113.606 55.6353 116.159 58.106 119.254 58.106C122.349 58.106 124.86 55.6391 124.86 51.8713Z" fill="#22143D"/>
<path d="M133.688 62.4574V33.1641H138.793V62.4574H133.688Z" fill="#22143D"/>
<path d="M157.752 41.3047H163.19L153.984 67.0396C153.064 69.5926 151.808 70.8485 148.5 70.8485H143.563V66.1201H147.749C148.504 66.1201 148.919 65.7426 149.173 65.1146L149.674 63.7354L141.055 41.3047H146.493L151.977 55.9943H152.814L157.752 41.3047Z" fill="#22143D"/>
<path d="M164.214 63.5072H169.402C169.611 64.8865 170.991 66.7703 174.257 66.7703C177.311 66.7703 179.322 64.8453 179.322 61.9149V58.9433H179.113C177.984 60.1581 175.891 61.2458 173.211 61.2458C167.772 61.2458 163.586 57.0595 163.586 51.0341C163.586 45.0087 167.772 40.8672 173.211 40.8672C176.014 40.8672 178.066 41.996 179.363 43.5883H179.573L179.991 41.2858H184.428V61.9149C184.428 67.5216 180.66 71.2482 174.257 71.2482C167.103 71.2482 164.341 66.561 164.214 63.5072ZM179.322 51.0378C179.322 47.7336 176.979 45.4311 174.007 45.4311C171.035 45.4311 168.733 47.7336 168.733 51.0378C168.733 54.3421 171.077 56.6857 174.007 56.6857C176.937 56.6857 179.322 54.3832 179.322 51.0378Z" fill="#22143D"/>
<path d="M187.938 51.8713C187.938 45.4685 192.539 40.8672 198.691 40.8672C204.844 40.8672 209.445 45.4685 209.445 51.8713C209.445 58.2742 204.844 62.8755 198.691 62.8755C192.539 62.8755 187.938 58.2294 187.938 51.8713ZM204.298 51.8713C204.298 48.1036 201.786 45.5955 198.691 45.5955C195.596 45.5955 193.043 48.1074 193.043 51.8713C193.043 55.6353 195.596 58.106 198.691 58.106C201.786 58.106 204.298 55.6391 204.298 51.8713Z" fill="#22143D"/>
<path d="M213.051 62.4606V41.2858H217.443L217.861 43.293H218.071C218.908 42.3324 221.001 40.8672 224.178 40.8672C229.034 40.8672 232.547 44.3807 232.547 49.737V62.4569H227.441V50.4061C227.441 47.685 225.516 45.7189 222.881 45.7189C220.246 45.7189 218.153 47.771 218.153 50.4061V62.4569H213.047L213.051 62.4606Z" fill="#22143D"/>
<path d="M57.2883 60.0083L69.8399 52.7606C70.5052 52.3756 70.9164 51.6617 70.9164 50.8955V36.4002C70.9164 35.6339 70.5052 34.92 69.8399 34.535L57.2883 27.2873C56.623 26.9024 55.7969 26.9061 55.1353 27.2873L42.5837 34.535C41.9184 34.92 41.5072 35.6339 41.5072 36.4002V62.3033L32.7046 67.383L23.902 62.3033V52.1402L32.7046 47.0604L38.5095 50.4133V43.5955L33.7811 40.8631C33.4559 40.6762 33.0821 40.5753 32.7046 40.5753C32.3271 40.5753 31.9533 40.6762 31.6281 40.8631L19.0765 48.1108C18.4112 48.4958 18 49.2097 18 49.976V64.4712C18 65.2375 18.4112 65.9514 19.0765 66.3364L31.6281 73.5841C32.2934 73.9653 33.1158 73.9653 33.7811 73.5841L46.3327 66.3364C46.9981 65.9514 47.4092 65.2375 47.4092 64.4712V38.5644L47.5662 38.4747L56.2081 33.4847L65.0106 38.5644V48.7275L56.2081 53.8072L50.4107 50.4619V57.2797L55.1316 60.0045C55.7969 60.3858 56.623 60.3858 57.2846 60.0045L57.2883 60.0083Z" fill="url(#paint0_linear_2192_62517)"/>
<defs>
<linearGradient id="paint0_linear_2192_62517" x1="17.8281" y1="65.8879" x2="68.6438" y2="36.3964" gradientUnits="userSpaceOnUse">
<stop stop-color="#A726C1"/>
<stop offset="0.88" stop-color="#803BDF"/>
<stop offset="1" stop-color="#7B3FE4"/>
</linearGradient>
</defs>
</svg>
