<svg width="250" height="100" viewBox="0 0 250 100" fill="none" xmlns="http://www.w3.org/2000/svg">
<path d="M54.1812 25C57.5097 25 60.7313 25.655 63.7791 26.9383C65.3965 27.62 66.9472 28.4889 68.3909 29.5048L68.0834 29.6653L64.1266 31.6837C61.1056 29.9994 57.6701 29.1172 54.1812 29.1172C54.1277 29.1172 54.0743 29.1172 54.0208 29.1172C51.3339 29.1439 48.7139 29.6786 46.2409 30.7079C43.7679 31.7506 41.5489 33.2344 39.6508 35.1326C35.7742 39.0225 33.6354 44.1823 33.6354 49.663C33.6354 50.5586 33.6889 51.4543 33.8092 52.3499L33.8493 52.6306L34.1033 52.4969L68.2572 35.0791L75.3286 31.4699L83.3357 27.3794V32.0046L75.088 36.2153L71.0376 38.2739L35.039 56.6542L34.8786 56.7478L33.0339 57.6835L31.1624 58.6326V58.6192L30.9886 58.6994L25 61.7606V57.1354L27.0319 56.1061C28.7295 55.2372 29.7455 53.446 29.5984 51.5345C29.5583 50.9062 29.5316 50.2779 29.5316 49.6496C29.5316 46.3211 30.1866 43.0862 31.4699 40.0384C32.713 37.0976 34.4909 34.4642 36.75 32.1917C39.0091 29.9326 41.6425 28.1414 44.5834 26.8982C47.6178 25.655 50.8527 25 54.1812 25Z" fill="black"/>
<path d="M83.3491 38.1797V42.8048L81.3172 43.8341C79.6195 44.703 78.6036 46.4943 78.7507 48.4058C78.8041 49.0341 78.8175 49.6757 78.8175 50.304C78.8175 53.6325 78.1625 56.8674 76.8792 59.9152C75.636 62.8561 73.8582 65.4895 71.5991 67.7619C69.3399 70.0344 66.6932 71.8123 63.7657 73.0554C60.7313 74.3387 57.4964 74.9937 54.1678 74.9937C50.8393 74.9937 47.6178 74.3387 44.57 73.0554C42.9392 72.3603 41.3885 71.4915 39.9448 70.4755L44.0353 68.3902L44.1957 68.31C47.2168 69.9943 50.6656 70.8899 54.1678 70.8899C54.2213 70.8899 54.2614 70.8899 54.3149 70.8899C57.0018 70.8766 59.6218 70.3419 62.0948 69.2992C64.5678 68.2565 66.7868 66.7727 68.6849 64.8746C72.5615 60.998 74.7003 55.8248 74.7003 50.3441C74.7003 49.4485 74.6468 48.5395 74.5265 47.6439L74.4864 47.3631L74.2324 47.4968L40.0518 64.8879L32.9804 68.4971L25 72.5609V67.9357L33.221 63.7383L37.2714 61.6797L83.3491 38.1797Z" fill="black"/>
<path d="M124.586 41.9482H120.068C118.932 38.1118 115.189 36.8285 111.847 36.8285C109.294 36.8285 104.816 37.9647 104.816 41.6675C104.816 44.595 107.142 46.052 110.203 46.7338L114.039 47.6027C119.106 48.6988 125.175 50.6104 125.175 57.2807C125.175 63.764 119.146 67.186 112.569 67.186C104.762 67.186 99.8298 62.9352 98.9609 56.3183H103.533C104.401 60.8899 107.596 63.256 112.663 63.256C117.542 63.256 120.376 60.9301 120.376 57.6818C120.376 54.2062 117.408 52.7491 113.251 51.8402L109.147 50.9713C104.629 49.9687 100.057 47.4556 100.057 41.9349C100.057 35.6388 106.674 32.8984 112.021 32.8984C117.969 32.9118 123.303 35.5586 124.586 41.9482Z" fill="black"/>
<path d="M135.464 35.8828V42.0452H140.115V45.3737H135.464V59.9309C135.464 62.4841 135.651 63.1257 138.017 63.1257H140.115V66.6013H137.108C132.402 66.6013 131.306 65.5453 131.306 60.4389V45.3737H127.43V42.0452H131.306V35.8828H135.464Z" fill="black"/>
<path d="M154.167 63.5399C157.816 63.5399 159.821 61.8957 160.877 59.4761H165.168C164.032 63.727 160.142 67.1892 154.167 67.1892C146.4 67.1892 142.109 61.6149 142.109 54.3564C142.109 46.5899 147.309 41.6172 154.02 41.6172C161.506 41.6172 166.024 47.9133 165.476 55.6798H146.574C146.775 60.9733 150.518 63.5399 154.167 63.5399ZM161.105 52.124C161.011 48.6485 158.418 45.1863 154.033 45.1863C150.33 45.1863 147.002 47.1914 146.641 52.124H161.105Z" fill="black"/>
<path d="M169.422 66.6057V33.5078H173.579V66.6057H169.422Z" fill="black"/>
<path d="M178.688 66.6057V33.5078H182.845V66.6057H178.688Z" fill="black"/>
<path d="M203.29 51.4923V50.9041C203.29 46.426 200.777 44.9288 197.716 44.9288C194.294 44.9288 192.288 46.8003 192.101 49.808H187.81C188.225 44.5145 192.877 41.5469 197.676 41.5469C204.426 41.5469 207.487 44.7818 207.447 51.6794L207.407 57.3339C207.367 61.4377 207.594 64.2716 208.049 66.5975H203.851C203.718 65.6885 203.584 64.686 203.531 63.2156C202.02 65.7287 199.467 67.1857 195.136 67.1857C190.524 67.1857 186.688 64.6325 186.688 60.1143C186.674 54.3262 193.197 52.6285 203.29 51.4923ZM191.286 60.0341C191.286 62.36 193.064 63.9107 196.031 63.9107C199.908 63.9107 203.611 62.1328 203.611 56.3313V54.7807C196.072 55.556 191.286 56.6521 191.286 60.0341Z" fill="black"/>
<path d="M222.562 46.1972C218.725 46.1972 216.814 48.3494 216.814 53.7365V66.6094H212.656V42.0399H216.72V46.3309C217.95 43.5504 220.463 41.9998 223.658 41.9062C224.072 41.9062 224.433 41.9063 224.887 41.9464V46.371C224.019 46.2908 223.243 46.1972 222.562 46.1972Z" fill="black"/>
</svg>
