<svg width="250" height="100" viewBox="0 0 250 100" fill="none" xmlns="http://www.w3.org/2000/svg">
<path d="M123.984 34.0991H113.647V62.0758H111.108V34.0991H100.797V31.9531H123.984V34.0991Z" fill="#0D61FF"/>
<path d="M133.539 62.5182C131.629 62.5182 129.901 62.0472 128.383 61.105C126.865 60.1629 125.635 58.8543 124.798 57.1794C123.934 55.5044 123.516 53.6201 123.516 51.5526V50.6628C123.516 48.5168 123.934 46.5802 124.772 44.8529C125.609 43.1256 126.761 41.7647 128.253 40.7964C129.744 39.8281 131.367 39.3047 133.094 39.3047C135.816 39.3047 137.962 40.2207 139.558 42.0788C141.155 43.9369 141.94 46.4755 141.94 49.6945V51.0816H125.95V51.5526C125.95 54.0912 126.682 56.2111 128.122 57.886C129.587 59.5871 131.419 60.4246 133.618 60.4246C134.952 60.4246 136.104 60.189 137.124 59.6918C138.145 59.2207 139.061 58.4356 139.899 57.3626L141.443 58.5403C139.663 61.1835 137.02 62.5182 133.539 62.5182ZM133.094 41.3984C131.236 41.3984 129.666 42.0788 128.383 43.4397C127.101 44.8006 126.342 46.6325 126.054 48.9356H139.48V48.6739C139.401 46.5278 138.799 44.7744 137.648 43.4135C136.496 42.0526 134.978 41.3984 133.094 41.3984Z" fill="#0D61FF"/>
<path d="M149.257 60.0039H163.808V62.0976H146.195V60.2656L159.778 41.8413H146.614V39.6953H162.892V41.5534L149.257 60.0039Z" fill="#0D61FF"/>
<path d="M167.383 50.5609C167.383 48.4149 167.802 46.4782 168.639 44.751C169.476 43.0237 170.654 41.689 172.172 40.7206C173.69 39.7523 175.417 39.2812 177.354 39.2812C180.337 39.2812 182.745 40.3281 184.603 42.4218C186.461 44.5154 187.377 47.2895 187.377 50.7441V51.2675C187.377 53.4397 186.959 55.3763 186.121 57.1036C185.284 58.8309 184.106 60.1656 182.588 61.1077C181.07 62.0499 179.343 62.521 177.406 62.521C174.449 62.521 172.015 61.4741 170.157 59.3805C168.299 57.2868 167.383 54.5127 167.383 51.0581V50.5609ZM169.869 51.2413C169.869 53.9108 170.576 56.1091 171.937 57.8364C173.324 59.5637 175.129 60.4011 177.38 60.4011C179.605 60.4011 181.437 59.5375 182.824 57.8364C184.211 56.1091 184.891 53.8584 184.891 51.032V50.5609C184.891 48.8598 184.577 47.2895 183.949 45.8501C183.321 44.4369 182.431 43.3377 181.28 42.5526C180.128 41.7675 178.819 41.3749 177.354 41.3749C175.156 41.3749 173.35 42.2386 171.937 43.9658C170.549 45.6931 169.843 47.97 169.843 50.7702L169.869 51.2413Z" fill="#0D61FF"/>
<path d="M205.91 56.3943C205.91 55.1642 205.413 54.1697 204.419 53.4369C203.424 52.7042 201.959 52.1022 199.943 51.6835C197.928 51.2648 196.41 50.7675 195.311 50.2441C194.212 49.6945 193.401 49.0402 192.877 48.2551C192.354 47.47 192.066 46.5278 192.066 45.4025C192.066 43.6229 192.799 42.1835 194.291 41.032C195.756 39.8804 197.667 39.3047 199.97 39.3047C202.456 39.3047 204.471 39.9328 205.989 41.1628C207.507 42.3928 208.266 44.0154 208.266 46.0044H205.78C205.78 44.6959 205.23 43.5967 204.131 42.7331C203.032 41.8694 201.645 41.4245 199.97 41.4245C198.347 41.4245 197.038 41.7909 196.044 42.4975C195.049 43.2303 194.552 44.1725 194.552 45.324C194.552 46.4493 194.971 47.313 195.782 47.9149C196.594 48.5168 198.111 49.0926 200.284 49.616C202.456 50.1394 204.078 50.6628 205.178 51.2386C206.251 51.8144 207.062 52.521 207.585 53.3323C208.109 54.1436 208.37 55.1381 208.37 56.2896C208.37 58.1739 207.611 59.6918 206.094 60.8171C204.576 61.9425 202.587 62.5182 200.127 62.5182C197.51 62.5182 195.39 61.8901 193.793 60.6339C192.171 59.3777 191.359 57.7813 191.359 55.8447H193.846C193.95 57.2841 194.552 58.4094 195.678 59.2207C196.803 60.032 198.295 60.4246 200.153 60.4246C201.88 60.4246 203.267 60.032 204.34 59.2992C205.387 58.5141 205.91 57.5458 205.91 56.3943Z" fill="#0D61FF"/>
<path d="M82.507 63.7893C81.905 53.1378 68.5056 48.2962 67.2232 47.7989C67.1708 47.7728 67.1708 47.7204 67.197 47.6681L81.0152 33.7975V32.3058C81.0152 32.0703 80.8059 31.8609 80.5703 31.8609H55.1061V23.5124V21L45.7108 22.9628V24.376H46.2342C46.2342 24.376 48.5372 24.376 48.5372 26.6791V31.8347H41.2617C41.1309 31.8347 41 31.9656 41 32.0964V35.3678H48.5634C48.5634 35.3678 48.5634 38.8485 48.5634 42.905V53.1378C48.5634 58.7122 52.1488 62.5855 58.4298 62.0621C59.7645 61.9574 60.9945 61.434 62.0414 60.7535C62.5124 60.4395 62.8003 59.9422 62.8003 59.3665V57.613C60.759 58.9739 59.0317 58.8954 59.0317 58.8954C55.0537 58.8954 55.1323 53.8444 55.1323 53.8444V35.3678H73.4519L60.2617 48.6626C60.2356 50.416 60.2094 51.7769 60.2094 51.8031C60.2094 51.8554 60.2356 51.8816 60.2879 51.8816C72.3788 53.9229 75.6502 61.748 75.6502 64.0249C75.6502 64.0249 76.9587 75.0951 65.8885 75.8541C65.8885 75.8541 58.6391 76.1681 57.3568 73.2632C57.3044 73.1585 57.3568 73.0538 57.4615 73.0015C58.6653 72.4519 59.4766 71.3789 59.4766 69.9395C59.4766 67.7935 58.1681 66.04 55.4201 66.04C53.1956 66.04 51.3637 67.7935 51.3637 69.9395C51.3637 69.9395 50.3168 79.2563 65.8623 78.9946C83.6061 78.6805 82.507 63.7893 82.507 63.7893Z" fill="#0D61FF"/>
</svg>
