<svg width="250" height="100" viewBox="0 0 250 100" fill="none" xmlns="http://www.w3.org/2000/svg">
<path d="M49.2909 23C42.0207 23 36.1262 28.8942 36.1262 36.1648V41.087C33.5748 41.5433 31 42.1737 31 42.9793V68.7695C31 68.7695 31 69.4927 31.7877 69.8059C34.6964 70.9632 46.116 75.0107 48.7368 75.9376C49.0821 76.0598 49.1549 76.0564 49.2746 76.0564C49.4005 76.0564 49.4656 76.0607 49.8081 75.9395C52.4239 75.0148 63.883 70.9571 66.7735 69.8127C67.5242 69.5155 67.5458 68.78 67.5458 68.78V42.9805C67.5458 42.1752 65.0068 41.5433 62.4551 41.0867V36.1644C62.4554 28.8942 56.5612 23 49.2909 23ZM49.2909 29.2916C53.5674 29.2916 56.1691 31.8883 56.1691 36.1648V40.4529C51.3406 40.1012 47.2376 40.1012 42.4085 40.4529V36.1648C42.4085 31.888 45.0139 29.2916 49.2909 29.2916ZM49.274 46.7837C55.2564 46.7932 60.2854 47.2388 60.2854 48.0904C60.2854 48.0904 60.2854 63.9253 60.2854 64.1595C60.2854 64.394 60.2484 64.4335 60.0259 64.5177C59.8037 64.6022 49.7979 68.2181 49.7979 68.2181C49.7979 68.2181 49.3872 68.3545 49.2743 68.3545C49.1462 68.3545 48.7353 68.2125 48.7353 68.2125C48.7353 68.2125 38.7337 64.6001 38.5091 64.5152C38.2842 64.4307 38.2552 64.3869 38.2552 64.1505C38.2552 63.8901 38.2552 48.0898 38.2552 48.0898C38.2552 47.215 43.2919 46.7741 49.274 46.7837Z" fill="black"/>
<path d="M84.5193 64.2686V46.6623H78.1016V40.3516H98.1461V46.6623H91.7628V64.2686H84.5193Z" fill="black"/>
<path d="M114.432 64.2686L111.134 56.7388H108.516V64.2686H101.273V40.3516H114.038C119.631 40.3516 122.644 44.0805 122.644 48.5626C122.644 52.6873 120.242 54.8736 118.342 55.8061L122.681 64.2683H114.433L114.432 64.2686ZM115.293 48.5263C115.293 47.2362 114.146 46.6617 112.926 46.6617H108.515V50.4266H112.926C114.146 50.4263 115.293 49.8539 115.293 48.5263Z" fill="black"/>
<path d="M126.438 64.2686V40.3516H144.581V46.6623H133.681V49.0291H144.331V55.3407H133.681V57.9573H144.581V64.2686H126.438Z" fill="black"/>
<path d="M148.32 64.2683V58.5315L157.428 46.6623H148.32V40.3516H167.002V46.0527L157.858 57.9576H167.252V64.2683H148.32Z" fill="black"/>
<path d="M169.023 52.3714C169.023 45.02 174.724 40 182.111 40C189.497 40 195.199 45.02 195.199 52.3714C195.199 59.7216 189.497 64.7416 182.111 64.7416C174.724 64.7416 169.023 59.7216 169.023 52.3714ZM187.849 52.3714C187.849 49.0358 185.59 46.3827 182.111 46.3827C178.633 46.3827 176.373 49.0361 176.373 52.3714C176.373 55.7057 178.633 58.3586 182.111 58.3586C185.589 58.3586 187.849 55.7052 187.849 52.3714Z" fill="black"/>
<path d="M211.448 64.2683L208.151 56.7385H205.533V64.2683H198.289V40.3516H211.055C216.649 40.3516 219.661 44.0805 219.661 48.5623C219.661 52.687 217.258 54.8733 215.358 55.8064L219.696 64.2686H211.448V64.2683ZM212.309 48.5263C212.309 47.2359 211.162 46.6617 209.943 46.6617H205.532V50.4266H209.943C211.161 50.4269 212.309 49.8539 212.309 48.5263Z" fill="black"/>
</svg>
