<svg width="250" height="100" viewBox="0 0 250 100" fill="none" xmlns="http://www.w3.org/2000/svg">
<path d="M94.4708 51.6351L91.4477 62.5057H88.3013L84.0938 46.5885H87.5486L90.0534 58.113H90.1398L93.1135 46.5885H95.9268L98.9004 58.113H98.9868L101.504 46.5885H104.959L100.739 62.5057H97.5925L94.5695 51.6351H94.4708ZM109.549 60.3587C110.943 60.3587 112.103 59.4456 112.103 58.1624V57.2987L109.611 57.4467C108.414 57.5331 107.723 58.076 107.723 58.9151C107.723 59.8158 108.451 60.3587 109.549 60.3587ZM108.488 62.6908C106.242 62.6908 104.527 61.2348 104.527 59.1125C104.527 56.9655 106.18 55.7193 109.129 55.5342L112.103 55.3614V54.5841C112.103 53.4859 111.326 52.8443 110.117 52.8443C108.92 52.8443 108.155 53.4366 107.994 54.3126H105.045C105.169 52.0176 107.118 50.4382 110.252 50.4382C113.288 50.4382 115.262 52.0053 115.262 54.3867V62.518H112.152V60.7042H112.091C111.424 61.9504 109.968 62.6908 108.488 62.6908ZM117.421 46.5885H120.642V62.5057H117.421V46.5885ZM122.887 46.5885H126.108V62.5057H122.887V46.5885ZM133.585 52.8073C132.178 52.8073 131.154 53.8808 131.043 55.3491H136.065C136.004 53.8438 135.016 52.8073 133.585 52.8073ZM136.115 58.8904H139.076C138.718 61.2101 136.608 62.7648 133.684 62.7648C130.044 62.7648 127.86 60.4327 127.86 56.657C127.86 52.8813 130.069 50.4382 133.56 50.4382C137.003 50.4382 139.175 52.7703 139.175 56.3609V57.348H131.031V57.5454C131.031 59.2359 132.104 60.3957 133.746 60.3957C134.905 60.371 135.806 59.7911 136.115 58.8904ZM141.679 47.9581H144.9V50.685H147.084V53.1158H144.9V58.767C144.9 59.6677 145.344 60.0996 146.294 60.0996C146.578 60.0996 146.874 60.0749 147.072 60.0502V62.4193C146.738 62.4933 146.183 62.555 145.542 62.555C142.765 62.555 141.679 61.6296 141.679 59.3222V53.1158H140.014V50.685H141.679V47.9581ZM156.153 62.7771C151.526 62.7771 148.626 59.6801 148.626 54.5347C148.626 49.4018 151.551 46.3047 156.153 46.3047C159.978 46.3047 162.89 48.7355 163.149 52.2891H159.904C159.596 50.3395 158.09 49.0563 156.153 49.0563C153.636 49.0563 152.019 51.1662 152.019 54.5101C152.019 57.9033 153.624 60.0009 156.165 60.0009C158.14 60.0009 159.559 58.841 159.916 56.9532H163.162C162.779 60.5315 160.064 62.7771 156.153 62.7771ZM170.355 62.7525C166.777 62.7525 164.494 60.4574 164.494 56.583C164.494 52.7579 166.814 50.4259 170.355 50.4259C173.896 50.4259 176.216 52.7456 176.216 56.583C176.216 60.4698 173.933 62.7525 170.355 62.7525ZM170.355 60.297C171.934 60.297 172.934 58.9644 172.934 56.5953C172.934 54.2509 171.922 52.8937 170.355 52.8937C168.788 52.8937 167.764 54.2509 167.764 56.5953C167.764 58.9644 168.776 60.297 170.355 60.297ZM177.869 62.5057V50.685H180.979V52.795H181.041C181.67 51.3266 182.916 50.4629 184.742 50.4629C187.37 50.4629 188.839 52.1163 188.839 54.8802V62.5057H185.618V55.5589C185.618 54.0165 184.89 53.1281 183.447 53.1281C182.003 53.1281 181.09 54.1893 181.09 55.7193V62.5057H177.869ZM190.875 62.5057V50.685H193.984V52.795H194.046C194.675 51.3266 195.921 50.4629 197.735 50.4629C200.363 50.4629 201.832 52.1163 201.832 54.8802V62.5057H198.611V55.5589C198.611 54.0165 197.883 53.1281 196.44 53.1281C194.996 53.1281 194.083 54.1893 194.083 55.7193V62.5057H190.875ZM209.198 52.8073C207.791 52.8073 206.767 53.8808 206.656 55.3491H211.678C211.616 53.8438 210.629 52.8073 209.198 52.8073ZM211.715 58.8904H214.676C214.319 61.2101 212.209 62.7648 209.284 62.7648C205.644 62.7648 203.46 60.4327 203.46 56.657C203.46 52.8813 205.669 50.4382 209.161 50.4382C212.604 50.4382 214.775 52.7703 214.775 56.3609V57.348H206.631V57.5454C206.631 59.2359 207.705 60.3957 209.346 60.3957C210.518 60.371 211.419 59.7911 211.715 58.8904ZM227.163 55.0777H224.177C223.992 53.8314 223.166 52.9554 221.845 52.9554C220.254 52.9554 219.267 54.3003 219.267 56.583C219.267 58.9151 220.254 60.2353 221.858 60.2353C223.153 60.2353 223.98 59.458 224.19 58.1747H227.188C227.028 60.9633 224.942 62.7648 221.833 62.7648C218.267 62.7648 216.009 60.4451 216.009 56.5953C216.009 52.8073 218.267 50.4382 221.808 50.4382C224.992 50.4259 227.028 52.4001 227.163 55.0777ZM229.594 47.9581H232.815V50.685H234.999V53.1158H232.815V58.767C232.815 59.6677 233.259 60.0996 234.209 60.0996C234.493 60.0996 234.789 60.0749 234.986 60.0502V62.4193C234.653 62.4933 234.11 62.555 233.456 62.555C230.68 62.555 229.594 61.6296 229.594 59.3222V53.1158H227.928V50.685H229.594V47.9581Z" fill="#3999FA"/>
<path d="M26.9842 39.0054C36.5222 29.6649 51.9828 29.6649 61.5331 39.0054L62.6806 40.1283C63.1619 40.5971 63.1619 41.3498 62.6806 41.8187L58.7569 45.6684C58.5224 45.9029 58.1276 45.9029 57.8931 45.6684L56.3138 44.1261C49.6631 37.6111 38.8665 37.6111 32.2159 44.1261L30.5254 45.7795C30.291 46.0139 29.8962 46.0139 29.6617 45.7795L25.7256 41.9297C25.2444 41.4609 25.2444 40.7082 25.7256 40.2393L26.9842 39.0054ZM69.6521 46.9517L73.144 50.3696C73.6253 50.8384 73.6253 51.5911 73.144 52.06L57.3873 67.496C56.906 67.9648 56.141 67.9648 55.6598 67.496L44.4684 56.539C44.345 56.428 44.1599 56.428 44.0365 56.539L32.8575 67.496C32.3763 67.9648 31.6113 67.9648 31.13 67.496L15.3609 52.0723C14.8797 51.6034 14.8797 50.8508 15.3609 50.3819L18.8528 46.964C19.334 46.4951 20.0991 46.4951 20.5803 46.964L31.7717 57.921C31.8951 58.032 32.0801 58.032 32.2035 57.921L43.3826 46.964C43.8638 46.4951 44.6288 46.4951 45.11 46.964L56.3014 57.921C56.4248 58.032 56.6099 58.032 56.7333 57.921L67.9247 46.964C68.3936 46.4828 69.1709 46.4828 69.6521 46.9517Z" fill="#3A99FB"/>
</svg>
