<svg width="250" height="100" viewBox="0 0 250 100" fill="none" xmlns="http://www.w3.org/2000/svg">
<path d="M115.891 42.1136H121.19V62.5682H126.489V37H121.19C118.275 37 115.891 39.3011 115.891 42.1136Z" fill="black"/>
<path d="M131.789 62.5674H137.088V52.3401C137.088 49.5276 134.703 47.2266 131.789 47.2266V62.5674Z" fill="black"/>
<path d="M142.383 47.2266V62.5674H147.682V52.3401H152.981V57.4538C152.981 60.2663 155.366 62.5674 158.28 62.5674V52.3401C158.28 49.5276 155.895 47.2266 152.981 47.2266H142.383Z" fill="black"/>
<path d="M190.082 47.2273H184.782V42.1136C184.782 39.3011 182.398 37 179.483 37V57.4546H168.885V52.3409H174.184V47.2273H168.885C165.971 47.2273 163.586 49.5284 163.586 52.3409V57.4546C163.586 60.2671 165.971 62.5682 168.885 62.5682H184.782V52.3409H190.082V57.4546C190.082 60.2671 192.465 62.5682 195.38 62.5682V52.3409C195.38 49.5284 192.995 47.2273 190.082 47.2273Z" fill="black"/>
<path d="M131.789 42.1136H137.088C137.088 39.3011 134.703 37 131.789 37V42.1136Z" fill="black"/>
<path d="M67.0887 52.5218L68.5413 41.5819L55.9219 32.8209L67.4519 36.7248L70.1755 32.5486L80.1167 26.375L102.042 38.4498L103.177 56.8797L93.4172 70.4524L85.7002 71.6326L89.6948 64.3242V57.2882L86.7896 51.7955L83.839 49.8436L79.2997 54.5192V59.4671L75.7589 62.7808L71.2649 63.3256L69.2676 64.4604L65.9993 63.4164L64.6375 58.5138L67.0887 55.0639V52.5218Z" fill="white"/>
<path d="M87.242 32.7317C84.8362 32.2323 82.2033 32.3685 82.2033 32.3685C82.2033 32.3685 81.3408 36.3632 75.9844 37.4072C76.0298 37.4072 83.0658 39.8131 87.242 32.7317Z" fill="#94A6C3"/>
<path d="M89.4185 68.9524C92.3237 66.6827 94.5026 63.5505 95.5012 60.0098C95.5466 59.8736 95.9552 59.6467 96.2275 59.4651C96.6815 59.1927 97.1354 58.9657 97.2262 58.6026C97.4078 57.5585 97.4986 56.4691 97.4986 55.3796C97.4986 54.9711 97.09 54.5626 96.6815 54.154C96.3637 53.8816 96.046 53.5639 96.046 53.3369C95.592 49.2061 93.6855 45.3476 90.6441 42.5332L90.3263 42.851C93.2769 45.62 95.1835 49.3877 95.592 53.3823C95.6374 53.7455 96.0006 54.1086 96.3637 54.4718C96.6815 54.7441 97.0446 55.1527 97.0446 55.3342C97.0446 56.3783 96.9538 57.4224 96.7723 58.4664C96.7269 58.648 96.3183 58.8296 96.0006 59.0111C95.5466 59.2381 95.1381 59.4651 95.0473 59.8282C93.9578 63.6867 91.4612 67.0458 88.1474 69.2247C88.7376 67.9537 90.5987 63.8229 91.5974 61.7348L91.4158 55.0165L85.6508 49.4331L82.3824 49.887L78.7963 55.6974C78.7963 55.6974 80.4759 57.8309 78.1154 60.3276C75.8003 62.7788 73.9846 63.3236 73.9846 63.3236L72.305 62.4157C72.8043 61.7802 73.803 60.8269 74.5747 60.1914C75.8911 59.1019 77.2075 59.0111 77.2075 57.8309C77.2529 55.3796 74.6201 56.0605 74.6201 56.0605L73.6668 56.9684L73.2583 60.3276L71.2609 62.8242L71.034 62.7788L67.7656 62.0525C67.7656 62.0525 69.763 61.0085 70.0807 59.8282C70.3985 58.6934 69.4452 54.9257 69.3998 54.6987C69.4452 54.7441 70.3531 55.5158 70.7616 56.7868C71.4879 54.7895 72.4412 52.883 72.7135 52.7014C72.9859 52.5198 76.6628 50.5679 76.6628 50.5679L75.4372 53.7909L76.3451 53.2915L78.524 47.9351C78.524 47.9351 80.6575 46.891 82.2462 46.891C85.1061 46.8456 89.3277 43.3503 87.4211 37.0859C87.9659 37.3129 97.4078 42.0339 99.042 51.2942C100.268 58.421 96.2275 65.0939 89.4185 68.9524Z" fill="#94A6C3"/>
<path d="M78.6181 33.7289C79.6622 32.5033 79.2536 30.6875 79.2536 30.6875L76.2123 35.1815C76.1669 35.1815 77.3017 35.2269 78.6181 33.7289Z" fill="#1B314F"/>
<path d="M68.4031 58.2923L68.7662 56.4766C68.7662 56.4766 67.2682 59.1094 67.1321 59.4726C66.9959 59.8811 67.2228 60.6074 67.813 60.562C68.4031 60.5166 69.1294 59.6541 69.1294 59.0186C69.1294 58.2015 68.4031 58.2923 68.4031 58.2923Z" fill="#1B314F"/>
<path d="M95.3683 29.418C95.3683 29.418 97.638 29.5088 99.9984 29.7811C94.6874 25.6049 89.6487 24.3793 85.5632 24.3793C79.9344 24.3793 76.1213 26.6944 75.8943 26.8305L77.6647 24.0161C77.6647 24.0161 70.5833 23.3352 68.0866 30.8252C67.4511 29.2364 66.861 26.9213 66.861 26.9213C66.861 26.9213 63.1841 30.1443 64.909 35.5008C60.6874 33.9574 54.65 31.8239 54.4231 31.7785C54.1053 31.7331 54.0145 31.8693 54.0145 31.8693C54.0145 31.8693 53.9237 32.0054 54.1961 32.2324C54.6954 32.6409 64.2281 39.677 66.3162 41.0388C65.8623 42.673 65.8623 43.4447 66.3162 44.2164C66.9518 45.2604 66.9972 45.8051 66.9064 46.5768C66.8156 47.3485 65.9985 54.0214 65.8169 54.8385C65.6353 55.6556 63.7288 58.5608 63.8196 59.4233C63.9104 60.2858 65.0906 63.9627 66.1347 64.3712C66.9064 64.6436 68.8129 65.2337 70.0839 65.2337C70.5379 65.2337 70.9464 65.1429 71.128 64.9613C71.8997 64.2804 72.1267 64.1442 72.6714 64.1442C72.7168 64.1442 72.7622 64.1442 72.8076 64.1442C73.0345 64.1442 73.3069 64.1896 73.6246 64.1896C74.3509 64.1896 75.3042 64.0535 75.9851 63.4179C76.9838 62.4193 78.7088 61.0575 79.2535 60.422C79.9344 59.5595 80.2975 58.3792 80.116 57.199C79.9798 56.1095 80.5699 55.1563 81.2508 54.203C82.1133 53.0682 83.7021 51.0254 83.7021 51.0254C86.8342 53.3859 88.7862 56.972 88.7862 60.9667C88.7862 68.0481 82.6126 73.7677 74.9865 73.7677C73.8062 73.7677 72.6714 73.6315 71.5365 73.3592C75.0319 74.5848 77.9824 74.9934 80.3883 74.9934C85.5178 74.9934 88.2414 73.1322 88.2414 73.1322C88.2414 73.1322 87.2882 74.3578 85.7448 75.7651C85.7902 75.7651 85.7902 75.7651 85.7902 75.7651C94.2788 74.5848 98.4097 67.5942 98.4097 67.5942C98.4097 67.5942 98.0919 69.8639 97.6834 71.4073C108.986 62.9186 107.08 52.2965 107.034 51.9333C107.125 52.0695 108.26 53.4313 108.85 54.1576C110.666 35.4554 95.3683 29.418 95.3683 29.418ZM77.9824 59.2871C77.8009 59.5141 77.0292 60.195 76.4845 60.6943C75.9397 61.1936 75.3496 61.693 74.8957 62.1469C74.7141 62.3285 74.3509 62.4193 73.8062 62.4193C73.6246 62.4193 73.4431 62.4193 73.3069 62.4193C73.2161 62.4193 73.1253 62.4193 73.0345 62.4193C72.9437 62.4193 72.8983 62.4193 72.853 62.4193C72.7168 62.4193 72.5806 62.4193 72.4444 62.4193C73.1253 61.5114 75.1226 59.4233 75.8035 58.9693C76.6206 58.4246 77.0292 57.8799 76.5298 56.9266C76.0305 55.9734 74.7141 56.2003 74.7141 56.2003C74.7141 56.2003 75.4858 55.8826 76.1667 55.8826C75.3042 55.6556 74.2148 55.8826 73.7154 56.3819C73.1707 56.8812 73.2615 58.6516 73.0345 59.7864C72.8076 60.9667 72.0359 61.5568 70.8556 62.6462C70.2201 63.2364 69.7662 63.4179 69.403 63.4179C68.6313 63.2818 67.7235 63.0548 67.0879 62.8278C66.634 62.2377 65.9531 60.2858 65.7715 59.4687C65.9077 59.0147 66.4524 58.0615 66.7248 57.5167C67.2695 56.4727 67.5873 55.8826 67.6781 55.3378C67.8596 54.5662 68.4498 49.7998 68.6767 47.8025C69.2668 48.5742 70.0839 49.8452 69.9024 50.6623C71.2188 48.8011 70.2655 46.9854 69.8116 46.2591C69.403 45.5328 68.8583 44.0802 69.3122 42.5368C69.7662 40.9934 71.4003 36.7264 71.4003 36.7264C71.4003 36.7264 71.9451 37.6797 72.7168 37.4981C73.4885 37.3165 79.7074 27.9654 79.7074 27.9654C79.7074 27.9654 81.387 31.6423 79.6166 34.3205C77.8009 36.9988 76.0305 37.4981 76.0305 37.4981C76.0305 37.4981 78.5272 37.952 80.8423 36.2725C81.7955 38.4967 82.7034 40.8118 82.7488 41.1296C82.6126 41.4473 80.7969 45.8051 80.6153 46.0775C80.5245 46.1683 79.889 46.3499 79.4351 46.4407C78.6634 46.6676 78.2094 46.8038 78.0278 46.94C77.7101 47.2124 76.2575 51.207 75.5766 53.1589C74.7595 53.3859 73.9424 53.8399 73.3523 54.7477C73.67 54.5208 74.6687 54.3846 75.395 54.2938C76.0305 54.2484 77.9824 55.2925 78.4818 57.2444C78.4818 57.2898 78.4818 57.2898 78.4818 57.3352C78.5726 58.0615 78.3456 58.7424 77.9824 59.2871ZM73.7154 59.8318C74.124 59.2417 74.0786 58.2431 74.124 57.9253C74.1694 57.6075 74.2602 57.0174 74.6233 56.9266C74.9865 56.8358 75.8489 56.972 75.8489 57.6075C75.8489 58.1977 75.2134 58.3338 74.7595 58.7424C74.4417 59.0601 73.8062 59.741 73.7154 59.8318ZM91.8276 51.1616C92.2815 48.8465 92.3269 46.8492 92.1907 45.215C93.9611 47.5755 95.0505 50.4353 95.3683 53.3859C95.4137 53.7491 95.7768 54.1122 96.14 54.4754C96.4577 54.7477 96.8209 55.1109 96.8209 55.3378C96.8209 56.3819 96.7301 57.426 96.5485 58.47C96.5031 58.6062 96.0946 58.8332 95.7768 59.0147C95.3229 59.2417 94.9143 59.4687 94.8235 59.8318C93.8249 63.3272 91.6914 66.4139 88.8316 68.5928C93.0532 64.1896 95.0959 56.9266 91.8276 51.1616ZM88.9677 69.0014C91.9183 66.7317 94.188 63.5541 95.1867 59.968C95.2321 59.8318 95.6406 59.6049 95.913 59.4233C96.3669 59.1963 96.8209 58.924 96.9117 58.5608C97.0932 57.5168 97.184 56.4273 97.184 55.3378C97.184 54.9293 96.7755 54.5208 96.3669 54.1122C96.14 53.8399 95.7768 53.5221 95.7768 53.2951C95.4137 49.9814 94.0972 46.8492 92.0545 44.2618C91.1467 38.8145 87.5151 37.1349 87.4244 37.0895C87.5151 37.2257 89.8756 40.6303 88.2414 44.6249C86.5619 48.665 82.2495 48.0294 81.8863 48.0748C81.5232 48.0748 80.116 49.8906 78.3456 53.2497C78.1186 53.1589 77.1654 52.932 76.0759 53.1136C76.893 50.8439 78.1186 47.6209 78.3456 47.3485C78.4364 47.2578 79.1173 47.0762 79.5712 46.94C80.4337 46.713 80.8423 46.5768 80.9784 46.3953C81.0692 46.2591 81.5232 45.215 81.9771 44.1256C82.3856 44.1256 83.4297 44.0348 83.5205 43.9894C83.6113 43.8986 84.4738 41.6743 84.4738 41.402C84.4738 41.175 82.7034 36.7718 82.0225 35.0922C82.3403 34.7291 82.658 34.2751 82.9758 33.7758C92.2815 34.7745 99.5445 42.673 99.5445 52.2511C99.5445 59.6049 95.2321 66.0054 88.9677 69.0014Z" fill="#1B314F"/>
<path d="M76.8929 44.4905C77.7554 43.4918 77.3015 41.6307 75.7127 41.3129C76.1212 40.3597 76.7113 38.4531 76.7113 38.4531C76.7113 38.4531 72.0812 45.7161 71.6726 45.8523C71.2641 45.9885 70.8555 44.3998 70.8555 44.3998C69.9931 47.7135 72.3081 48.1674 72.5805 47.1234C73.8515 46.8056 76.0304 45.4438 76.8929 44.4905Z" fill="#1B314F"/>
<path d="M72.9453 46.2588L75.3058 42.2188C75.3058 42.2188 76.6676 42.8997 75.9867 43.9891C75.1242 45.2601 72.9453 46.2588 72.9453 46.2588Z" fill="#FFD923"/>
<path d="M102.134 64.9594C101.453 65.8673 100.681 66.8205 99.7734 67.7284C105.629 56.4707 100.046 46.1664 99.8188 45.7578C100.227 46.1664 100.636 46.6203 100.999 47.0288C105.493 52.0222 106.038 59.5121 102.134 64.9594Z" fill="#D82122"/>
<path d="M107.58 50.4816C105.537 44.989 102.632 40.3134 96.2315 36.0918C90.058 32.0063 83.4305 32.3241 83.0673 32.3695C83.022 32.3695 82.9766 32.3695 82.9766 32.3695C83.2035 32.2787 83.4305 32.2333 83.6575 32.1879C85.0647 31.734 86.8804 31.3708 88.6962 31.1439C93.5079 30.463 98.3651 32.0971 101.679 35.5925C101.724 35.6378 101.724 35.6378 101.77 35.6832C105.537 39.6779 107.489 44.6712 107.58 50.4816Z" fill="#D82122"/>
<path d="M94.778 28.0104C88.0143 26.7394 83.6565 27.3749 80.5243 28.5551C80.4335 28.192 80.1158 27.4657 79.8434 26.8755C78.8901 28.0104 77.8915 29.3722 77.256 30.2347C75.531 31.4149 74.8047 32.5498 74.8047 32.5498C75.8034 29.1452 78.7086 26.6032 82.2493 25.9677C83.2479 25.7861 84.3374 25.6953 85.5176 25.6953C88.6498 25.7407 91.782 26.5124 94.778 28.0104Z" fill="#D82122"/>
<path d="M69.7657 36.7261C64.4547 36.5445 66.225 30.371 66.3158 30.0078C66.3158 30.0532 66.679 34.8649 69.7657 36.7261Z" fill="#D82122"/>
<path d="M74.9826 25.6016C70.8971 28.0528 71.7142 33.9086 71.7142 33.9086C67.8104 27.962 74.6648 25.7377 74.9826 25.6016Z" fill="#D82122"/>
<path d="M68.2664 38.3613C68.5387 38.5883 68.8111 38.9968 68.4933 39.5869C68.3118 39.9047 68.0394 39.8593 67.6309 39.6777C67.0861 39.4053 63.8178 37.4988 60.8672 35.5469C64.2263 36.7271 67.6309 37.9981 68.1756 38.2705C68.1756 38.2705 68.221 38.3159 68.2664 38.3613Z" fill="white"/>
</svg>
