<svg width="250" height="100" viewBox="0 0 250 100" fill="none" xmlns="http://www.w3.org/2000/svg">
<g clip-path="url(#clip0_2192_62604)">
<path d="M20.8125 39.4107V60.5841C20.8125 61.9315 21.5304 63.1791 22.7012 63.8535L41.0364 74.4344C42.2073 75.1087 43.643 75.1087 44.8138 74.4344L63.149 63.8535C64.3199 63.1791 65.0377 61.9315 65.0377 60.5841V39.4107C65.0377 38.0633 64.3199 36.8157 63.149 36.1414L44.8138 25.5604C43.643 24.8861 42.2073 24.8861 41.0364 25.5604L22.7012 36.1414C21.5419 36.8157 20.8125 38.0633 20.8125 39.4107Z" fill="#213147"/>
<path d="M46.9334 54.1032L44.3154 61.2714C44.2386 61.4698 44.2386 61.6911 44.3154 61.8895L48.8106 74.2273L54.0134 71.2228L47.7728 54.1032C47.6295 53.7052 47.0768 53.7052 46.9334 54.1032Z" fill="#12AAFF"/>
<path d="M52.1713 42.0407C52.028 41.6427 51.4752 41.6427 51.3319 42.0407L48.7138 49.2089C48.6371 49.4073 48.6371 49.6286 48.7138 49.827L56.0804 70.0291L61.2832 67.0247L52.1713 42.0407Z" fill="#12AAFF"/>
<path d="M42.9245 26.3461C43.0576 26.3461 43.1791 26.3794 43.2994 26.4459L63.1369 37.8996C63.3685 38.0326 63.5118 38.2745 63.5118 38.5406V61.4479C63.5118 61.7127 63.3685 61.9559 63.1369 62.0889L43.2994 73.5541C43.1894 73.6206 43.0563 73.6539 42.9245 73.6539C42.7927 73.6539 42.6699 73.6206 42.5496 73.5541L22.7223 62.1004C22.4907 61.9674 22.3474 61.7255 22.3474 61.4594V38.5406C22.3474 38.2758 22.4907 38.0326 22.7223 37.8996L42.5598 26.4459C42.6699 26.3794 42.8029 26.3461 42.9245 26.3461ZM42.9245 23C42.2182 23 41.5106 23.1881 40.881 23.5528L21.0435 35.0064C19.7844 35.7345 19 37.0832 19 38.5406V61.4479C19 62.9053 19.7844 64.2642 21.0435 64.9936L40.881 76.4472C41.5106 76.8119 42.2169 77 42.9245 77C43.6321 77 44.3384 76.8119 44.968 76.4472L64.8055 64.9936C66.0761 64.2642 66.849 62.9168 66.849 61.4479V38.5406C66.849 37.0832 66.0646 35.7242 64.8055 34.9949L44.9782 23.5528C44.3372 23.1881 43.6308 23 42.9232 23H42.9245Z" fill="#9DCCED"/>
<path d="M29.8125 70.0555L31.6346 65.0625L35.3019 68.1105L31.8778 71.248L29.8125 70.0555Z" fill="#213147"/>
<path d="M41.2543 36.9062H36.2293C35.8544 36.9062 35.5115 37.1379 35.3899 37.491L24.6094 67.0483L29.8122 70.0528L41.6855 37.5025C41.7853 37.2159 41.5755 36.9062 41.2543 36.9062Z" fill="white"/>
<path d="M50.0541 36.9062H45.0292C44.6543 36.9062 44.3113 37.1379 44.1898 37.491L31.875 71.2453L37.0778 74.2498L50.4738 37.5141C50.5839 37.2159 50.3638 36.9062 50.0541 36.9062Z" fill="white"/>
<path d="M88.264 43.0547C88.7605 43.0547 89.1917 43.1545 89.5346 43.3643C89.8776 43.5742 90.2192 43.9722 90.5506 44.5684L97.1111 56.475C97.1776 56.6081 97.1879 56.7182 97.1559 56.8064C97.1226 56.8947 97.0228 56.9395 96.8693 56.9395H94.351C94.1296 56.9395 93.9761 56.8512 93.898 56.6849L92.4956 54.1334H83.184L81.8149 56.6849C81.7266 56.8615 81.5717 56.9395 81.3619 56.9395H78.7886C78.6121 56.9395 78.5122 56.8947 78.479 56.8064C78.4457 56.7182 78.4572 56.6081 78.5238 56.475L85.0292 44.5684C85.3606 43.9722 85.6805 43.5742 86.0017 43.3643C86.3216 43.1545 86.6863 43.0547 87.106 43.0547H88.2653H88.264ZM84.4086 51.8135H91.2339L88.0861 46.0041C88.0311 45.9159 87.9646 45.8608 87.8648 45.8608H87.7432C87.6549 45.8608 87.5781 45.9056 87.5218 46.0041L84.4073 51.8135H84.4086Z" fill="#213147"/>
<path d="M111.525 43.0547C113.049 43.0547 114.132 43.3976 114.794 44.0822C115.457 44.7668 115.789 45.7828 115.789 47.1302V48.2562C115.789 49.3938 115.557 50.2882 115.093 50.951C114.628 51.6139 113.877 52.0336 112.828 52.2217L116.219 56.4187C116.285 56.4853 116.307 56.5838 116.274 56.7169C116.252 56.85 116.14 56.9152 115.954 56.9152H113.402C113.226 56.9152 113.116 56.8935 113.049 56.8602C112.982 56.8154 112.916 56.7501 112.851 56.6619L109.714 52.5416H103.309V56.4853C103.309 56.7719 103.165 56.9165 102.878 56.9165H100.734C100.425 56.9165 100.281 56.7732 100.281 56.4853V43.651C100.281 43.253 100.48 43.0547 100.878 43.0547H111.525ZM103.319 50.1347H110.907C111.581 50.1347 112.056 49.9913 112.332 49.7034C112.609 49.4168 112.752 48.9741 112.752 48.3778V47.5499C112.752 46.9536 112.609 46.5121 112.332 46.2242C112.056 45.9376 111.581 45.793 110.907 45.793H103.572C103.396 45.793 103.318 45.8698 103.318 46.0361V50.1334L103.319 50.1347Z" fill="#213147"/>
<path d="M132.369 43.0547C133.728 43.0547 134.7 43.3311 135.274 43.8723C135.849 44.4136 136.135 45.2313 136.135 46.324V47.2735C136.135 48.3778 135.716 49.2172 134.865 49.7917C135.771 50.3215 136.234 51.1724 136.234 52.3432V53.4923C136.234 54.0221 136.179 54.4968 136.057 54.9178C135.936 55.3375 135.748 55.7022 135.472 56.0003C135.196 56.2985 134.843 56.5301 134.39 56.6849C133.937 56.8397 133.385 56.928 132.723 56.928H120.948C120.55 56.928 120.352 56.7297 120.352 56.3317V43.6523C120.352 43.2543 120.55 43.056 120.948 43.056H132.368L132.369 43.0547ZM123.389 48.8205H131.519C132.181 48.8205 132.623 48.7207 132.866 48.5224C133.109 48.324 133.219 48.0361 133.219 47.6497V46.9754C133.219 46.5672 133.109 46.269 132.876 46.0694C132.645 45.8813 132.268 45.7828 131.76 45.7828H123.653C123.476 45.7828 123.398 45.8711 123.398 46.0374V48.8205H123.387H123.389ZM123.389 50.9856V53.935C123.389 54.1116 123.478 54.1897 123.644 54.1897H131.773C132.303 54.1897 132.679 54.0899 132.899 53.9031C133.119 53.7162 133.242 53.4066 133.242 52.9869V52.2357C133.242 51.8276 133.121 51.5179 132.877 51.308C132.634 51.0982 132.181 50.9881 131.519 50.9881H123.389V50.9856Z" fill="#213147"/>
<path d="M143.62 43.0547C143.906 43.0547 144.051 43.198 144.051 43.4859V56.4866C144.051 56.7732 143.908 56.9178 143.62 56.9178H141.476C141.167 56.9178 141.023 56.7745 141.023 56.4866V43.4974C141.023 43.2108 141.178 43.0662 141.476 43.0662L143.62 43.0547Z" fill="#213147"/>
<path d="M164.387 43.0547C164.697 43.0547 164.84 43.198 164.84 43.4859V45.4296C164.84 45.7393 164.685 45.8826 164.387 45.8826H158.168V56.4866C158.168 56.7732 158.025 56.9178 157.737 56.9178H155.572C155.285 56.9178 155.141 56.7745 155.141 56.4866V45.8826H148.922C148.612 45.8826 148.469 45.7278 148.469 45.4296V43.4859C148.469 43.1993 148.624 43.0547 148.922 43.0547H164.386H164.387Z" fill="#213147"/>
<path d="M180.064 43.0547C181.588 43.0547 182.671 43.3976 183.333 44.0822C183.996 44.7668 184.328 45.7828 184.328 47.1302V48.2562C184.328 49.3938 184.096 50.2882 183.632 50.951C183.167 51.6139 182.416 52.0336 181.367 52.2217L184.758 56.4187C184.824 56.4853 184.846 56.5838 184.813 56.7169C184.791 56.85 184.68 56.9152 184.493 56.9152H181.941C181.765 56.9152 181.655 56.8935 181.588 56.8602C181.522 56.8154 181.455 56.7501 181.39 56.6619L178.253 52.5416H171.848V56.4853C171.848 56.7719 171.705 56.9165 171.417 56.9165H169.273C168.964 56.9165 168.82 56.7732 168.82 56.4853V43.651C168.82 43.253 169.019 43.0547 169.417 43.0547H180.064ZM171.868 50.1347H179.456C180.131 50.1347 180.605 49.9913 180.882 49.7034C181.158 49.4168 181.301 48.9741 181.301 48.3778V47.5499C181.301 46.9536 181.158 46.5121 180.882 46.2242C180.605 45.9376 180.131 45.793 179.456 45.793H172.122C171.945 45.793 171.867 45.8698 171.867 46.0361V50.1334L171.868 50.1347Z" fill="#213147"/>
<path d="M191.207 43.0547C191.494 43.0547 191.639 43.198 191.639 43.4859V51.3938C191.639 51.9235 191.683 52.3663 191.772 52.7079C191.86 53.0611 192.003 53.3375 192.203 53.5358C192.401 53.7457 192.667 53.889 193.009 53.967C193.352 54.0553 193.772 54.1001 194.29 54.1001H199.779C200.299 54.1001 200.719 54.0553 201.06 53.967C201.403 53.8787 201.668 53.7354 201.866 53.5358C202.065 53.326 202.209 53.0496 202.286 52.7079C202.363 52.3548 202.408 51.9235 202.408 51.3938V43.4859C202.408 43.1993 202.551 43.0547 202.839 43.0547H205.004C205.291 43.0547 205.435 43.198 205.435 43.4859V51.6919C205.435 52.6414 205.335 53.4475 205.137 54.1219C204.939 54.7847 204.617 55.326 204.176 55.7457C203.735 56.1654 203.16 56.4635 202.452 56.6516C201.746 56.8397 200.895 56.928 199.889 56.928H194.179C193.174 56.928 192.323 56.8397 191.627 56.6516C190.931 56.4635 190.356 56.1654 189.915 55.7457C189.473 55.326 189.152 54.7847 188.942 54.1219C188.733 53.459 188.633 52.6414 188.633 51.6919V43.4859C188.633 43.1993 188.788 43.0547 189.086 43.0547H191.206H191.207Z" fill="#213147"/>
<path d="M213.952 43.0547C214.238 43.0547 214.493 43.0764 214.703 43.1097C214.913 43.1545 215.101 43.2198 215.255 43.3413C215.41 43.4514 215.554 43.6062 215.687 43.7943C215.808 43.9824 215.941 44.2358 216.073 44.5569L220.193 54.0668C220.248 54.1884 220.337 54.2434 220.47 54.2434H220.713C220.846 54.2434 220.934 54.1884 220.989 54.0668L225.11 44.5569C225.243 44.237 225.374 43.9824 225.496 43.7943C225.618 43.6062 225.761 43.4514 225.927 43.3413C226.082 43.2313 226.27 43.1532 226.469 43.1097C226.678 43.0649 226.921 43.0547 227.208 43.0547H229.328C230.013 43.0547 230.477 43.2095 230.721 43.5192C230.964 43.8288 231.074 44.3586 231.074 45.1097V56.4865C231.074 56.7732 230.919 56.9178 230.621 56.9178H228.599C228.312 56.9178 228.168 56.7745 228.168 56.4865V46.1372C228.168 46.0041 228.113 45.9389 228.013 45.9389H227.836C227.703 45.9389 227.615 45.9939 227.582 46.0937L223.583 54.9741C223.428 55.3272 223.263 55.6369 223.097 55.88C222.932 56.1231 222.754 56.3215 222.567 56.4878C222.379 56.6427 222.159 56.7642 221.916 56.8308C221.673 56.8973 221.386 56.9306 221.055 56.9306H220.105C219.774 56.9306 219.487 56.8973 219.244 56.8308C219.001 56.7642 218.779 56.6542 218.593 56.4878C218.405 56.333 218.218 56.1231 218.063 55.88C217.898 55.6369 217.731 55.3388 217.577 54.9741L213.578 46.0937C213.533 45.9837 213.456 45.9389 213.323 45.9389H213.147C213.037 45.9389 212.992 46.0054 212.992 46.1372V56.4865C212.992 56.7732 212.849 56.9178 212.561 56.9178H210.539C210.229 56.9178 210.086 56.7745 210.086 56.4865V45.1097C210.086 44.3586 210.207 43.8288 210.439 43.5192C210.682 43.2095 211.145 43.0547 211.842 43.0547H213.952Z" fill="#213147"/>
</g>
<defs>
<clipPath id="clip0_2192_62604">
<rect width="212.068" height="54" fill="white" transform="translate(19 23)"/>
</clipPath>
</defs>
</svg>
