<svg width="250" height="100" viewBox="0 0 250 100" fill="none" xmlns="http://www.w3.org/2000/svg">
<path d="M29.1442 47.6301C28.6489 47.1348 28.1536 46.7633 27.5345 46.3919C27.0392 46.1442 26.2963 46.0204 25.5533 46.0204C24.8104 46.0204 24.0674 46.1442 23.5721 46.3919C22.953 46.6395 22.4577 47.011 22.0862 47.5063C21.7147 48.0016 21.4671 48.6207 21.2194 49.2398C20.9718 49.859 20.9718 50.4781 20.9718 51.221C20.9718 51.964 21.0956 52.5831 21.3433 53.2022C21.5909 53.8213 21.8386 54.3166 22.3339 54.8119C22.8292 55.3072 23.2006 55.6787 23.8198 55.9264C24.4389 56.174 25.058 56.2978 25.801 56.2978C26.5439 56.2978 27.2868 56.174 27.7821 55.9264C28.2774 55.6787 28.8966 55.1834 29.268 54.6881L31.2492 56.6693C30.5063 57.4123 29.6395 58.0314 28.7727 58.4029C27.7821 58.7743 26.7915 58.8982 25.6771 58.8982C24.5627 58.8982 23.4483 58.7743 22.5815 58.279C21.7147 57.9076 20.848 57.4123 20.105 56.6693C19.3621 55.9264 18.8668 55.1834 18.4953 54.3166C18.1238 53.326 18 52.2116 18 51.0972C18 49.9828 18.2476 48.8684 18.4953 48.0016C18.8668 47.011 19.3621 46.268 20.105 45.5251C20.848 44.7821 21.5909 44.2868 22.5815 43.9154C23.5721 43.5439 24.5627 43.2963 25.6771 43.2963C26.7915 43.2963 27.7821 43.5439 28.7727 43.9154C29.7633 44.2868 30.6301 44.906 31.3731 45.6489L29.1442 47.6301ZM34.221 35H36.9452V46.0204H37.069C37.4405 45.2774 38.0596 44.6583 38.9264 44.163C39.7931 43.6677 40.7837 43.4201 41.8982 43.4201C42.6411 43.4201 43.2602 43.5439 43.8794 43.7915C44.4985 44.0392 45.1176 44.2868 45.6129 44.7821C46.1082 45.2774 46.4797 45.7727 46.7273 46.5157C46.975 47.2586 47.2226 48.1254 47.2226 48.9922V58.4029H44.4985V49.7351C44.4985 48.9922 44.3747 48.4969 44.2508 48.0016C44.127 47.5063 43.7555 47.1348 43.5079 46.8872C43.0126 46.5157 42.7649 46.268 42.2696 46.1442C41.8982 46.0204 41.4029 45.8966 41.0314 45.8966C40.4123 45.8966 39.917 46.0204 39.4217 46.1442C38.9264 46.268 38.4311 46.6395 38.1834 47.011C37.8119 47.3825 37.5643 47.8778 37.3166 48.4969C37.069 49.116 37.069 49.859 37.069 50.7257V58.279H34.3449L34.221 35ZM52.0518 45.5251C52.7947 44.7821 53.7853 44.2868 54.7759 43.9154C55.7665 43.5439 56.7571 43.4201 57.8715 43.4201C58.986 43.4201 59.8527 43.5439 60.5957 43.7915C61.3386 44.0392 61.9578 44.4107 62.453 44.906C62.9483 45.4013 63.3198 45.8966 63.5675 46.5157C63.8151 47.1348 63.9389 47.7539 63.9389 48.3731V57.2884C63.9389 57.6599 63.9389 58.1552 64.0628 58.5267H61.5863C61.5863 57.7837 61.4624 57.0408 61.4624 56.2978C60.8433 57.2884 60.1004 57.9076 59.2336 58.279C58.3668 58.6505 57.3762 58.8982 56.2618 58.8982C55.6427 58.8982 54.8997 58.7743 54.2806 58.6505C53.6615 58.5267 53.1662 58.1552 52.6709 57.7837C52.1756 57.4123 51.8041 56.917 51.5565 56.4217C51.3088 55.9264 51.185 55.1834 51.185 54.5643C51.185 53.5737 51.4327 52.8307 51.8041 52.2116C52.1756 51.5925 52.7947 51.0972 53.5377 50.6019C54.2806 50.2304 55.1474 49.859 56.138 49.7351C57.1286 49.6113 58.1192 49.4875 59.2336 49.4875H61.3386V48.8684C61.3386 48.1254 60.9672 47.2586 60.4719 46.7633C60.2242 46.3919 59.8527 46.268 59.3574 46.0204C58.986 45.8966 58.3668 45.7727 57.8715 45.7727C57.3762 45.7727 56.8809 45.7727 56.5095 45.8966C56.138 46.0204 55.6427 46.0204 55.395 46.1442C55.0236 46.268 54.7759 46.5157 54.5283 46.6395C54.2806 46.8872 54.033 47.011 53.7853 47.2586L52.0518 45.5251ZM59.8527 51.3449C59.2336 51.3449 58.4907 51.3449 57.8715 51.4687L56.0142 51.8402C55.5189 51.964 55.0236 52.3355 54.6521 52.7069C54.2806 53.0784 54.1568 53.5737 54.1568 54.069C54.1568 54.9358 54.4044 55.5549 55.0236 55.9264C55.6427 56.2978 56.3856 56.5455 57.3762 56.5455C58.1192 56.5455 58.7383 56.4217 59.3574 56.174C59.8527 55.9264 60.348 55.5549 60.5957 55.1834C60.9672 54.8119 61.2148 54.3166 61.3386 53.8213C61.4625 53.326 61.5863 52.8307 61.5863 52.3355V51.3449H59.8527ZM68.5205 43.7915H71.2446V46.0204C71.6161 45.2774 72.2352 44.6583 73.102 44.163C73.9687 43.6677 74.9593 43.4201 76.0738 43.4201C76.8167 43.4201 77.4358 43.5439 78.055 43.7915C78.6741 44.0392 79.2932 44.2868 79.7885 44.7821C80.2838 45.2774 80.6553 45.7727 80.9029 46.5157C81.1506 47.2586 81.2744 48.1254 81.2744 48.9922V58.4029H78.5503V49.7351C78.5503 48.9922 78.4264 48.4969 78.3026 48.0016C78.055 47.5063 77.9311 47.1348 77.5597 46.8872C77.4358 46.5157 77.0644 46.268 76.6929 46.1442C76.3214 46.0204 75.8261 45.8966 75.4546 45.8966C74.8355 45.8966 74.3402 46.0204 73.8449 46.1442C73.3496 46.268 72.8543 46.6395 72.6067 47.011C72.2352 47.3825 71.9875 47.8778 71.7399 48.4969C71.4922 49.116 71.4922 49.859 71.4922 50.7257V58.279H68.7681L68.5205 43.7915ZM101.086 58.279C101.086 59.3935 100.839 60.3841 100.467 61.3746C100.096 62.2414 99.6004 63.1082 98.8575 63.7273C98.1145 64.3464 97.3716 64.9656 96.381 65.337C95.3904 65.7085 94.276 65.9562 93.0377 65.9562C91.6757 65.9562 90.3136 65.7085 89.1992 65.337C88.0847 64.9656 86.9703 64.2226 85.8559 63.3558L87.7133 61.0032C88.4562 61.7461 89.1992 62.3652 90.0659 62.7367C90.9327 63.1082 91.9233 63.3558 92.9139 63.3558C93.9045 63.3558 94.7713 63.232 95.5142 62.8605C96.1333 62.6129 96.7525 62.1176 97.1239 61.7461C97.4954 61.3746 97.8669 60.7555 97.9907 60.1364C98.1145 59.5173 98.2384 58.8982 98.2384 58.279V56.0502H98.1145C97.6192 56.917 96.8763 57.6599 95.8857 58.0314C95.0189 58.4029 94.0283 58.6505 93.0377 58.6505C91.9233 58.6505 90.9327 58.4029 90.0659 58.0314C89.1992 57.6599 88.3324 57.1646 87.7133 56.4217C87.0942 55.6787 86.475 54.9358 86.2274 54.069C85.8559 53.0784 85.6083 52.0878 85.6083 51.0972C85.6083 49.9828 85.7321 48.9922 86.1036 48.1254C86.475 47.2586 86.9703 46.3919 87.5895 45.6489C88.2086 44.906 89.0753 44.4107 89.9421 44.0392C90.8089 43.6677 91.9233 43.4201 93.0377 43.4201C94.0283 43.4201 95.0189 43.6677 95.8857 44.0392C96.8763 44.4107 97.6192 45.0298 98.1145 45.8966H98.2384V43.7915H100.963L101.086 58.279ZM93.4092 45.8966C92.6663 45.8966 92.0471 46.0204 91.428 46.268C90.8089 46.5157 90.3136 46.8872 89.9421 47.3825C89.5706 47.8778 89.1992 48.3731 88.9515 48.9922C88.7039 49.6113 88.58 50.3543 88.58 51.0972C88.58 52.5831 88.9515 53.8213 89.8183 54.6881C90.6851 55.5549 91.9233 56.0502 93.2854 56.0502C94.7713 56.0502 96.0095 55.5549 96.7525 54.6881C97.6192 53.8213 97.9907 52.5831 97.9907 51.0972C97.9907 50.3543 97.8669 49.6113 97.6192 48.9922C97.3716 48.3731 97.1239 47.8778 96.6286 47.3825C96.2572 46.8872 95.6381 46.5157 95.1428 46.268C94.7713 46.1442 94.1522 45.8966 93.4092 45.8966ZM107.897 52.0878C107.897 52.7069 108.021 53.326 108.268 53.8213C108.516 54.3166 108.887 54.8119 109.383 55.1834C109.878 55.5549 110.373 55.8025 110.992 56.0502C111.611 56.2978 112.231 56.2978 112.85 56.2978C113.716 56.2978 114.459 56.0502 115.079 55.6787C115.698 55.3072 116.317 54.6881 116.812 54.069L118.917 55.6787C117.431 57.6599 115.202 58.6505 112.478 58.6505C111.364 58.6505 110.249 58.4029 109.383 58.0314C108.516 57.6599 107.649 57.1646 107.03 56.4217C106.411 55.6787 105.915 54.9358 105.544 53.9452C105.173 52.9546 105.049 51.964 105.049 50.8496C105.049 49.7351 105.296 48.7445 105.668 47.7539C106.039 46.8872 106.535 46.0204 107.278 45.2774C107.897 44.5345 108.763 44.0392 109.63 43.6677C110.621 43.2963 111.611 43.0486 112.602 43.0486C113.964 43.0486 114.955 43.2963 115.945 43.7915C116.936 44.2868 117.555 44.7821 118.174 45.5251C118.793 46.268 119.165 47.1348 119.412 48.0016C119.66 48.8684 119.784 49.859 119.784 50.8496V51.8402H107.897V52.0878ZM116.688 49.859C116.688 49.2398 116.564 48.7445 116.441 48.1254C116.317 47.6301 115.945 47.1348 115.698 46.7633C115.326 46.3919 114.831 46.0204 114.336 45.8966C113.84 45.6489 113.221 45.5251 112.478 45.5251C110.621 45.5251 109.011 46.6395 108.268 48.2492C108.021 48.7445 107.897 49.2398 107.897 49.7351H116.688V49.859Z" fill="#2B2B37"/>
<path d="M176.774 65.2125C174.669 65.2125 172.688 64.841 170.831 64.098C168.973 63.3551 167.487 62.3645 166.249 61.0024C165.011 59.6403 163.896 58.0306 163.277 56.2971C162.534 54.4397 162.163 52.5823 162.163 50.4773C162.163 48.3723 162.534 46.3911 163.277 44.6576C164.02 42.8002 165.011 41.3143 166.249 39.9522C167.487 38.5902 169.097 37.5996 170.831 36.8566C172.688 36.1137 174.545 35.7422 176.774 35.7422C178.879 35.7422 180.86 36.1137 182.718 36.8566C184.575 37.5996 186.061 38.5902 187.299 39.9522C188.537 41.3143 189.528 42.8002 190.271 44.6576C191.014 46.5149 191.385 48.3723 191.385 50.4773C191.385 52.5823 191.014 54.5635 190.271 56.2971C189.528 58.1544 188.537 59.6403 187.299 61.0024C186.061 62.3645 184.451 63.3551 182.718 64.098C180.984 64.841 178.879 65.2125 176.774 65.2125ZM176.774 61.6215C178.384 61.6215 179.87 61.3739 181.108 60.7548C182.346 60.1356 183.461 59.3927 184.451 58.4021C185.442 57.4115 186.061 56.1733 186.556 54.8112C187.052 53.4491 187.299 51.9632 187.299 50.4773C187.299 48.9914 187.052 47.5055 186.556 46.1435C186.061 44.7814 185.318 43.667 184.451 42.5525C183.461 41.5619 182.346 40.6952 181.108 40.1999C179.87 39.5807 178.384 39.3331 176.774 39.3331C175.164 39.3331 173.679 39.5807 172.44 40.1999C171.202 40.819 170.088 41.5619 169.097 42.5525C168.106 43.5431 167.487 44.7814 166.992 46.1435C166.497 47.5055 166.249 48.9914 166.249 50.4773C166.249 51.9632 166.497 53.4491 166.992 54.8112C167.487 56.1733 168.23 57.2877 169.097 58.4021C170.088 59.3927 171.202 60.2595 172.44 60.7548C173.679 61.3739 175.164 61.6215 176.774 61.6215ZM131.578 36.3613H136.531L152.009 59.3927H152.133V36.3613H155.972V64.4695H151.142L135.417 41.4381V64.4695H131.578M193.986 36.3613H197.948L204.139 58.7736H204.263L210.826 36.3613H215.16L221.722 58.7736H221.846L228.038 36.3613H232L223.827 64.4695H219.865L213.055 41.5619H212.931L206.121 64.4695H202.158" fill="#3BEE81"/>
</svg>
