<svg width="250" height="100" viewBox="0 0 250 100" fill="none" xmlns="http://www.w3.org/2000/svg">
<path d="M65.3572 56.3017C62.7905 56.3017 60.7794 55.5462 59.3016 54.0461C57.8238 52.5461 57.1016 50.535 57.1016 48.0461C57.1016 45.3905 57.9238 43.2238 59.5683 41.5905C61.2127 39.9571 63.3461 39.1016 65.9794 39.1016C67.6239 39.1016 68.9794 39.3016 70.0906 39.7238V43.3238C68.9683 42.6683 67.6905 42.346 66.2683 42.346C64.6905 42.346 63.435 42.8349 62.4794 43.8238C61.5238 44.8127 61.0349 46.1461 61.0349 47.8239C61.0349 49.435 61.4905 50.7128 62.3794 51.6572C63.3016 52.6128 64.5239 53.1017 66.035 53.1017C67.5128 53.1017 68.835 52.7461 70.0461 52.0239V55.435C70.0572 55.4239 67.335 56.3017 65.3572 56.3017Z" fill="#0A1623"/>
<path d="M65.3631 56.4677C62.7742 56.4677 60.6964 55.6899 59.1853 54.1566C57.6964 52.6343 56.9297 50.5787 56.9297 48.0454C56.9297 45.3454 57.7741 43.1342 59.4519 41.4787C61.1408 39.7898 63.3409 38.9453 65.9853 38.9453C67.6742 38.9453 69.0409 39.1564 70.1631 39.5787L70.2742 39.6231V43.6231L70.0298 43.4787C68.9409 42.8453 67.6853 42.5231 66.2964 42.5231C64.7631 42.5231 63.5631 42.9898 62.6297 43.9454C61.6964 44.9009 61.2297 46.212 61.2297 47.8343C61.2297 49.3787 61.6742 50.6343 62.5297 51.5565C63.4186 52.4788 64.6075 52.9454 66.0631 52.9454C67.5076 52.9454 68.7965 52.601 69.9965 51.8899L70.2409 51.7454V55.5566L70.1298 55.5899C70.0076 55.6121 67.3409 56.4677 65.3631 56.4677ZM65.9853 39.2675C63.4297 39.2675 61.3075 40.0898 59.6853 41.712C58.0741 43.312 57.263 45.4454 57.263 48.0565C57.263 50.501 57.9853 52.4788 59.4186 53.9343C60.8853 55.4232 62.8186 56.1455 65.352 56.1455C67.052 56.1455 69.3631 55.4677 69.8965 55.301V52.301C68.7187 52.9454 67.452 53.2677 66.0409 53.2677C64.4964 53.2677 63.2297 52.7677 62.2742 51.7788C61.352 50.7899 60.8742 49.4565 60.8742 47.8343C60.8742 46.1232 61.3742 44.7454 62.3631 43.7231C63.3409 42.712 64.6631 42.2009 66.2631 42.2009C67.6076 42.2009 68.8409 42.4898 69.9187 43.0676V39.8342C68.8742 39.4564 67.5853 39.2675 65.9853 39.2675Z" fill="#0A1623"/>
<path d="M80.4719 47.424C80.0386 47.1907 79.5164 47.0684 78.9275 47.0684C78.1386 47.0684 77.5164 47.3684 77.0497 47.9573C76.5941 48.5462 76.3608 49.3351 76.3608 50.3462V56.013H72.6719V44.1128H76.3608V46.3129H76.3941C76.983 44.7017 78.0386 43.8906 79.5497 43.8906C79.9497 43.8906 80.2386 43.924 80.4719 44.024V47.424Z" fill="#0A1623"/>
<path d="M76.5268 56.1711H72.5156V43.9488H76.5268V45.6044C77.1823 44.3599 78.1935 43.7266 79.5601 43.7266C80.0157 43.7266 80.3046 43.771 80.549 43.871L80.649 43.9155V47.7044L80.4046 47.571C79.9935 47.3488 79.4824 47.2266 78.9379 47.2266C78.1935 47.2266 77.6268 47.4933 77.1934 48.0488C76.749 48.6155 76.5379 49.3599 76.5379 50.3377V56.1711H76.5268ZM72.8379 55.8489H76.1934V50.3488C76.1934 49.2933 76.4268 48.4822 76.9157 47.8599C77.4046 47.2266 78.0823 46.9155 78.9268 46.9155C79.4268 46.9155 79.8935 47.0044 80.3046 47.1821V44.1377C80.1268 44.0821 79.8824 44.0599 79.549 44.0599C78.1046 44.0599 77.1157 44.8155 76.549 46.3821L76.5045 46.4933H76.1934V44.2821H72.8379V55.8489Z" fill="#0A1623"/>
<path d="M94.4824 44.1057L89.649 56.917C88.4935 59.9948 86.7157 61.5392 84.3823 61.5392C83.4934 61.5392 82.7712 61.4392 82.1823 61.2392V58.3281C82.6712 58.6281 83.2045 58.7503 83.7601 58.7503C84.7157 58.7503 85.3712 58.2947 85.7379 57.4058L86.3601 55.9281L81.5156 44.0724H85.6268L87.8601 51.2836C87.9935 51.7391 88.1268 52.2614 88.1935 52.8614H88.2268C88.2935 52.4058 88.4268 51.8836 88.6268 51.2836L90.8602 44.0391H94.4824V44.1057Z" fill="#0A1623"/>
<path d="M84.3846 61.7118C83.4846 61.7118 82.7401 61.6118 82.129 61.4118L82.0179 61.3785V58.0562L82.2623 58.2006C82.7179 58.4673 83.2068 58.6007 83.7624 58.6007C84.6512 58.6007 85.2401 58.1895 85.5846 57.3562L86.1846 55.9451L81.2734 43.9116H85.7513L88.0291 51.2339C88.0957 51.4673 88.1735 51.7339 88.2291 52.0339C88.2957 51.7784 88.3735 51.5117 88.4735 51.2228L90.7513 43.8672H94.6624L94.6513 44.1561L89.818 56.9673C88.6291 60.1229 86.8068 61.7118 84.3846 61.7118ZM82.3401 61.134C82.8957 61.3007 83.5735 61.3896 84.3846 61.3896C86.6513 61.3896 88.3735 59.8673 89.4957 56.8784L94.2736 44.2227H90.9846L88.7846 51.345C88.5846 51.9228 88.4624 52.445 88.3957 52.8895L88.3735 53.0339H88.0513L88.0402 52.8895C87.9735 52.2784 87.8291 51.745 87.7179 51.345L85.5179 44.2561H81.7623L86.529 55.9562L85.8735 57.4895C85.4846 58.4451 84.7624 58.934 83.7512 58.934C83.2401 58.934 82.7734 58.834 82.3401 58.6229V61.134Z" fill="#0A1623"/>
<path d="M99.6832 54.6348H99.6499V61.4793H95.9609V44.1125H99.6499V45.8792H99.6832C100.605 44.5014 101.85 43.8125 103.505 43.8125C105.05 43.8125 106.239 44.3347 107.094 45.3903C107.95 46.4459 108.35 47.8792 108.35 49.6792C108.35 51.6459 107.861 53.2459 106.872 54.4348C105.883 55.6459 104.572 56.2348 102.961 56.2348C101.561 56.2682 100.439 55.7126 99.6832 54.6348ZM99.5832 49.7459V50.7015C99.5832 51.5237 99.8165 52.1792 100.239 52.7015C100.672 53.2237 101.261 53.4904 101.95 53.4904C102.772 53.4904 103.428 53.1681 103.894 52.5126C104.35 51.857 104.583 50.9348 104.583 49.757C104.583 47.657 103.761 46.6125 102.15 46.6125C101.394 46.6125 100.772 46.9125 100.305 47.4681C99.8499 48.0459 99.5832 48.8014 99.5832 49.7459Z" fill="#0A1623"/>
<path d="M99.8158 61.6453H95.8047V43.9451H99.8158V45.4118C100.749 44.234 101.96 43.6562 103.505 43.6562C105.083 43.6562 106.338 44.2007 107.216 45.2896C108.083 46.3563 108.505 47.7896 108.505 49.6896C108.505 51.7119 107.994 53.3452 106.983 54.5452C105.983 55.7786 104.616 56.4119 102.938 56.4119C101.66 56.4453 100.594 55.9786 99.8158 55.0786V61.6453ZM96.1269 61.312H99.4825V54.4675H99.7714L99.8158 54.5341C100.538 55.5675 101.627 56.0897 102.938 56.0675C104.516 56.0675 105.794 55.4786 106.727 54.323C107.683 53.1786 108.171 51.6119 108.171 49.6785C108.171 47.8563 107.771 46.4896 106.96 45.4896C106.127 44.4674 104.994 43.9785 103.505 43.9785C101.927 43.9785 100.727 44.634 99.8269 45.9674L99.7825 46.0452H99.4936V44.2785H96.138V61.312H96.1269ZM101.96 53.6452C101.205 53.6452 100.571 53.3563 100.116 52.8008C99.6492 52.2341 99.4158 51.523 99.4158 50.7008V49.7452C99.4158 48.8007 99.6714 48.0007 100.171 47.3563C100.671 46.7563 101.349 46.4452 102.149 46.4452C103.871 46.4452 104.749 47.5563 104.749 49.7563C104.749 50.9674 104.505 51.923 104.027 52.6008C103.538 53.2897 102.838 53.6452 101.96 53.6452ZM102.149 46.7674C101.449 46.7674 100.871 47.0341 100.438 47.5563C99.9825 48.1341 99.7492 48.8785 99.7492 49.7452V50.7008C99.7492 51.4674 99.9492 52.0785 100.371 52.6008C100.76 53.0786 101.305 53.323 101.96 53.323C102.738 53.323 103.338 53.0119 103.771 52.4119C104.205 51.7897 104.438 50.8896 104.438 49.7563C104.427 47.7452 103.683 46.7674 102.149 46.7674Z" fill="#0A1623"/>
<path d="M115.529 56.277C112.929 56.277 111.64 54.9326 111.64 52.2437V46.8436H109.695V44.1547H111.64V41.5991L115.295 40.5547V44.1547H117.962V46.8436H115.295V51.6659C115.295 52.9104 115.784 53.5326 116.773 53.5326C117.173 53.5326 117.562 53.4326 117.962 53.2104V55.8659C117.962 55.8548 116.651 56.277 115.529 56.277Z" fill="#0A1623"/>
<path d="M115.528 56.4394C112.839 56.4394 111.484 55.0283 111.484 52.2505V47.006H109.539V43.9837H111.484V41.4726L115.461 40.3281V43.9837H118.128V46.9949H115.461V51.6504C115.461 52.8171 115.884 53.3505 116.772 53.3505C117.161 53.3505 117.517 53.2505 117.872 53.0505L118.117 52.906V55.9616L118.006 55.9949C117.961 56.0283 116.661 56.4394 115.528 56.4394ZM109.861 46.6726H111.806V52.2393C111.806 54.8394 113.017 56.106 115.528 56.106C116.417 56.106 117.461 55.8283 117.795 55.7283V53.4616C117.472 53.606 117.128 53.6838 116.772 53.6838C116.017 53.6838 115.128 53.3282 115.128 51.6504V46.6726H117.795V44.317H115.128V40.7615L111.806 41.717V44.317H109.861V46.6726Z" fill="#0A1623"/>
<path d="M125.662 56.2591C123.685 56.2591 122.107 55.7036 120.985 54.5925C119.829 53.4813 119.273 51.9702 119.273 50.0702C119.273 48.1035 119.862 46.5591 121.051 45.4479C122.24 44.3368 123.818 43.7812 125.818 43.7812C127.796 43.7812 129.34 44.3368 130.496 45.4479C131.618 46.5591 132.174 48.0368 132.174 49.8369C132.174 51.8035 131.585 53.3702 130.429 54.5258C129.274 55.6814 127.674 56.2591 125.662 56.2591ZM125.729 46.6257C124.873 46.6257 124.185 46.9257 123.685 47.5146C123.196 48.1035 122.962 48.9591 122.962 50.0369C122.962 52.3258 123.885 53.448 125.729 53.448C127.507 53.448 128.362 52.2702 128.362 49.9369C128.396 47.7368 127.507 46.6257 125.729 46.6257Z" fill="#0A1623"/>
<path d="M125.662 56.4284C123.628 56.4284 122.017 55.8506 120.873 54.7062C119.706 53.5728 119.117 52.0173 119.117 50.0728C119.117 48.0728 119.728 46.4728 120.951 45.3283C122.162 44.195 123.806 43.6172 125.839 43.6172C127.839 43.6172 129.451 44.195 130.628 45.3394C131.773 46.4839 132.362 47.995 132.362 49.8506C132.362 51.8506 131.762 53.4728 130.573 54.6506C129.362 55.8284 127.717 56.4284 125.662 56.4284ZM125.828 43.9394C123.862 43.9394 122.328 44.4728 121.173 45.5616C120.028 46.6505 119.439 48.1617 119.439 50.0728C119.439 51.9506 119.984 53.3951 121.106 54.4728C122.184 55.5506 123.717 56.0951 125.662 56.0951C127.628 56.0951 129.195 55.5284 130.317 54.4062C131.44 53.2839 132.017 51.7506 132.017 49.8395C132.017 48.0839 131.473 46.6394 130.384 45.5616C129.262 44.4728 127.762 43.9394 125.828 43.9394ZM125.728 53.6062C123.784 53.6062 122.795 52.4062 122.795 50.0395C122.795 48.895 123.051 48.0172 123.562 47.4061C124.084 46.7839 124.817 46.4617 125.728 46.4617C126.562 46.4617 127.228 46.7061 127.695 47.1728C128.273 47.7506 128.551 48.6839 128.528 49.9395C128.528 52.3728 127.584 53.6062 125.728 53.6062ZM125.728 46.795C124.917 46.795 124.273 47.0728 123.817 47.6172C123.362 48.1617 123.128 48.9728 123.128 50.0395C123.128 52.2173 123.984 53.2839 125.728 53.2839C127.384 53.2839 128.195 52.195 128.195 49.9395C128.217 48.7728 127.962 47.9172 127.451 47.4061C127.051 47.0061 126.473 46.795 125.728 46.795Z" fill="#0A1623"/>
<path d="M148.429 55.4618C147.206 56.0507 145.629 56.3507 143.662 56.3507C141.095 56.3507 139.084 55.5951 137.606 54.0951C136.128 52.584 135.406 50.584 135.406 48.095C135.406 45.4395 136.228 43.2728 137.873 41.6061C139.517 39.9394 141.662 39.1172 144.295 39.1172C145.94 39.1172 147.295 39.3172 148.406 39.7394V43.3394C147.284 42.6839 146.006 42.3617 144.584 42.3617C143.006 42.3617 141.751 42.8506 140.795 43.8395C139.84 44.8172 139.351 46.1617 139.351 47.8395C139.351 49.4506 139.806 50.7284 140.695 51.6729C141.617 52.6284 142.84 53.1173 144.384 53.1173C145.862 53.1173 147.184 52.7618 148.429 52.0395V55.4618Z" fill="#00D665"/>
<path d="M156.688 56.3529C154.71 56.3529 153.132 55.7973 151.977 54.6862C150.821 53.5751 150.266 52.064 150.266 50.1639C150.266 48.1973 150.855 46.6528 152.043 45.5417C153.232 44.4306 154.81 43.875 156.843 43.875C158.821 43.875 160.366 44.4306 161.521 45.5417C162.644 46.6528 163.199 48.1306 163.199 49.9306C163.199 51.8973 162.61 53.464 161.455 54.6195C160.277 55.7862 158.699 56.3529 156.688 56.3529ZM156.788 46.7195C155.932 46.7195 155.243 47.0195 154.743 47.6084C154.255 48.1973 154.021 49.0528 154.021 50.1306C154.021 52.4195 154.943 53.5418 156.788 53.5418C158.566 53.5418 159.421 52.364 159.421 50.0306C159.455 47.8306 158.566 46.7195 156.788 46.7195Z" fill="#00D665"/>
<path d="M184.534 56.052H180.845V49.2964C180.845 47.5631 180.223 46.7075 178.934 46.7075C178.345 46.7075 177.845 46.9742 177.456 47.4964C177.056 48.0186 176.9 48.6742 176.9 49.4297V56.0854H173.212V49.2408C173.212 47.5742 172.589 46.7186 171.334 46.7186C170.712 46.7186 170.212 46.9853 169.823 47.4742C169.456 47.9631 169.267 48.652 169.267 49.5075V56.0965H165.578V44.1964H169.267V46.063H169.3C169.7 45.4408 170.223 44.9186 170.912 44.5186C171.6 44.1297 172.356 43.9297 173.178 43.9297C174.856 43.9297 176.012 44.6852 176.634 46.163C177.556 44.6852 178.867 43.9297 180.645 43.9297C183.245 43.9297 184.534 45.5408 184.534 48.7186V56.052Z" fill="#00D665"/>
<path d="M191.183 54.6742H191.15V61.5187H187.461V44.1964H191.15V45.9964H191.183C192.105 44.6186 193.35 43.9297 195.005 43.9297C196.55 43.9297 197.739 44.4519 198.594 45.5075C199.45 46.5519 199.85 47.9964 199.85 49.8297C199.85 51.7964 199.361 53.3964 198.372 54.6187C197.383 55.8298 196.072 56.4187 194.461 56.4187C193.017 56.352 191.939 55.7853 191.183 54.6742ZM191.083 49.8297V50.7853C191.083 51.6075 191.317 52.2631 191.739 52.7853C192.172 53.3075 192.761 53.5742 193.45 53.5742C194.272 53.5742 194.928 53.252 195.394 52.5964C195.85 51.9409 196.083 51.0186 196.083 49.8409C196.083 47.7408 195.261 46.6964 193.65 46.6964C192.894 46.6964 192.272 46.9964 191.805 47.5519C191.305 48.1186 191.083 48.8742 191.083 49.8297Z" fill="#00D665"/>
<path d="M211.951 56.0553H208.462V54.3553H208.395C207.606 55.6998 206.417 56.3553 204.839 56.3553C203.684 56.3553 202.762 56.0331 202.106 55.3775C201.451 54.722 201.117 53.8331 201.117 52.7553C201.117 50.4664 202.495 49.1219 205.228 48.7553L208.451 48.333C208.451 47.0219 207.762 46.3997 206.339 46.3997C204.928 46.3997 203.573 46.8219 202.295 47.6775V44.9108C202.817 44.6441 203.517 44.4219 204.406 44.2219C205.295 44.0219 206.117 43.9219 206.839 43.9219C210.228 43.9219 211.939 45.6219 211.939 48.9997L211.951 56.0553ZM208.495 51.2442V50.4553L206.328 50.7219C205.139 50.8886 204.517 51.4108 204.517 52.3331C204.517 52.7553 204.651 53.0886 204.951 53.3442C205.251 53.6109 205.639 53.7331 206.139 53.7331C206.828 53.7331 207.395 53.4997 207.817 53.0108C208.262 52.5775 208.495 51.9553 208.495 51.2442Z" fill="#00D665"/>
<path d="M222.644 47.491C222.21 47.2577 221.688 47.1354 221.099 47.1354C220.31 47.1354 219.688 47.4354 219.222 48.0243C218.766 48.6132 218.533 49.4021 218.533 50.4133V56.08H214.844V44.191H218.533V46.391H218.566C219.155 44.7799 220.21 43.9688 221.722 43.9688C222.122 43.9688 222.41 44.0021 222.644 44.1021V47.491Z" fill="#00D665"/>
<path d="M234.981 51.1685H227.181C227.314 52.9018 228.403 53.7574 230.437 53.7574C231.748 53.7574 232.903 53.4574 233.892 52.8351V55.4907C232.77 56.0796 231.359 56.3796 229.581 56.3796C227.637 56.3796 226.159 55.8574 225.103 54.7685C224.048 53.724 223.492 52.2129 223.492 50.3129C223.492 48.3462 224.048 46.7795 225.203 45.624C226.359 44.4795 227.77 43.8906 229.448 43.8906C231.192 43.8906 232.537 44.4129 233.492 45.4351C234.448 46.4462 234.903 47.8573 234.903 49.624V51.1685H234.981ZM231.559 48.9018C231.559 47.2018 230.87 46.3462 229.481 46.3462C228.892 46.3462 228.392 46.5795 227.937 47.0684C227.503 47.5573 227.248 48.1462 227.148 48.9018H231.559Z" fill="#00D665"/>
<path d="M27.3906 56.486V53.3526L30.6684 50.0859V56.486" fill="#0A1623"/>
<path d="M32.1641 56.4773V52.1439L33.753 53.2884L35.7196 51.6328V56.4773" fill="#0A1623"/>
<path d="M37.0156 56.4888H40.7823V47.2109L37.0156 50.5221" fill="#0A1623"/>
<path d="M27.2198 51.6402L26.4531 50.7513L30.6976 46.6957L33.7421 49.5735L39.1199 44.7068L38.2199 43.6401L42.0088 42.7734L41.2644 46.4179L40.1866 45.6512L33.7421 51.8402L30.6976 49.2402L30.3865 48.9624C30.3865 48.9624 27.5754 51.8402 27.3865 51.7402" fill="#00D665"/>
<path d="M38.2707 62.2048L37.5707 59.627C43.0374 58.1492 47.7375 54.9603 49.8375 51.3158C50.9153 49.4269 51.2486 47.538 50.7819 45.8268C50.1153 43.3935 47.9153 41.4935 44.5708 40.4601C41.0152 39.3601 36.6818 39.4046 32.3596 40.5712L31.6484 37.9934C36.4596 36.6934 41.3263 36.6712 45.3597 37.9157C49.6042 39.2268 52.4486 41.7824 53.3597 45.1268C54.0153 47.5269 53.6042 50.1269 52.1597 52.6491C49.693 56.9492 44.493 60.527 38.2707 62.2048Z" fill="#00D665"/>
<path d="M29.7144 63.6645C27.4477 63.6645 25.2699 63.3645 23.3032 62.7533C19.0587 61.4422 16.2143 58.8755 15.3031 55.5422C14.6476 53.1421 15.0587 50.5421 16.5032 48.0199C18.981 43.7087 24.181 40.1309 30.4033 38.4531L31.1033 41.0309C25.6366 42.5087 20.9365 45.6976 18.8365 49.3421C17.7587 51.231 17.4254 53.1199 17.8921 54.8199C18.5587 57.2533 20.7588 59.1533 24.1032 60.1867C27.6588 61.2867 31.9922 61.2422 36.3144 60.0755L37.0145 62.6533C34.5589 63.3311 32.0811 63.6645 29.7144 63.6645Z" fill="#0A1623"/>
</svg>
