<svg width="250" height="100" viewBox="0 0 250 100" fill="none" xmlns="http://www.w3.org/2000/svg">
<g clip-path="url(#clip0_2191_62421)">
<path d="M164.626 33.6875H169.102C178.636 33.6875 183.939 39.1359 183.939 50.1785C183.939 61.1726 178.685 66.5237 169.102 66.5237H164.626C155.043 66.5237 149.789 61.1726 149.789 50.1785C149.789 39.1359 155.091 33.6875 164.626 33.6875ZM169.102 39.4277H164.626C158.302 39.4277 155.529 42.6384 155.529 50.1785C155.529 57.6701 158.253 60.7834 164.626 60.7834H169.102C175.426 60.7834 178.15 57.6701 178.15 50.1299C178.15 42.6384 175.426 39.4277 169.102 39.4277Z" fill="#2B2B2E"/>
<path d="M137.32 33.6875H143.061V66.5237H137.32V33.6875Z" fill="#2B2B2E"/>
<path d="M116.886 33.6875H130.507V39.4277H117.276C112.07 39.4277 110.514 41.9087 110.514 44.9734V48.0868H130.313V53.5351H110.514V66.5237H104.773V45.0221C104.773 38.4548 108.179 33.6875 116.886 33.6875Z" fill="#2B2B2E"/>
<path fill-rule="evenodd" clip-rule="evenodd" d="M81.6576 59.2315V79.6886C81.6576 80.7758 80.9737 81.2951 80.1298 80.8349L68.5353 74.4896C67.5985 73.8591 67.026 72.8087 67 71.6807V51.6875C67.171 51.8249 67.3494 51.9433 67.539 52.0475L81.6576 59.2315Z" fill="#765CD6"/>
<path fill-rule="evenodd" clip-rule="evenodd" d="M67.0295 33.3672V34.5887C67.0214 34.1429 67.0214 33.7377 67.0295 33.3672Z" fill="#765CD6"/>
<path fill-rule="evenodd" clip-rule="evenodd" d="M93.324 20.1114V34.9933C93.3049 35.9353 92.8086 36.6618 92.0144 37.1652L85.2286 40.7444L84.7326 40.8913L68.1074 32.5295C68.0845 32.5143 68.0616 32.5028 68.0386 32.4913C67.9776 32.4608 67.9165 32.4418 67.8554 32.4227C67.8134 32.4151 67.7714 32.4036 67.7332 32.3998C67.695 32.3922 67.6568 32.3922 67.6186 32.3922C67.5041 32.396 67.3933 32.4227 67.2902 32.4685C67.2559 32.4875 67.2215 32.5028 67.191 32.5257C67.191 32.5257 67.191 32.5295 67.1833 32.5295L67.1719 32.5409C67.653 31.6675 68.5885 31.1641 69.9822 30.4166L92.0144 19.1312C92.7323 18.7651 93.324 19.1884 93.324 20.1114Z" fill="#765CD6"/>
<path fill-rule="evenodd" clip-rule="evenodd" d="M92.6508 46.2838V61.1213C92.6508 62.0421 92.0753 62.4718 91.3771 62.1068L68.1253 49.8905C67.5979 49.5519 67.208 49.0422 67 48.4563C67.0186 48.4867 67.0334 48.5172 67.0557 48.5437C67.0706 48.5628 67.0854 48.5818 67.104 48.6007C67.1077 48.6084 67.1114 48.6122 67.1188 48.6198C67.1337 48.6351 67.1486 48.6541 67.1671 48.6692C67.1857 48.6921 67.208 48.7074 67.2303 48.7264C67.2637 48.7491 67.2934 48.772 67.3305 48.7873C67.5496 48.9052 67.8282 48.8976 68.1253 48.7415L84.2949 40.25L85.3042 40.6912L91.3771 43.9631C92.1533 44.4692 92.6323 45.3405 92.6508 46.2838Z" fill="#A08AEE"/>
<path fill-rule="evenodd" clip-rule="evenodd" d="M85.3221 40.6962L68.3488 49.1158C68.037 49.2705 67.7446 49.2779 67.5146 49.161C67.4756 49.1459 67.4444 49.1232 67.4093 49.1007C67.3859 49.0818 67.3625 49.0668 67.3431 49.0441C67.3236 49.029 67.308 49.0101 67.2924 48.995C67.2846 48.9876 67.2807 48.9838 67.2768 48.9761C67.2573 48.9573 67.2417 48.9384 67.2261 48.9197C67.2027 48.8932 67.1871 48.863 67.1676 48.8329C67.0624 48.6518 67 48.418 67 48.1463V33.2421C67 32.797 67.152 32.465 67.3937 32.2877C67.3976 32.284 67.4015 32.2802 67.4054 32.2802C67.4054 32.2802 67.4093 32.2727 67.4132 32.2727C67.4444 32.25 67.4795 32.2349 67.5146 32.216C67.6198 32.1708 67.7329 32.1444 67.8498 32.1406C67.8888 32.1406 67.9278 32.1406 67.9668 32.1481C68.0058 32.1519 68.0486 32.1633 68.0915 32.1708C68.1539 32.1897 68.2163 32.2085 68.2786 32.2387C68.302 32.25 68.3254 32.2613 68.3488 32.2764L85.3221 40.6962Z" fill="#8B73E2"/>
</g>
<defs>
<clipPath id="clip0_2191_62421">
<rect width="116.942" height="62" fill="white" transform="translate(67 19)"/>
</clipPath>
</defs>
</svg>
