<svg width="250" height="100" viewBox="0 0 250 100" fill="none" xmlns="http://www.w3.org/2000/svg">
<path d="M92.2799 58.5231C90.209 58.5231 88.2762 58.0629 86.5275 57.1425C84.8248 56.2221 83.4443 54.9336 82.3858 53.2309C81.3734 51.5282 80.8672 49.6414 80.8672 47.5706C80.8672 45.4997 81.3734 43.6129 82.3858 41.9562C83.3982 40.2996 84.7788 39.011 86.5275 38.0446C88.2762 37.1243 90.163 36.6641 92.2799 36.6641C94.3508 36.6641 96.2836 37.1243 97.9863 38.0446C99.735 38.965 101.116 40.2535 102.082 41.9562C103.094 43.6129 103.601 45.4997 103.601 47.5706C103.601 49.6414 103.094 51.5282 102.082 53.2309C101.07 54.8876 99.689 56.1761 97.9863 57.1425C96.2836 58.0629 94.3508 58.5231 92.2799 58.5231ZM92.2799 53.7831C94.0286 53.7831 95.4552 53.2309 96.5136 52.0804C97.5721 50.93 98.1243 49.4573 98.1243 47.5706C98.1243 45.6838 97.5721 44.1652 96.5136 43.0607C95.4552 41.9102 94.0746 41.358 92.2799 41.358C90.4852 41.358 89.0586 41.9102 88.0001 43.0147C86.9417 44.1191 86.4355 45.6378 86.4355 47.5245C86.4355 49.4113 86.9417 50.93 88.0001 52.0344C89.0586 53.2309 90.4852 53.7831 92.2799 53.7831Z" fill="#04111D"/>
<path d="M111.978 43.755C112.484 42.9727 113.22 42.3285 114.141 41.8222C115.061 41.316 116.166 41.0859 117.408 41.0859C118.881 41.0859 120.169 41.4541 121.366 42.1444C122.562 42.8347 123.483 43.8471 124.127 45.1816C124.817 46.5162 125.185 48.0348 125.185 49.7835C125.185 51.5323 124.817 53.0509 124.127 54.3854C123.437 55.72 122.516 56.7324 121.366 57.4687C120.169 58.159 118.881 58.5271 117.408 58.5271C116.212 58.5271 115.107 58.297 114.141 57.7908C113.22 57.2846 112.484 56.6864 111.978 55.9041V63.3131H106.594V41.316H111.978V43.755ZM119.663 49.7835C119.663 48.495 119.295 47.4826 118.513 46.7463C117.776 46.01 116.856 45.6418 115.752 45.6418C114.693 45.6418 113.773 46.01 112.99 46.7463C112.254 47.4826 111.886 48.541 111.886 49.8295C111.886 51.1181 112.254 52.1305 112.99 52.9128C113.727 53.6491 114.647 54.0173 115.752 54.0173C116.81 54.0173 117.73 53.6491 118.513 52.9128C119.295 52.1305 119.663 51.1181 119.663 49.7835Z" fill="#04111D"/>
<path d="M144.556 49.5473C144.556 50.0535 144.51 50.5598 144.464 51.066H132.269C132.361 52.1244 132.683 52.9527 133.327 53.505C133.971 54.0572 134.708 54.3333 135.628 54.3333C136.963 54.3333 137.929 53.7811 138.435 52.6766H144.188C143.912 53.7811 143.359 54.7935 142.577 55.6679C141.841 56.5422 140.874 57.2785 139.724 57.7847C138.573 58.2909 137.285 58.5671 135.858 58.5671C134.156 58.5671 132.591 58.1989 131.256 57.5086C129.922 56.8183 128.863 55.8059 128.127 54.4714C127.391 53.1368 126.977 51.6182 126.977 49.8695C126.977 48.1207 127.345 46.5561 128.081 45.2676C128.817 43.933 129.876 42.9206 131.21 42.2303C132.545 41.54 134.11 41.1719 135.858 41.1719C137.561 41.1719 139.08 41.494 140.414 42.1843C141.749 42.8746 142.761 43.841 143.497 45.1295C144.188 46.372 144.556 47.8446 144.556 49.5473ZM139.034 48.1668C139.034 47.2924 138.711 46.5561 138.067 46.0499C137.423 45.5437 136.641 45.2676 135.72 45.2676C134.8 45.2676 134.063 45.5437 133.419 46.0499C132.821 46.5561 132.453 47.2924 132.269 48.2128H139.034V48.1668Z" fill="#04111D"/>
<path d="M158.136 41.1719C160.207 41.1719 161.818 41.8161 163.061 43.1047C164.303 44.3932 164.901 46.1419 164.901 48.3969V58.2909H159.563V49.0871C159.563 47.9367 159.241 47.0623 158.643 46.4641C158.044 45.8198 157.216 45.5437 156.204 45.5437C155.191 45.5437 154.363 45.8658 153.765 46.4641C153.166 47.1083 152.844 47.9827 152.844 49.0871V58.2909H147.414V41.3099H152.798V43.5649C153.351 42.8286 154.087 42.2303 155.007 41.8161C155.928 41.402 156.986 41.1719 158.136 41.1719Z" fill="#04111D"/>
<path d="M176.636 58.5231C175.025 58.5231 173.553 58.247 172.264 57.7408C170.976 57.2346 169.963 56.4982 169.181 55.4858C168.445 54.4734 168.03 53.2769 167.984 51.8963H173.737C173.829 52.6787 174.105 53.2769 174.611 53.7371C175.071 54.1513 175.716 54.3354 176.498 54.3354C177.28 54.3354 177.924 54.1513 178.385 53.8291C178.845 53.461 179.075 52.9548 179.075 52.3565C179.075 51.8503 178.891 51.3901 178.523 51.068C178.155 50.7459 177.694 50.4237 177.188 50.2397C176.682 50.0096 175.9 49.7795 174.933 49.4573C173.507 49.0432 172.356 48.629 171.436 48.1688C170.515 47.7546 169.733 47.1104 169.089 46.282C168.445 45.4537 168.122 44.3492 168.122 43.0147C168.122 41.0359 168.859 39.4712 170.377 38.3668C171.85 37.2163 173.829 36.6641 176.222 36.6641C178.661 36.6641 180.64 37.2163 182.112 38.3668C183.585 39.4712 184.413 41.0359 184.505 43.0607H178.661C178.615 42.3704 178.339 41.8182 177.878 41.45C177.418 41.0359 176.774 40.8518 176.038 40.8518C175.393 40.8518 174.841 41.0359 174.473 41.358C174.059 41.6801 173.875 42.1403 173.875 42.7846C173.875 43.4749 174.197 44.0271 174.887 44.3952C175.578 44.7634 176.59 45.1776 178.017 45.6378C179.443 46.098 180.594 46.5581 181.468 46.9723C182.388 47.3865 183.171 48.0308 183.815 48.8131C184.459 49.6414 184.781 50.6538 184.781 51.9424C184.781 53.1389 184.459 54.2433 183.815 55.2557C183.171 56.2682 182.25 57.0505 181.054 57.6487C179.765 58.247 178.339 58.5231 176.636 58.5231Z" fill="#04111D"/>
<path d="M204.611 49.5473C204.611 50.0535 204.564 50.5598 204.518 51.066H192.323C192.415 52.1244 192.738 52.9527 193.382 53.505C194.026 54.0572 194.762 54.3333 195.683 54.3333C197.017 54.3333 197.984 53.7811 198.49 52.6766H204.242C203.966 53.7811 203.414 54.7935 202.632 55.6679C201.895 56.5422 200.929 57.2785 199.779 57.7847C198.628 58.2909 197.34 58.5671 195.913 58.5671C194.21 58.5671 192.646 58.1989 191.311 57.5086C189.976 56.8183 188.918 55.8059 188.182 54.4714C187.445 53.1368 187.031 51.6182 187.031 49.8695C187.031 48.1207 187.399 46.5561 188.136 45.2676C188.872 43.933 189.93 42.9206 191.265 42.2303C192.6 41.54 194.164 41.1719 195.913 41.1719C197.616 41.1719 199.134 41.494 200.469 42.1843C201.803 42.8746 202.816 43.841 203.552 45.1295C204.242 46.372 204.611 47.8446 204.611 49.5473ZM199.088 48.1668C199.088 47.2924 198.766 46.5561 198.122 46.0499C197.478 45.5437 196.695 45.2676 195.775 45.2676C194.854 45.2676 194.118 45.5437 193.474 46.0499C192.876 46.5561 192.508 47.2924 192.323 48.2128H199.088V48.1668Z" fill="#04111D"/>
<path d="M206.406 49.7835C206.406 48.0348 206.728 46.5162 207.419 45.1816C208.109 43.8471 209.029 42.8347 210.226 42.1444C211.422 41.4541 212.711 41.0859 214.183 41.0859C215.426 41.0859 216.484 41.316 217.451 41.8222C218.417 42.3285 219.107 42.9267 219.614 43.755V41.3621H224.998V58.3431H219.614V55.9501C219.107 56.7324 218.371 57.3767 217.405 57.8829C216.484 58.3891 215.38 58.6192 214.137 58.6192C212.711 58.6192 211.422 58.251 210.226 57.5607C209.029 56.8244 208.109 55.812 207.419 54.4775C206.728 53.0969 206.406 51.5323 206.406 49.7835ZM219.568 49.8295C219.568 48.541 219.2 47.5286 218.417 46.7463C217.681 46.01 216.761 45.6418 215.702 45.6418C214.644 45.6418 213.723 46.01 212.941 46.7463C212.205 47.4826 211.836 48.495 211.836 49.7835C211.836 51.0721 212.205 52.1305 212.941 52.8668C213.677 53.6031 214.598 53.9713 215.702 53.9713C216.761 53.9713 217.681 53.6031 218.417 52.8668C219.2 52.1765 219.568 51.1181 219.568 49.8295Z" fill="#04111D"/>
<path d="M71.019 50.0095C71.019 62.7107 60.7107 73.019 48.0095 73.019C35.3083 73.019 25 62.7107 25 50.0095C25 37.3083 35.3083 27 48.0095 27C60.7107 27 71.019 37.3083 71.019 50.0095Z" fill="#2081E2"/>
<path d="M36.3652 50.7893L36.4572 50.6512L42.4397 41.3093C42.5317 41.1713 42.7158 41.1713 42.8078 41.3554C43.8203 43.6103 44.6486 46.3714 44.2804 48.1202C44.0964 48.8565 43.6362 49.8229 43.0839 50.6972C43.0379 50.8353 42.9459 50.9733 42.8539 51.0654C42.8078 51.1114 42.7618 51.1574 42.6698 51.1574H36.5032C36.3652 51.1114 36.2731 50.9273 36.3652 50.7893Z" fill="white"/>
<path d="M63.0109 52.5399V54.0125C63.0109 54.1045 62.9649 54.1505 62.8729 54.1966C62.4127 54.3806 60.802 55.1169 60.1577 56.0373C58.455 58.3843 57.1665 61.7437 54.3133 61.7437H42.3024C38.0686 61.7437 34.6172 58.2922 34.6172 54.0125V53.8744C34.6172 53.7824 34.7092 53.6903 34.8013 53.6903H41.5661C41.7041 53.6903 41.7962 53.8284 41.7962 53.9204C41.7501 54.3346 41.8422 54.7948 42.0262 55.209C42.4404 56.0373 43.2688 56.4975 44.1431 56.4975H47.4565V53.9204H44.1891C44.0051 53.9204 43.913 53.7364 44.0051 53.5983C44.0511 53.5523 44.0971 53.5063 44.1431 53.4142C44.4653 52.954 44.8794 52.3098 45.3396 51.5274C45.6617 51.0212 45.9379 50.423 46.168 49.8708C46.214 49.7787 46.26 49.6867 46.306 49.5486C46.352 49.3646 46.4441 49.1805 46.4901 49.0424C46.5361 48.9044 46.5821 48.7663 46.6281 48.6283C46.7202 48.1681 46.7662 47.6619 46.7662 47.1096C46.7662 46.9256 46.7662 46.6955 46.7202 46.4654C46.7202 46.2353 46.6742 46.0052 46.6742 45.7751C46.6742 45.591 46.6281 45.3609 46.5821 45.1768C46.5361 44.8547 46.4901 44.5786 46.3981 44.2565L46.352 44.1644C46.306 43.9803 46.26 43.7502 46.168 43.5662C45.9839 42.9219 45.7538 42.2776 45.5237 41.7254C45.4317 41.4953 45.3396 41.2652 45.2476 41.0351C45.1095 40.713 44.9715 40.3909 44.8334 40.1147C44.7874 39.9767 44.6953 39.8846 44.6493 39.7466C44.6033 39.6085 44.5113 39.4705 44.4653 39.3324C44.4192 39.2404 44.3732 39.1483 44.3272 39.0563L43.913 38.32C43.867 38.228 43.959 38.0899 44.0511 38.1359L46.5821 38.8262L46.9043 38.9182L47.2724 39.0103L47.4105 39.0563V37.5377C47.4105 36.8014 48.0087 36.2031 48.699 36.2031C49.0672 36.2031 49.3893 36.3412 49.6194 36.5713C49.8495 36.8014 49.9875 37.1235 49.9875 37.4917V39.7006L50.2636 39.7926C50.2636 39.7926 50.3097 39.7926 50.3097 39.8386C50.3557 39.8846 50.4477 39.9767 50.5858 40.0687C50.6778 40.1608 50.7699 40.2528 50.9079 40.3448C51.138 40.5289 51.4601 40.805 51.7823 41.0811C51.8743 41.1732 51.9663 41.2192 52.0124 41.3112C52.4265 41.6794 52.8867 42.1396 53.3469 42.6458C53.485 42.7838 53.577 42.9219 53.7151 43.06C53.8531 43.198 53.9452 43.3821 54.0832 43.5201C54.2213 43.7042 54.4054 43.9343 54.5434 44.1184C54.5894 44.2104 54.6815 44.3025 54.7275 44.4405C54.9116 44.7166 55.0496 44.9928 55.2337 45.2689C55.2797 45.4069 55.3718 45.545 55.4178 45.683C55.6019 46.0512 55.7399 46.4193 55.7859 46.8335C55.8319 46.9255 55.8319 47.0176 55.8319 47.0636C55.878 47.1556 55.878 47.2937 55.878 47.4318C55.924 47.8459 55.878 48.2141 55.8319 48.6283C55.7859 48.8123 55.7399 48.9504 55.6939 49.1345C55.6479 49.2725 55.6019 49.4566 55.5098 49.6407C55.3718 49.9628 55.1877 50.2849 55.0036 50.6071C54.9576 50.6991 54.8655 50.8372 54.7735 50.9752C54.6815 51.1133 54.5894 51.2053 54.5434 51.3434C54.4514 51.4814 54.3133 51.6195 54.2213 51.7575C54.1292 51.8956 54.0372 52.0337 53.8992 52.1717C53.7611 52.3558 53.577 52.5399 53.439 52.7239C53.3469 52.816 53.2549 52.954 53.1168 53.0461C53.0248 53.1381 52.9327 53.2762 52.7947 53.3682C52.6566 53.5063 52.5186 53.6443 52.3805 53.7364L52.1044 53.9665C52.0584 54.0125 52.0124 54.0125 51.9664 54.0125H49.9415V56.5895H52.4726C53.0248 56.5895 53.577 56.4055 53.9912 56.0373C54.1292 55.8993 54.7735 55.347 55.5558 54.5187C55.6018 54.4727 55.6019 54.4727 55.6479 54.4727L62.6428 52.4478C62.9189 52.3098 63.0109 52.4018 63.0109 52.5399Z" fill="white"/>
</svg>
