<svg width="250" height="100" viewBox="0 0 250 100" fill="none" xmlns="http://www.w3.org/2000/svg">
<g clip-path="url(#clip0_2192_62592)">
<path d="M35.0988 62.93C32.1315 62.93 29.7003 62.2319 27.8052 60.8355C25.9351 59.4141 25 57.3944 25 54.7763C25 54.2276 25.0623 53.5544 25.187 52.7565C25.5112 50.9612 25.9725 48.8042 26.5709 46.2858C28.2665 39.4286 32.6427 36 39.6993 36C41.6193 36 43.3399 36.3242 44.8609 36.9725C46.382 37.5959 47.5788 38.5434 48.4516 39.8151C49.3243 41.0619 49.7607 42.558 49.7607 44.3034C49.7607 44.8271 49.6984 45.4879 49.5737 46.2858C49.1996 48.505 48.7508 50.6619 48.2272 52.7565C47.3544 56.1727 45.8459 58.7285 43.7015 60.424C41.5569 62.0947 38.6895 62.93 35.0988 62.93ZM35.6224 57.544C37.0188 57.544 38.2032 57.1327 39.1757 56.3097C40.1731 55.4869 40.8837 54.2276 41.3076 52.532C41.8812 50.1881 42.3175 48.1435 42.6168 46.398C42.7165 45.8744 42.7664 45.3382 42.7664 44.7897C42.7664 42.5206 41.5819 41.386 39.2131 41.386C37.8167 41.386 36.6198 41.7974 35.6224 42.6203C34.6499 43.4432 33.9517 44.7024 33.5279 46.398C33.079 48.0687 32.6302 50.1133 32.1813 52.532C32.0816 53.0308 32.0317 53.5544 32.0317 54.1029C32.0317 56.3971 33.2286 57.544 35.6224 57.544Z" fill="#FF0420"/>
<path d="M53.5586 62.557C53.2842 62.557 53.0723 62.4698 52.9227 62.2952C52.798 62.0956 52.7606 61.8712 52.8104 61.6219L57.972 37.3101C58.0219 37.0358 58.1591 36.8114 58.3835 36.6368C58.6079 36.4623 58.8448 36.375 59.0942 36.375H69.0432C71.8111 36.375 74.0303 36.9485 75.7009 38.0955C77.3965 39.2426 78.2444 40.9007 78.2444 43.0701C78.2444 43.6935 78.1696 44.3418 78.02 45.0151C77.3965 47.8826 76.1373 50.002 74.2423 51.3735C72.3721 52.745 69.8037 53.4307 66.5372 53.4307H61.4879L59.7674 61.6219C59.7175 61.8962 59.5803 62.1206 59.3559 62.2952C59.1315 62.4698 58.8947 62.557 58.6452 62.557H53.5586ZM66.7991 48.2691C67.8464 48.2691 68.7565 47.9823 69.5295 47.4088C70.3275 46.8353 70.8511 46.0125 71.1004 44.9403C71.1752 44.5164 71.2127 44.1423 71.2127 43.8182C71.2127 43.0951 71.0007 42.5465 70.5768 42.1724C70.1529 41.7735 69.4297 41.574 68.4075 41.574H63.9191L62.4978 48.2691H66.7991Z" fill="#FF0420"/>
<path d="M86.6702 62.557C86.396 62.557 86.184 62.4698 86.0344 62.2952C85.8848 62.0956 85.8349 61.8712 85.8848 61.6219L90.0365 42.2473H83.3788C83.1045 42.2473 82.8925 42.16 82.7429 41.9854C82.6182 41.7859 82.5809 41.5615 82.6308 41.3122L83.491 37.3101C83.5409 37.0358 83.678 36.8114 83.9024 36.6368C84.1268 36.4623 84.3637 36.375 84.613 36.375H104.736C105.01 36.375 105.222 36.4623 105.372 36.6368C105.471 36.7864 105.521 36.936 105.521 37.0857C105.521 37.1605 105.509 37.2353 105.484 37.3101L104.624 41.3122C104.574 41.5865 104.437 41.8109 104.212 41.9854C104.013 42.16 103.776 42.2473 103.502 42.2473H96.8812L92.7294 61.6219C92.6796 61.8962 92.5425 62.1206 92.3181 62.2952C92.0936 62.4698 91.8568 62.557 91.6074 62.557H86.6702Z" fill="#FF0420"/>
<path d="M106.476 62.557C106.202 62.557 105.99 62.4698 105.84 62.2952C105.691 62.0956 105.641 61.8712 105.691 61.6219L110.89 37.3101C110.94 37.0358 111.077 36.8114 111.301 36.6368C111.526 36.4623 111.762 36.375 112.012 36.375H117.061C117.335 36.375 117.547 36.4623 117.697 36.6368C117.797 36.7864 117.847 36.936 117.847 37.0857C117.847 37.1605 117.834 37.2353 117.809 37.3101L112.648 61.6219C112.598 61.8962 112.461 62.1206 112.236 62.2952C112.012 62.4698 111.775 62.557 111.526 62.557H106.476Z" fill="#FF0420"/>
<path d="M120.718 62.557C120.444 62.557 120.232 62.4698 120.082 62.2952C119.933 62.1206 119.883 61.8962 119.933 61.6219L125.094 37.3101C125.144 37.0358 125.281 36.8114 125.506 36.6368C125.73 36.4623 125.98 36.375 126.254 36.375H130.293C130.892 36.375 131.278 36.6493 131.453 37.1979L135.53 48.9798L144.619 37.1979C144.743 36.9984 144.918 36.8114 145.142 36.6368C145.392 36.4623 145.691 36.375 146.04 36.375H150.117C150.391 36.375 150.603 36.4623 150.753 36.6368C150.852 36.7864 150.902 36.936 150.902 37.0857C150.902 37.1605 150.89 37.2353 150.865 37.3101L145.703 61.6219C145.653 61.8962 145.516 62.1206 145.292 62.2952C145.067 62.4698 144.831 62.557 144.581 62.557H140.055C139.781 62.557 139.569 62.4698 139.42 62.2952C139.295 62.0956 139.258 61.8712 139.307 61.6219L142.225 47.8203L136.502 55.4131C136.253 55.6874 136.016 55.8992 135.792 56.0488C135.567 56.1986 135.305 56.2734 135.006 56.2734H133.061C132.538 56.2734 132.176 55.9866 131.976 55.4131L129.321 47.4837L126.329 61.6219C126.279 61.8962 126.142 62.1206 125.917 62.2952C125.693 62.4698 125.456 62.557 125.207 62.557H120.718Z" fill="#FF0420"/>
<path d="M153.734 62.557C153.459 62.557 153.248 62.4698 153.098 62.2952C152.948 62.0956 152.899 61.8712 152.948 61.6219L158.147 37.3101C158.197 37.0358 158.334 36.8114 158.559 36.6368C158.783 36.4623 159.02 36.375 159.269 36.375H164.319C164.593 36.375 164.805 36.4623 164.955 36.6368C165.055 36.7864 165.104 36.936 165.104 37.0857C165.104 37.1605 165.092 37.2353 165.067 37.3101L159.905 61.6219C159.856 61.8962 159.719 62.1206 159.493 62.2952C159.269 62.4698 159.032 62.557 158.783 62.557H153.734Z" fill="#FF0420"/>
<path d="M177.215 62.93C175.02 62.93 173.137 62.6308 171.567 62.0324C170.02 61.434 168.848 60.636 168.051 59.6387C167.277 58.6412 166.891 57.5316 166.891 56.3097C166.891 56.1103 166.916 55.8111 166.965 55.4121C167.016 55.1876 167.116 55.0007 167.265 54.8511C167.44 54.7015 167.639 54.6267 167.864 54.6267H172.651C172.951 54.6267 173.175 54.6765 173.324 54.7763C173.499 54.876 173.673 55.0505 173.848 55.2999C174.023 55.9481 174.421 56.4843 175.045 56.9081C175.693 57.3321 176.579 57.544 177.7 57.544C179.121 57.544 180.269 57.3196 181.141 56.8708C182.015 56.422 182.539 55.8111 182.712 55.038C182.737 54.9383 182.749 54.7887 182.749 54.5892C182.749 53.9659 182.364 53.4796 181.591 53.1305C180.817 52.7565 179.396 52.3201 177.327 51.8215C174.908 51.2977 173.075 50.5123 171.828 49.4651C170.581 48.3928 169.959 46.9964 169.959 45.2759C169.959 44.6775 170.033 44.0665 170.183 43.4432C170.681 41.1242 171.916 39.3039 173.885 37.9823C175.88 36.6608 178.448 36 181.591 36C183.485 36 185.169 36.3366 186.64 37.0099C188.111 37.6831 189.245 38.5434 190.044 39.5907C190.867 40.613 191.277 41.6354 191.277 42.6577C191.277 42.9569 191.265 43.1689 191.24 43.2936C191.191 43.518 191.079 43.705 190.904 43.8546C190.755 44.0042 190.567 44.079 190.343 44.079H185.331C184.783 44.079 184.408 43.8671 184.209 43.4432C184.184 42.8697 183.884 42.3834 183.311 41.9845C182.737 41.5855 181.989 41.386 181.067 41.386C179.969 41.386 179.06 41.5855 178.336 41.9845C177.639 42.3834 177.201 42.9694 177.028 43.7424C177.003 43.8671 176.989 44.0291 176.989 44.2286C176.989 44.8271 177.339 45.3258 178.037 45.7247C178.76 46.0988 180.02 46.4853 181.815 46.8842C184.608 47.4328 186.64 48.2183 187.912 49.2406C189.208 50.2629 189.856 51.6219 189.856 53.3175C189.856 53.8911 189.781 54.5144 189.632 55.1876C189.084 57.7311 187.749 59.6636 185.629 60.9851C183.536 62.2817 180.731 62.93 177.215 62.93Z" fill="#FF0420"/>
<path d="M194.812 62.557C194.538 62.557 194.326 62.4698 194.176 62.2952C194.027 62.1206 193.976 61.8962 194.027 61.6219L199.188 37.3101C199.238 37.0358 199.375 36.8114 199.6 36.6368C199.824 36.4623 200.074 36.375 200.348 36.375H204.387C204.986 36.375 205.372 36.6493 205.547 37.1979L209.624 48.9798L218.712 37.1979C218.838 36.9984 219.012 36.8114 219.236 36.6368C219.486 36.4623 219.784 36.375 220.134 36.375H224.211C224.486 36.375 224.698 36.4623 224.847 36.6368C224.947 36.7864 224.996 36.936 224.996 37.0857C224.996 37.1605 224.984 37.2353 224.959 37.3101L219.798 61.6219C219.747 61.8962 219.61 62.1206 219.386 62.2952C219.162 62.4698 218.924 62.557 218.675 62.557H214.15C213.875 62.557 213.663 62.4698 213.514 62.2952C213.388 62.0956 213.351 61.8712 213.402 61.6219L216.319 47.8203L210.596 55.4131C210.347 55.6874 210.11 55.8992 209.886 56.0488C209.662 56.1986 209.399 56.2734 209.1 56.2734H207.155C206.631 56.2734 206.27 55.9866 206.071 55.4131L203.415 47.4837L200.423 61.6219C200.372 61.8962 200.235 62.1206 200.011 62.2952C199.787 62.4698 199.55 62.557 199.3 62.557H194.812Z" fill="#FF0420"/>
</g>
<defs>
<clipPath id="clip0_2192_62592">
<rect width="200" height="28" fill="white" transform="translate(25 36)"/>
</clipPath>
</defs>
</svg>
