<svg width="250" height="100" viewBox="0 0 250 100" fill="none" xmlns="http://www.w3.org/2000/svg">
<path d="M72.0588 68.6471L50.2946 31L28.5294 68.6471H72.0588ZM34.9998 48.6471L45 31H25L34.9998 48.6471ZM63.1702 63.6638H37.4187L50.2946 41.3911L63.1702 63.6638Z" fill="#2669F5"/>
<path d="M196.744 57.2721C197.536 57.2721 198.308 57.2446 199.061 57.1898C199.815 57.1358 200.499 57.0647 201.118 56.978C201.735 56.8905 202.277 56.809 202.748 56.7328C203.215 56.6565 203.574 56.5854 203.823 56.5202V45.8666C203.823 44.974 203.7 44.1466 203.451 43.3837C203.204 42.6214 202.808 41.9621 202.267 41.4066C201.721 40.8502 201.011 40.4147 200.136 40.0991C199.259 39.7836 198.189 39.625 196.931 39.625C195.696 39.625 194.639 39.7021 193.762 39.8539C192.885 40.0066 192.237 40.1694 191.818 40.3435L192.151 42.2065C192.472 42.0976 192.98 41.9569 193.669 41.7821C194.363 41.608 195.411 41.5206 196.82 41.5206C197.806 41.5206 198.603 41.6562 199.209 41.9289C199.815 42.2022 200.284 42.5615 200.619 43.008C200.95 43.454 201.167 43.9547 201.265 44.5111C201.349 44.9859 201.39 45.4756 201.404 45.9748H201.413V46.2038C201.413 46.2119 201.415 46.2186 201.415 46.2267V47.2726H201.413V49.135H201.415V55.0824C200.92 55.1698 200.321 55.2409 199.617 55.2949C198.913 55.3497 198.091 55.3765 197.152 55.3765C196.388 55.3765 195.701 55.3164 195.096 55.1964C194.492 55.0772 193.972 54.8869 193.54 54.6254C193.108 54.3638 192.774 54.0157 192.54 53.5786C192.304 53.1431 192.188 52.6106 192.188 51.9779C192.188 51.2586 192.361 50.6824 192.706 50.246C193.052 49.8104 193.497 49.4668 194.041 49.2163C194.583 48.966 195.176 48.803 195.819 48.7258C196.462 48.6504 197.08 48.6127 197.672 48.6127C198.137 48.6127 198.552 48.626 198.928 48.6504V46.8415C198.897 46.8393 198.868 46.8341 198.838 46.8311C198.455 46.7977 198.091 46.7814 197.745 46.7814C196.586 46.7814 195.511 46.88 194.522 47.0762C193.534 47.2726 192.682 47.5829 191.965 48.0073C191.25 48.4328 190.693 48.9711 190.298 49.6253C189.904 50.2786 189.705 51.0624 189.705 51.9779C189.705 52.9371 189.885 53.7483 190.242 54.412C190.599 55.0772 191.095 55.6217 191.725 56.0469C192.355 56.4713 193.095 56.7817 193.947 56.978C194.8 57.1735 195.733 57.2721 196.744 57.2721ZM135.57 57.2721C136.358 57.2721 137.131 57.2446 137.884 57.1898C138.638 57.1358 139.324 57.0647 139.942 56.978C140.558 56.8905 141.102 56.809 141.571 56.7328C142.041 56.6565 142.4 56.5854 142.647 56.5202V45.8666C142.647 44.974 142.524 44.1466 142.277 43.3837C142.03 42.6214 141.633 41.9621 141.091 41.4066C140.547 40.8502 139.836 40.4147 138.959 40.0991C138.082 39.7836 137.015 39.625 135.755 39.625C134.519 39.625 133.463 39.7021 132.586 39.8539C131.709 40.0066 131.061 40.1694 130.642 40.3435L130.974 42.2065C131.295 42.0976 131.802 41.9569 132.494 41.7821C133.185 41.608 134.235 41.5206 135.642 41.5206C136.632 41.5206 137.426 41.6562 138.034 41.9289C138.638 42.2022 139.107 42.5615 139.442 43.008C139.774 43.454 139.989 43.9547 140.091 44.5111C140.175 44.9859 140.214 45.4756 140.227 45.9748H140.238V55.0824C139.743 55.1698 139.147 55.2409 138.441 55.2949C137.737 55.3497 136.915 55.3765 135.978 55.3765C135.21 55.3765 134.525 55.3164 133.92 55.1964C133.315 55.0772 132.795 54.8869 132.363 54.6254C131.93 54.3638 131.598 54.0157 131.364 53.5786C131.129 53.1431 131.013 52.6106 131.013 51.9779C131.013 51.2586 131.184 50.6824 131.531 50.246C131.875 49.8104 132.32 49.4668 132.864 49.2163C133.409 48.966 134.001 48.803 134.642 48.7258C135.285 48.6504 135.902 48.6127 136.495 48.6127C136.961 48.6127 137.374 48.626 137.751 48.6504V46.8415C137.72 46.8393 137.694 46.8341 137.662 46.8311C137.279 46.7977 136.915 46.7814 136.57 46.7814C135.408 46.7814 134.333 46.88 133.347 47.0762C132.358 47.2726 131.506 47.5829 130.79 48.0073C130.072 48.4328 129.517 48.9711 129.121 49.6253C128.726 50.2786 128.529 51.0624 128.529 51.9779C128.529 52.9371 128.708 53.7483 129.066 54.412C129.425 55.0772 129.919 55.6217 130.547 56.0469C131.178 56.4713 131.921 56.7817 132.771 56.978C133.623 57.1735 134.556 57.2721 135.57 57.2721ZM106.158 57.2721C106.948 57.2721 107.72 57.2446 108.474 57.1898C109.227 57.1358 109.912 57.0647 110.53 56.978C111.147 56.8905 111.692 56.809 112.16 56.7328C112.629 56.6565 112.988 56.5854 113.235 56.5202V45.8666C113.235 44.974 113.111 44.1466 112.866 43.3837C112.618 42.6214 112.222 41.9621 111.679 41.4066C111.136 40.8502 110.425 40.4147 109.548 40.0991C108.671 39.7836 107.603 39.625 106.343 39.625C105.107 39.625 104.052 39.7021 103.175 39.8539C102.297 40.0066 101.65 40.1694 101.229 40.3435L101.563 42.2065C101.884 42.0976 102.39 41.9569 103.082 41.7821C103.773 41.608 104.823 41.5206 106.232 41.5206C107.22 41.5206 108.016 41.6562 108.622 41.9289C109.227 42.2022 109.697 42.5615 110.03 43.008C110.364 43.454 110.579 43.9547 110.679 44.5111C110.762 44.9859 110.803 45.4756 110.817 45.9748H110.826L110.827 46.2152L110.827 46.2267V47.2726H110.826V49.135H110.827V55.0824C110.332 55.1698 109.734 55.2409 109.029 55.2949C108.326 55.3497 107.504 55.3765 106.566 55.3765C105.8 55.3765 105.114 55.3164 104.509 55.1964C103.903 55.0772 103.384 54.8869 102.952 54.6254C102.52 54.3638 102.187 54.0157 101.952 53.5786C101.718 53.1431 101.6 52.6106 101.6 51.9779C101.6 51.2586 101.773 50.6824 102.119 50.246C102.464 49.8104 102.908 49.4668 103.453 49.2163C103.996 48.966 104.588 48.803 105.232 48.7258C105.873 48.6504 106.492 48.6127 107.085 48.6127C107.548 48.6127 107.963 48.626 108.34 48.6504V46.8415C108.309 46.8393 108.282 46.8341 108.252 46.8311C107.868 46.7977 107.504 46.7814 107.158 46.7814C105.997 46.7814 104.922 46.88 103.935 47.0762C102.947 47.2726 102.094 47.5829 101.378 48.0073C100.66 48.4328 100.105 48.9711 99.7096 49.6253C99.3148 50.2786 99.1172 51.0624 99.1172 51.9779C99.1172 52.9371 99.2966 53.7483 99.6542 54.412C100.012 55.0772 100.506 55.6217 101.136 56.0469C101.767 56.4713 102.508 56.7817 103.361 56.978C104.213 57.1735 105.145 57.2721 106.158 57.2721ZM210.951 63.1544V56.0499C211.374 56.3368 212.05 56.6396 212.981 56.9595C213.914 57.2778 215.014 57.4382 216.279 57.4382C217.671 57.4382 218.906 57.2178 219.987 56.7772C221.068 56.3368 221.98 55.7255 222.726 54.9428C223.47 54.1608 224.037 53.2251 224.42 52.1337C224.806 51.0429 225 49.8482 225 48.5484C225 47.1603 224.768 45.916 224.31 44.8142C223.849 43.7128 223.204 42.7766 222.373 42.005C221.54 41.2342 220.545 40.6452 219.391 40.237C218.236 39.8294 216.951 39.625 215.535 39.625C213.819 39.625 212.404 39.7245 211.287 39.9232C210.169 40.1209 209.249 40.3308 208.529 40.5509V63.1544H210.951ZM119.258 57.2721V42.1032C119.463 42.0144 119.891 41.9029 120.543 41.7684C121.195 41.6349 122.058 41.5674 123.133 41.5674C124.156 41.5674 124.98 41.6182 125.608 41.7183C126.234 41.8194 126.649 41.9134 126.854 42.0022L127.352 40.1275C127.071 40.016 126.567 39.905 125.838 39.7928C125.109 39.6811 124.335 39.625 123.516 39.625C121.905 39.625 120.536 39.754 119.41 40.0106C118.285 40.2672 117.403 40.5192 116.764 40.7643V57.2721H119.258ZM81.5399 63.1544V56.0499C81.9612 56.3368 82.6383 56.6396 83.5701 56.9595C84.5018 57.2778 85.6008 57.4382 86.8675 57.4382C88.2588 57.4382 89.495 57.2178 90.5757 56.7772C91.657 56.3368 92.5699 55.7255 93.3146 54.9428C94.0597 54.1608 94.625 53.2251 95.0098 52.1337C95.3957 51.0429 95.5878 49.8482 95.5878 48.5484C95.5878 47.1603 95.358 45.916 94.8991 44.8142C94.4384 43.7128 93.7929 42.7766 92.9613 42.005C92.1281 41.2342 91.1349 40.6452 89.98 40.237C88.8235 39.8294 87.5391 39.625 86.1229 39.625C84.4088 39.625 82.9926 39.7245 81.8743 39.9232C80.7565 40.1209 79.8375 40.3308 79.1172 40.5509V63.1544H81.5399ZM151.829 57.2721C154.085 57.2721 155.864 56.8738 157.166 56.0769C158.466 55.2799 159.117 54.1072 159.117 52.5568C159.117 51.7387 158.956 51.0583 158.634 50.5147C158.31 49.9722 157.89 49.5087 157.37 49.121C156.848 48.7334 156.246 48.4015 155.567 48.126C154.884 47.8512 154.171 47.5812 153.428 47.317C152.709 47.0521 152.072 46.8104 151.512 46.589C150.956 46.3694 150.484 46.1314 150.1 45.8771C149.714 45.6213 149.424 45.3276 149.227 44.9942C149.027 44.6615 148.928 44.2627 148.928 43.7961C148.928 43.7701 148.931 40.7009 148.934 39.8445L148.935 39.625H146.489C146.484 39.7111 146.476 43.1687 146.474 43.8696V43.9911C146.474 44.7211 146.623 45.3413 146.921 45.8499C147.22 46.3596 147.614 46.7968 148.111 47.1618C148.606 47.527 149.176 47.8476 149.819 48.1245C150.465 48.4015 151.146 48.6725 151.867 48.9381C152.758 49.27 153.509 49.5576 154.117 49.8013C154.722 50.0445 155.213 50.2996 155.584 50.5652C155.957 50.831 156.222 51.1291 156.386 51.4616C156.545 51.7935 156.626 52.1924 156.626 52.657C156.626 53.6307 156.173 54.3224 155.268 54.7319C154.365 55.1421 153.218 55.3461 151.829 55.3461C151.06 55.3461 150.384 55.3023 149.803 55.2135C149.219 55.1255 148.719 55.0193 148.296 54.8982C147.874 54.7769 147.54 54.6648 147.293 54.5663C147.045 54.4661 146.883 54.3947 146.809 54.3503L146.175 56.3087C146.474 56.4426 147.069 56.636 147.963 56.8896C148.854 57.1449 150.143 57.2721 151.829 57.2721ZM169.367 57.2721C169.751 56.5326 170.158 55.7015 170.585 54.7772C171.01 53.8536 171.451 52.8665 171.903 51.8159C172.356 50.7644 172.794 49.6597 173.216 48.4999C173.641 47.3417 174.045 46.1558 174.43 44.9428C174.816 46.153 175.222 47.3358 175.648 48.4927C176.073 49.6488 176.512 50.7523 176.967 51.8021C177.421 52.8527 177.863 53.8392 178.292 54.762C178.72 55.6849 179.131 56.5219 179.522 57.2721H181.853C183.171 54.8741 184.384 52.3387 185.482 49.6647C186.583 46.9914 187.598 44.0366 188.528 40.8015H186.05C185.767 41.9293 185.413 43.1468 184.985 44.4546C184.559 45.7625 184.098 47.0592 183.609 48.3425C183.115 49.6264 182.626 50.8461 182.133 52.002C181.641 53.1589 181.175 54.1396 180.735 54.9461C180.216 53.8839 179.706 52.7474 179.204 51.5356C178.698 50.3246 178.222 49.0979 177.774 47.8565C177.324 46.6137 176.912 45.3933 176.54 44.1939C176.167 42.9937 175.867 41.8637 175.637 40.8015H173.47C173.163 41.8622 172.817 42.9923 172.433 44.1931C172.047 45.394 171.637 46.61 171.202 47.8421C170.767 49.0747 170.301 50.2973 169.805 51.5096C169.308 52.7229 168.812 53.8574 168.319 54.9136C167.88 54.1071 167.407 53.1293 166.905 51.9812C166.399 50.8337 165.901 49.6177 165.409 48.3331C164.917 47.0491 164.456 45.7545 164.031 44.448C163.604 43.1433 163.246 41.9279 162.962 40.8015H160.293C161.219 44.0307 162.228 46.9842 163.325 49.6603C164.42 52.3358 165.628 54.8733 166.951 57.2721H169.367ZM216.115 56.0956C215.529 56.0956 214.97 56.0447 214.436 55.945C213.9 55.8448 213.403 55.7156 212.945 55.5589C212.485 55.4031 212.084 55.2359 211.741 55.0565C211.398 54.8779 211.111 54.71 210.882 54.5533V42.4478C211.264 42.336 211.832 42.2295 212.582 42.1284C213.333 42.0282 214.32 41.9779 215.542 41.9779C217.682 41.9779 219.399 42.5876 220.698 43.8059C221.999 45.0245 222.647 46.7734 222.647 49.0538C222.647 50.0147 222.533 50.9268 222.303 51.7864C222.074 52.6477 221.704 53.3957 221.195 54.0333C220.687 54.6702 220.018 55.1735 219.191 55.5422C218.363 55.9108 217.338 56.0956 216.115 56.0956ZM86.7031 56.0956C86.1162 56.0956 85.557 56.0447 85.0222 55.945C84.4869 55.8448 83.9908 55.7156 83.5324 55.5589C83.074 55.4031 82.6726 55.2359 82.3294 55.0565C81.9861 54.8779 81.6993 54.71 81.4701 54.5533V42.4478C81.851 42.336 82.4191 42.2295 83.1698 42.1284C83.9211 42.0282 84.9076 41.9779 86.129 41.9779C88.2687 41.9779 89.9878 42.5876 91.2855 43.8059C92.5849 45.0245 93.2348 46.7734 93.2348 49.0538C93.2348 50.0147 93.1202 50.9268 92.891 51.7864C92.6618 52.6477 92.2926 53.3957 91.7832 54.0333C91.2728 54.6702 90.6051 55.1735 89.7774 55.5422C88.9492 55.9108 87.9244 56.0956 86.7031 56.0956Z" fill="#2669F5"/>
</svg>
