<svg width="250" height="100" viewBox="0 0 250 100" fill="none" xmlns="http://www.w3.org/2000/svg">
<path d="M76.8995 77.7811C92.2045 77.7811 104.612 65.3361 104.612 49.9843C104.612 34.6325 92.2045 22.1875 76.8995 22.1875C61.5946 22.1875 49.1875 34.6325 49.1875 49.9843C49.1875 65.3361 61.5946 77.7811 76.8995 77.7811Z" fill="white"/>
<path d="M73.0817 41.147C73.0817 41.147 74.2523 41.7983 76.0283 42.784L99.1732 33.1541C98.3378 32.0449 97.4215 31.0024 96.4339 30.0312C96.2704 30.1239 96.1344 30.1758 96.1344 30.1758L71.9922 40.3579C72.2642 40.6388 72.6204 40.9051 73.0817 41.147Z" fill="url(#paint0_linear_469_55199)"/>
<path d="M58.1759 69.8531L81.6009 60.0559L77.2442 57.5859L59.3626 65.2054L54.8359 67.1249C55.6681 68.2032 56.5763 69.2197 57.5542 70.1649L58.1759 69.8531Z" fill="url(#paint1_linear_469_55199)"/>
<path d="M101.654 37.0359L97.3895 38.6923C93.975 39.946 80.544 45.2563 80.544 45.2563C82.7393 46.471 85.1111 47.7783 87.2013 48.9231C92.5423 51.8495 89.1618 58.2721 88.4559 59.4917C88.4462 59.5079 88.4365 59.5241 88.4268 59.5404C88.3701 59.6378 88.3345 59.6946 88.3345 59.6946C88.3345 59.6946 88.8364 54.8943 85.4641 53.1193C82.0642 51.3492 74.2688 47.1839 70.9937 45.43C69.4507 44.6035 68.3304 43.1062 68.1199 41.3654C67.9613 40.0629 68.2883 38.5641 69.8474 37.2519C70.6876 36.4741 71.5845 36.0242 71.7173 35.9609C71.7287 35.956 71.7384 35.9512 71.7497 35.9463L89.1473 28.7864C89.1473 28.7864 89.2573 28.7426 89.4176 28.6597L93.0393 27.1511C88.4834 23.9114 82.9223 22 76.9143 22C61.4724 22 48.7197 35.0369 49.0047 50.5243C49.0921 55.3068 50.3808 59.7921 52.5713 63.6993L59.3095 60.7535L72.721 55.1087C70.4092 53.8371 68.2721 52.6533 67.2587 52.1109C66.7519 51.8397 66.1189 51.4126 65.6121 51.143C62.8955 49.7026 61.1146 45.6363 65.2382 40.81C65.2382 40.81 64.8108 45.3895 67.3639 46.9452C69.802 48.4327 79.2844 53.3029 82.0609 54.7969C82.6923 55.1362 83.2801 55.5569 83.7657 56.083C84.9946 57.4147 85.4786 59.0938 84.9962 60.8753C84.9751 60.9597 84.9476 61.0393 84.9217 61.1221C84.9055 61.174 84.8877 61.2277 84.8699 61.2812C84.8408 61.3624 84.8132 61.442 84.7809 61.52C84.7711 61.5443 84.763 61.5703 84.7533 61.5947C83.7933 63.9233 81.2353 64.6249 81.2353 64.6249L80.926 64.7288L64.6262 71.4373L61.0321 73.0206C65.5814 76.1857 71.1086 78.0321 77.0713 77.9996C92.526 77.9152 105.204 64.8003 104.824 49.3015C104.71 44.8828 103.576 40.7207 101.654 37.0359Z" fill="url(#paint2_linear_469_55199)"/>
<path opacity="0.4" d="M72.7501 55.1094L77.2623 57.5729L75.007 58.5343L70.2812 56.1487L72.7501 55.1094Z" fill="#070707"/>
<path opacity="0.4" d="M81.2432 64.6139C81.2432 64.6139 84.9911 61.9523 81.5993 60.0312L79.4688 60.9212C79.4704 60.9212 83.0224 61.876 81.2432 64.6139Z" fill="#070707"/>
<path opacity="0.4" d="M80.5746 45.264L76.0625 42.8005L78.3663 41.8359L83.1294 44.2702L80.5746 45.264Z" fill="#070707"/>
<path opacity="0.4" d="M72.3734 35.7031C72.3734 35.7031 68.5867 38.3907 72.0124 40.3329L74.164 39.4333C74.164 39.4333 70.5764 38.4687 72.3734 35.7031Z" fill="#070707"/>
<path d="M125.555 44.0861H123.403V50.6159H118.875V30.7422H126.8C130.564 30.7422 133.593 33.7806 133.593 37.5562C133.593 39.9986 132.122 42.212 129.943 43.3196L134.16 50.6159H129.292L125.555 44.0861ZM123.403 40.1106H126.8C128.045 40.1106 129.065 39.0032 129.065 37.5562C129.065 36.1077 128.046 35.0018 126.8 35.0018H123.403V40.1106Z" fill="#181B30"/>
<path d="M149.93 36.3917V50.5864H145.685V49.2516C144.75 50.3299 143.363 50.9827 141.467 50.9827C137.759 50.9827 134.703 47.717 134.703 43.4882C134.703 39.2579 137.759 35.9922 141.467 35.9922C143.363 35.9922 144.75 36.645 145.685 37.7249V36.3901H149.93V36.3917ZM145.685 43.4899C145.685 41.3609 144.269 40.026 142.316 40.026C140.363 40.026 138.948 41.3609 138.948 43.4899C138.948 45.6188 140.363 46.9537 142.316 46.9537C144.269 46.9537 145.685 45.6188 145.685 43.4899Z" fill="#181B30"/>
<path d="M166.664 41.8692V50.5848H162.42V42.4928C162.42 40.7324 161.316 39.9091 159.957 39.9091C158.402 39.9091 157.325 40.8185 157.325 42.8338V50.5848H153.078V36.3901H157.323V37.725C158.087 36.6743 159.502 35.9922 161.37 35.9922C164.23 35.9922 166.664 38.0367 166.664 41.8692Z" fill="#181B30"/>
<path d="M184.087 36.3901V49.8751C184.087 54.6447 180.38 56.66 176.615 56.66C173.673 56.66 171.21 55.5524 169.908 53.2253L173.53 51.1256C174.067 52.1194 174.888 52.9136 176.757 52.9136C178.738 52.9136 179.956 51.8904 179.956 49.8751V48.5695C179.021 49.7339 177.663 50.4144 175.822 50.4144C171.804 50.4144 168.859 47.121 168.859 43.2041C168.859 39.2872 171.802 35.9922 175.822 35.9922C177.663 35.9922 179.021 36.6743 179.956 37.8386V36.3901H184.087ZM179.954 43.2041C179.954 41.2456 178.539 39.9107 176.53 39.9107C174.521 39.9107 173.106 41.2456 173.106 43.2041C173.106 45.1625 174.521 46.4974 176.53 46.4974C178.539 46.4974 179.954 45.1625 179.954 43.2041Z" fill="#181B30"/>
<path d="M186.492 43.4883C186.492 39.2579 189.832 35.9922 193.993 35.9922C198.153 35.9922 201.494 39.2579 201.494 43.4883C201.494 47.7186 198.153 50.9827 193.993 50.9827C189.832 50.9827 186.492 47.7186 186.492 43.4883ZM197.247 43.4883C197.247 41.473 195.832 40.1381 193.991 40.1381C192.152 40.1381 190.737 41.473 190.737 43.4883C190.737 45.5036 192.152 46.8384 193.991 46.8384C195.832 46.8384 197.247 45.5036 197.247 43.4883Z" fill="#181B30"/>
<path d="M119.698 69.0024H125.852V69.8842H118.766V57.5391H125.763V58.4209H119.696V63.218H125.322V64.0997H119.696V69.0024H119.698Z" fill="#181B30"/>
<path d="M135.51 69.8883H134.437L131.466 66.0444L128.496 69.8883H127.422L130.939 65.3559L127.633 61.0703H128.706L131.466 64.6511L134.244 61.0703H135.3L132.012 65.338L135.51 69.8883Z" fill="#181B30"/>
<path d="M141.209 70.0905C139.885 70.0905 138.783 69.6488 137.903 68.767C137.025 67.8852 136.586 66.7923 136.586 65.4866C136.586 64.181 137.026 63.0881 137.903 62.2063C138.783 61.3245 139.885 60.8828 141.209 60.8828C142.066 60.8828 142.838 61.0858 143.531 61.4918C144.222 61.8977 144.728 62.4467 145.043 63.14L144.323 63.5639C144.064 62.9988 143.657 62.5522 143.101 62.2225C142.544 61.8945 141.914 61.7289 141.209 61.7289C140.154 61.7289 139.27 62.091 138.554 62.8136C137.839 63.5363 137.481 64.4278 137.481 65.485C137.481 66.5439 137.839 67.4338 138.554 68.1564C139.27 68.8791 140.154 69.2412 141.209 69.2412C141.914 69.2412 142.544 69.0772 143.101 68.7475C143.657 68.4178 144.082 67.9712 144.375 67.4077L145.113 67.8478C144.762 68.5299 144.237 69.0739 143.539 69.4799C142.842 69.8875 142.066 70.0905 141.209 70.0905Z" fill="#181B30"/>
<path d="M151.477 60.8713C152.52 60.8713 153.351 61.1929 153.966 61.8327C154.581 62.4742 154.889 63.3283 154.889 64.3985V69.8842H153.992V64.3985C153.992 63.5752 153.765 62.924 153.315 62.4417C152.863 61.9594 152.227 61.719 151.408 61.719C150.504 61.719 149.767 62.0195 149.193 62.6187C148.619 63.218 148.332 64.0883 148.332 65.2284V69.8842H147.453V57.5391H148.332V62.7405C148.963 61.4933 150.012 60.8713 151.477 60.8713Z" fill="#181B30"/>
<path d="M165.52 61.0744H166.417V69.8924H165.52V67.8998C165.144 68.5818 164.63 69.1161 163.973 69.5042C163.315 69.8924 162.572 70.0872 161.74 70.0872C160.485 70.0872 159.413 69.6439 158.523 68.7556C157.633 67.8673 157.188 66.7777 157.188 65.485C157.188 64.1923 157.633 63.1011 158.523 62.2144C159.413 61.3261 160.487 60.8828 161.74 60.8828C162.572 60.8828 163.317 61.0777 163.973 61.4658C164.628 61.8539 165.144 62.3882 165.52 63.0702V61.0744ZM159.164 68.1466C159.885 68.8758 160.767 69.2395 161.81 69.2395C162.852 69.2395 163.731 68.8758 164.446 68.1466C165.163 67.4175 165.518 66.5308 165.518 65.4834C165.518 64.4376 165.16 63.5493 164.446 62.8201C163.731 62.091 162.852 61.7272 161.81 61.7272C160.767 61.7272 159.885 62.0926 159.164 62.8201C158.443 63.5493 158.083 64.4376 158.083 65.4834C158.083 66.5308 158.443 67.4175 159.164 68.1466Z" fill="#181B30"/>
<path d="M173.603 60.8828C174.645 60.8828 175.476 61.2044 176.091 61.8442C176.706 62.4857 177.014 63.3398 177.014 64.41V69.8957H176.117V64.41C176.117 63.5867 175.891 62.9355 175.441 62.4532C174.988 61.9709 174.352 61.7305 173.533 61.7305C172.63 61.7305 171.892 62.031 171.318 62.6302C170.744 63.2294 170.457 64.0999 170.457 65.2398V69.8957H169.578V61.0777H170.457V62.7536C171.089 61.5048 172.137 60.8828 173.603 60.8828Z" fill="#181B30"/>
<path d="M187.708 61.0777H188.587V69.4717C188.587 70.753 188.17 71.7647 187.338 72.5053C186.507 73.2458 185.464 73.616 184.209 73.616C183.2 73.616 182.339 73.4277 181.625 73.0509C180.909 72.6742 180.388 72.1578 180.06 71.4985L180.833 71.0568C181.397 72.1967 182.522 72.7667 184.209 72.7667C185.298 72.7667 186.155 72.4696 186.777 71.8768C187.398 71.2824 187.709 70.4802 187.709 69.4701V67.8478C187.345 68.5412 186.834 69.0885 186.171 69.488C185.509 69.8875 184.761 70.0873 183.929 70.0873C182.663 70.0873 181.588 69.6439 180.702 68.7556C179.817 67.8673 179.375 66.7777 179.375 65.485C179.375 64.1923 179.817 63.1011 180.702 62.2144C181.588 61.3261 182.663 60.8828 183.929 60.8828C184.761 60.8828 185.509 61.0825 186.171 61.482C186.834 61.8815 187.347 62.4288 187.709 63.1222V61.0777H187.708ZM181.335 68.1499C182.056 68.8791 182.938 69.2428 183.981 69.2428C185.023 69.2428 185.905 68.8791 186.626 68.1499C187.347 67.4207 187.708 66.5341 187.708 65.4866C187.708 64.4408 187.348 63.5525 186.626 62.8234C185.905 62.0942 185.023 61.7305 183.981 61.7305C182.937 61.7305 182.056 62.0959 181.335 62.8234C180.615 63.5525 180.253 64.4408 180.253 65.4866C180.253 66.5341 180.615 67.4207 181.335 68.1499Z" fill="#181B30"/>
<path d="M195.675 60.8828C196.964 60.8828 198.009 61.3424 198.812 62.2583C199.615 63.1758 200.017 64.2639 200.017 65.5208C200.017 65.5678 200.013 65.6393 200.009 65.7319C200.002 65.8261 199.999 65.8975 199.999 65.943H192.033C192.138 66.9303 192.535 67.7277 193.22 68.3334C193.907 68.9392 194.754 69.2412 195.76 69.2412C196.463 69.2412 197.08 69.0934 197.606 68.7995C198.134 68.5055 198.532 68.1175 198.801 67.6352L199.575 68.0947C199.212 68.7069 198.695 69.1908 198.027 69.5497C197.358 69.9086 196.597 70.0873 195.741 70.0873C194.392 70.0873 193.285 69.6553 192.419 68.7913C191.551 67.9275 191.117 66.8248 191.117 65.485C191.117 64.1681 191.541 63.0719 192.391 62.1966C193.244 61.3197 194.339 60.8828 195.675 60.8828ZM195.675 61.7289C194.677 61.7289 193.845 62.0407 193.178 62.6643C192.509 63.2879 192.129 64.0934 192.035 65.0807H199.103C199.01 64.0349 198.637 63.2148 197.986 62.6204C197.336 62.0261 196.565 61.7289 195.675 61.7289Z" fill="#181B30"/>
<defs>
<linearGradient id="paint0_linear_469_55199" x1="71.9914" y1="36.409" x2="99.1727" y2="36.409" gradientUnits="userSpaceOnUse">
<stop stop-color="#469BF5"/>
<stop offset="0.0911" stop-color="#3B81F4"/>
<stop offset="0.2081" stop-color="#3068F3"/>
<stop offset="0.3386" stop-color="#2754F2"/>
<stop offset="0.4881" stop-color="#2147F1"/>
<stop offset="0.673" stop-color="#1D3EF1"/>
<stop offset="1" stop-color="#1C3CF1"/>
</linearGradient>
<linearGradient id="paint1_linear_469_55199" x1="54.8361" y1="63.8767" x2="81.6008" y2="63.8767" gradientUnits="userSpaceOnUse">
<stop offset="0.0754" stop-color="#469BF5"/>
<stop offset="0.2387" stop-color="#4292F5"/>
<stop offset="0.5078" stop-color="#3779F4"/>
<stop offset="0.8475" stop-color="#2550F2"/>
<stop offset="1" stop-color="#1C3CF1"/>
</linearGradient>
<linearGradient id="paint2_linear_469_55199" x1="48.9977" y1="50.0014" x2="104.827" y2="50.0014" gradientUnits="userSpaceOnUse">
<stop offset="0.0754" stop-color="#469BF5"/>
<stop offset="0.7046" stop-color="#2857F2"/>
<stop offset="1" stop-color="#1C3CF1"/>
</linearGradient>
</defs>
</svg>
