<svg width="250" height="100" viewBox="0 0 250 100" fill="none" xmlns="http://www.w3.org/2000/svg">
<mask id="mask0_469_53884" style="mask-type:luminance" maskUnits="userSpaceOnUse" x="15" y="25" width="42" height="50">
<path d="M56.6413 25H15V74.1475H56.6413V25Z" fill="white"/>
</mask>
<g mask="url(#mask0_469_53884)">
<path d="M23.7146 61.8547C23.6761 61.9399 23.6389 62.0257 23.6032 62.1122C23.1637 63.1739 22.9375 64.3118 22.9375 65.461C22.9375 66.6103 23.1637 67.7482 23.6032 68.8099C24.0426 69.8716 24.6867 70.8363 25.4988 71.6488C26.3107 72.4614 27.2746 73.1061 28.3355 73.5459C29.3963 73.9858 30.5334 74.2121 31.6817 74.2121C32.8299 74.2121 33.967 73.9858 35.0279 73.5459C36.0888 73.1061 37.0526 72.4614 37.8646 71.6488L53.9554 55.5466C55.6317 53.8689 56.5733 51.5934 56.5733 49.2209C56.5733 47.0897 55.9143 45.0365 54.4749 43.4252C53.7646 43.1181 52.9794 43.024 52.2191 43.1668C51.539 43.2946 50.9156 43.6986 50.3967 44.1732L35.1109 59.8729C34.8272 60.1659 34.501 60.409 34.1462 60.5957C34.3337 60.4802 34.5186 60.3596 34.7007 60.2341C34.6852 60.2404 34.6697 60.2467 34.6541 60.2528C34.6692 60.2425 34.6844 60.2323 34.6995 60.222C34.7151 60.2114 34.7307 60.2007 34.7463 60.1901C34.7156 60.2111 34.6848 60.232 34.6541 60.2528C32.3373 61.8135 29.5726 62.5727 26.7823 62.4123C25.7342 62.352 24.7044 62.1633 23.7146 61.8547Z" fill="#104ADE"/>
<path d="M34.6569 60.2494C34.6877 60.2286 34.7184 60.2077 34.7491 60.1867C34.1619 60.4249 33.5244 60.5123 32.8948 60.4408C32.2652 60.3694 31.6634 60.1414 31.1444 59.7776C30.6842 59.453 30.3001 59.0321 30.0187 58.544C29.7374 58.0558 29.5656 57.5123 29.5155 56.9511C29.4652 56.3898 29.5377 55.8243 29.7279 55.2941C29.9181 54.7637 30.2213 54.2811 30.6166 53.8799L35.7047 48.7435L43.1356 41.3067C43.1461 41.2979 43.1565 41.2888 43.1669 41.2798C43.1878 41.2618 43.2086 41.2438 43.2305 41.227L44.3489 40.1069C44.8959 39.994 45.4744 39.9453 46.0777 39.9453C47.3846 39.9453 48.4962 40.0731 49.6043 40.3938C51.2159 40.7422 52.6987 41.5507 53.8708 42.7286C54.0919 42.9521 54.3004 43.1898 54.4936 43.4287C53.7791 43.1162 52.9879 43.0196 52.2219 43.1635C51.5418 43.2912 50.9184 43.6953 50.3995 44.1699L35.1137 59.8695C34.83 60.1625 34.5039 60.4057 34.149 60.5923C34.3366 60.4768 34.5215 60.3563 34.7036 60.2308C34.688 60.2371 34.6725 60.2433 34.6569 60.2494Z" fill="#0038C7"/>
<path d="M46.9857 30.3831C46.5783 29.399 45.9808 28.5049 45.2276 27.7522C44.3565 26.8797 43.3222 26.1875 42.1835 25.7153C41.045 25.2431 39.8246 25 38.5922 25C37.3598 25 36.1394 25.2431 35.0009 25.7153C33.8624 26.1875 32.828 26.8797 31.9568 27.7522L18.7088 41.0068C16.3826 43.3349 15.0531 46.4776 15.0016 49.7696C14.9501 53.0615 16.1807 56.2443 18.4329 58.6441L18.5709 58.7785L18.7139 58.9267C18.8442 59.0548 18.9811 59.1761 19.124 59.2902C21.2606 61.1504 23.9539 62.2479 26.7812 62.4105C29.6086 62.573 32.4097 61.7914 34.7452 60.1882C34.1579 60.4265 33.5205 60.5139 32.8909 60.4424C32.2612 60.3709 31.6595 60.1429 31.1405 59.7791C30.6802 59.4546 30.296 59.0336 30.0147 58.5455C29.7335 58.0574 29.5617 57.5138 29.5115 56.9526C29.4613 56.3914 29.5338 55.826 29.7239 55.2956C29.9141 54.7652 30.2173 54.2826 30.6126 53.8814L35.7007 48.745L43.1317 41.3083C43.1633 41.2817 43.1936 41.2538 43.2266 41.2285L45.2276 39.2246C46.3617 38.0907 47.1341 36.6456 47.4471 35.0722C47.76 33.4987 47.5994 31.8677 46.9857 30.3857V30.3831Z" fill="#0F75FC"/>
</g>
<path d="M171.54 56.4869C170.288 56.4869 169.156 56.2735 168.143 55.8467C167.148 55.4199 166.359 54.8054 165.776 54.0032C165.193 53.2009 164.892 52.2536 164.875 51.1611H168.736C168.786 51.8951 169.044 52.4755 169.508 52.9022C169.988 53.329 170.64 53.5423 171.463 53.5423C172.304 53.5423 172.965 53.346 173.444 52.9534C173.925 52.5437 174.166 52.0146 174.166 51.366C174.166 50.8368 174.002 50.4015 173.677 50.0602C173.35 49.7187 172.939 49.4541 172.441 49.2664C171.961 49.0615 171.291 48.8396 170.434 48.6006C169.267 48.2592 168.315 47.9264 167.577 47.6021C166.857 47.2607 166.231 46.7572 165.699 46.0914C165.183 45.4087 164.927 44.5039 164.927 43.3774C164.927 42.3191 165.193 41.3973 165.724 40.6121C166.256 39.8269 167.003 39.2295 167.964 38.8198C168.924 38.3931 170.022 38.1797 171.257 38.1797C173.111 38.1797 174.611 38.632 175.761 39.5368C176.928 40.4244 177.571 41.6704 177.691 43.2749H173.728C173.694 42.6604 173.428 42.1569 172.93 41.7643C172.45 41.3546 171.806 41.1498 171 41.1498C170.296 41.1498 169.73 41.329 169.302 41.6875C168.89 42.046 168.684 42.5665 168.684 43.2493C168.684 43.7273 168.838 44.1284 169.147 44.4528C169.473 44.76 169.868 45.016 170.331 45.2209C170.812 45.4087 171.48 45.6305 172.339 45.8866C173.505 46.228 174.457 46.5694 175.195 46.9108C175.932 47.2521 176.567 47.7643 177.099 48.447C177.631 49.1298 177.897 50.026 177.897 51.1355C177.897 52.0914 177.648 52.979 177.151 53.7983C176.653 54.6177 175.924 55.2749 174.963 55.7699C174.002 56.2478 172.861 56.4869 171.54 56.4869Z" fill="#3F5878"/>
<path d="M200.789 42.125L196.62 56.3098H192.734L190.135 46.4009L187.536 56.3098H183.624L179.43 42.125H183.084L185.606 52.9301L188.334 42.125H192.143L194.819 52.9045L197.341 42.125H200.789Z" fill="#3F5878"/>
<path d="M201.812 49.1622C201.812 47.7284 202.096 46.4567 202.662 45.3472C203.245 44.2377 204.025 43.3842 205.004 42.7867C205.999 42.1893 207.105 41.8906 208.323 41.8906C209.387 41.8906 210.313 42.104 211.102 42.5307C211.909 42.9575 212.552 43.4951 213.033 44.1438V42.121H216.661V56.3058H213.033V54.2319C212.57 54.8976 211.926 55.4524 211.102 55.8962C210.296 56.3229 209.361 56.5363 208.297 56.5363C207.097 56.5363 205.999 56.2291 205.004 55.6145C204.025 55 203.245 54.138 202.662 53.0285C202.096 51.9019 201.812 50.6131 201.812 49.1622ZM213.033 49.2134C213.033 48.3429 212.861 47.6004 212.518 46.9859C212.175 46.3543 211.711 45.8763 211.128 45.552C210.545 45.2106 209.918 45.04 209.25 45.04C208.58 45.04 207.963 45.2021 207.397 45.5264C206.831 45.8507 206.367 46.3286 206.007 46.9603C205.664 47.5748 205.493 48.3088 205.493 49.1622C205.493 50.0157 205.664 50.7667 206.007 51.4154C206.367 52.047 206.831 52.5335 207.397 52.8749C207.98 53.2162 208.597 53.387 209.25 53.387C209.918 53.387 210.545 53.2248 211.128 52.9005C211.711 52.5591 212.175 52.0811 212.518 51.4667C212.861 50.835 213.033 50.084 213.033 49.2134Z" fill="#3F5878"/>
<path d="M223.783 44.1694C224.246 43.5207 224.881 42.9831 225.687 42.5563C226.51 42.1125 227.446 41.8906 228.492 41.8906C229.71 41.8906 230.808 42.1893 231.786 42.7867C232.782 43.3842 233.562 44.2377 234.128 45.3472C234.711 46.4396 235.004 47.7113 235.004 49.1622C235.004 50.6131 234.711 51.9019 234.128 53.0285C233.562 54.138 232.782 55 231.786 55.6145C230.808 56.2291 229.71 56.5363 228.492 56.5363C227.446 56.5363 226.519 56.3229 225.713 55.8962C224.923 55.4695 224.28 54.9317 223.783 54.2832V63.0654H220.18V42.121H223.783V44.1694ZM231.323 49.1622C231.323 48.3088 231.143 47.5748 230.783 46.9603C230.44 46.3286 229.976 45.8507 229.393 45.5264C228.827 45.2021 228.209 45.04 227.54 45.04C226.888 45.04 226.271 45.2106 225.687 45.552C225.121 45.8763 224.658 46.3543 224.297 46.9859C223.955 47.6174 223.783 48.36 223.783 49.2134C223.783 50.0669 223.955 50.8094 224.297 51.441C224.658 52.0726 225.121 52.5591 225.687 52.9005C226.271 53.2248 226.888 53.387 227.54 53.387C228.209 53.387 228.827 53.2162 229.393 52.8749C229.976 52.5335 230.44 52.047 230.783 51.4154C231.143 50.7839 231.323 50.0327 231.323 49.1622Z" fill="#3F5878"/>
<path d="M79.7779 56.4505C78.5205 56.4505 77.3835 56.236 76.3673 55.8068C75.3682 55.3776 74.5759 54.7596 73.9903 53.9528C73.4046 53.1459 73.1031 52.1932 73.0859 51.0945H76.9616C77.0132 51.8326 77.2716 52.4163 77.7367 52.8455C78.219 53.2747 78.8736 53.4892 79.7003 53.4892C80.5444 53.4892 81.2076 53.2919 81.6899 52.897C82.1721 52.485 82.4133 51.9528 82.4133 51.3005C82.4133 50.7683 82.2497 50.3306 81.9224 49.9872C81.5951 49.6439 81.1817 49.3778 80.6822 49.1889C80.1999 48.9829 79.5281 48.7598 78.6669 48.5194C77.4956 48.1761 76.5396 47.8414 75.7989 47.5152C75.0754 47.1718 74.4467 46.6654 73.9127 45.9959C73.396 45.3092 73.1376 44.3993 73.1376 43.2664C73.1376 42.202 73.4046 41.275 73.9386 40.4853C74.4726 39.6957 75.2218 39.0948 76.1865 38.6828C77.151 38.2536 78.2535 38.0391 79.4937 38.0391C81.354 38.0391 82.8611 38.4939 84.0152 39.4038C85.1866 40.2965 85.8325 41.5496 85.9531 43.1634H81.9741C81.9396 42.5454 81.6726 42.0389 81.1731 41.6441C80.6908 41.232 80.0449 41.026 79.2353 41.026C78.529 41.026 77.9606 41.2064 77.53 41.5668C77.1166 41.9273 76.9099 42.4509 76.9099 43.1376C76.9099 43.6183 77.0649 44.0217 77.375 44.3479C77.7022 44.6569 78.0984 44.9144 78.5635 45.1204C79.0458 45.3092 79.7175 45.5324 80.5788 45.7899C81.7501 46.1332 82.7061 46.4766 83.4468 46.8199C84.1875 47.1633 84.8248 47.6782 85.3588 48.3649C85.8928 49.0517 86.1598 49.9529 86.1598 51.0687C86.1598 52.0301 85.91 52.9228 85.4104 53.7468C84.9109 54.5708 84.1789 55.2317 83.2143 55.7295C82.2496 56.2102 81.1042 56.4505 79.7779 56.4505Z" fill="#3F5878"/>
<path d="M91.1283 40.3012C90.491 40.3012 89.957 40.1038 89.5264 39.7089C89.1129 39.2969 88.9062 38.7906 88.9062 38.1897C88.9062 37.5888 89.1129 37.091 89.5264 36.6962C89.957 36.2841 90.491 36.0781 91.1283 36.0781C91.7656 36.0781 92.291 36.2841 92.7044 36.6962C93.135 37.091 93.3504 37.5888 93.3504 38.1897C93.3504 38.7906 93.135 39.2969 92.7044 39.7089C92.291 40.1038 91.7656 40.3012 91.1283 40.3012ZM92.9111 42.0007V56.2665H89.2938V42.0007H92.9111Z" fill="#3F5878"/>
<path d="M114.261 41.8047C116.017 41.8047 117.43 42.3455 118.498 43.427C119.583 44.4913 120.126 45.9848 120.126 47.9075V56.2764H116.509V48.3968C116.509 47.2809 116.224 46.4312 115.656 45.8475C115.088 45.2466 114.312 44.9462 113.33 44.9462C112.349 44.9462 111.565 45.2466 110.98 45.8475C110.411 46.4312 110.126 47.2809 110.126 48.3968V56.2764H106.51V48.3968C106.51 47.2809 106.225 46.4312 105.656 45.8475C105.089 45.2466 104.313 44.9462 103.331 44.9462C102.332 44.9462 101.54 45.2466 100.954 45.8475C100.386 46.4312 100.102 47.2809 100.102 48.3968V56.2764H96.4844V42.0107H100.102V43.7359C100.567 43.1351 101.161 42.6631 101.885 42.3197C102.625 41.9764 103.435 41.8047 104.313 41.8047C105.433 41.8047 106.432 42.045 107.31 42.5257C108.189 42.9892 108.869 43.6587 109.352 44.5342C109.816 43.7103 110.488 43.0493 111.367 42.5515C112.262 42.0536 113.227 41.8047 114.261 41.8047Z" fill="#3F5878"/>
<path d="M127.172 44.0652C127.637 43.4129 128.275 42.8721 129.085 42.4429C129.911 41.9966 130.85 41.7734 131.9 41.7734C133.123 41.7734 134.226 42.0738 135.208 42.6747C136.207 43.2756 136.991 44.1339 137.559 45.2498C138.145 46.3485 138.438 47.6274 138.438 49.0866C138.438 50.5458 138.145 51.8419 137.559 52.9749C136.991 54.0907 136.207 54.9577 135.208 55.5757C134.226 56.1936 133.123 56.5027 131.9 56.5027C130.85 56.5027 129.919 56.2881 129.11 55.8589C128.318 55.4297 127.672 54.8889 127.172 54.2366V63.069H123.555V42.0052H127.172V44.0652ZM134.743 49.0866C134.743 48.2282 134.562 47.49 134.2 46.8721C133.855 46.2369 133.391 45.7562 132.805 45.43C132.237 45.1039 131.617 44.9407 130.945 44.9407C130.29 44.9407 129.67 45.1124 129.085 45.4558C128.516 45.7819 128.051 46.2626 127.689 46.8977C127.345 47.5329 127.172 48.2797 127.172 49.1381C127.172 49.9964 127.345 50.7432 127.689 51.3784C128.051 52.0136 128.516 52.5028 129.085 52.8461C129.67 53.1723 130.29 53.3354 130.945 53.3354C131.617 53.3354 132.237 53.1637 132.805 52.8203C133.391 52.477 133.855 51.9878 134.2 51.3526C134.562 50.7174 134.743 49.9621 134.743 49.0866Z" fill="#3F5878"/>
<path d="M144.687 37.2109V56.2663H141.07V37.2109H144.687Z" fill="#3F5878"/>
<path d="M161.565 48.8291C161.565 49.3441 161.53 49.8076 161.461 50.2196H150.997C151.084 51.2496 151.445 52.0564 152.083 52.6401C152.72 53.2238 153.504 53.5156 154.433 53.5156C155.777 53.5156 156.733 52.9405 157.302 51.7904H161.203C160.789 53.1637 159.997 54.2967 158.826 55.1894C157.655 56.0649 156.216 56.5027 154.511 56.5027C153.133 56.5027 151.893 56.2023 150.79 55.6014C149.705 54.9834 148.853 54.1165 148.232 53.0006C147.63 51.8848 147.328 50.5973 147.328 49.1381C147.328 47.6617 147.63 46.3656 148.232 45.2498C148.836 44.1339 149.68 43.2756 150.765 42.6747C151.85 42.0738 153.099 41.7734 154.511 41.7734C155.872 41.7734 157.086 42.0653 158.154 42.6489C159.24 43.2326 160.075 44.0652 160.661 45.1467C161.263 46.2111 161.565 47.4385 161.565 48.8291ZM157.819 47.799C157.801 46.8721 157.465 46.1338 156.811 45.5845C156.156 45.018 155.355 44.7347 154.408 44.7347C153.512 44.7347 152.754 45.0094 152.134 45.5587C151.531 46.091 151.161 46.8377 151.023 47.799H157.819Z" fill="#3F5878"/>
</svg>
