<svg width="250" height="100" viewBox="0 0 250 100" fill="none" xmlns="http://www.w3.org/2000/svg">
<path d="M34.875 56.0138C34.875 54.5694 36.046 53.3984 37.4904 53.3984H38.5365C39.981 53.3984 41.1519 54.5694 41.1519 56.0138V57.06C41.1519 58.5044 39.981 59.6753 38.5365 59.6753H37.4904C36.046 59.6753 34.875 58.5044 34.875 57.06V56.0138Z" fill="#1EEFA4"/>
<path d="M37.4904 43.9844C36.046 43.9844 34.875 45.1553 34.875 46.5997V47.6459C34.875 49.0903 36.046 50.2613 37.4904 50.2613H38.5365C39.981 50.2613 41.1519 49.0903 41.1519 47.6459V46.5997C41.1519 45.1553 39.981 43.9844 38.5365 43.9844H37.4904Z" fill="#1EEFA4"/>
<path fill-rule="evenodd" clip-rule="evenodd" d="M25.4615 33C19.6838 33 15 37.6838 15 43.4615V56.5385C15 62.3162 19.6838 67 25.4615 67H38.5385C44.3162 67 49 62.3162 49 56.5385V43.4615C49 37.6838 44.3162 33 38.5385 33H25.4615ZM38.5385 37.1846H25.4615C21.9949 37.1846 19.1846 39.9949 19.1846 43.4615V56.5385C19.1846 60.0051 21.9949 62.8154 25.4615 62.8154H38.5385C42.0051 62.8154 44.8154 60.0051 44.8154 56.5385V43.4615C44.8154 39.9949 42.0051 37.1846 38.5385 37.1846Z" fill="#1EEFA4"/>
<path d="M82.1053 58.5487C82.8178 57.4063 83.1832 56.0821 83.1571 54.7366C83.1571 53.4922 82.8816 52.4178 82.3371 51.5393C81.7477 50.6136 80.9475 49.8401 80.0018 49.282C78.7693 48.5608 77.4659 47.9677 76.1122 47.5119C76.0117 47.4795 75.9225 47.4472 75.8464 47.4181L75.647 47.3468C74.7589 47.0443 74.0944 46.7999 73.6666 46.6203C73.2754 46.4677 72.9135 46.2487 72.597 45.9732C72.4584 45.8522 72.3476 45.7029 72.2721 45.5354C72.1966 45.3679 72.1581 45.186 72.1594 45.0023C72.151 44.7292 72.2085 44.4581 72.3274 44.2119C72.4461 43.9658 72.6225 43.7518 72.8417 43.5881C73.2744 43.2548 73.8951 43.0849 74.6843 43.0849C75.6577 43.0936 76.6189 43.303 77.5075 43.6997C78.2797 44.03 78.9989 44.4722 79.642 45.012L82.7455 41.2355C81.6689 40.277 80.4383 39.5063 79.1055 38.9556C77.6167 38.369 76.0271 38.0794 74.4267 38.1029C72.644 38.1029 71.1448 38.4168 69.978 39.0365C68.8111 39.6562 67.957 40.4733 67.419 41.4749C66.8726 42.496 66.5911 43.6375 66.6006 44.7952C66.6006 46.8307 67.2488 48.3922 68.5161 49.439C69.9206 50.5638 71.5379 51.3943 73.2711 51.8806C74.1623 52.1286 75.0344 52.4406 75.8804 52.8143C76.5092 53.1137 76.929 53.413 77.1623 53.7269C77.4027 54.0551 77.5285 54.453 77.5205 54.8596C77.5272 55.1613 77.4563 55.4598 77.3144 55.7265C77.1725 55.993 76.9645 56.2188 76.7102 56.3822C76.1932 56.7381 75.4509 56.9112 74.4412 56.9112C72.4268 56.9112 70.4772 56.0488 68.6458 54.3466L65.1484 57.9759C66.346 59.2272 67.7775 60.2321 69.3621 60.9337C71.014 61.6498 72.7976 62.0136 74.5985 62.0017C76.3099 62.0017 77.8398 61.6975 79.125 61.0956C80.3429 60.5502 81.3777 59.666 82.1053 58.5487Z" fill="#1EEFA4"/>
<path d="M156.939 56.1203L154.379 54.0719C153.546 55.1715 152.39 55.9846 151.072 56.3981C149.755 56.8117 148.341 56.805 147.027 56.3793C145.714 55.9534 144.566 55.1295 143.743 54.0221C142.92 52.9147 142.464 51.5788 142.436 50.2002C142.409 48.8216 142.813 47.4688 143.591 46.3299C144.369 45.191 145.484 44.3225 146.78 43.8453C148.075 43.3682 149.488 43.3059 150.821 43.6674C152.154 44.0287 153.341 44.7957 154.217 45.8618L158.383 42.5302C156.815 40.6005 154.684 39.206 152.286 38.5398C149.888 37.8736 147.342 37.9689 145.001 38.8124C142.659 39.6559 140.639 41.2058 139.219 43.2472C137.8 45.2886 137.052 47.7204 137.079 50.2054C137.106 52.6903 137.907 55.1053 139.37 57.1155C140.834 59.1255 142.888 60.6312 145.246 61.4238C147.606 62.2162 150.154 62.2562 152.536 61.5382C154.919 60.8201 157.019 59.3796 158.546 57.4164L156.939 56.1203Z" fill="#1EEFA4"/>
<path fill-rule="evenodd" clip-rule="evenodd" d="M108.234 45.7631C108.234 47.3456 107.909 48.7549 107.261 49.9523C106.621 51.138 105.646 52.109 104.456 52.7434C103.227 53.4068 101.751 53.7433 100.067 53.7433H96.0446V61.146H90.4922V38.1016H99.9892C101.64 38.1016 103.106 38.4365 104.346 39.0951C105.542 39.7162 106.537 40.6625 107.217 41.8247C107.902 43.0232 108.253 44.3832 108.234 45.7631ZM101.15 48.4053C101.615 48.1584 102.004 47.7891 102.274 47.3375C102.549 46.8766 102.691 46.3494 102.686 45.8133C102.694 45.3023 102.548 44.8009 102.268 44.3732C101.989 43.9557 101.602 43.6204 101.15 43.4023C100.664 43.1691 100.13 43.0516 99.5906 43.0593H96.0446V48.7873H99.5744C100.123 48.7933 100.665 48.662 101.15 48.4053Z" fill="#1EEFA4"/>
<path d="M171.217 51.7677H179.889V47.2129H171.217V43.0593H182.304V38.1016H165.664V61.146H182.554V56.1883H171.217V51.7677Z" fill="#1EEFA4"/>
<path d="M199.219 38.1016H204.771V61.146H199.219V38.1016Z" fill="#1EEFA4"/>
<path fill-rule="evenodd" clip-rule="evenodd" d="M232.495 55.485C233.549 53.7095 234.105 51.6832 234.103 49.6192C234.102 47.5553 233.544 45.5298 232.487 43.7557C231.414 42.0093 229.894 40.5796 228.084 39.6135C226.194 38.6009 224.079 38.0811 221.935 38.1022H213.305V61.1466H221.986C224.122 61.1675 226.228 60.6476 228.108 59.6354C229.915 58.6676 231.43 57.2346 232.495 55.485ZM227.656 52.8751C227.131 53.8177 226.352 54.595 225.408 55.1193C224.423 55.6634 223.313 55.9422 222.186 55.9284H218.858V43.3285H222.17C223.299 43.3133 224.412 43.5921 225.4 44.1376C226.345 44.6638 227.126 45.4405 227.656 46.3818C228.205 47.371 228.485 48.4869 228.466 49.618C228.485 50.7556 228.205 51.8783 227.656 52.8751Z" fill="#1EEFA4"/>
<path fill-rule="evenodd" clip-rule="evenodd" d="M119.193 38.1016H124.142L132.994 61.1784H127.298L126.04 57.4941V57.4828H117.24V57.4941L115.984 61.1784H110.289L119.193 38.1016ZM121.651 44.5657L121.572 44.8003L118.901 52.6285H124.394L121.733 44.8003L121.651 44.5657Z" fill="#1EEFA4"/>
</svg>
