<svg width="250" height="100" viewBox="0 0 250 100" fill="none" xmlns="http://www.w3.org/2000/svg">
<g clip-path="url(#clip0_2192_62580)">
<path d="M68.5525 27.2109V45.1018L16 66.2417L68.5525 27.2109Z" fill="#00C9FF"/>
<path d="M58.6989 26.4375V57.3004C58.6989 61.6133 56.9686 65.7497 53.8885 68.7994C50.8085 71.8492 46.631 73.5625 42.2752 73.5625C37.9194 73.5625 33.742 71.8492 30.6619 68.7994C27.5819 65.7497 25.8516 61.6133 25.8516 57.3004V44.2956L35.7041 38.9267V57.3004C35.6119 58.1022 35.6917 58.9144 35.9385 59.6836C36.1854 60.4528 36.5934 61.1616 37.1362 61.7637C37.679 62.3658 38.344 62.8476 39.0879 63.1775C39.8319 63.5074 40.6377 63.678 41.4528 63.678C42.2679 63.678 43.0738 63.5074 43.8177 63.1775C44.5615 62.8476 45.2267 62.3658 45.7694 61.7637C46.3122 61.1616 46.7203 60.4528 46.9671 59.6836C47.2139 58.9144 47.2938 58.1022 47.2015 57.3004V32.6657L58.6989 26.4375Z" fill="#0D67FE"/>
<path d="M92.53 34.3281V42.3078C92.53 44.9841 90.9926 46.3999 89.075 46.3999C87.5129 46.3999 86.2896 45.4996 86.2896 43.0525V34.3281H83.4297V43.2571C83.4297 46.6864 85.2812 48.8962 88.3228 48.8962C89.1834 48.9047 90.03 48.6807 90.7714 48.248C91.5128 47.8153 92.1209 47.1905 92.53 46.4408H92.5797V48.4787H95.39V34.3281H92.53Z" fill="#0D67FE"/>
<path d="M105.012 33.9147C104.132 33.9003 103.264 34.1206 102.499 34.5526C101.734 34.9846 101.1 35.6123 100.665 36.3701H100.615V34.324H97.8047V48.4828H100.665V40.503C100.665 37.8268 102.252 36.4109 104.252 36.4109C105.905 36.4109 107.194 37.3112 107.194 39.7583V48.4828H110.054V39.5291C110.054 36.1245 108.161 33.9147 105.012 33.9147Z" fill="#0D67FE"/>
<path d="M118.55 39.9128H118.005C115.525 39.9128 115.037 39.479 115.037 38.3741C115.037 37.2692 116.029 36.3608 117.873 36.3608C118.226 36.3333 118.581 36.3793 118.914 36.4959C119.249 36.6124 119.554 36.7967 119.812 37.0373C120.07 37.2778 120.274 37.5691 120.411 37.8923C120.548 38.2156 120.615 38.5637 120.608 38.9143H123.592C123.386 36.058 121.253 33.9219 117.873 33.9219C114.004 33.9219 112.087 36.1807 112.087 38.3741C112.087 40.9195 114.219 42.3844 116.897 42.3844H117.674C120.154 42.3844 120.898 42.9573 120.898 44.316C120.898 45.5272 119.65 46.4521 117.782 46.4521C117.028 46.4923 116.289 46.2362 115.726 45.7396C115.162 45.2429 114.82 44.5459 114.773 43.8002H111.789C111.971 46.7384 114.409 48.899 117.74 48.899C121.741 48.899 123.824 46.6074 123.824 44.316C123.865 41.6888 121.774 39.9128 118.55 39.9128Z" fill="#0D67FE"/>
<path d="M132.849 36.8023V34.347H128.972V32.3828H126.12V34.3307H123.781V36.7859H126.12V44.6838C126.12 47.3355 127.526 48.473 130.179 48.473H132.857V46.0178H130.435C130.236 46.0294 130.037 45.9981 129.851 45.9261C129.665 45.8541 129.497 45.7431 129.359 45.6008C129.221 45.4585 129.115 45.2881 129.05 45.1015C128.985 44.915 128.961 44.7167 128.98 44.5201V36.8023H132.849Z" fill="#0D67FE"/>
<path d="M140.909 33.9219C136.9 33.9219 133.734 36.5981 133.734 41.4105C133.734 46.2228 136.9 48.899 140.909 48.899C144.918 48.899 148.084 46.1983 148.084 41.4105C148.084 36.6227 144.91 33.9219 140.909 33.9219ZM140.909 46.4521C138.57 46.4521 136.693 44.8151 136.693 41.4105C136.693 38.0058 138.57 36.3362 140.909 36.3608C143.248 36.3853 145.116 37.9567 145.116 41.4105C145.116 44.8643 143.248 46.4274 140.909 46.4521Z" fill="#0D67FE"/>
<path d="M157.754 33.9156C156.781 33.8933 155.819 34.1205 154.963 34.5751C154.105 35.0298 153.381 35.6963 152.86 36.51H152.795C152.844 35.9452 152.844 35.536 152.844 35.0205V34.3247H149.984V50.988H152.844V47.8615C152.844 47.3214 152.844 46.8876 152.795 46.2901H152.844C153.354 47.1176 154.078 47.7952 154.941 48.2527C155.805 48.7103 156.775 48.9313 157.754 48.8927C161.258 48.8927 164.366 46.241 164.366 41.3223C164.366 36.4035 161.267 33.9156 157.754 33.9156ZM157.027 46.4456C154.373 46.4456 152.836 44.1867 152.836 41.2977C152.836 38.5723 154.373 36.3872 157.027 36.3872C159.68 36.3872 161.341 38.376 161.341 41.355C161.341 44.3342 159.63 46.4703 157.035 46.4456H157.027Z" fill="#0D67FE"/>
<path d="M174.082 33.9156C173.109 33.8933 172.147 34.1205 171.29 34.5751C170.433 35.0298 169.709 35.6963 169.188 36.51H169.139C169.188 35.9452 169.188 35.536 169.188 35.0205V34.3247H166.328V50.988H169.188V47.8615C169.188 47.3214 169.188 46.8876 169.139 46.2901H169.188C169.697 47.1151 170.418 47.7911 171.279 48.2484C172.139 48.7059 173.106 48.9282 174.082 48.8927C177.586 48.8927 180.653 46.241 180.653 41.3223C180.653 36.4035 177.595 33.9156 174.082 33.9156ZM173.355 46.4456C170.701 46.4456 169.163 44.1867 169.163 41.2977C169.163 38.5723 170.701 36.3872 173.355 36.3872C176.007 36.3872 177.668 38.376 177.668 41.355C177.668 44.3342 175.942 46.4703 173.355 46.4456Z" fill="#0D67FE"/>
<path d="M195.36 46.0183C194.971 46.0183 194.79 45.7808 194.79 45.3226V39.0944C194.79 36.107 193.335 33.9219 189.046 33.9219C184.912 33.9219 182.987 35.9762 182.781 38.9143H185.639C185.822 37.2774 187.094 36.3608 189.046 36.3608C190.699 36.3608 191.855 37.0892 191.855 38.2186C191.855 39.1434 191.203 39.7081 189.07 39.7081H187.929C184.524 39.7081 182.234 41.075 182.234 44.1932C182.234 47.4668 184.649 48.9482 187.483 48.9482C189.591 48.9482 191.385 48.0234 192.087 46.0428C192.162 47.4832 193.129 48.498 194.947 48.498H196.6V46.0428L195.36 46.0183ZM191.93 41.9261C191.93 45.1179 190.186 46.5011 187.955 46.5011C186.003 46.5011 185.226 45.3717 185.226 44.2177C185.226 43.0638 185.897 42.2044 187.979 42.2044H188.392C190.393 42.2044 191.641 41.5086 191.906 40.2974L191.93 41.9261Z" fill="#0D67FE"/>
<path d="M206.097 33.9211C205.125 33.8986 204.165 34.1257 203.308 34.5804C202.453 35.0351 201.73 35.7018 201.212 36.5155H201.154C201.201 36.0203 201.22 35.5231 201.212 35.0258V29.8125H198.352V48.489H201.212V47.867C201.22 47.3426 201.201 46.8181 201.154 46.2956H201.212C201.719 47.1199 202.439 47.7955 203.297 48.253C204.156 48.7105 205.122 48.9332 206.097 48.8982C209.61 48.8982 212.709 46.2465 212.709 41.3278C212.709 36.409 209.61 33.9211 206.097 33.9211ZM205.37 46.4511C202.716 46.4511 201.186 44.1923 201.186 41.3032C201.186 38.5779 202.716 36.3927 205.37 36.3927C208.022 36.3927 209.683 38.3814 209.683 41.3605C209.683 44.3395 207.965 46.4756 205.37 46.4511Z" fill="#0D67FE"/>
<path d="M214.5 29.8125V48.489H217.36V29.8125H214.5Z" fill="#0D67FE"/>
<path d="M233.499 40.1256C233.499 36.5736 230.639 33.9219 226.737 33.9219C222.605 33.9219 219.695 36.7209 219.695 41.4105C219.695 45.9118 222.523 48.899 226.737 48.899C230.193 48.899 232.772 46.8939 233.351 44.1358H230.234C229.969 44.8386 229.486 45.4406 228.856 45.8563C228.225 46.2721 227.478 46.4806 226.722 46.4521C224.589 46.4521 223.027 44.9379 222.687 42.4172H233.482L233.499 40.1256ZM222.754 39.8883C222.871 38.9181 223.342 38.0238 224.079 37.3741C224.816 36.7242 225.767 36.3639 226.754 36.3608C227.731 36.3557 228.673 36.7165 229.392 37.3707C230.111 38.025 230.553 38.9244 230.631 39.8883H222.754Z" fill="#0D67FE"/>
<path d="M94.7318 50.9922V56.1237C94.7318 56.6639 94.7318 57.1059 94.7813 57.6951H94.7318C94.2221 56.8735 93.5013 56.2005 92.6432 55.7447C91.785 55.2889 90.8201 55.0667 89.8469 55.1008C86.3092 55.1008 83.2344 57.6952 83.2344 62.4665C83.2344 67.3771 86.2761 70.0862 89.8469 70.0862C90.8185 70.1052 91.7786 69.8758 92.6344 69.4199C93.4902 68.9639 94.2127 68.297 94.7318 67.4835H94.7813C94.7318 68.0564 94.7318 68.4657 94.7318 68.9813V69.6769H97.5917V50.9922H94.7318ZM90.599 67.6308C87.9706 67.6308 86.2513 65.5438 86.2513 62.4583C86.2513 59.3729 87.9706 57.5478 90.599 57.5478C93.2274 57.5478 94.7318 59.7166 94.7318 62.4583C94.7318 65.3474 93.1944 67.639 90.5743 67.6636L90.599 67.6308Z" fill="#0D67FE"/>
<path d="M107.104 55.1328C103.095 55.1328 99.9297 57.809 99.9297 62.6215C99.9297 67.4338 103.095 70.11 107.104 70.11C111.113 70.11 114.279 67.4092 114.279 62.6215C114.279 57.8336 111.105 55.1328 107.104 55.1328ZM107.104 67.6629C104.765 67.6629 102.889 66.0261 102.889 62.6215C102.889 59.2167 104.765 57.5472 107.104 57.5717C109.443 57.5962 111.311 59.2085 111.311 62.6215C111.311 66.0343 109.443 67.6383 107.104 67.6629Z" fill="#0D67FE"/>
<path d="M132.444 55.1348C131.538 55.1093 130.642 55.3338 129.857 55.7833C129.071 56.2327 128.428 56.8894 127.998 57.6801H127.923L127.998 58.3593C127.737 57.4099 127.159 56.5765 126.356 55.9964C125.554 55.4163 124.576 55.1239 123.584 55.1675C122.735 55.1775 121.906 55.418 121.186 55.8624C120.466 56.3068 119.883 56.9384 119.501 57.6882H119.451V55.544H116.641V69.7028H119.501V61.7231C119.501 59.0469 121.03 57.6309 122.856 57.6309C124.385 57.6309 125.476 58.6295 125.476 60.9784V69.7028H128.336V61.6986C128.336 59.0223 129.923 57.6556 131.742 57.6556C133.279 57.6556 134.345 58.654 134.345 61.0029V69.7028H137.205V60.7656C137.205 57.3446 135.354 55.1348 132.444 55.1348Z" fill="#0D67FE"/>
<path d="M152.674 67.2292C152.285 67.2292 152.104 66.9918 152.104 66.5334V60.3052C152.104 57.318 150.641 55.1328 146.319 55.1328C142.185 55.1328 140.267 57.1871 140.061 60.1252H142.921C143.103 58.5293 144.376 57.5717 146.319 57.5717C147.972 57.5717 149.128 58.2919 149.128 59.4295C149.128 60.3544 148.484 60.919 146.351 60.919H145.202C141.797 60.919 139.516 62.2859 139.516 65.3959C139.516 68.6695 141.929 70.1592 144.763 70.1592C146.872 70.1592 148.665 69.2343 149.36 67.2537C149.442 68.6942 150.402 69.7089 152.22 69.7089H153.831V67.2537L152.674 67.2292ZM149.244 63.1371C149.244 66.3289 147.5 67.712 145.26 67.712C143.317 67.712 142.533 66.5826 142.533 65.4204C142.533 64.2583 143.209 63.4153 145.293 63.4153H145.706C147.707 63.4153 148.955 62.7196 149.211 61.5083L149.244 63.1371Z" fill="#0D67FE"/>
<path d="M155.602 55.5391V69.6978H158.462V55.5391H155.602Z" fill="#0D67FE"/>
<path d="M168.863 55.1335C167.984 55.1188 167.116 55.339 166.352 55.7711C165.59 56.2032 164.958 56.8311 164.524 57.5887H164.466V55.5426H161.664V69.7014H164.524V61.7218C164.524 59.0455 166.111 57.6297 168.111 57.6297C169.764 57.6297 171.046 58.5299 171.046 60.977V69.7014H173.906V60.7642C173.906 57.3432 171.98 55.1335 168.863 55.1335Z" fill="#0D67FE"/>
<path d="M182.922 61.1252H182.377C179.898 61.1252 179.418 60.6914 179.418 59.5865C179.418 58.4816 180.401 57.5405 182.253 57.5405C182.605 57.5129 182.961 57.559 183.294 57.6754C183.628 57.792 183.932 57.9767 184.19 58.2173C184.447 58.458 184.65 58.7493 184.786 59.0725C184.922 59.3959 184.988 59.7437 184.981 60.0939H187.964C187.758 57.2377 185.625 55.1016 182.253 55.1016C178.376 55.1016 176.467 57.3604 176.467 59.5538C176.467 62.0991 178.6 63.5641 181.277 63.5641H182.054C184.534 63.5641 185.278 64.1288 185.278 65.4955C185.278 66.7069 184.03 67.6317 182.162 67.6317C181.415 67.661 180.688 67.3999 180.133 66.9043C179.579 66.4088 179.241 65.7181 179.194 64.9799H176.211C176.392 67.9181 178.831 70.0787 182.162 70.0787C186.163 70.0787 188.246 67.7871 188.246 65.4955C188.229 62.9011 186.146 61.1252 182.922 61.1252Z" fill="#0D67FE"/>
</g>
<defs>
<clipPath id="clip0_2192_62580">
<rect width="217.5" height="58" fill="white" transform="translate(16 21)"/>
</clipPath>
</defs>
</svg>
