<svg xmlns="http://www.w3.org/2000/svg" width="115.616" height="126.667" viewBox="0 0 115.616 126.667">
  <g id="Group_6453" data-name="Group 6453" transform="translate(0 -1.333)">
    <path id="Path_446" data-name="Path 446" d="M118.616,86.131V43.286a20.407,20.407,0,0,0-10.2-17.682L71.009,4.18a19.951,19.951,0,0,0-20.4,0L13.2,25.6A20.407,20.407,0,0,0,3,43.286V86.131a20.407,20.407,0,0,0,10.2,17.682l37.405,21.423a19.951,19.951,0,0,0,20.4,0l37.405-21.423A20.715,20.715,0,0,0,118.616,86.131Z" transform="translate(-3 -0.042)" fill="#3259d6"/>
    <path id="Path_15493" data-name="Path 15493" d="M49.685.011,42.8,0C35.074,0,30.078,5.126,30.078,13.059V19.08H23.159a1.082,1.082,0,0,0-1.082,1.083v8.724a1.082,1.082,0,0,0,1.082,1.082h6.919V51.981a1.082,1.082,0,0,0,1.082,1.082h9.027a1.082,1.082,0,0,0,1.082-1.082V29.968h8.09a1.082,1.082,0,0,0,1.082-1.082l0-8.724a1.083,1.083,0,0,0-1.083-1.083H41.268v-5.1c0-2.453.585-3.7,3.78-3.7l4.635,0a1.082,1.082,0,0,0,1.081-1.082v-8.1A1.082,1.082,0,0,0,49.685.011Z" transform="translate(21.572 38.135)" fill="#fff"/>
  </g>
</svg>
