<svg width="94" height="102" viewBox="0 0 94 102" fill="none" xmlns="http://www.w3.org/2000/svg">
<g clip-path="url(#clip0_2207_62736)">
<path d="M93.045 68.2098V33.7248C93.0464 30.8408 92.2884 28.0074 90.8472 25.5094C89.406 23.0114 87.3324 20.937 84.835 19.4948L54.733 2.25777C52.2494 0.780022 49.413 0 46.523 0C43.633 0 40.7966 0.780022 38.313 2.25777L8.21 19.4978C5.71304 20.9397 3.63974 23.0137 2.19855 25.5111C0.757365 28.0085 -0.000898751 30.8414 2.01279e-06 33.7248V68.2098C-0.0014256 71.0937 0.756588 73.9271 2.1978 76.4251C3.63901 78.9231 5.7126 80.9975 8.21 82.4398L38.31 99.6808C40.7936 101.159 43.63 101.939 46.52 101.939C49.41 101.939 52.2464 101.159 54.73 99.6808L84.83 82.4398C87.3117 80.9793 89.3727 78.9009 90.8124 76.4071C92.2521 73.9134 93.0212 71.0892 93.045 68.2098Z" fill="url(#paint0_radial_2207_62736)"/>
<path d="M68.33 50.2321C68.33 54.5348 68.33 57.4368 68.2304 59.0388C68.0301 62.9421 66.9293 65.9437 64.7276 68.0447C62.2647 70.29 59.0545 71.5386 55.7217 71.5475C54.1208 71.6471 51.1181 71.6471 46.915 71.6471C42.6123 71.6471 39.7103 71.6471 38.1083 71.5475C34.205 71.3473 31.2034 70.2464 29.1024 68.0447C27.0003 65.9427 25.7998 62.941 25.5996 59.0388C25.5 57.4379 25.5 54.4352 25.5 50.2321C25.5 46.029 25.5 43.0274 25.5996 41.4254C25.7967 37.5221 26.9028 34.5205 29.0992 32.4227C31.2013 30.3206 34.2029 29.1202 38.1051 28.9199C39.7071 28.8203 42.7098 28.8203 46.9129 28.8203C51.2156 28.8203 54.1176 28.8203 55.7196 28.9199C59.6229 29.1202 62.6245 30.221 64.7255 32.4227C66.9693 34.8862 68.2163 38.0964 68.224 41.4286C68.224 43.0263 68.33 45.9284 68.33 50.2321ZM49.0139 32.6187H41.9088C41.2084 32.6187 40.3078 32.6187 39.207 32.7183C38.2312 32.7029 37.257 32.8036 36.305 33.0181C35.6196 33.101 34.9473 33.269 34.3035 33.5182C33.392 33.9198 32.5481 34.4602 31.802 35.1202C31.0995 35.8331 30.5542 36.6852 30.2011 37.6217C29.9511 38.2668 29.7828 38.9406 29.6999 39.6274C29.6003 40.4284 29.4997 41.329 29.4001 42.5294C29.4001 43.6303 29.3005 44.5309 29.3005 45.2312V55.2383C29.3005 55.9387 29.3005 56.8393 29.4001 57.9401C29.3847 58.9159 29.4854 59.8901 29.6999 60.8421C29.8308 61.5177 29.9977 62.1858 30.2 62.8436C30.6013 63.7551 31.1413 64.5989 31.801 65.3451C32.5138 66.0476 33.366 66.5929 34.3025 66.946C34.9462 67.1953 35.6186 67.3633 36.3039 67.4461C37.1049 67.5457 38.0055 67.6464 39.2059 67.746C40.4064 67.8456 41.2074 67.8456 41.9077 67.8456H51.9149C52.6152 67.8456 53.5158 67.8456 54.6166 67.746C55.5924 67.7613 56.5666 67.6607 57.5187 67.4461C58.204 67.3633 58.8763 67.1953 59.5201 66.946C60.4316 66.5448 61.2755 66.0047 62.0216 65.3451C62.7255 64.6319 63.272 63.779 63.6257 62.8415C63.875 62.1977 64.043 61.5254 64.1258 60.84C64.2254 60.039 64.3261 59.1384 64.4257 57.938C64.4257 56.8372 64.5253 55.9366 64.5253 55.2362V45.228C64.5253 44.5277 64.5253 43.6271 64.4257 42.5262C64.441 41.5504 64.3404 40.5763 64.1258 39.6242C64.043 38.9389 63.875 38.2666 63.6257 37.6228C63.2245 36.7113 62.6844 35.8674 62.0248 35.1213C61.3119 34.4188 60.4598 33.8734 59.5233 33.5203C58.8799 33.2708 58.2079 33.1025 57.5229 33.0192C56.7219 32.9196 55.8213 32.8189 54.6209 32.7193C53.52 32.7193 52.6194 32.6197 51.9191 32.6197L49.0139 32.6187ZM54.6177 42.4256C55.6552 43.4397 56.4744 44.6553 57.025 45.9975C57.5756 47.3398 57.846 48.7805 57.8196 50.2311C57.8365 51.6803 57.5618 53.1182 57.0118 54.4592C56.4617 55.8001 55.6475 57.0167 54.6177 58.0365C53.6039 59.0745 52.3887 59.8942 51.0466 60.4453C49.7045 60.9965 48.2639 61.2675 46.8133 61.2416C45.364 61.2586 43.9261 60.9838 42.5852 60.4338C41.2443 59.8837 40.0277 59.0696 39.0078 58.0397C37.9695 57.0256 37.1495 55.8098 36.5984 54.4672C36.0472 53.1245 35.7764 51.6833 35.8028 50.2321C35.7858 48.7829 36.0605 47.345 36.6106 46.004C37.1606 44.6631 37.9748 43.4465 39.0046 42.4267C40.0188 41.3892 41.2343 40.57 42.5766 40.0193C43.9189 39.4687 45.3595 39.1983 46.8101 39.2248C48.2641 39.1748 49.7122 39.4343 51.0584 39.9861C52.4045 40.538 53.6171 41.3695 54.6177 42.4256ZM51.9159 55.2352C52.587 54.587 53.1194 53.8091 53.4807 52.9489C53.8421 52.0887 54.0249 51.1641 54.018 50.2311C54.0254 49.2832 53.8433 48.3434 53.4823 47.467C53.1213 46.5905 52.5888 45.795 51.9159 45.1274C50.5584 43.7812 48.724 43.0259 46.8122 43.0259C44.9004 43.0259 43.066 43.7812 41.7085 45.1274C41.0281 45.7893 40.4905 46.5837 40.1289 47.4615C39.7674 48.3393 39.5896 49.2819 39.6064 50.2311C39.58 51.1668 39.7539 52.0973 40.1165 52.9604C40.479 53.8234 41.0218 54.599 41.7085 55.2352C43.066 56.5813 44.9004 57.3367 46.8122 57.3367C48.724 57.3367 50.5584 56.5813 51.9159 55.2352ZM60.1219 36.9214C60.4943 37.3342 60.7137 37.8624 60.7433 38.4176C60.7729 38.9729 60.6108 39.5214 60.2844 39.9714C59.9579 40.4215 59.4867 40.7457 58.9497 40.89C58.4128 41.0342 57.8426 40.9896 57.3345 40.7637C56.8265 40.5377 56.4115 40.1442 56.1589 39.6489C55.9063 39.1535 55.8315 38.5865 55.9471 38.0426C56.0626 37.4987 56.3614 37.011 56.7935 36.6611C57.2256 36.3112 57.7647 36.1203 58.3207 36.1204C58.6598 36.1252 58.9943 36.1987 59.3041 36.3366C59.6139 36.4745 59.8924 36.6738 60.123 36.9225L60.1219 36.9214Z" fill="white"/>
</g>
<defs>
<radialGradient id="paint0_radial_2207_62736" cx="0" cy="0" r="1" gradientUnits="userSpaceOnUse" gradientTransform="translate(118.666 44.0372) rotate(-68.6456) scale(127.982 160.377)">
<stop stop-color="#FEDA75"/>
<stop offset="0.276" stop-color="#FA7E1E"/>
<stop offset="0.527" stop-color="#D62976"/>
<stop offset="0.782" stop-color="#A02EB3"/>
<stop offset="1" stop-color="#4F5BD5"/>
</radialGradient>
<clipPath id="clip0_2207_62736">
<rect width="93.045" height="101.939" fill="white"/>
</clipPath>
</defs>
</svg>
