<svg id="lin" xmlns="http://www.w3.org/2000/svg" width="93.045" height="101.939" viewBox="0 0 93.045 101.939">
  <g id="USDC" transform="translate(0)">
    <path id="Path_446" data-name="Path 446" d="M96.045,69.585V35.1a16.423,16.423,0,0,0-8.21-14.23L57.733,3.633a16.056,16.056,0,0,0-16.42,0L11.21,20.873A16.423,16.423,0,0,0,3,35.1V69.585a16.423,16.423,0,0,0,8.21,14.23l30.1,17.241a16.056,16.056,0,0,0,16.42,0l30.1-17.241A16.671,16.671,0,0,0,96.045,69.585Z" transform="translate(-3 -1.375)" fill="#0275b4"/>
  </g>
  <path id="linkedin" d="M39.308,2H5.034A2.934,2.934,0,0,0,2.06,4.893V39.572a2.934,2.934,0,0,0,2.974,2.893H39.308a2.934,2.934,0,0,0,2.974-2.893V4.893A2.934,2.934,0,0,0,39.308,2ZM14.26,35.869H8.19V17.66h6.07ZM11.225,15.111h0a3.156,3.156,0,0,1,0-6.313,3.177,3.177,0,1,1,0,6.313ZM36.152,35.869h-6.07V26.1c0-2.448-.87-4.047-3.075-4.047a3.338,3.338,0,0,0-3.116,2.205,4.046,4.046,0,0,0-.2,1.477V35.849h-6.07V17.64h6.07v2.57a6.07,6.07,0,0,1,5.483-3.035c4.047,0,6.98,2.61,6.98,8.214Z" transform="translate(24.498 28.582)" fill="#fff"/>
</svg>
