<svg id="reddit" xmlns="http://www.w3.org/2000/svg" width="93.045" height="101.939" viewBox="0 0 93.045 101.939">
  <g id="USDC" transform="translate(0 0)">
    <path id="Path_446" data-name="Path 446" d="M96.045,69.585V35.1a16.423,16.423,0,0,0-8.21-14.23L57.733,3.633a16.056,16.056,0,0,0-16.42,0L11.21,20.873A16.423,16.423,0,0,0,3,35.1V69.585a16.423,16.423,0,0,0,8.21,14.23l30.1,17.241a16.056,16.056,0,0,0,16.42,0l30.1-17.241A16.671,16.671,0,0,0,96.045,69.585Z" transform="translate(-3 -1.375)" fill="#ff4500"/>
  </g>
  <g id="Reddit-2" data-name="Reddit" transform="translate(22.535 31.387)">
    <path id="Path_15579" data-name="Path 15579" d="M7.009,9.5,5.5,9.5v0Z" transform="translate(11.094 13.128)" fill="#fff"/>
    <path id="Path_15580" data-name="Path 15580" d="M10.5,9.5h1.509L10.5,9.5Z" transform="translate(21.18 13.128)" fill="#fff"/>
    <path id="Path_15581" data-name="Path 15581" d="M48.485,20.1a6.04,6.04,0,0,0-6.034-6.034,5.958,5.958,0,0,0-3.627,1.222,25.364,25.364,0,0,0-12.47-4.085l2.531-5.938,7.365,1.72a4.5,4.5,0,1,0,.7-2.936L28.343,2.04a1.509,1.509,0,0,0-1.735.878l-3.5,8.207A25.871,25.871,0,0,0,9.57,15.213,6.04,6.04,0,0,0,0,20.1a5.974,5.974,0,0,0,3.05,5.223q-.035.4-.033.812c0,8.318,9.474,15.086,21.12,15.086s21.12-6.767,21.12-15.086c0-.235-.009-.468-.024-.7A5.974,5.974,0,0,0,48.485,20.1ZM40.731,5.018a1.512,1.512,0,1,1-1.515,1.509,1.512,1.512,0,0,1,1.515-1.509ZM13.577,24.629a3.02,3.02,0,1,1,3.017,2.885A3.022,3.022,0,0,1,13.577,24.629ZM31.1,34.637a11.875,11.875,0,0,1-13.933,0,1.509,1.509,0,1,1,1.768-2.444,8.849,8.849,0,0,0,10.4,0A1.509,1.509,0,1,1,31.1,34.637Zm.576-6.991A3.017,3.017,0,1,1,34.7,24.629,3.017,3.017,0,0,1,31.68,27.646Z" transform="translate(0 -2)" fill="#fff"/>
  </g>
</svg>
