<svg width="116" height="127" viewBox="0 0 116 127" fill="none" xmlns="http://www.w3.org/2000/svg">
<g clip-path="url(#clip0_2207_62727)">
<path d="M115.616 84.7555V41.9105C115.618 38.3271 114.676 34.8064 112.886 31.7025C111.095 28.5985 108.519 26.0208 105.416 24.2285L68.009 2.8045C64.9233 0.968894 61.3994 0 57.809 0C54.2186 0 50.6947 0.968894 47.609 2.8045L10.2 24.2245C7.09649 26.0171 4.51982 28.5955 2.72925 31.7002C0.938683 34.8049 -0.00263548 38.3265 5.54207e-06 41.9105V84.7555C-0.00193286 88.3389 0.939719 91.8596 2.73025 94.9635C4.52079 98.0675 7.09708 100.645 10.2 102.438L47.605 123.861C50.6907 125.696 54.2146 126.665 57.805 126.665C61.3954 126.665 64.9193 125.696 68.005 123.861L105.41 102.438C108.493 100.623 111.054 98.0399 112.843 94.9411C114.631 91.8424 115.587 88.3333 115.616 84.7555Z" fill="#4692F9"/>
<path d="M84.1582 89L63.37 58.6935L63.4055 58.7218L82.1491 37H75.8855L60.6164 54.68L48.4909 37H32.0636L51.4715 65.2951L51.4691 65.2927L31 89H37.2636L54.2393 69.3298L67.7309 89H84.1582ZM46.0091 41.7273L75.1764 84.2727H70.2127L41.0218 41.7273H46.0091Z" fill="white"/>
</g>
<defs>
<clipPath id="clip0_2207_62727">
<rect width="115.616" height="126.667" fill="white"/>
</clipPath>
</defs>
</svg>
