<svg width="100%" height="100%" viewBox="0 0 239 216" fill="none" xmlns="http://www.w3.org/2000/svg">
<path d="M128.386 58.5156L128.453 79.0812L139.967 85.8034L139.9 65.2377L128.386 58.5156Z" fill="#B2DCF6"/>
<path d="M1.19861 124.07L1.26515 144.636C1.26515 146.632 2.59625 148.696 5.25846 150.226L16.8391 156.949L16.7726 136.383L5.19193 129.661C2.52971 128.13 1.19861 126.067 1.19861 124.07Z" fill="#ECF7FE"/>
<path d="M5.25922 118.415C-0.131753 121.543 -0.131736 126.534 5.19269 129.663L16.7733 136.385L139.901 65.237L128.386 58.5149C122.995 55.4534 114.343 55.4534 108.952 58.5149L5.25922 118.415Z" fill="#B2DCF6"/>
<path d="M16.7734 136.382L16.84 156.948L139.967 85.8001L139.901 65.2344L16.7734 136.382Z" fill="#B2DCF6"/>
<path d="M128.387 58.5156L139.901 65.2377L16.7734 136.385L110.55 190.894C115.874 193.956 124.593 193.956 129.917 190.894L233.677 130.994C239.001 127.866 239.068 122.875 233.744 119.747L128.387 58.5156Z" fill="#B2DCF6"/>
<path d="M52.5136 177.656L110.616 211.466C115.941 214.528 124.593 214.528 129.984 211.466L233.744 151.566C236.406 149.969 237.737 147.972 237.737 145.909V125.344C237.737 127.407 236.339 129.47 233.677 131.001L129.917 190.901C124.593 193.962 115.874 193.962 110.55 190.901L16.7734 136.392L16.84 156.958L38.537 169.536" fill="#ECF7FE"/>
<path fill-rule="evenodd" clip-rule="evenodd" d="M239 145.901C239 148.496 237.336 150.892 234.341 152.623L130.582 212.522C124.725 215.917 115.74 215.784 109.949 212.522L51.9131 178.712C51.3141 178.38 51.1145 177.647 51.4473 177.048C51.78 176.449 52.5787 176.25 53.1777 176.649L111.214 210.393C116.206 213.321 124.325 213.321 129.383 210.393L233.143 150.493C235.339 149.228 236.537 147.631 236.537 145.901L236.471 130.46C236.404 130.526 236.338 130.526 236.271 130.593C235.672 131.125 235.007 131.591 234.275 132.057L130.582 191.957C124.725 195.285 115.673 195.285 109.883 191.957C106.089 189.761 40.998 151.824 18.0365 138.513C18.0365 139.578 18.0365 155.751 18.0365 156.217C19.3676 156.882 38.6686 168.197 39.1345 168.463C39.7335 168.862 39.9332 169.594 39.6004 170.193C39.2676 170.792 38.5355 170.925 37.9365 170.593C36.0064 169.461 5.12476 151.624 4.65887 151.292C1.66388 149.561 0.0665553 147.232 0 144.636V124.071C0 121.408 1.66388 119.079 4.65887 117.348L65.6235 82.1406L67.4205 83.9377L5.8569 119.478C1.13147 122.14 1.39769 126.134 5.8569 128.596L16.772 134.919L81.0644 97.7812L82.9279 99.5782L49.0513 119.145L19.2345 136.383C86.3888 175.318 105.357 186.433 109.949 189.095H110.016C110.016 189.095 110.016 189.161 110.082 189.161C110.082 189.161 110.149 189.162 110.216 189.228C110.282 189.228 110.349 189.295 110.482 189.361C110.482 189.361 110.548 189.428 110.615 189.494L110.815 189.561C110.881 189.561 110.948 189.627 111.014 189.694L111.081 189.761C111.081 189.761 111.081 189.761 111.147 189.761C111.214 189.761 111.214 189.761 111.214 189.761C116.206 192.689 124.325 192.689 129.317 189.761L233.01 129.927C237.669 127.199 237.469 123.338 233.143 120.809L175.772 87.5316L177.569 85.7346L234.341 118.679C237.27 120.41 238.867 122.739 238.934 125.268V125.402L239 145.901ZM15.6405 154.819C15.6405 153.754 15.5074 137.515 15.5074 137.049L4.59233 130.726C3.79367 130.194 3.06159 129.728 2.46259 129.195L2.52913 144.636C2.52913 146.3 3.72711 147.897 5.92344 149.095L15.6405 154.819Z" fill="url(#paint0_linear_354_97620)"/>
<path d="M17.1712 124.27C19.7003 125.734 23.7602 125.734 26.2227 124.27C28.7518 122.806 28.7518 120.476 26.2892 119.012C23.7601 117.548 19.7003 117.548 17.2377 119.012C14.7086 120.476 14.7087 122.806 17.1712 124.27Z" fill="url(#paint1_linear_354_97620)"/>
<path d="M32.6775 115.289C35.2066 116.754 39.2665 116.754 41.7291 115.289C44.2582 113.825 44.2582 111.496 41.7956 110.098C39.2665 108.634 35.2732 108.634 32.7441 110.098C30.215 111.496 30.215 113.825 32.6775 115.289Z" fill="url(#paint2_linear_354_97620)"/>
<path d="M48.2522 106.364C50.7147 107.761 54.7746 107.761 57.2371 106.364C59.7662 104.9 59.7662 102.57 57.3037 101.106C54.7746 99.6418 50.7813 99.6418 48.2522 101.106C45.7231 102.57 45.7231 104.9 48.2522 106.364Z" fill="url(#paint3_linear_354_97620)"/>
<path d="M109.018 132.054C101.098 136.646 101.032 144.1 108.952 148.692C116.872 153.285 129.717 153.285 137.704 148.692C145.624 144.1 145.69 136.646 137.77 132.054C129.85 127.461 117.005 127.461 109.018 132.054Z" fill="#ECF7FE"/>
<path d="M60.6335 77.0781L123.329 140.372V99.2411L60.6335 77.0781Z" fill="#B2DCF6"/>
<path d="M186.424 76.8125L123.329 140.373V99.2417L186.424 76.8125Z" fill="#ECF7FE"/>
<path d="M123.329 57.0978V99.2274L186.424 76.7982L166.457 43.0547L123.329 57.0978Z" fill="#B2DCF6"/>
<path d="M123.329 57.0978L80.6001 43.0547L60.6335 77.0644L123.329 99.2274V57.0978Z" fill="#ECF7FE"/>
<path d="M80.4671 15.7109L60.6335 40.3364V77.0749L80.6001 43.0651L80.4671 15.7109Z" fill="#B2DCF6"/>
<path d="M166.524 15.25L166.457 43.0701L186.424 76.8136V39.6092L166.524 15.25Z" fill="#ECF7FE"/>
<path d="M131.916 3.99438L123.33 1.26562L80.4683 15.7082L80.6013 43.0624L123.33 57.1055L166.458 43.0624L166.524 15.2422L153.413 10.9827" fill="#B2DCF6"/>
<path fill-rule="evenodd" clip-rule="evenodd" d="M187.622 76.8713C187.622 77.0044 187.423 77.4703 187.356 77.5368C187.889 76.9378 124.195 141.363 123.796 141.497C123.53 141.63 123.197 141.63 122.864 141.497C122.531 141.363 59.7696 78.0693 59.57 77.6035L59.3704 77.071V40.3325C59.3704 40.0663 59.5034 39.8 59.6365 39.6003L79.47 14.9083C79.5366 14.9083 80.069 14.509 80.069 14.509L122.997 0.0665553C123.219 -0.0221851 123.463 -0.0221851 123.729 0.0665553L132.315 2.86184C132.98 3.06151 133.313 3.7271 133.114 4.39265C132.914 5.0582 132.182 5.39095 131.516 5.19128L123.397 2.52907L81.6664 16.5722C81.6664 17.3043 81.7995 41.6636 81.7995 42.196L123.33 55.7733C125.526 55.1077 164.727 42.3291 165.193 42.196C165.193 43.9264 165.326 16.6388 165.326 16.1729L153.014 12.1796C152.348 11.9799 152.015 11.2478 152.215 10.5822C152.415 9.98324 153.147 9.58394 153.746 9.78361L166.924 14.1097C167.057 14.1097 167.123 14.2428 167.19 14.3093C167.323 14.3759 167.456 14.3759 167.523 14.509L187.356 38.8682C187.556 39.0679 187.622 39.3341 187.622 39.6003C187.755 39.1344 187.622 76.3388 187.622 76.8713ZM123.33 55.7733C123.241 55.8177 123.241 55.8177 123.33 55.7733ZM124.595 97.437L184.561 76.1392L165.859 44.592L124.595 57.9696V97.437ZM122.132 97.437V57.9696L81.1339 44.592L62.4319 76.4054C69.3536 78.868 116.275 95.3738 122.132 97.437ZM185.16 40.0663L167.789 18.702L167.656 42.7285C166.524 40.7984 184.894 71.8131 185.16 72.279V40.0663ZM61.8329 40.7984V72.5452L79.3369 42.7285C79.3369 41.5305 79.2038 20.1662 79.2038 19.1679L61.8329 40.7984ZM65.2937 80.066L122.132 137.37V100.099C107.69 94.9744 79.6697 85.1242 65.2937 80.066ZM181.765 79.7332C155.875 88.9844 137.107 95.64 124.595 100.099V137.37L181.765 79.7332Z" fill="url(#paint4_linear_354_97620)"/>
<defs>
<linearGradient id="paint0_linear_354_97620" x1="-1.7427" y1="78.1859" x2="59.0256" y2="274.17" gradientUnits="userSpaceOnUse">
<stop stop-color="#0661DB"/>
<stop offset="1" stop-color="#69A7FA"/>
</linearGradient>
<linearGradient id="paint1_linear_354_97620" x1="15.2392" y1="117.692" x2="18.7808" y2="128.593" gradientUnits="userSpaceOnUse">
<stop stop-color="#0661DB"/>
<stop offset="1" stop-color="#69A7FA"/>
</linearGradient>
<linearGradient id="paint2_linear_354_97620" x1="30.7456" y1="108.78" x2="34.23" y2="119.602" gradientUnits="userSpaceOnUse">
<stop stop-color="#0661DB"/>
<stop offset="1" stop-color="#69A7FA"/>
</linearGradient>
<linearGradient id="paint3_linear_354_97620" x1="46.2621" y1="99.7874" x2="49.7627" y2="110.628" gradientUnits="userSpaceOnUse">
<stop stop-color="#0661DB"/>
<stop offset="1" stop-color="#69A7FA"/>
</linearGradient>
<linearGradient id="paint4_linear_354_97620" x1="58.4348" y1="-4.21418" x2="160.619" y2="161.819" gradientUnits="userSpaceOnUse">
<stop stop-color="#0661DB"/>
<stop offset="1" stop-color="#69A7FA"/>
</linearGradient>
</defs>
</svg>
