<svg width="1920" height="232" viewBox="0 0 1920 232" fill="none" xmlns="http://www.w3.org/2000/svg">
<g clip-path="url(#clip0_1406_85221)">
<path d="M41.5 102C83.7498 102 118 67.7498 118 25.5C118 -16.7498 83.7498 -51 41.5 -51C-0.749783 -51 -35 -16.7498 -35 25.5C-35 67.7498 -0.749783 102 41.5 102Z" fill="#D9D9D9" fill-opacity="0.1"/>
<path d="M1880 314C1942.41 314 1993 263.408 1993 201C1993 138.592 1942.41 88 1880 88C1817.59 88 1767 138.592 1767 201C1767 263.408 1817.59 314 1880 314Z" fill="#D9D9D9" fill-opacity="0.1"/>
<path d="M1298.1 17C1322.9 17 1343.86 -4.1049 1332.89 -26.3443C1326.24 -39.826 1316.58 -51.5977 1304.66 -60.7486C1292.73 -69.8995 1278.86 -76.1843 1264.12 -79.1169C1249.38 -82.0495 1234.16 -81.5513 1219.64 -77.6607C1205.12 -73.7701 1191.69 -66.5916 1180.38 -56.6803C1169.08 -46.769 1160.21 -34.3907 1154.46 -20.503C1148.71 -6.61524 1146.23 8.4097 1147.21 23.4095C1148.83 48.153 1177.54 55.9492 1199.01 43.5509L1233.4 23.6988C1241 19.3103 1249.62 17 1258.4 17H1298.1Z" fill="#D9D9D9" fill-opacity="0.1"/>
<path d="M773.102 216.269C797.898 216.269 818.86 237.316 807.894 259.494C801.245 272.939 791.584 284.678 779.659 293.804C767.733 302.93 753.862 309.198 739.119 312.122C724.376 315.047 709.156 314.55 694.636 310.67C680.116 306.79 666.686 299.631 655.384 289.747C644.082 279.863 635.212 267.519 629.46 253.669C623.707 239.819 621.227 224.835 622.21 209.877C623.832 185.201 652.538 177.426 674.013 189.791L708.397 209.588C715.998 213.965 724.621 216.269 733.397 216.269H773.102Z" fill="#D9D9D9" fill-opacity="0.1"/>
</g>
<defs>
<clipPath id="clip0_1406_85221">
<rect width="1920" height="232" fill="white"/>
</clipPath>
</defs>
</svg>
