<svg width="736" height="500" viewBox="0 0 736 500" fill="none" xmlns="http://www.w3.org/2000/svg">
<g clip-path="url(#clip0_1525_57558)">
<path fill-rule="evenodd" clip-rule="evenodd" d="M-461.517 373.333L341.068 111.628L342.214 111.999L-460.37 373.704L-461.517 373.333ZM-176.111 331.518L-99.5351 356.311L-176.059 381.264L-252.635 356.471L-176.111 331.518ZM-21.8006 381.478L-98.3889 356.682L-174.913 381.635L-98.3243 406.431L-21.8006 381.478ZM-20.6543 381.85L55.9182 406.641L-20.6055 431.594L-97.178 406.802L-20.6543 381.85ZM133.644 431.806L57.0644 407.012L-19.4593 431.965L57.1207 456.758L133.644 431.806ZM134.791 432.177L211.363 456.968L134.839 481.921L58.2669 457.129L134.791 432.177ZM289.086 482.132L212.509 457.339L135.986 482.292L212.562 507.084L289.086 482.132ZM290.232 482.503L366.808 507.295L290.284 532.248L213.708 507.456L290.232 482.503ZM444.527 532.458L367.954 507.666L291.431 532.619L368.003 557.41L444.527 532.458ZM445.673 532.829L522.249 557.621L445.726 582.574L369.149 557.782L445.673 532.829ZM574.632 574.581L523.396 557.992L446.872 582.945L498.114 599.536L496.969 599.909L445.726 583.319L369.199 608.273L420.443 624.864L419.298 625.237L368.053 608.646L316.851 625.342L315.704 624.971L366.907 608.275L290.331 583.483L239.126 600.179L237.98 599.808L289.184 583.111L212.612 558.32L161.41 575.016L160.263 574.645L211.466 557.949L134.889 533.157L83.6851 549.853L82.5389 549.482L133.743 532.785L57.1669 507.993L5.96066 524.69L4.81441 524.319L56.0207 507.622L-20.5518 482.831L-71.756 499.527L-72.9022 499.156L-21.6981 482.459L-98.278 457.666L-149.488 474.364L-150.634 473.993L-99.4243 457.295L-175.997 432.503L-227.205 449.201L-228.351 448.83L-177.143 432.132L-253.731 407.336L-304.929 424.03L-306.076 423.659L-254.878 406.965L-331.454 382.172L-382.654 398.867L-383.8 398.496L-332.6 381.801L-383.834 365.214L-382.688 364.84L-331.455 381.428L-254.927 356.474L-306.162 339.885L-305.017 339.512L-253.781 356.1L-177.258 331.147L-228.499 314.557L-227.353 314.184L-176.112 330.774L-99.5802 305.818L-150.82 289.229L-149.674 288.856L-98.4348 305.445L-21.923 280.496L-73.1558 263.909L-72.0103 263.535L-20.7775 280.123L55.7383 255.173L4.51568 238.589L5.66116 238.215L56.8838 254.799L133.419 229.842L82.179 213.253L83.3245 212.879L134.565 229.469L211.081 204.519L159.851 187.932L160.996 187.559L212.226 204.145L288.77 179.186L237.53 162.596L238.675 162.223L289.916 178.812L366.431 153.862L315.201 137.276L316.347 136.902L367.577 153.489L418.785 136.791L419.931 137.162L368.723 153.86L445.299 178.652L496.509 161.954L497.655 162.325L446.446 179.024L523.034 203.82L574.234 187.125L575.38 187.496L524.18 204.191L600.753 228.982L651.95 212.288L653.097 212.659L601.899 229.354L678.479 254.147L729.683 237.451L730.829 237.822L679.625 254.518L756.198 279.31L807.399 262.614L808.546 262.985L757.344 279.681L833.92 304.473L885.124 287.777L886.27 288.148L835.066 304.844L911.643 329.637L962.848 312.94L963.994 313.311L912.789 330.008L989.361 354.799L1040.56 338.103L1041.71 338.474L990.508 355.17L1067.08 379.963L1118.29 363.266L1119.44 363.637L1068.23 380.334L1119.48 396.926L1118.33 397.3L1067.08 380.707L990.569 405.658L1041.81 422.246L1040.66 422.62L989.423 406.031L912.88 430.99L964.127 447.582L962.982 447.956L911.734 431.364L835.218 456.314L886.456 472.903L885.31 473.276L834.073 456.688L757.537 481.644L808.792 498.239L807.647 498.612L756.392 482.018L679.876 506.968L731.121 523.559L729.975 523.932L678.73 507.341L602.219 532.29L653.457 548.879L652.312 549.253L601.073 532.664L524.541 557.619L575.778 574.207L574.632 574.581ZM368.004 558.155L444.58 582.948L368.052 607.902L291.476 583.109L368.004 558.155ZM989.362 355.544L1065.94 380.336L989.423 405.287L912.846 380.494L989.362 355.544ZM911.701 380.868L988.277 405.66L911.733 430.619L835.157 405.827L911.701 380.868ZM834.012 406.2L910.588 430.993L834.072 455.943L757.496 431.15L834.012 406.2ZM756.35 431.524L832.926 456.316L756.391 481.273L679.815 456.481L756.35 431.524ZM678.669 456.854L755.245 481.647L678.73 506.597L602.153 481.804L678.669 456.854ZM601.008 482.178L677.584 506.97L601.072 531.919L524.496 507.126L601.008 482.178ZM523.351 507.5L599.927 532.292L523.395 557.248L446.819 532.455L523.351 507.5ZM366.858 557.784L290.285 532.993L213.757 557.947L290.33 582.738L366.858 557.784ZM988.216 355.173L911.643 330.381L835.128 355.332L911.7 380.123L988.216 355.173ZM910.555 380.496L833.982 355.705L757.438 380.664L834.011 405.456L910.555 380.496ZM832.865 405.829L756.293 381.038L679.777 405.988L756.349 430.779L832.865 405.829ZM755.204 431.153L678.631 406.362L602.096 431.318L678.668 456.109L755.204 431.153ZM677.523 456.483L600.95 431.692L524.434 456.642L601.007 481.433L677.523 456.483ZM599.862 481.807L523.289 457.015L446.777 481.964L523.35 506.755L599.862 481.807ZM522.204 507.129L445.632 482.338L369.1 507.293L445.672 532.084L522.204 507.129ZM212.563 507.829L289.139 532.622L212.611 557.576L136.035 532.783L212.563 507.829ZM833.921 305.218L910.497 330.01L833.981 354.96L757.405 330.168L833.921 305.218ZM756.26 330.542L832.836 355.334L756.292 380.293L679.716 355.501L756.26 330.542ZM678.57 355.874L755.147 380.667L678.631 405.617L602.054 380.824L678.57 355.874ZM600.909 381.198L677.485 405.99L600.95 430.947L524.373 406.154L600.909 381.198ZM523.228 406.528L599.804 431.32L523.288 456.271L446.712 431.478L523.228 406.528ZM445.567 431.852L522.143 456.644L445.631 481.593L369.055 456.8L445.567 431.852ZM367.909 457.174L444.486 481.966L367.954 506.922L291.377 482.129L367.909 457.174ZM211.417 507.458L134.84 482.665L58.3124 507.619L134.889 532.412L211.417 507.458ZM832.775 304.847L756.198 280.054L679.683 305.004L756.259 329.797L832.775 304.847ZM755.113 330.17L678.537 305.378L601.993 330.337L678.57 355.13L755.113 330.17ZM677.424 355.503L600.848 330.711L524.332 355.661L600.908 380.453L677.424 355.503ZM599.763 380.827L523.186 356.034L446.651 380.991L523.227 405.783L599.763 380.827ZM522.082 406.157L445.505 381.364L368.99 406.315L445.566 431.107L522.082 406.157ZM444.42 431.481L367.844 406.688L291.332 431.637L367.909 456.429L444.42 431.481ZM366.763 456.803L290.187 432.01L213.655 456.966L290.231 481.758L366.763 456.803ZM57.1214 457.503L133.694 482.294L57.1662 507.248L-19.4064 482.457L57.1214 457.503ZM678.48 254.892L755.052 279.683L678.536 304.633L601.964 279.842L678.48 254.892ZM600.818 280.215L677.391 305.007L600.847 329.966L524.274 305.175L600.818 280.215ZM523.129 305.548L599.702 330.34L523.186 355.29L446.613 330.498L523.129 305.548ZM445.468 330.872L522.04 355.663L445.505 380.62L368.932 355.828L445.468 330.872ZM367.787 356.202L444.359 380.993L367.843 405.943L291.271 381.152L367.787 356.202ZM290.125 381.526L366.698 406.317L290.186 431.266L213.613 406.474L290.125 381.526ZM212.468 406.848L289.041 431.639L212.509 456.595L135.936 431.803L212.468 406.848ZM55.9752 457.132L-20.6047 432.338L-97.1326 457.292L-20.5526 482.086L55.9752 457.132ZM677.333 254.521L600.754 229.727L524.238 254.677L600.818 279.471L677.333 254.521ZM599.672 279.844L523.092 255.051L446.548 280.01L523.128 304.804L599.672 279.844ZM521.983 305.177L445.403 280.383L368.887 305.334L445.467 330.127L521.983 305.177ZM444.321 330.501L367.741 305.707L291.206 330.664L367.786 355.457L444.321 330.501ZM366.64 355.831L290.06 331.037L213.545 355.987L290.124 380.781L366.64 355.831ZM288.979 381.154L212.399 356.361L135.887 381.31L212.467 406.103L288.979 381.154ZM211.322 406.477L134.742 381.683L58.2099 406.638L134.79 431.432L211.322 406.477ZM-98.3235 407.176L-21.751 431.967L-98.2788 456.921L-174.851 432.13L-98.3235 407.176ZM523.035 204.565L599.607 229.356L523.091 254.306L446.519 229.515L523.035 204.565ZM445.373 229.888L521.946 254.68L445.402 279.639L368.83 254.848L445.373 229.888ZM367.684 255.221L444.257 280.012L367.741 304.962L291.168 280.171L367.684 255.221ZM290.023 280.545L366.595 305.336L290.06 330.293L213.487 305.501L290.023 280.545ZM212.342 305.875L288.914 330.666L212.398 355.616L135.826 330.825L212.342 305.875ZM134.68 331.198L211.253 355.99L134.741 380.938L58.1685 356.147L134.68 331.198ZM57.0231 356.521L133.596 381.312L57.0637 406.267L-19.5088 381.476L57.0231 356.521ZM-99.4697 406.805L-176.058 382.008L-252.586 406.962L-175.998 431.759L-99.4697 406.805ZM521.889 204.194L445.3 179.397L368.784 204.347L445.373 229.144L521.889 204.194ZM444.227 229.517L367.639 204.721L291.095 229.68L367.683 254.476L444.227 229.517ZM366.538 254.85L289.95 230.054L213.434 255.004L290.022 279.8L366.538 254.85ZM288.876 280.174L212.288 255.377L135.753 280.334L212.341 305.13L288.876 280.174ZM211.195 305.504L134.607 280.707L58.0912 305.657L134.68 330.454L211.195 305.504ZM133.534 330.827L56.9457 306.031L-19.566 330.98L57.0223 355.776L133.534 330.827ZM55.8768 356.15L-20.7115 331.353L-97.2434 356.309L-20.6551 381.105L55.8768 356.15ZM-253.781 356.845L-177.204 381.637L-253.732 406.591L-330.308 381.799L-253.781 356.845ZM367.578 154.233L444.154 179.026L367.638 203.976L291.062 179.184L367.578 154.233ZM289.916 179.557L366.493 204.35L289.949 229.309L213.372 204.516L289.916 179.557ZM212.227 204.89L288.803 229.682L212.287 254.633L135.711 229.84L212.227 204.89ZM134.566 230.214L211.142 255.006L134.606 279.963L58.0301 255.17L134.566 230.214ZM56.8846 255.544L133.461 280.336L56.945 305.286L-19.6313 280.494L56.8846 255.544ZM-20.7767 280.867L55.7995 305.66L-20.7123 330.609L-97.2885 305.816L-20.7767 280.867ZM-98.434 306.19L-21.8577 330.982L-98.3897 355.937L-174.966 331.145L-98.434 306.19ZM-461.497 390.549L341.634 650.573L342.78 650.2L-460.351 390.176L-461.497 390.549ZM392.865 111.948L1196 371.971L1197.14 371.598L394.01 111.574L392.865 111.948ZM1196.01 388.429L393.429 650.134L394.575 650.505L1197.16 388.8L1196.01 388.429Z" fill="url(#paint0_linear_1525_57558)"/>
</g>
<defs>
<linearGradient id="paint0_linear_1525_57558" x1="114.694" y1="207.037" x2="111.746" y2="402.557" gradientUnits="userSpaceOnUse">
<stop stop-color="#212E4D" stop-opacity="0"/>
<stop offset="1" stop-color="#1B2847" stop-opacity="0.55"/>
</linearGradient>
<clipPath id="clip0_1525_57558">
<rect width="736" height="500" fill="white"/>
</clipPath>
</defs>
</svg>
