<svg width="100%" height="100%" viewBox="0 0 650 672" fill="none" xmlns="http://www.w3.org/2000/svg">
<path fill-rule="evenodd" clip-rule="evenodd" d="M0.502869 0L649.328 4.94311e-05V0.500049H649.828V661.01H648.828V610.703H615.68V661.01H614.68V610.703H581.531V661.01H580.531V610.703H547.383V661.01H546.383V610.703H513.234V661.01H512.234V610.703H479.078V661.01H478.078V610.703H444.93V661.01H443.93V610.703H410.781V661.01H409.781V610.703H376.633V661.01H375.633V610.703H342.484V661.01H341.484V610.703L308.336 610.703V661.01H307.336V610.703H274.188V661.01H273.188V610.703H240.039V661.01H239.039V610.703H205.891V661.01H204.891V610.703H171.742V661.01H170.742V610.703H137.594V661.01H136.594V610.703H103.445V661.01H102.445V610.703H69.2969V661.01H68.2969V610.703H35.1484V661.01H34.1484V610.703H1V661.01H0V0.500099H0.502869V0ZM648.828 549.734V609.703H615.68V549.734H648.828ZM614.68 549.734V609.703H581.531V549.734H614.68ZM580.531 549.734V609.703H547.383V549.734H580.531ZM546.383 549.734V609.703H513.234V549.734H546.383ZM512.234 549.734V609.703H479.078V549.734H512.234ZM478.078 549.734V609.703H444.93V549.734H478.078ZM443.93 549.734V609.703H410.781V549.734H443.93ZM409.781 549.734V609.703H376.633V549.734H409.781ZM375.633 549.734V609.703H342.484V549.734H375.633ZM341.484 549.734V609.703L308.336 609.703V549.734L341.484 549.734ZM307.336 549.734V609.703H274.188V549.734H307.336ZM273.188 549.734V609.703H240.039V549.734H273.188ZM239.039 549.734V609.703H205.891V549.734H239.039ZM204.891 549.734V609.703H171.742V549.734H204.891ZM170.742 549.734V609.703H137.594V549.734H170.742ZM136.594 549.734V609.703H103.445V549.734H136.594ZM102.445 549.734V609.703H69.2969V549.734H102.445ZM68.2969 549.734V609.703H35.1484V549.734H68.2969ZM34.1484 549.734V609.703H1V549.734H34.1484ZM1 548.734H34.1484V488.758H1V548.734ZM35.1484 548.734H68.2969V488.758H35.1484V548.734ZM69.2969 548.734H102.445V488.758H69.2969V548.734ZM103.445 548.734H136.594V488.758H103.445V548.734ZM137.594 548.734H170.742V488.758L137.594 488.758V548.734ZM171.742 548.734H204.891V488.758H171.742V548.734ZM205.891 548.734H239.039V488.758H205.891V548.734ZM240.039 548.734H273.188V488.758H240.039V548.734ZM274.188 548.734H307.336V488.758H274.188V548.734ZM308.336 548.734L341.484 548.734V488.758H308.336V548.734ZM342.484 548.734H375.633V488.758H342.484V548.734ZM376.633 548.734H409.781V488.758H376.633V548.734ZM410.781 548.734H443.93V488.758H410.781V548.734ZM444.93 548.734H478.078V488.758H444.93V548.734ZM479.078 548.734H512.234V488.758L479.078 488.758V548.734ZM513.234 548.734H546.383V488.758H513.234V548.734ZM547.383 548.734H580.531V488.758H547.383V548.734ZM581.531 548.734H614.68V488.758H581.531V548.734ZM615.68 548.734H648.828V488.758H615.68V548.734ZM648.828 427.789V487.758H615.68V427.789H648.828ZM614.68 427.789V487.758H581.531V427.789H614.68ZM580.531 427.789V487.758H547.383V427.789H580.531ZM546.383 427.789V487.758H513.234V427.789H546.383ZM512.234 427.789V487.758L479.078 487.758V427.789L512.234 427.789ZM478.078 427.789V487.758H444.93V427.789H478.078ZM443.93 427.789V487.758H410.781V427.789H443.93ZM409.781 427.789V487.758H376.633V427.789H409.781ZM375.633 427.789V487.758H342.484V427.789H375.633ZM341.484 427.789V487.758H308.336V427.789H341.484ZM307.336 427.789V487.758H274.188V427.789H307.336ZM273.188 427.789V487.758H240.039V427.789H273.188ZM239.039 427.789V487.758H205.891V427.789H239.039ZM204.891 427.789V487.758H171.742V427.789H204.891ZM170.742 427.789V487.758L137.594 487.758V427.789L170.742 427.789ZM136.594 427.789V487.758H103.445V427.789H136.594ZM102.445 427.789V487.758H69.2969V427.789H102.445ZM68.2969 427.789V487.758H35.1484V427.789H68.2969ZM34.1484 427.789V487.758H1V427.789H34.1484ZM1 426.789H34.1484V366.828H1V426.789ZM35.1484 426.789H68.2969V366.828H35.1484V426.789ZM69.2969 426.789H102.445V366.828H69.2969V426.789ZM103.445 426.789H136.594V366.828H103.445V426.789ZM137.594 426.789L170.742 426.789V366.828L137.594 366.828V426.789ZM171.742 426.789H204.891V366.828H171.742V426.789ZM205.891 426.789H239.039V366.828H205.891V426.789ZM240.039 426.789H273.188V366.828H240.039V426.789ZM274.188 426.789H307.336V366.828H274.188V426.789ZM308.336 426.789H341.484V366.828H308.336V426.789ZM342.484 426.789H375.633V366.828H342.484V426.789ZM376.633 426.789H409.781V366.828H376.633V426.789ZM410.781 426.789H443.93V366.828H410.781V426.789ZM444.93 426.789H478.078V366.828H444.93V426.789ZM479.078 426.789L512.234 426.789V366.828L479.078 366.828V426.789ZM513.234 426.789H546.383V366.828H513.234V426.789ZM547.383 426.789H580.531V366.828H547.383V426.789ZM581.531 426.789H614.68V366.828H581.531V426.789ZM615.68 426.789H648.828V366.828H615.68V426.789ZM648.828 305.852V365.828H615.68V305.852H648.828ZM614.68 305.852V365.828H581.531V305.852H614.68ZM580.531 305.852V365.828H547.383V305.852H580.531ZM546.383 305.852V365.828H513.234V305.852H546.383ZM512.234 305.852V365.828L479.078 365.828V305.852L512.234 305.852ZM478.078 305.852V365.828H444.93V305.852H478.078ZM443.93 305.852V365.828H410.781V305.852H443.93ZM409.781 305.852V365.828H376.633V305.852H409.781ZM375.633 305.852V365.828H342.484V305.852H375.633ZM341.484 305.852V365.828H308.336V305.852H341.484ZM307.336 305.852V365.828H274.188V305.852H307.336ZM273.188 305.852V365.828H240.039V305.852H273.188ZM239.039 305.852V365.828H205.891V305.852H239.039ZM204.891 305.852V365.828H171.742V305.852H204.891ZM170.742 305.852V365.828L137.594 365.828V305.852L170.742 305.852ZM136.594 305.852V365.828H103.445V305.852H136.594ZM102.445 305.852V365.828H69.2969V305.852H102.445ZM68.2969 305.852V365.828H35.1484V305.852H68.2969ZM34.1484 305.852V365.828H1V305.852H34.1484ZM1 304.852H34.1484V244.883H1V304.852ZM35.1484 304.852H68.2969V244.883H35.1484V304.852ZM69.2969 304.852H102.445V244.883H69.2969V304.852ZM103.445 304.852H136.594V244.883L103.445 244.883V304.852ZM137.594 304.852L170.742 304.852V244.883H137.594V304.852ZM171.742 304.852H204.891V244.883H171.742V304.852ZM205.891 304.852H239.039V244.883H205.891V304.852ZM240.039 304.852H273.188V244.883H240.039V304.852ZM274.188 304.852H307.336V244.883H274.188V304.852ZM308.336 304.852H341.484V244.883L308.336 244.883V304.852ZM342.484 304.852H375.633V244.883H342.484V304.852ZM376.633 304.852H409.781V244.883H376.633V304.852ZM410.781 304.852H443.93V244.883H410.781V304.852ZM444.93 304.852H478.078V244.883H444.93V304.852ZM479.078 304.852L512.234 304.852V244.883H479.078V304.852ZM513.234 304.852H546.383V244.883L513.234 244.883V304.852ZM547.383 304.852H580.531V244.883H547.383V304.852ZM581.531 304.852H614.68V244.883H581.531V304.852ZM615.68 304.852H648.828V244.883H615.68V304.852ZM648.828 183.906V243.883H615.68V183.906H648.828ZM614.68 183.906V243.883H581.531V183.906H614.68ZM580.531 183.906V243.883H547.383V183.906H580.531ZM546.383 183.906V243.883L513.234 243.883V183.906L546.383 183.906ZM512.234 183.906V243.883H479.078V183.906H512.234ZM478.078 183.906V243.883H444.93V183.906H478.078ZM443.93 183.906V243.883H410.781V183.906H443.93ZM409.781 183.906V243.883H376.633V183.906H409.781ZM375.633 183.906V243.883H342.484V183.906H375.633ZM341.484 183.906V243.883L308.336 243.883V183.906L341.484 183.906ZM307.336 183.906V243.883H274.188V183.906H307.336ZM273.188 183.906V243.883H240.039V183.906H273.188ZM239.039 183.906V243.883H205.891V183.906H239.039ZM204.891 183.906V243.883H171.742V183.906H204.891ZM170.742 183.906V243.883H137.594V183.906H170.742ZM136.594 183.906V243.883L103.445 243.883V183.906L136.594 183.906ZM102.445 183.906V243.883H69.2969V183.906H102.445ZM68.2969 183.906V243.883H35.1484V183.906H68.2969ZM34.1484 183.906V243.883H1V183.906H34.1484ZM1 182.906H34.1484V122.945H1V182.906ZM35.1484 182.906H68.2969V122.945L35.1484 122.945V182.906ZM69.2969 182.906H102.445V122.945H69.2969V182.906ZM103.445 182.906L136.594 182.906V122.945H103.445V182.906ZM137.594 182.906H170.742V122.945L137.594 122.945V182.906ZM171.742 182.906H204.891V122.945H171.742V182.906ZM205.891 182.906H239.039V122.945H205.891V182.906ZM240.039 182.906H273.188V122.945L240.039 122.945V182.906ZM274.188 182.906H307.336V122.945H274.188V182.906ZM308.336 182.906L341.484 182.906V122.945H308.336V182.906ZM342.484 182.906H375.633V122.945H342.484V182.906ZM376.633 182.906H409.781V122.945L376.633 122.945V182.906ZM410.781 182.906H443.93V122.945H410.781V182.906ZM444.93 182.906H478.078V122.945H444.93V182.906ZM479.078 182.906H512.234V122.945L479.078 122.945V182.906ZM513.234 182.906L546.383 182.906V122.945H513.234V182.906ZM547.383 182.906H580.531V122.945H547.383V182.906ZM581.531 182.906H614.68V122.945L581.531 122.945V182.906ZM615.68 182.906H648.828V122.945H615.68V182.906ZM648.828 61.9766V121.945H615.68V61.9766L648.828 61.9766ZM614.68 61.9766V121.945L581.531 121.945V61.9766H614.68ZM580.531 61.9766V121.945H547.383V61.9766L580.531 61.9766ZM546.383 61.9766V121.945H513.234V61.9766L546.383 61.9766ZM512.234 61.9766V121.945L479.078 121.945V61.9766H512.234ZM478.078 61.9766V121.945H444.93V61.9766L478.078 61.9766ZM443.93 61.9766V121.945H410.781V61.9766L443.93 61.9766ZM409.781 61.9766V121.945L376.633 121.945V61.9766H409.781ZM375.633 61.9766V121.945H342.484V61.9766L375.633 61.9766ZM341.484 61.9766V121.945H308.336V61.9766L341.484 61.9766ZM307.336 61.9766V121.945H274.188V61.9766L307.336 61.9766ZM273.188 61.9766V121.945L240.039 121.945V61.9766H273.188ZM239.039 61.9766V121.945H205.891V61.9766L239.039 61.9766ZM204.891 61.9766V121.945H171.742V61.9766L204.891 61.9766ZM170.742 61.9766V121.945L137.594 121.945V61.9766H170.742ZM136.594 61.9766V121.945H103.445V61.9766L136.594 61.9766ZM102.445 61.9766V121.945H69.2969V61.9766L102.445 61.9766ZM68.2969 61.9766V121.945L35.1484 121.945V61.9766H68.2969ZM34.1484 61.9766V121.945H1V61.9766L34.1484 61.9766ZM1 60.9766L34.1484 60.9766V1L1 1V60.9766ZM35.1484 60.9766H68.2969V1.00001L35.1484 1V60.9766ZM69.2969 60.9766L102.445 60.9766V1.00001L69.2969 1.00001V60.9766ZM103.445 60.9766L136.594 60.9766V1.00001L103.445 1.00001V60.9766ZM137.594 60.9766H170.742V1.00001L137.594 1.00001V60.9766ZM171.742 60.9766L204.891 60.9766V1.00002L171.742 1.00001V60.9766ZM205.891 60.9766L239.039 60.9766V1.00002L205.891 1.00002V60.9766ZM240.039 60.9766H273.188V1.00002L240.039 1.00002V60.9766ZM274.188 60.9766L307.336 60.9766V1.00002L274.188 1.00002V60.9766ZM308.336 60.9766L341.484 60.9766V1.00003L308.336 1.00002V60.9766ZM342.484 60.9766L375.633 60.9766V1.00003L342.484 1.00003V60.9766ZM376.633 60.9766H409.781V1.00003L376.633 1.00003V60.9766ZM410.781 60.9766L443.93 60.9766V1.00003L410.781 1.00003V60.9766ZM444.93 60.9766L478.078 60.9766V1.00004L444.93 1.00003V60.9766ZM479.078 60.9766H512.234V1.00004L479.078 1.00004V60.9766ZM513.234 60.9766L546.383 60.9766V1.00004L513.234 1.00004V60.9766ZM547.383 60.9766L580.531 60.9766V1.00004L547.383 1.00004V60.9766ZM581.531 60.9766H614.68V1.00005L581.531 1.00004V60.9766ZM615.68 60.9766L648.828 60.9766V1.00005L615.68 1.00005V60.9766ZM649.328 670.672L0.502869 670.672V671.672L649.328 671.672V670.672Z" fill="url(#paint0_linear_243_67258)"/>
<defs>
<linearGradient id="paint0_linear_243_67258" x1="336.241" y1="-5.32425" x2="178.679" y2="613.566" gradientUnits="userSpaceOnUse">
<stop stop-color="#3D4E79" stop-opacity="0"/>
<stop offset="1" stop-color="#212E4D" stop-opacity="0.2"/>
</linearGradient>
</defs>
</svg>
