<svg width="1920" height="927" viewBox="0 0 1920 927" fill="none" xmlns="http://www.w3.org/2000/svg">
<g clip-path="url(#clip0_851_148292)">
<rect width="1920" height="927" fill="#0D111C"/>
<g opacity="0.8">
<path opacity="0.4" fill-rule="evenodd" clip-rule="evenodd" d="M-35.5028 981.039H1485.45V980.518H1485.95V55.761H1484.95V126.375H1405.9V55.761H1404.9V126.375H1325.85V55.761H1324.85V126.375H1245.8V55.761H1244.8V126.375H1165.75V55.761H1164.75V126.375H1085.7V55.761H1084.7V126.375H1005.65V55.761H1004.65V126.375H925.602V55.761H924.602V126.375H845.551V55.761H844.551V126.375H765.5V55.761H764.5V126.375H685.453V55.761H684.453V126.375H605.403V55.761H604.403V126.375H525.352V55.761H524.352V126.375H445.297V55.761H444.297V126.375H365.25V55.761H364.25V126.375H285.196V55.761H284.196V126.375H205.149V55.761H204.149V126.375H125.102V55.761H124.102V126.375H45.0469V55.761H44.0469V126.375H-35V55.761H-36V980.517H-35.5028V981.039ZM1484.95 211.735V127.416H1405.9V211.735H1484.95ZM1404.9 211.735V127.416H1325.85V211.735H1404.9ZM1324.85 211.735V127.416H1245.8V211.735H1324.85ZM1244.8 211.735V127.416H1165.75V211.735H1244.8ZM1164.75 211.735V127.416H1085.7V211.735H1164.75ZM1084.7 211.735V127.416H1005.65V211.735H1084.7ZM1004.65 211.735V127.416H925.602V211.735H1004.65ZM924.602 211.735V127.416H845.551V211.735H924.602ZM844.551 211.735V127.416H765.5V211.735H844.551ZM764.5 211.735V127.416H685.453V211.735L764.5 211.735ZM684.453 211.735V127.416H605.403V211.735H684.453ZM604.403 211.735V127.416H525.352V211.735H604.403ZM524.352 211.735V127.416H445.297V211.735H524.352ZM444.297 211.735V127.416H365.25V211.735H444.297ZM364.25 211.735V127.416H285.196V211.735H364.25ZM284.196 211.735V127.416H205.149V211.735H284.196ZM204.149 211.735V127.416H125.102V211.735H204.149ZM124.102 211.735V127.416H45.0469V211.735H124.102ZM44.0469 211.735V127.416H-35V211.735H44.0469ZM-35 212.776H44.0469V297.095H-35V212.776ZM45.0469 212.776H124.102V297.095H45.0469V212.776ZM125.102 212.776H204.149V297.095H125.102V212.776ZM205.149 212.776H284.196V297.095H205.149V212.776ZM285.196 212.776H364.25V297.095H285.196V212.776ZM365.25 212.776H444.297V297.095H365.25V212.776ZM445.297 212.776H524.352V297.095H445.297V212.776ZM525.352 212.776H604.403V297.095H525.352V212.776ZM605.403 212.776H684.453V297.095H605.403V212.776ZM685.453 212.776L764.5 212.776V297.095L685.453 297.095V212.776ZM765.5 212.776H844.551V297.095H765.5V212.776ZM845.551 212.776H924.602V297.095H845.551V212.776ZM925.602 212.776H1004.65V297.095H925.602V212.776ZM1005.65 212.776H1084.7V297.095H1005.65V212.776ZM1085.7 212.776H1164.75V297.095H1085.7V212.776ZM1165.75 212.776H1244.8V297.095H1165.75V212.776ZM1245.8 212.776H1324.85V297.095H1245.8V212.776ZM1325.85 212.776H1404.9V297.095H1325.85V212.776ZM1405.9 212.776H1484.95V297.095H1405.9V212.776ZM1484.95 382.463V298.136H1405.9V382.463H1484.95ZM1404.9 382.463V298.136H1325.85V382.463H1404.9ZM1324.85 382.463V298.136H1245.8V382.463H1324.85ZM1244.8 382.463V298.136H1165.75V382.463H1244.8ZM1164.75 382.463V298.136H1085.7V382.463H1164.75ZM1084.7 382.463V298.136H1005.65V382.463H1084.7ZM1004.65 382.463V298.136H925.602V382.463H1004.65ZM924.602 382.463V298.136H845.551V382.463H924.602ZM844.551 382.463V298.136H765.5V382.463H844.551ZM764.5 382.463V298.136L685.453 298.136V382.463H764.5ZM684.453 382.463V298.136H605.403V382.463H684.453ZM604.403 382.463V298.136H525.352V382.463H604.403ZM524.352 382.463V298.136H445.297V382.463H524.352ZM444.297 382.463V298.136H365.25V382.463H444.297ZM364.25 382.463V298.136H285.196V382.463H364.25ZM284.196 382.463V298.136H205.149V382.463H284.196ZM204.149 382.463V298.136H125.102V382.463H204.149ZM124.102 382.463V298.136H45.0469V382.463H124.102ZM44.0469 382.463V298.136H-35V382.463H44.0469ZM-35 383.504H44.0469V467.831H-35V383.504ZM45.0469 383.504H124.102V467.831H45.0469V383.504ZM125.102 383.504H204.149V467.831H125.102V383.504ZM205.149 383.504H284.196V467.831H205.149V383.504ZM285.196 383.504H364.25V467.831H285.196V383.504ZM365.25 383.504H444.297V467.831H365.25V383.504ZM445.297 383.504H524.352V467.831H445.297V383.504ZM525.352 383.504H604.403V467.831H525.352V383.504ZM605.403 383.504H684.453V467.831H605.403V383.504ZM685.453 383.504H764.5V467.831H685.453V383.504ZM765.5 383.504H844.551V467.831H765.5V383.504ZM845.551 383.504H924.602V467.831H845.551V383.504ZM925.602 383.504H1004.65V467.831H925.602V383.504ZM1005.65 383.504H1084.7V467.831H1005.65V383.504ZM1085.7 383.504H1164.75V467.831H1085.7V383.504ZM1165.75 383.504H1244.8V467.831H1165.75V383.504ZM1245.8 383.504H1324.85V467.831H1245.8V383.504ZM1325.85 383.504H1404.9V467.831H1325.85V383.504ZM1405.9 383.504H1484.95V467.831H1405.9V383.504ZM1484.95 553.191V468.872H1405.9V553.191H1484.95ZM1404.9 553.191V468.872H1325.85V553.191H1404.9ZM1324.85 553.191V468.872H1245.8V553.191H1324.85ZM1244.8 553.191V468.872H1165.75V553.191H1244.8ZM1164.75 553.191V468.872H1085.7V553.191H1164.75ZM1084.7 553.191V468.872H1005.65V553.191H1084.7ZM1004.65 553.191V468.872H925.602V553.191H1004.65ZM924.602 553.191V468.872H845.551V553.191H924.602ZM844.551 553.191V468.872H765.5V553.191H844.551ZM764.5 553.191V468.872H685.453V553.191H764.5ZM684.453 553.191V468.872H605.403V553.191H684.453ZM604.403 553.191V468.872H525.352V553.191H604.403ZM524.352 553.191V468.872H445.297V553.191H524.352ZM444.297 553.191V468.872H365.25V553.191H444.297ZM364.25 553.191V468.872H285.196V553.191H364.25ZM284.196 553.191V468.872H205.149V553.191H284.196ZM204.149 553.191V468.872H125.102V553.191H204.149ZM124.102 553.191V468.872H45.0469V553.191H124.102ZM44.0469 553.191V468.872H-35V553.191H44.0469ZM-35 554.232H44.0469V638.542H-35V554.232ZM45.0469 554.232H124.102V638.542H45.0469V554.232ZM125.102 554.232H204.149V638.542H125.102V554.232ZM205.149 554.232H284.196V638.542H205.149V554.232ZM285.196 554.232H364.25V638.542H285.196V554.232ZM365.25 554.232H444.297V638.542H365.25V554.232ZM445.297 554.232H524.352V638.542H445.297V554.232ZM525.352 554.232H604.403V638.542H525.352V554.232ZM605.403 554.232H684.453V638.542H605.403V554.232ZM685.453 554.232H764.5V638.542H685.453V554.232ZM765.5 554.232H844.551V638.542H765.5V554.232ZM845.551 554.232H924.602V638.542H845.551V554.232ZM925.602 554.232H1004.65V638.542H925.602V554.232ZM1005.65 554.232H1084.7V638.542H1005.65V554.232ZM1085.7 554.232H1164.75V638.542H1085.7V554.232ZM1165.75 554.232H1244.8V638.542H1165.75V554.232ZM1245.8 554.232H1324.85V638.542H1245.8V554.232ZM1325.85 554.232H1404.9V638.542H1325.85V554.232ZM1405.9 554.232H1484.95V638.542H1405.9V554.232ZM1484.95 723.902V639.583H1405.9V723.902H1484.95ZM1404.9 723.902V639.583H1325.85V723.902H1404.9ZM1324.85 723.902V639.583H1245.8V723.902H1324.85ZM1244.8 723.902V639.583H1165.75V723.902H1244.8ZM1164.75 723.902V639.583H1085.7V723.902H1164.75ZM1084.7 723.902V639.583H1005.65V723.902H1084.7ZM1004.65 723.902V639.583H925.602V723.902H1004.65ZM924.602 723.902V639.583H845.551V723.902H924.602ZM844.551 723.902V639.583H765.5V723.902H844.551ZM764.5 723.902V639.583H685.453V723.902H764.5ZM684.453 723.902V639.583H605.403V723.902H684.453ZM604.403 723.902V639.583H525.352V723.902H604.403ZM524.352 723.902V639.583H445.297V723.902H524.352ZM444.297 723.902V639.583H365.25V723.902H444.297ZM364.25 723.902V639.583H285.196V723.902H364.25ZM284.196 723.902V639.583H205.149V723.902H284.196ZM204.149 723.902V639.583H125.102V723.902H204.149ZM124.102 723.902V639.583H45.0469V723.902H124.102ZM44.0469 723.902V639.583H-35V723.902H44.0469ZM-35 724.943H44.0469V809.286H-35V724.943ZM45.0469 724.943H124.102V809.286H45.0469V724.943ZM125.102 724.943H204.149V809.286H125.102V724.943ZM205.149 724.943H284.196V809.286H205.149V724.943ZM285.196 724.943H364.25V809.286H285.196V724.943ZM365.25 724.943H444.297V809.286H365.25V724.943ZM445.297 724.943H524.352V809.286H445.297V724.943ZM525.352 724.943H604.403V809.286H525.352V724.943ZM605.403 724.943H684.453V809.286H605.403V724.943ZM685.453 724.943H764.5V809.286H685.453V724.943ZM765.5 724.943H844.551V809.286H765.5V724.943ZM845.551 724.943H924.602V809.286H845.551V724.943ZM925.602 724.943H1004.65V809.286H925.602V724.943ZM1005.65 724.943H1084.7V809.286H1005.65V724.943ZM1085.7 724.943H1164.75V809.286H1085.7V724.943ZM1165.75 724.943H1244.8V809.286H1165.75V724.943ZM1245.8 724.943H1324.85V809.286H1245.8V724.943ZM1325.85 724.943H1404.9V809.286H1325.85V724.943ZM1405.9 724.943H1484.95V809.286H1405.9V724.943ZM1484.95 894.638V810.327H1405.9V894.638H1484.95ZM1404.9 894.638V810.327H1325.85V894.638H1404.9ZM1324.85 894.638V810.327H1245.8V894.638H1324.85ZM1244.8 894.638V810.327H1165.75V894.638H1244.8ZM1164.75 894.638V810.327H1085.7V894.638H1164.75ZM1084.7 894.638V810.327H1005.65V894.638H1084.7ZM1004.65 894.638V810.327H925.602V894.638H1004.65ZM924.602 894.638V810.327H845.551V894.638H924.602ZM844.551 894.638V810.327H765.5V894.638H844.551ZM764.5 894.638V810.327H685.453V894.638H764.5ZM684.453 894.638V810.327H605.403V894.638H684.453ZM604.403 894.638V810.327H525.352V894.638H604.403ZM524.352 894.638V810.327H445.297V894.638H524.352ZM444.297 894.638V810.327H365.25V894.638H444.297ZM364.25 894.638V810.327H285.196V894.638H364.25ZM284.196 894.638V810.327H205.149V894.638H284.196ZM204.149 894.638V810.327H125.102V894.638H204.149ZM124.102 894.638V810.327H45.0469V894.638H124.102ZM44.0469 894.638V810.327H-35V894.638H44.0469ZM-35 895.679H44.0469V979.998H-35V895.679ZM45.0469 895.679H124.102V979.998H45.0469V895.679ZM125.102 895.679H204.149V979.998H125.102V895.679ZM205.149 895.679H284.196V979.998H205.149V895.679ZM285.196 895.679H364.25V979.998H285.196V895.679ZM365.25 895.679H444.297V979.998H365.25V895.679ZM445.297 895.679H524.352V979.998H445.297V895.679ZM525.352 895.679H604.403V979.998H525.352V895.679ZM605.403 895.679H684.453V979.998H605.403V895.679ZM685.453 895.679H764.5V979.998H685.453V895.679ZM765.5 895.679H844.551V979.998H765.5V895.679ZM845.551 895.679H924.602V979.998H845.551V895.679ZM925.602 895.679H1004.65V979.998H925.602V895.679ZM1005.65 895.679H1084.7V979.998H1005.65V895.679ZM1085.7 895.679H1164.75V979.998H1085.7V895.679ZM1165.75 895.679H1244.8V979.998H1165.75V895.679ZM1245.8 895.679H1324.85V979.998H1245.8V895.679ZM1325.85 895.679H1404.9V979.998H1325.85V895.679ZM1405.9 895.679H1484.95V979.998H1405.9V895.679ZM1485.45 42.0566H-35.5028V41.0156H1485.45V42.0566Z" fill="url(#paint0_linear_851_148292)"/>
<path opacity="0.4" fill-rule="evenodd" clip-rule="evenodd" d="M1485.48 981.023H3006.43V980.503H3006.93V55.7454H3005.93V126.36H2926.88V55.7454H2925.88V126.36H2846.82V55.7454H2845.82V126.36H2766.78V55.7454H2765.78V126.36H2686.73V55.7454H2685.73V126.36H2606.68V55.7454H2605.68V126.36H2526.63V55.7454H2525.63V126.36H2446.58V55.7454H2445.58V126.36H2366.53V55.7454H2365.53V126.36H2286.48V55.7454H2285.48V126.36L2206.43 126.361V55.7454H2205.43V126.361H2126.39V55.7454H2125.39V126.361H2046.33V55.7454H2045.33V126.361H1966.28V55.7454H1965.28V126.361H1886.23V55.7454H1885.23V126.361H1806.18V55.7454H1805.18V126.361H1726.13V55.7454H1725.13V126.361H1646.08V55.7454H1645.08V126.361H1566.03V55.7454H1565.03V126.361H1485.98V55.7454H1484.98V980.503H1485.48V981.023ZM3005.93 211.72V127.401H2926.88V211.72H3005.93ZM2925.88 211.72V127.401H2846.82V211.72H2925.88ZM2845.82 211.72V127.401H2766.78V211.72H2845.82ZM2765.78 211.72V127.401H2686.73V211.72H2765.78ZM2685.73 211.72V127.401H2606.68V211.72H2685.73ZM2605.68 211.72V127.401H2526.63V211.72H2605.68ZM2525.63 211.72V127.401H2446.58V211.72H2525.63ZM2445.58 211.72V127.401H2366.53V211.72H2445.58ZM2365.53 211.72V127.401H2286.48V211.72H2365.53ZM2285.48 211.72V127.401L2206.43 127.402V211.72H2285.48ZM2205.43 211.72V127.402H2126.39V211.72H2205.43ZM2125.39 211.72V127.402H2046.33V211.72H2125.39ZM2045.33 211.72V127.402H1966.28V211.72H2045.33ZM1965.28 211.72V127.402H1886.23V211.72H1965.28ZM1885.23 211.72V127.402H1806.18V211.72H1885.23ZM1805.18 211.72V127.402H1726.13V211.72H1805.18ZM1725.13 211.72V127.402H1646.08V211.72H1725.13ZM1645.08 211.72V127.402H1566.03V211.72H1645.08ZM1565.03 211.72V127.402H1485.98V211.72H1565.03ZM1485.98 212.761H1565.03V297.08H1485.98V212.761ZM1566.03 212.761H1645.08V297.08H1566.03V212.761ZM1646.08 212.761H1725.13V297.08H1646.08V212.761ZM1726.13 212.761H1805.18V297.08H1726.13V212.761ZM1806.18 212.761H1885.23V297.08H1806.18V212.761ZM1886.23 212.761H1965.28V297.08H1886.23V212.761ZM1966.28 212.761H2045.33V297.08H1966.28V212.761ZM2046.33 212.761H2125.39V297.08H2046.33V212.761ZM2126.39 212.761H2205.43V297.08H2126.39V212.761ZM2206.43 212.761H2285.48V297.08H2206.43V212.761ZM2286.48 212.761H2365.53V297.08H2286.48V212.761ZM2366.53 212.761H2445.58V297.08H2366.53V212.761ZM2446.58 212.761H2525.63V297.08H2446.58V212.761ZM2526.63 212.761H2605.68V297.08H2526.63V212.761ZM2606.68 212.761H2685.73V297.08H2606.68V212.761ZM2686.73 212.761H2765.78V297.08H2686.73V212.761ZM2766.78 212.761H2845.82V297.08H2766.78V212.761ZM2846.82 212.761H2925.88V297.08H2846.82V212.761ZM2926.88 212.761H3005.93V297.08H2926.88V212.761ZM3005.93 382.447V298.121H2926.88V382.447H3005.93ZM2925.88 382.447V298.121H2846.82V382.447H2925.88ZM2845.82 382.447V298.121H2766.78V382.447H2845.82ZM2765.78 382.447V298.121H2686.73V382.447H2765.78ZM2685.73 382.447V298.121H2606.68V382.447H2685.73ZM2605.68 382.447V298.121H2526.63V382.447H2605.68ZM2525.63 382.447V298.121H2446.58V382.447H2525.63ZM2445.58 382.447V298.121H2366.53V382.447H2445.58ZM2365.53 382.447V298.121H2286.48V382.447H2365.53ZM2285.48 382.447V298.121H2206.43V382.447H2285.48ZM2205.43 382.447V298.121H2126.39V382.447H2205.43ZM2125.39 382.447V298.121H2046.33V382.447H2125.39ZM2045.33 382.447V298.121H1966.28V382.447H2045.33ZM1965.28 382.447V298.121H1886.23V382.447H1965.28ZM1885.23 382.447V298.121H1806.18V382.447H1885.23ZM1805.18 382.447V298.121H1726.13V382.447H1805.18ZM1725.13 382.447V298.121H1646.08V382.447H1725.13ZM1645.08 382.447V298.121H1566.03V382.447H1645.08ZM1565.03 382.447V298.121H1485.98V382.447H1565.03ZM1485.98 383.488H1565.03V467.815H1485.98V383.488ZM1566.03 383.488H1645.08V467.815H1566.03V383.488ZM1646.08 383.488H1725.13V467.815H1646.08V383.488ZM1726.13 383.488H1805.18V467.815H1726.13V383.488ZM1806.18 383.488H1885.23V467.815H1806.18V383.488ZM1886.23 383.488H1965.28V467.815H1886.23V383.488ZM1966.28 383.488H2045.33V467.815H1966.28V383.488ZM2046.33 383.488H2125.39V467.815H2046.33V383.488ZM2126.39 383.488H2205.43V467.815H2126.39V383.488ZM2206.43 383.488H2285.48V467.815H2206.43V383.488ZM2286.48 383.488H2365.53V467.815H2286.48V383.488ZM2366.53 383.488H2445.58V467.815H2366.53V383.488ZM2446.58 383.488H2525.63V467.815H2446.58V383.488ZM2526.63 383.488H2605.68V467.815H2526.63V383.488ZM2606.68 383.488H2685.73V467.815H2606.68V383.488ZM2686.73 383.488H2765.78V467.815H2686.73V383.488ZM2766.78 383.488H2845.82V467.815H2766.78V383.488ZM2846.82 383.488H2925.88V467.815H2846.82V383.488ZM2926.88 383.488H3005.93V467.815H2926.88V383.488ZM3005.93 553.175V468.856H2926.88V553.175H3005.93ZM2925.88 553.175V468.856H2846.82V553.175H2925.88ZM2845.82 553.175V468.856H2766.78V553.175H2845.82ZM2765.78 553.175V468.856H2686.73V553.175H2765.78ZM2685.73 553.175V468.856H2606.68V553.175H2685.73ZM2605.68 553.175V468.856H2526.63V553.175H2605.68ZM2525.63 553.175V468.856H2446.58V553.175H2525.63ZM2445.58 553.175V468.856H2366.53V553.175H2445.58ZM2365.53 553.175V468.856H2286.48V553.175H2365.53ZM2285.48 553.175V468.856H2206.43V553.175H2285.48ZM2205.43 553.175V468.856H2126.39V553.175H2205.43ZM2125.39 553.175V468.856H2046.33V553.175H2125.39ZM2045.33 553.175V468.856H1966.28V553.175H2045.33ZM1965.28 553.175V468.856H1886.23V553.175H1965.28ZM1885.23 553.175V468.856H1806.18V553.175H1885.23ZM1805.18 553.175V468.856H1726.13V553.175H1805.18ZM1725.13 553.175V468.856H1646.08V553.175H1725.13ZM1645.08 553.175V468.856H1566.03V553.175H1645.08ZM1565.03 553.175V468.856H1485.98V553.175H1565.03ZM1485.98 554.216H1565.03V638.527H1485.98V554.216ZM1566.03 554.216H1645.08V638.527H1566.03V554.216ZM1646.08 554.216H1725.13V638.527H1646.08V554.216ZM1726.13 554.216H1805.18V638.527H1726.13V554.216ZM1806.18 554.216H1885.23V638.527H1806.18V554.216ZM1886.23 554.216H1965.28V638.527H1886.23V554.216ZM1966.28 554.216H2045.33V638.527H1966.28V554.216ZM2046.33 554.216H2125.39V638.527H2046.33V554.216ZM2126.39 554.216H2205.43V638.527H2126.39V554.216ZM2206.43 554.216H2285.48V638.527H2206.43V554.216ZM2286.48 554.216H2365.53V638.527H2286.48V554.216ZM2366.53 554.216H2445.58V638.527H2366.53V554.216ZM2446.58 554.216H2525.63V638.527H2446.58V554.216ZM2526.63 554.216H2605.68V638.527H2526.63V554.216ZM2606.68 554.216H2685.73V638.527H2606.68V554.216ZM2686.73 554.216H2765.78V638.527H2686.73V554.216ZM2766.78 554.216H2845.82V638.527H2766.78V554.216ZM2846.82 554.216H2925.88V638.527H2846.82V554.216ZM2926.88 554.216H3005.93V638.527H2926.88V554.216ZM3005.93 723.886V639.568H2926.88V723.886H3005.93ZM2925.88 723.886V639.568H2846.82V723.886H2925.88ZM2845.82 723.886V639.568H2766.78V723.886H2845.82ZM2765.78 723.886V639.568H2686.73V723.886H2765.78ZM2685.73 723.886V639.568H2606.68V723.886H2685.73ZM2605.68 723.886V639.568H2526.63V723.886H2605.68ZM2525.63 723.886V639.568H2446.58V723.886H2525.63ZM2445.58 723.886V639.568H2366.53V723.886H2445.58ZM2365.53 723.886V639.568H2286.48V723.886H2365.53ZM2285.48 723.886V639.568H2206.43V723.886H2285.48ZM2205.43 723.886V639.568H2126.39V723.886H2205.43ZM2125.39 723.886V639.568H2046.33V723.886H2125.39ZM2045.33 723.886V639.568H1966.28V723.886H2045.33ZM1965.28 723.886V639.568H1886.23V723.886H1965.28ZM1885.23 723.886V639.568H1806.18V723.886H1885.23ZM1805.18 723.886V639.568H1726.13V723.886H1805.18ZM1725.13 723.886V639.568H1646.08V723.886H1725.13ZM1645.08 723.886V639.568H1566.03V723.886H1645.08ZM1565.03 723.886V639.568H1485.98V723.886H1565.03ZM1485.98 724.927H1565.03V809.271H1485.98V724.927ZM1566.03 724.927H1645.08V809.271H1566.03V724.927ZM1646.08 724.927H1725.13V809.271H1646.08V724.927ZM1726.13 724.927H1805.18V809.271H1726.13V724.927ZM1806.18 724.927H1885.23V809.271H1806.18V724.927ZM1886.23 724.927H1965.28V809.271H1886.23V724.927ZM1966.28 724.927H2045.33V809.271H1966.28V724.927ZM2046.33 724.927H2125.39V809.271H2046.33V724.927ZM2126.39 724.927H2205.43V809.271H2126.39V724.927ZM2206.43 724.927H2285.48V809.271H2206.43V724.927ZM2286.48 724.927H2365.53V809.271H2286.48V724.927ZM2366.53 724.927H2445.58V809.271H2366.53V724.927ZM2446.58 724.927H2525.63V809.271H2446.58V724.927ZM2526.63 724.927H2605.68V809.271H2526.63V724.927ZM2606.68 724.927H2685.73V809.271H2606.68V724.927ZM2686.73 724.927H2765.78V809.271H2686.73V724.927ZM2766.78 724.927H2845.82V809.271H2766.78V724.927ZM2846.82 724.927H2925.88V809.271H2846.82V724.927ZM2926.88 724.927H3005.93V809.271H2926.88V724.927ZM3005.93 894.623V810.312H2926.88V894.623H3005.93ZM2925.88 894.623V810.312H2846.82V894.623H2925.88ZM2845.82 894.623V810.312H2766.78V894.623H2845.82ZM2765.78 894.623V810.312H2686.73V894.623H2765.78ZM2685.73 894.623V810.312H2606.68V894.623H2685.73ZM2605.68 894.623V810.312H2526.63V894.623H2605.68ZM2525.63 894.623V810.312H2446.58V894.623H2525.63ZM2445.58 894.623V810.312H2366.53V894.623H2445.58ZM2365.53 894.623V810.312H2286.48V894.623H2365.53ZM2285.48 894.623V810.312H2206.43V894.623H2285.48ZM2205.43 894.623V810.312H2126.39V894.623H2205.43ZM2125.39 894.623V810.312H2046.33V894.623H2125.39ZM2045.33 894.623V810.312H1966.28V894.623H2045.33ZM1965.28 894.623V810.312H1886.23V894.623H1965.28ZM1885.23 894.623V810.312H1806.18V894.623H1885.23ZM1805.18 894.623V810.312H1726.13V894.623H1805.18ZM1725.13 894.623V810.312H1646.08V894.623H1725.13ZM1645.08 894.623V810.312H1566.03V894.623H1645.08ZM1565.03 894.623V810.312H1485.98V894.623H1565.03ZM1485.98 895.664H1565.03V979.982H1485.98V895.664ZM1566.03 895.664H1645.08V979.982H1566.03V895.664ZM1646.08 895.664H1725.13V979.982H1646.08V895.664ZM1726.13 895.664H1805.18V979.982H1726.13V895.664ZM1806.18 895.664H1885.23V979.982H1806.18V895.664ZM1886.23 895.664H1965.28V979.982H1886.23V895.664ZM1966.28 895.664H2045.33V979.982H1966.28V895.664ZM2046.33 895.664H2125.39V979.982H2046.33V895.664ZM2126.39 895.664H2205.43V979.982H2126.39V895.664ZM2206.43 895.664H2285.48V979.982H2206.43V895.664ZM2286.48 895.664H2365.53V979.982H2286.48V895.664ZM2366.53 895.664H2445.58V979.982H2366.53V895.664ZM2446.58 895.664H2525.63V979.982H2446.58V895.664ZM2526.63 895.664H2605.68V979.982H2526.63V895.664ZM2606.68 895.664H2685.73V979.982H2606.68V895.664ZM2686.73 895.664H2765.78V979.982H2686.73V895.664ZM2766.78 895.664H2845.82V979.982H2766.78V895.664ZM2846.82 895.664H2925.88V979.982H2846.82V895.664ZM2926.88 895.664H3005.93V979.982H2926.88V895.664ZM3006.43 42.041L1485.48 42.042V41.001L3006.43 41V42.041Z" fill="url(#paint1_linear_851_148292)"/>
</g>
<path style="mix-blend-mode:screen" d="M3943.98 -459.443C3943.98 -1275.45 3282.46 -1937 2466.49 -1937C1650.52 -1937 989 -1275.45 989 -459.443C989 356.749 1650.52 1018.11 2466.49 1018.11C3282.46 1018.11 3943.98 356.749 3943.98 -459.443Z" fill="url(#paint2_radial_851_148292)"/>
<path style="mix-blend-mode:screen" d="M833.976 -400.443C833.976 -1216.45 172.456 -1878 -643.512 -1878C-1459.48 -1878 -2121 -1216.45 -2121 -400.443C-2121 415.749 -1459.48 1077.11 -643.512 1077.11C172.456 1077.11 833.976 415.749 833.976 -400.443Z" fill="url(#paint3_radial_851_148292)"/>
</g>
<defs>
<linearGradient id="paint0_linear_851_148292" x1="1387.98" y1="537.568" x2="1475.1" y2="1228.46" gradientUnits="userSpaceOnUse">
<stop offset="0.63" stop-color="#18233D"/>
<stop offset="1" stop-opacity="0"/>
</linearGradient>
<linearGradient id="paint1_linear_851_148292" x1="2908.96" y1="537.552" x2="2996.08" y2="1228.44" gradientUnits="userSpaceOnUse">
<stop offset="0.65" stop-color="#18233D"/>
<stop offset="1" stop-opacity="0"/>
</linearGradient>
<radialGradient id="paint2_radial_851_148292" cx="0" cy="0" r="1" gradientUnits="userSpaceOnUse" gradientTransform="translate(2466.45 -459.359) scale(1477.49 1477.56)">
<stop stop-color="#274498"/>
<stop offset="1" stop-color="#0F1D40" stop-opacity="0"/>
</radialGradient>
<radialGradient id="paint3_radial_851_148292" cx="0" cy="0" r="1" gradientUnits="userSpaceOnUse" gradientTransform="translate(-643.551 -400.359) scale(1477.49 1477.56)">
<stop stop-color="#274498"/>
<stop offset="1" stop-color="#0F1D40" stop-opacity="0"/>
</radialGradient>
<clipPath id="clip0_851_148292">
<rect width="1920" height="927" fill="white"/>
</clipPath>
</defs>
</svg>
