<svg width="21" height="21" viewBox="0 0 21 21" fill="none" xmlns="http://www.w3.org/2000/svg">
<g clip-path="url(#clip0_1152_79702)">
<path d="M20.8883 8.73184L20.0589 6.0871C19.9693 5.78144 19.8191 5.49694 19.6172 5.25057C19.4153 5.0042 19.1656 4.801 18.8835 4.65311C18.6013 4.50521 18.2922 4.41564 17.9746 4.38974C17.657 4.36384 17.3374 4.40214 17.035 4.50236L16.678 4.6178C16.3983 4.7102 16.1005 4.73365 15.8097 4.68614C15.5191 4.63862 15.2442 4.52156 15.0085 4.34493L14.893 4.26097C14.6631 4.08505 14.4777 3.85757 14.3519 3.59688C14.226 3.33619 14.1632 3.04959 14.1685 2.76019V2.46632C14.1737 1.80727 13.9169 1.17312 13.4546 0.703165C13.2347 0.481146 12.9731 0.304735 12.6847 0.184065C12.3965 0.0633942 12.0872 0.0008419 11.7746 0H9.09716C8.45476 0.00829763 7.84166 0.269923 7.39133 0.727915C6.94099 1.18591 6.68991 1.80318 6.69273 2.44533V2.69722C6.69172 3.00186 6.62233 3.30239 6.48968 3.57666C6.35702 3.85093 6.16448 4.09195 5.92624 4.28196L5.78975 4.38691C5.52656 4.58592 5.21874 4.71767 4.89303 4.77071C4.56731 4.82375 4.23357 4.79648 3.9208 4.69126C3.63354 4.5919 3.3291 4.55183 3.02591 4.57348C2.72271 4.59513 2.42706 4.67804 2.15684 4.8172C1.87551 4.95677 1.62591 5.15272 1.4236 5.39286C1.22129 5.633 1.07058 5.91218 0.980871 6.21304L0.119891 8.94174C-0.0797692 9.55695 -0.0285659 10.2261 0.262383 10.8038C0.553331 11.3815 1.06053 11.8211 1.67386 12.0273H1.84185C2.12477 12.1332 2.3787 12.3044 2.58304 12.5269C2.78736 12.7494 2.93631 13.0169 3.01782 13.3077L3.08082 13.4756C3.19786 13.7969 3.23701 14.1413 3.19502 14.4807C3.15304 14.82 3.03114 15.1445 2.83932 15.4277C2.45106 15.9562 2.28729 16.6165 2.38364 17.2651C2.47999 17.9137 2.82867 18.4981 3.35381 18.891L5.52725 20.5387C5.9388 20.8378 6.43594 20.9961 6.94472 20.99C7.0809 21.0033 7.21804 21.0033 7.35421 20.99C7.66931 20.929 7.96868 20.8045 8.23405 20.6241C8.49942 20.4437 8.72522 20.2111 8.89767 19.9405L9.13916 19.5942C9.30857 19.3513 9.53272 19.1516 9.79353 19.0112C10.0543 18.8708 10.3445 18.7937 10.6406 18.786C10.9509 18.7784 11.2582 18.8495 11.5336 18.9926C11.809 19.1358 12.0436 19.3463 12.2156 19.6047L12.3416 19.7831C12.5207 20.0494 12.7523 20.2762 13.0223 20.4497C13.2924 20.6231 13.595 20.7395 13.9118 20.7916C14.2285 20.8437 14.5526 20.8304 14.8639 20.7527C15.1753 20.6749 15.4676 20.5342 15.7225 20.3393L17.854 18.7441C18.3579 18.3528 18.693 17.7837 18.7907 17.1534C18.8882 16.5231 18.741 15.8794 18.3789 15.3542L18.106 14.9554C17.9418 14.7018 17.8342 14.4159 17.7908 14.117C17.7473 13.8182 17.7688 13.5135 17.854 13.2237C17.9407 12.9135 18.1017 12.6291 18.3231 12.395C18.5444 12.161 18.8195 11.9843 19.1244 11.8803L19.3344 11.8069C19.942 11.5961 20.4439 11.1575 20.7339 10.5836C21.0239 10.0098 21.0792 9.34576 20.8883 8.73184ZM10.5041 14.1683C9.7773 14.1683 9.0668 13.9528 8.46246 13.5492C7.85813 13.1456 7.3871 12.5719 7.10896 11.9007C6.83081 11.2295 6.75804 10.4909 6.89983 9.77838C7.04164 9.06584 7.39164 8.41133 7.90558 7.89762C8.41953 7.38391 9.07433 7.03406 9.7872 6.89233C10.5 6.7506 11.239 6.82334 11.9105 7.10136C12.582 7.37938 13.1559 7.85019 13.5597 8.45425C13.9635 9.05831 14.179 9.7685 14.179 10.495C14.179 11.4692 13.7918 12.4035 13.1027 13.0924C12.4135 13.7812 11.4788 14.1683 10.5041 14.1683Z" fill="url(#paint0_linear_1152_79702)"/>
</g>
<defs>
<linearGradient id="paint0_linear_1152_79702" x1="10.5" y1="0" x2="10.5" y2="21" gradientUnits="userSpaceOnUse">
<stop stop-color="#1C98EC"/>
<stop offset="1" stop-color="#145BD1"/>
</linearGradient>
<clipPath id="clip0_1152_79702">
<rect width="21" height="21" fill="white"/>
</clipPath>
</defs>
</svg>
