<svg width="21" height="21" viewBox="0 0 21 21" fill="none" xmlns="http://www.w3.org/2000/svg">
<path fill-rule="evenodd" clip-rule="evenodd" d="M20.6785 4.46158C21.0592 5.62781 20.0055 6.65091 18.7788 6.65091H16.5756C16.5656 6.65091 16.5574 6.65905 16.5574 6.6691C16.5574 6.67915 16.5492 6.6873 16.539 6.68734C14.4856 6.69695 12.824 8.32288 12.824 10.3272C12.824 12.3374 14.4955 13.9671 16.5574 13.9671H20.6724C20.8534 13.9671 21 14.1137 21 14.2947C21 17.8163 18.8627 19.9001 15.2414 19.9001H5.75868C2.13734 19.9001 0 17.8163 0 14.2947V6.6054C0 3.08383 2.13734 1 5.75868 1H15.2414C18.0422 1 19.9553 2.24647 20.6785 4.46158ZM4.97455 6.65092H10.9012C11.3445 6.65092 11.7039 6.30056 11.7039 5.86835C11.7039 5.43615 11.3445 5.08577 10.9012 5.08577H4.97455C4.53488 5.08574 4.177 5.4306 4.17189 5.85925C4.17186 6.29295 4.52975 6.64594 4.97455 6.65092Z" fill="url(#paint0_linear_1208_57746)"/>
<path fill-rule="evenodd" clip-rule="evenodd" d="M16.5536 8.21875H20.2123C20.6453 8.21875 20.9963 8.56098 20.9963 8.98312V11.6402C20.9913 12.0603 20.6431 12.3997 20.2123 12.4046H16.6377C15.5938 12.4183 14.681 11.7215 14.4443 10.7303C14.3257 10.1149 14.4921 9.47997 14.899 8.99555C15.3059 8.51113 15.9115 8.2268 16.5536 8.21875ZM16.7121 11.0124H17.0574C17.5007 11.0124 17.8601 10.662 17.8601 10.2298C17.8601 9.79758 17.5007 9.44722 17.0574 9.44722H16.7121C16.5 9.44479 16.2959 9.5252 16.1451 9.67052C15.9943 9.81584 15.9094 10.014 15.9094 10.2207C15.9094 10.6544 16.2673 11.0074 16.7121 11.0124Z" fill="url(#paint1_linear_1208_57746)"/>
<defs>
<linearGradient id="paint0_linear_1208_57746" x1="10.5" y1="1" x2="10.5" y2="19.9001" gradientUnits="userSpaceOnUse">
<stop stop-color="#1C98EC"/>
<stop offset="1" stop-color="#145BD1"/>
</linearGradient>
<linearGradient id="paint1_linear_1208_57746" x1="17.7016" y1="8.21875" x2="17.7016" y2="12.4048" gradientUnits="userSpaceOnUse">
<stop stop-color="#1C98EC"/>
<stop offset="1" stop-color="#145BD1"/>
</linearGradient>
</defs>
</svg>
