<svg xmlns="http://www.w3.org/2000/svg" width="151.552" height="30" viewBox="0 0 151.552 30"><path d="M32.118 10.631h12.363v2.3h-4.868v12.974h-2.668V12.931h-4.847zm11.833 4.216h2.281v2.139h.041a2.686 2.686 0 01.428-.876 3.385 3.385 0 01.754-.774 3.334 3.334 0 01.978-.57 2.845 2.845 0 011.079-.224c.285 0 .489.02.591.02a1.781 1.781 0 00.326.041v2.342a4.118 4.118 0 00-.53-.081 4.636 4.636 0 00-.53-.041 2.827 2.827 0 00-1.161.244 2.943 2.943 0 00-.957.713 3.863 3.863 0 00-.652 1.181 4.984 4.984 0 00-.244 1.629v5.255h-2.444zm17.678 11.059h-2.4v-1.548h-.041a3.413 3.413 0 01-1.344 1.344 3.548 3.548 0 01-1.813.509 4.033 4.033 0 01-3.157-1.079 4.722 4.722 0 01-.978-3.259v-7.026h2.444v6.784a2.89 2.89 0 00.57 2.057 2.011 2.011 0 001.568.611 3 3 0 001.283-.244 2.213 2.213 0 00.835-.631 2.477 2.477 0 00.468-.957 4.522 4.522 0 00.143-1.2v-6.415h2.444v11.059zm4.155-3.544a1.922 1.922 0 00.815 1.507 3.207 3.207 0 001.69.428 5.6 5.6 0 00.774-.061 3.41 3.41 0 00.815-.2 1.434 1.434 0 00.631-.448 1.043 1.043 0 00.224-.754 1.1 1.1 0 00-.346-.774 2.886 2.886 0 00-.815-.489 7.07 7.07 0 00-1.141-.305c-.428-.081-.855-.183-1.3-.285s-.9-.224-1.324-.367a3.794 3.794 0 01-1.141-.591 2.54 2.54 0 01-.794-.937 2.928 2.928 0 01-.306-1.405 2.409 2.409 0 01.448-1.507 3.248 3.248 0 011.12-.978 5.085 5.085 0 011.507-.53 8.629 8.629 0 011.568-.143 7.006 7.006 0 011.629.183 4.119 4.119 0 011.405.591 3.227 3.227 0 011.039 1.059 3.668 3.668 0 01.53 1.568h-2.546a1.568 1.568 0 00-.794-1.181 3.28 3.28 0 00-1.446-.306c-.163 0-.387.02-.611.041a3.6 3.6 0 00-.672.163 1.593 1.593 0 00-.53.346.815.815 0 00-.224.591.9.9 0 00.305.713 2.769 2.769 0 00.815.468 7.067 7.067 0 001.141.305c.428.082.876.183 1.324.285s.876.224 1.3.367a3.568 3.568 0 011.141.591 2.938 2.938 0 01.815.916 2.815 2.815 0 01.305 1.365 2.969 2.969 0 01-.448 1.67 3.809 3.809 0 01-1.161 1.12 5.757 5.757 0 01-1.589.631 8.533 8.533 0 01-1.731.2 7.3 7.3 0 01-1.935-.244 4.927 4.927 0 01-1.548-.713 3.419 3.419 0 01-1.018-1.2 3.923 3.923 0 01-.407-1.711h2.464v.02zm8.045-7.515h1.853v-3.34h2.444v3.32h2.2v1.813h-2.2v5.906a6.267 6.267 0 00.041.672 1.411 1.411 0 00.143.468.8.8 0 00.346.285 1.815 1.815 0 00.652.1 4.247 4.247 0 00.509-.02 4.386 4.386 0 00.509-.081v1.894c-.265.041-.53.061-.794.081a5.059 5.059 0 01-.794.041 5.265 5.265 0 01-1.548-.183 2.224 2.224 0 01-.917-.53 1.893 1.893 0 01-.448-.876 6.951 6.951 0 01-.143-1.222v-6.517h-1.853v-1.813zm8.208 0h2.3v1.507h.041a3.025 3.025 0 011.426-1.385 4.618 4.618 0 012-.428 5.019 5.019 0 012.281.468 4.28 4.28 0 011.609 1.263 5.267 5.267 0 01.957 1.874 8.228 8.228 0 01.041 4.44 5.99 5.99 0 01-.876 1.853 4.332 4.332 0 01-1.487 1.283 4.4 4.4 0 01-2.118.489 6.213 6.213 0 01-1.059-.1 4.5 4.5 0 01-1.018-.305 3.653 3.653 0 01-.9-.55 3.1 3.1 0 01-.692-.774h-.044v5.519h-2.444V14.847zm8.534 5.54a4.963 4.963 0 00-.2-1.446 3.689 3.689 0 00-.591-1.242 3.258 3.258 0 00-.957-.876 2.605 2.605 0 00-1.324-.326 2.705 2.705 0 00-2.322 1.059 4.824 4.824 0 00-.774 2.851 5.274 5.274 0 00.2 1.548 3.447 3.447 0 00.611 1.222 2.909 2.909 0 00.978.815 2.761 2.761 0 001.324.306 2.71 2.71 0 001.405-.346 3.284 3.284 0 00.957-.876 3.584 3.584 0 00.53-1.242 6.992 6.992 0 00.163-1.447zm4.3-9.756h2.444v2.3h-2.447zm0 4.216h2.444v11.059h-2.447zm4.623-4.216h2.444v15.275h-2.444zm9.9 15.58a5.82 5.82 0 01-2.363-.448 5.363 5.363 0 01-1.751-1.2 5.232 5.232 0 01-1.079-1.853 7.241 7.241 0 01-.387-2.342 6.615 6.615 0 01.387-2.322 5.417 5.417 0 011.079-1.853 4.884 4.884 0 011.751-1.2 6.182 6.182 0 012.363-.448 5.82 5.82 0 012.363.448 5.068 5.068 0 011.751 1.2 5.232 5.232 0 011.079 1.853 7.114 7.114 0 01.387 2.322 6.65 6.65 0 01-.387 2.342 5.764 5.764 0 01-1.079 1.853 4.885 4.885 0 01-1.751 1.2 6.107 6.107 0 01-2.368.448zm0-1.935a2.817 2.817 0 001.404-.345 2.949 2.949 0 00.978-.9 3.839 3.839 0 00.57-1.242 5.557 5.557 0 000-2.831 3.653 3.653 0 00-.57-1.242 3.094 3.094 0 00-.978-.876 2.873 2.873 0 00-1.405-.346 2.816 2.816 0 00-1.405.346 3.118 3.118 0 00-.978.876 3.65 3.65 0 00-.57 1.242 5.556 5.556 0 000 2.831 3.65 3.65 0 00.57 1.242 3.158 3.158 0 00.978.9 2.667 2.667 0 001.401.346zm6.314-9.43h1.853v-3.34h2.437v3.32h2.2v1.813h-2.2v5.906a6.269 6.269 0 00.041.672 1.411 1.411 0 00.143.468.8.8 0 00.346.285 1.815 1.815 0 00.652.1 4.259 4.259 0 00.509-.02 4.4 4.4 0 00.509-.082v1.894c-.265.041-.53.061-.794.081a5.063 5.063 0 01-.794.041 5.265 5.265 0 01-1.548-.183 2.224 2.224 0 01-.916-.53 1.893 1.893 0 01-.448-.876 6.954 6.954 0 01-.143-1.222v-6.517h-1.857v-1.813z" fill="#fff"/><path d="M29.267 10.631H18.086L14.644 0l-3.462 10.631-11.181-.02 9.043 6.578L5.58 27.821l9.043-6.578 9.043 6.578-3.442-10.631z" fill="#00b67a"/><path d="M20.998 19.589l-.774-2.4-5.58 4.053z" fill="#005128"/><g fill="#fff"><path d="M150.593 9.846h-5.347a.959.959 0 000 1.917h3.033l-5.06 5.06a.959.959 0 101.356 1.356l5.06-5.06v3.033a.959.959 0 101.917 0v-5.347a.96.96 0 00-.959-.959z"/><path d="M147.017 23.752h-9.374V14.38h7.05l1.643-1.643h-9.514a.822.822 0 00-.822.822v11.017a.822.822 0 00.822.822h11.017a.822.822 0 00.822-.822v-9.515l-1.643 1.643z"/></g></svg>