<svg width="24" height="25" viewBox="0 0 24 25" fill="none" xmlns="http://www.w3.org/2000/svg">
<g clip-path="url(#clip0_354_97740)">
<path d="M18.6667 22.1561C18.6667 19.9468 15.6813 18.1561 12 18.1561C8.31867 18.1561 5.33333 19.9468 5.33333 22.1561M24 18.1561C24 16.5161 22.3547 15.1068 20 14.4895M0 18.1561C0 16.5161 1.64533 15.1068 4 14.4895M20 9.13746C20.395 8.78825 20.7171 8.36439 20.9477 7.89025C21.1783 7.41612 21.3129 6.90108 21.3438 6.37474C21.3747 5.8484 21.3012 5.32115 21.1275 4.82332C20.9539 4.32549 20.6835 3.86689 20.332 3.47391C19.9805 3.08093 19.5548 2.76132 19.0794 2.53346C18.6039 2.3056 18.0881 2.17399 17.5616 2.14619C17.0351 2.11839 16.5082 2.19496 16.0114 2.37148C15.5146 2.54801 15.0576 2.82101 14.6667 3.17479M4 9.13746C3.2164 8.42832 2.74528 7.43789 2.68956 6.38252C2.63384 5.32715 2.99804 4.29262 3.70261 3.50491C4.40718 2.7172 5.39486 2.24033 6.44988 2.17848C7.50491 2.11662 8.54154 2.47481 9.33333 3.17479M12 14.1561C10.9391 14.1561 9.92172 13.7347 9.17157 12.9846C8.42143 12.2344 8 11.217 8 10.1561C8 9.09526 8.42143 8.07784 9.17157 7.3277C9.92172 6.57755 10.9391 6.15612 12 6.15612C13.0609 6.15612 14.0783 6.57755 14.8284 7.3277C15.5786 8.07784 16 9.09526 16 10.1561C16 11.217 15.5786 12.2344 14.8284 12.9846C14.0783 13.7347 13.0609 14.1561 12 14.1561Z" stroke="white" stroke-linecap="round" stroke-linejoin="round"/>
</g>
<defs>
<clipPath id="clip0_354_97740">
<rect width="24" height="24" fill="white" transform="translate(0 0.140625)"/>
</clipPath>
</defs>
</svg>
