<svg width="24" height="24" viewBox="0 0 24 24" fill="none" xmlns="http://www.w3.org/2000/svg">
<g clip-path="url(#clip0_354_97690)">
<path d="M17.6745 9.07601C16.9434 9.07601 16.2422 8.78557 15.7252 8.26858C15.2082 7.75159 14.9178 7.05039 14.9178 6.31926C14.9178 5.58812 14.6273 4.88693 14.1103 4.36994C13.5933 3.85294 12.8921 3.5625 12.161 3.5625H11.8367C11.1055 3.5625 10.4043 3.85294 9.88736 4.36994C9.37036 4.88693 9.07992 5.58812 9.07992 6.31926C9.07992 7.05039 8.78948 7.75159 8.27248 8.26858C7.75549 8.78557 7.0543 9.07601 6.32316 9.07601C5.59203 9.07601 4.89083 9.36646 4.37384 9.88345C3.85685 10.4004 3.56641 11.1016 3.56641 11.8328V12.1571C3.56641 12.8882 3.85685 13.5894 4.37384 14.1064C4.89083 14.6234 5.59203 14.9139 6.32316 14.9139C7.0543 14.9139 7.75549 15.2043 8.27248 15.7213C8.78948 16.2383 9.07992 16.9395 9.07992 17.6706C9.07992 18.4017 9.37036 19.1029 9.88736 19.6199C10.4043 20.1369 11.1055 20.4274 11.8367 20.4274H12.161C12.8921 20.4274 13.5933 20.1369 14.1103 19.6199C14.6273 19.1029 14.9178 18.4017 14.9178 17.6706C14.9178 16.9395 15.2082 16.2383 15.7252 15.7213C16.2422 15.2043 16.9434 14.9139 17.6745 14.9139C18.4057 14.9139 19.1068 14.6234 19.6238 14.1064C20.1408 13.5894 20.4313 12.8882 20.4313 12.1571V11.8328C20.4313 11.1016 20.1408 10.4004 19.6238 9.88345C19.1068 9.36646 18.4057 9.07601 17.6745 9.07601Z" stroke="white" stroke-linecap="round" stroke-linejoin="round"/>
<path d="M18.0795 13.9509C17.5626 13.4339 17.2722 12.7328 17.2722 12.0017C17.2722 11.2706 17.5626 10.5695 18.0795 10.0525C18.5964 9.53551 18.8868 8.83437 18.8868 8.1033C18.8868 7.37223 18.5964 6.67109 18.0795 6.15411L17.8499 5.92449C17.3329 5.40758 16.6318 5.11719 15.9007 5.11719C15.1696 5.11719 14.4685 5.40758 13.9515 5.92449C13.6955 6.18054 13.3916 6.38365 13.0571 6.52222C12.7226 6.66079 12.3641 6.73212 12.002 6.73212C11.6399 6.73212 11.2814 6.66079 10.9469 6.52222C10.6124 6.38365 10.3085 6.18054 10.0525 5.92449C9.53551 5.40758 8.83437 5.11719 8.1033 5.11719C7.37223 5.11719 6.67109 5.40758 6.15411 5.92449L5.92449 6.15346C5.40758 6.67045 5.11719 7.37158 5.11719 8.10265C5.11719 8.83373 5.40758 9.53486 5.92449 10.0518C6.18054 10.3078 6.38365 10.6118 6.52222 10.9463C6.66079 11.2808 6.73212 11.6393 6.73212 12.0014C6.73212 12.3634 6.66079 12.7219 6.52222 13.0564C6.38365 13.3909 6.18054 13.6949 5.92449 13.9509C5.40758 14.4679 5.11719 15.169 5.11719 15.9001C5.11719 16.6311 5.40758 17.3323 5.92449 17.8492L6.15346 18.0789C6.67045 18.5958 7.37158 18.8862 8.10265 18.8862C8.83373 18.8862 9.53486 18.5958 10.0518 18.0789C10.3078 17.8228 10.6118 17.6197 10.9463 17.4811C11.2808 17.3426 11.6393 17.2712 12.0014 17.2712C12.3634 17.2712 12.7219 17.3426 13.0564 17.4811C13.3909 17.6197 13.6949 17.8228 13.9509 18.0789C14.4678 18.5958 15.169 18.8862 15.9001 18.8862C16.6311 18.8862 17.3323 18.5958 17.8492 18.0789L18.0789 17.8499C18.5958 17.3329 18.8862 16.6318 18.8862 15.9007C18.8862 15.1696 18.5964 14.4679 18.0795 13.9509Z" stroke="white" stroke-linecap="round" stroke-linejoin="round"/>
</g>
<defs>
<clipPath id="clip0_354_97690">
<rect width="24" height="24" fill="white"/>
</clipPath>
</defs>
</svg>
