<svg width="608" height="267" viewBox="0 0 608 267" fill="none" xmlns="http://www.w3.org/2000/svg">
<path d="M576 187L32 187" stroke="url(#paint0_linear_359_57019)"/>
<path d="M576 81L32 81" stroke="url(#paint1_linear_359_57019)"/>
<path d="M32 15V252" stroke="url(#paint2_linear_359_57019)" stroke-dasharray="8 8"/>
<path d="M140.797 15V252" stroke="url(#paint3_linear_359_57019)" stroke-dasharray="8 8"/>
<path d="M249.602 15V252" stroke="url(#paint4_linear_359_57019)" stroke-dasharray="8 8"/>
<path d="M358.398 15V252" stroke="url(#paint5_linear_359_57019)" stroke-dasharray="8 8"/>
<path d="M467.203 15V252" stroke="url(#paint6_linear_359_57019)" stroke-dasharray="8 8"/>
<path d="M576 15V252" stroke="url(#paint7_linear_359_57019)" stroke-dasharray="8 8"/>
<rect x="153" y="98" width="70" height="70" rx="35" fill="#1A1E2D"/>
<circle cx="188" cy="133" r="18.25" stroke="#D9D9D9" stroke-width="1.5"/>
<path d="M182.852 127.696C184.183 126.404 185.999 125.608 188.001 125.608C189.895 125.608 191.621 126.319 192.93 127.491C194.443 128.845 195.394 130.812 195.394 133.001C195.394 135.191 194.443 137.157 192.93 138.512C191.621 139.683 189.895 140.394 188.001 140.394C183.918 140.394 180.608 137.084 180.608 133.001C180.608 131.462 181.079 130.033 181.884 128.849L182.042 129.008L183.103 127.947L182.852 127.696Z" stroke="#D9D9D9" stroke-width="1.5"/>
<path d="M193.43 127.566L200.668 120.328M193.43 137.519L200.668 145.661M182.573 138.423L174.43 145.661M182.573 127.566L175.334 120.328" stroke="#D9D9D9" stroke-width="1.5"/>
<rect x="237" y="103.5" width="219" height="59" rx="8" fill="#1A1E2D"/>
<path d="M270.829 139.5V126.409H272.415V132.239H279.395V126.409H280.98V139.5H279.395V133.645H272.415V139.5H270.829ZM287.938 139.705C287.051 139.705 286.274 139.494 285.605 139.072C284.94 138.65 284.42 138.06 284.045 137.301C283.674 136.543 283.489 135.656 283.489 134.642C283.489 133.619 283.674 132.727 284.045 131.964C284.42 131.201 284.94 130.609 285.605 130.187C286.274 129.765 287.051 129.554 287.938 129.554C288.824 129.554 289.6 129.765 290.264 130.187C290.933 130.609 291.453 131.201 291.824 131.964C292.199 132.727 292.387 133.619 292.387 134.642C292.387 135.656 292.199 136.543 291.824 137.301C291.453 138.06 290.933 138.65 290.264 139.072C289.6 139.494 288.824 139.705 287.938 139.705ZM287.938 138.349C288.611 138.349 289.165 138.177 289.6 137.832C290.034 137.487 290.356 137.033 290.565 136.47C290.774 135.908 290.878 135.298 290.878 134.642C290.878 133.986 290.774 133.374 290.565 132.808C290.356 132.241 290.034 131.783 289.6 131.433C289.165 131.084 288.611 130.909 287.938 130.909C287.264 130.909 286.71 131.084 286.276 131.433C285.841 131.783 285.519 132.241 285.311 132.808C285.102 133.374 284.997 133.986 284.997 134.642C284.997 135.298 285.102 135.908 285.311 136.47C285.519 137.033 285.841 137.487 286.276 137.832C286.71 138.177 287.264 138.349 287.938 138.349ZM296.58 139.5L293.588 129.682H295.173L297.296 137.199H297.398L299.494 129.682H301.105L303.176 137.173H303.279L305.401 129.682H306.986L303.994 139.5H302.512L300.364 131.957H300.21L298.063 139.5H296.58ZM318.031 139.705C317.111 139.705 316.318 139.487 315.654 139.053C314.989 138.618 314.477 138.019 314.119 137.256C313.762 136.494 313.583 135.622 313.583 134.642C313.583 133.645 313.766 132.765 314.132 132.002C314.503 131.235 315.019 130.636 315.679 130.206C316.344 129.771 317.119 129.554 318.006 129.554C318.696 129.554 319.318 129.682 319.872 129.938C320.426 130.193 320.88 130.551 321.234 131.011C321.588 131.472 321.807 132.009 321.892 132.622H320.384C320.269 132.175 320.013 131.778 319.617 131.433C319.225 131.084 318.696 130.909 318.031 130.909C317.443 130.909 316.928 131.062 316.485 131.369C316.046 131.672 315.703 132.1 315.455 132.654C315.213 133.204 315.091 133.849 315.091 134.591C315.091 135.349 315.21 136.01 315.449 136.572C315.692 137.135 316.033 137.572 316.472 137.883C316.915 138.194 317.435 138.349 318.031 138.349C318.423 138.349 318.779 138.281 319.099 138.145C319.419 138.009 319.689 137.812 319.911 137.557C320.132 137.301 320.29 136.994 320.384 136.636H321.892C321.807 137.216 321.596 137.738 321.259 138.202C320.927 138.663 320.486 139.029 319.936 139.302C319.391 139.57 318.756 139.705 318.031 139.705ZM326.987 139.73C326.365 139.73 325.8 139.613 325.293 139.379C324.786 139.14 324.383 138.797 324.085 138.349C323.786 137.898 323.637 137.352 323.637 136.713C323.637 136.151 323.748 135.695 323.97 135.345C324.191 134.991 324.487 134.714 324.858 134.514C325.229 134.314 325.638 134.165 326.085 134.067C326.537 133.964 326.991 133.884 327.447 133.824C328.044 133.747 328.527 133.69 328.898 133.651C329.273 133.609 329.546 133.538 329.716 133.44C329.891 133.342 329.978 133.172 329.978 132.929V132.878C329.978 132.247 329.806 131.757 329.46 131.408C329.119 131.058 328.602 130.884 327.907 130.884C327.187 130.884 326.622 131.041 326.213 131.357C325.804 131.672 325.517 132.009 325.35 132.366L323.919 131.855C324.174 131.259 324.515 130.794 324.941 130.462C325.372 130.125 325.84 129.891 326.347 129.759C326.859 129.622 327.362 129.554 327.856 129.554C328.171 129.554 328.534 129.592 328.943 129.669C329.356 129.741 329.754 129.893 330.138 130.123C330.526 130.353 330.847 130.7 331.103 131.165C331.359 131.629 331.487 132.251 331.487 133.031V139.5H329.978V138.17H329.901C329.799 138.384 329.629 138.612 329.39 138.854C329.151 139.097 328.834 139.304 328.438 139.474C328.041 139.645 327.558 139.73 326.987 139.73ZM327.217 138.375C327.813 138.375 328.316 138.258 328.725 138.023C329.139 137.789 329.45 137.487 329.659 137.116C329.872 136.745 329.978 136.355 329.978 135.946V134.565C329.914 134.642 329.774 134.712 329.556 134.776C329.343 134.836 329.096 134.889 328.815 134.936C328.538 134.979 328.267 135.017 328.003 135.051C327.743 135.081 327.532 135.107 327.37 135.128C326.978 135.179 326.612 135.262 326.271 135.377C325.934 135.488 325.661 135.656 325.453 135.882C325.248 136.104 325.146 136.406 325.146 136.79C325.146 137.314 325.34 137.71 325.727 137.979C326.119 138.243 326.616 138.375 327.217 138.375ZM335.749 133.594V139.5H334.24V129.682H335.697V131.216H335.825C336.055 130.717 336.405 130.317 336.874 130.014C337.342 129.707 337.947 129.554 338.689 129.554C339.354 129.554 339.935 129.69 340.434 129.963C340.933 130.232 341.32 130.641 341.597 131.19C341.874 131.736 342.013 132.426 342.013 133.261V139.5H340.504V133.364C340.504 132.592 340.304 131.991 339.903 131.561C339.503 131.126 338.953 130.909 338.254 130.909C337.773 130.909 337.342 131.013 336.963 131.222C336.588 131.431 336.292 131.736 336.075 132.136C335.857 132.537 335.749 133.023 335.749 133.594ZM352.056 139.5L349.065 129.682H350.65L352.772 137.199H352.874L354.971 129.682H356.582L358.653 137.173H358.755L360.877 129.682H362.463L359.471 139.5H357.988L355.84 131.957H355.687L353.539 139.5H352.056ZM368.239 139.705C367.293 139.705 366.477 139.496 365.791 139.078C365.109 138.656 364.583 138.068 364.212 137.314C363.846 136.555 363.663 135.673 363.663 134.668C363.663 133.662 363.846 132.776 364.212 132.009C364.583 131.237 365.099 130.636 365.759 130.206C366.424 129.771 367.2 129.554 368.086 129.554C368.597 129.554 369.102 129.639 369.601 129.81C370.099 129.98 370.553 130.257 370.962 130.641C371.371 131.02 371.697 131.523 371.94 132.149C372.183 132.776 372.305 133.547 372.305 134.463V135.102H364.737V133.798H370.771C370.771 133.244 370.66 132.75 370.438 132.315C370.221 131.881 369.91 131.538 369.505 131.286C369.104 131.035 368.631 130.909 368.086 130.909C367.485 130.909 366.965 131.058 366.526 131.357C366.092 131.651 365.757 132.034 365.523 132.507C365.288 132.98 365.171 133.487 365.171 134.028V134.898C365.171 135.639 365.299 136.268 365.555 136.783C365.815 137.295 366.175 137.685 366.635 137.953C367.095 138.217 367.63 138.349 368.239 138.349C368.636 138.349 368.994 138.294 369.313 138.183C369.637 138.068 369.916 137.898 370.151 137.672C370.385 137.442 370.566 137.156 370.694 136.815L372.151 137.224C371.998 137.719 371.74 138.153 371.378 138.528C371.016 138.899 370.568 139.189 370.036 139.398C369.503 139.602 368.904 139.705 368.239 139.705ZM381.17 133.594V139.5H379.662V126.409H381.17V131.216H381.298C381.528 130.709 381.874 130.306 382.334 130.008C382.798 129.705 383.416 129.554 384.188 129.554C384.857 129.554 385.442 129.688 385.945 129.957C386.448 130.221 386.838 130.628 387.115 131.178C387.396 131.723 387.537 132.418 387.537 133.261V139.5H386.028V133.364C386.028 132.584 385.826 131.981 385.421 131.555C385.021 131.124 384.464 130.909 383.753 130.909C383.259 130.909 382.815 131.013 382.423 131.222C382.036 131.431 381.729 131.736 381.503 132.136C381.281 132.537 381.17 133.023 381.17 133.594ZM394.413 139.705C393.467 139.705 392.651 139.496 391.965 139.078C391.283 138.656 390.757 138.068 390.386 137.314C390.02 136.555 389.836 135.673 389.836 134.668C389.836 133.662 390.02 132.776 390.386 132.009C390.757 131.237 391.273 130.636 391.933 130.206C392.598 129.771 393.373 129.554 394.26 129.554C394.771 129.554 395.276 129.639 395.775 129.81C396.273 129.98 396.727 130.257 397.136 130.641C397.545 131.02 397.871 131.523 398.114 132.149C398.357 132.776 398.479 133.547 398.479 134.463V135.102H390.91V133.798H396.944C396.944 133.244 396.834 132.75 396.612 132.315C396.395 131.881 396.084 131.538 395.679 131.286C395.278 131.035 394.805 130.909 394.26 130.909C393.659 130.909 393.139 131.058 392.7 131.357C392.265 131.651 391.931 132.034 391.697 132.507C391.462 132.98 391.345 133.487 391.345 134.028V134.898C391.345 135.639 391.473 136.268 391.729 136.783C391.988 137.295 392.349 137.685 392.809 137.953C393.269 138.217 393.804 138.349 394.413 138.349C394.809 138.349 395.167 138.294 395.487 138.183C395.811 138.068 396.09 137.898 396.324 137.672C396.559 137.442 396.74 137.156 396.868 136.815L398.325 137.224C398.172 137.719 397.914 138.153 397.552 138.528C397.189 138.899 396.742 139.189 396.209 139.398C395.677 139.602 395.078 139.705 394.413 139.705ZM402.282 126.409V139.5H400.773V126.409H402.282ZM405.045 143.182V129.682H406.502V131.241H406.681C406.792 131.071 406.945 130.854 407.141 130.589C407.342 130.321 407.627 130.082 407.998 129.874C408.373 129.661 408.88 129.554 409.519 129.554C410.346 129.554 411.075 129.761 411.705 130.174C412.336 130.587 412.828 131.173 413.182 131.932C413.536 132.69 413.712 133.585 413.712 134.616C413.712 135.656 413.536 136.558 413.182 137.32C412.828 138.079 412.338 138.667 411.712 139.085C411.085 139.498 410.363 139.705 409.545 139.705C408.914 139.705 408.409 139.6 408.03 139.391C407.651 139.178 407.359 138.937 407.154 138.669C406.95 138.396 406.792 138.17 406.681 137.991H406.553V143.182H405.045ZM406.528 134.591C406.528 135.332 406.636 135.987 406.854 136.553C407.071 137.116 407.388 137.557 407.806 137.876C408.224 138.192 408.735 138.349 409.34 138.349C409.971 138.349 410.497 138.183 410.919 137.851C411.345 137.514 411.665 137.062 411.878 136.496C412.095 135.925 412.204 135.29 412.204 134.591C412.204 133.901 412.097 133.278 411.884 132.724C411.675 132.166 411.358 131.725 410.932 131.401C410.51 131.073 409.979 130.909 409.34 130.909C408.727 130.909 408.211 131.065 407.793 131.376C407.376 131.683 407.06 132.113 406.847 132.667C406.634 133.217 406.528 133.858 406.528 134.591ZM417.982 135.818V135.741C417.991 134.928 418.076 134.28 418.238 133.798C418.4 133.317 418.63 132.927 418.928 132.629C419.227 132.33 419.585 132.055 420.002 131.804C420.254 131.651 420.479 131.469 420.68 131.261C420.88 131.048 421.038 130.803 421.153 130.526C421.272 130.249 421.332 129.942 421.332 129.605C421.332 129.187 421.234 128.825 421.038 128.518C420.842 128.212 420.58 127.975 420.251 127.809C419.923 127.643 419.559 127.56 419.158 127.56C418.809 127.56 418.472 127.632 418.148 127.777C417.825 127.922 417.554 128.15 417.337 128.461C417.119 128.772 416.994 129.179 416.96 129.682H415.349C415.383 128.957 415.57 128.337 415.911 127.822C416.256 127.306 416.71 126.912 417.273 126.639C417.839 126.366 418.468 126.23 419.158 126.23C419.908 126.23 420.56 126.379 421.114 126.678C421.673 126.976 422.103 127.385 422.406 127.905C422.712 128.425 422.866 129.017 422.866 129.682C422.866 130.151 422.793 130.575 422.648 130.954C422.508 131.333 422.303 131.672 422.035 131.97C421.771 132.268 421.451 132.533 421.076 132.763C420.701 132.997 420.401 133.244 420.175 133.504C419.949 133.76 419.785 134.065 419.683 134.418C419.58 134.772 419.525 135.213 419.516 135.741V135.818H417.982ZM418.8 139.602C418.485 139.602 418.214 139.489 417.989 139.263C417.763 139.038 417.65 138.767 417.65 138.452C417.65 138.136 417.763 137.866 417.989 137.64C418.214 137.414 418.485 137.301 418.8 137.301C419.116 137.301 419.386 137.414 419.612 137.64C419.838 137.866 419.951 138.136 419.951 138.452C419.951 138.661 419.898 138.852 419.791 139.027C419.689 139.202 419.55 139.342 419.376 139.449C419.205 139.551 419.013 139.602 418.8 139.602Z" fill="#B2B2B3"/>
<g clip-path="url(#clip0_359_57019)">
<path d="M238 132.817L238 145.5C238 140.276 233.075 135.247 230.954 133.323C230.476 132.89 230.476 132.11 230.954 131.677C233.075 129.753 238 124.724 238 119.5L238 132.183L238 132.817Z" fill="#1A1E2D"/>
</g>
<defs>
<linearGradient id="paint0_linear_359_57019" x1="576" y1="187" x2="575.995" y2="188.609" gradientUnits="userSpaceOnUse">
<stop stop-color="#182C48" stop-opacity="0"/>
<stop offset="0.130208" stop-color="#161E30"/>
<stop offset="0.494792" stop-color="#161E30"/>
<stop offset="0.869792" stop-color="#161E30"/>
<stop offset="1" stop-color="#182C48" stop-opacity="0"/>
</linearGradient>
<linearGradient id="paint1_linear_359_57019" x1="576" y1="81" x2="575.995" y2="82.602" gradientUnits="userSpaceOnUse">
<stop stop-color="#182C48" stop-opacity="0"/>
<stop offset="0.130208" stop-color="#161E30"/>
<stop offset="0.494792" stop-color="#161E30"/>
<stop offset="0.869792" stop-color="#161E30"/>
<stop offset="1" stop-color="#182C48" stop-opacity="0"/>
</linearGradient>
<linearGradient id="paint2_linear_359_57019" x1="32.3359" y1="26" x2="128.188" y2="180.554" gradientUnits="userSpaceOnUse">
<stop stop-color="#182C48" stop-opacity="0.2"/>
<stop offset="0.171875" stop-color="#182C48"/>
<stop offset="0.301595" stop-color="#182943"/>
<stop offset="0.828125" stop-color="#161E30"/>
<stop offset="1" stop-color="#161E30" stop-opacity="0.2"/>
</linearGradient>
<linearGradient id="paint3_linear_359_57019" x1="141.133" y1="26" x2="236.985" y2="180.554" gradientUnits="userSpaceOnUse">
<stop stop-color="#182C48" stop-opacity="0.2"/>
<stop offset="0.171875" stop-color="#182C48"/>
<stop offset="0.301595" stop-color="#182943"/>
<stop offset="0.828125" stop-color="#161E30"/>
<stop offset="1" stop-color="#161E30" stop-opacity="0.2"/>
</linearGradient>
<linearGradient id="paint4_linear_359_57019" x1="249.938" y1="26" x2="345.79" y2="180.554" gradientUnits="userSpaceOnUse">
<stop stop-color="#182C48" stop-opacity="0.2"/>
<stop offset="0.171875" stop-color="#182C48"/>
<stop offset="0.301595" stop-color="#182943"/>
<stop offset="0.828125" stop-color="#161E30"/>
<stop offset="1" stop-color="#161E30" stop-opacity="0.2"/>
</linearGradient>
<linearGradient id="paint5_linear_359_57019" x1="358.734" y1="26" x2="454.587" y2="180.554" gradientUnits="userSpaceOnUse">
<stop stop-color="#182C48" stop-opacity="0.2"/>
<stop offset="0.171875" stop-color="#182C48"/>
<stop offset="0.301595" stop-color="#182943"/>
<stop offset="0.828125" stop-color="#161E30"/>
<stop offset="1" stop-color="#161E30" stop-opacity="0.2"/>
</linearGradient>
<linearGradient id="paint6_linear_359_57019" x1="467.539" y1="26" x2="563.391" y2="180.554" gradientUnits="userSpaceOnUse">
<stop stop-color="#182C48" stop-opacity="0.2"/>
<stop offset="0.171875" stop-color="#182C48"/>
<stop offset="0.301595" stop-color="#182943"/>
<stop offset="0.828125" stop-color="#161E30"/>
<stop offset="1" stop-color="#161E30" stop-opacity="0.2"/>
</linearGradient>
<linearGradient id="paint7_linear_359_57019" x1="576.336" y1="26" x2="672.188" y2="180.554" gradientUnits="userSpaceOnUse">
<stop stop-color="#182C48" stop-opacity="0.2"/>
<stop offset="0.171875" stop-color="#182C48"/>
<stop offset="0.301595" stop-color="#182943"/>
<stop offset="0.828125" stop-color="#161E30"/>
<stop offset="1" stop-color="#161E30" stop-opacity="0.2"/>
</linearGradient>
<clipPath id="clip0_359_57019">
<rect width="37" height="13" fill="white" transform="matrix(-4.37114e-08 -1 -1 4.37114e-08 238 151.5)"/>
</clipPath>
</defs>
</svg>
