<svg xmlns="http://www.w3.org/2000/svg" viewBox="0 0 40 40"><linearGradient id="a" gradientUnits="userSpaceOnUse" x1="167.317" y1="-1117.178" x2="204.609" y2="-1117.178" gradientTransform="rotate(90 -465.568 -631.61)"><stop offset=".001" stop-color="#b6509e"/><stop offset="1" stop-color="#2ebac6"/></linearGradient><path d="M37 26.2V13.6c0-2.1-1.1-4.1-3-5.2L23 2.1c-1.9-1.1-4.1-1.1-6 0L6 8.4c-1.9 1.1-3 3.1-3 5.2v12.6c0 2.1 1.1 4.1 3 5.2l11 6.3c1.9 1.1 4.1 1.1 6 0l11-6.3c1.8-1.1 3-3 3-5.2z" fill="url(#a)"/><path d="M29.1 27.3l-6.9-16.6c-.4-.9-1-1.3-1.7-1.3h-.6c-.8 0-1.3.4-1.7 1.3l-3 7.2h-2.3c-.7 0-1.2.6-1.2 1.2 0 .7.6 1.2 1.2 1.2h1.2l-2.9 6.9c-.1.2-.1.3-.1.5 0 .3.1.7.3.9.2.2.6.4.9.4.3 0 .5-.1.7-.2.2-.2.4-.4.5-.6l3.1-7.8H19c.7 0 1.2-.6 1.2-1.2 0-.7-.6-1.2-1.2-1.2h-1.2l2.4-6 6.5 16.3c.1.2.3.5.5.6.2.2.5.2.7.2.3 0 .7-.1.9-.4.2-.3.4-.6.3-.9.1-.1.1-.3 0-.5z" fill="#fff"/></svg>