<?xml version="1.0" encoding="utf-8"?>
<!-- Generator: Adobe Illustrator 22.0.0, SVG Export Plug-In . SVG Version: 6.00 Build 0)  -->
<svg version="1.1" id="Layer_1" xmlns="http://www.w3.org/2000/svg" xmlns:xlink="http://www.w3.org/1999/xlink" x="0px" y="0px"
	 viewBox="0 0 40 40" style="enable-background:new 0 0 40 40;" xml:space="preserve">
<style type="text/css">
	.st0{display:none;}
	.st1{display:inline;}
	.st2{fill:#C9E7FC;}
	.st3{fill:#C8E7FC;}
	.st4{fill:#0F315E;}
	.st5{fill:#F4CD5E;}
	.st6{fill:#96BEDC;}
	.st7{fill:#2D374B;}
	.st8{clip-path:url(#SVGID_2_);}
	.st9{fill:#FFFFFF;}
	.st10{clip-path:url(#SVGID_4_);}
	.st11{fill:#28A0F0;}
</style>
<g class="st0">
	<g class="st1">
		<path class="st2" d="M14.3,22c-0.1-0.1,0-0.2,0-0.4c0-1.4,0-2.8,0-4.2c0-0.4-0.2-0.7-0.5-1c-0.6-0.4-1.3-0.7-1.9-1.2
			c-0.8-0.6-1.4-1.3-1.8-2.3c-0.3-0.8,0-1.2,0.8-1.4c1.1-0.2,2.2,0,3.3,0.1c0.4,0.1,0.8,0.1,1.2,0.2c0.2,0,0.3,0,0.2-0.2
			c0-0.2,0-0.4,0.1-0.6c0.1-0.3,0.3-0.5,0.5-0.5c0.3,0,0.6,0.1,0.7,0.3c0.2,0.3,0.3,0.6,0.4,0.8c0.1,0.3,0.3,0.4,0.7,0.3
			c1.3-0.4,2.6-0.4,3.9,0c0.3,0.1,0.5,0,0.6-0.3c0.1-0.2,0.2-0.5,0.4-0.7c0.2-0.3,0.4-0.5,0.8-0.5c0.4,0.1,0.5,0.3,0.6,0.6
			c0,0.1,0,0.2,0,0.3c0,0.4,0,0.4,0.5,0.4c1.2-0.2,2.5-0.4,3.7-0.3c0.3,0,0.6,0.1,0.8,0.1c0.5,0.2,0.7,0.5,0.6,1
			c-0.1,0.8-0.6,1.4-1.2,2s-1.2,1.1-2,1.4c-0.2,0.1-0.3,0.2-0.5,0.3c-0.4,0.2-0.5,0.5-0.5,0.9c0,1.4,0,2.9,0,4.3
			c0,0.3,0,0.4-0.3,0.2c-2-1.2-4.1-1.5-6.4-1.3C17.5,20.6,15.9,21,14.3,22C14.4,22,14.4,22,14.3,22z M23.1,18.1c0.2,0,0.3,0,0.5,0
			c0.8,0,1.4-0.7,1.4-1.5c-0.1-0.8-0.8-1.4-1.6-1.3c-0.9,0.2-1.8,0.6-2.4,1.3c-0.4,0.4-0.3,0.8,0.2,1C21.7,18,22.4,18.1,23.1,18.1z
			 M17,18.1c0.8,0,1.4-0.1,2-0.4s0.7-0.7,0.2-1.1c-0.6-0.6-1.4-1-2.3-1.2c-0.5-0.1-1.2,0.2-1.5,0.7s-0.3,1,0.1,1.5
			C15.9,18,16.4,18.1,17,18.1z"/>
		<path class="st3" d="M20.6,29.1c-2.4,0-4.2-0.4-5.8-1.4c-0.4-0.3-0.8-0.6-1-1c-0.7-0.9-0.7-2.1,0-3s1.6-1.4,2.6-1.8
			c2.9-1,5.7-0.9,8.5,0.4c0.7,0.3,1.2,0.7,1.7,1.3c0.8,1,0.8,2.2,0,3.2s-1.8,1.5-3,1.8C22.3,29,21.2,29.1,20.6,29.1z M16.4,25.7
			c0.6,0,1.2-0.5,1.4-1.2c0.1-0.2,0.1-0.4,0-0.5c-0.2-0.2-0.3,0.1-0.4,0.2c-0.4,0.3-0.6,0.2-0.7-0.3c0-0.1,0-0.1,0-0.2
			c-0.1-0.3-0.3-0.4-0.5-0.1c-0.3,0.3-0.5,0.8-0.5,1.2C15.5,25.3,15.9,25.7,16.4,25.7z M24.6,24.8c0-0.4-0.2-0.8-0.4-1.1
			c-0.1-0.1-0.2-0.3-0.4-0.3c-0.2,0-0.2,0.3-0.3,0.4c-0.2,0.6-0.3,0.6-0.7,0.3L22.7,24c-0.1,0-0.1-0.1-0.2-0.1
			c-0.1,0.1-0.1,0.2-0.1,0.3c0.1,0.7,0.4,1.1,1,1.4C24,25.9,24.6,25.5,24.6,24.8z"/>
		<path class="st4" d="M23.1,17.4c0.2,0,0.3,0,0.5,0c0.4-0.1,0.7-0.5,0.7-0.9c-0.1-0.4-0.5-0.7-0.9-0.6c-0.7,0.2-1.3,0.5-1.9,1
			c-0.2,0.1-0.1,0.2,0.1,0.3C22,17.4,22.6,17.5,23.1,17.4z"/>
		<path class="st5" d="M23.1,17.4c-0.5,0-1.1-0.1-1.6-0.3c-0.2-0.1-0.2-0.1-0.1-0.3c0.5-0.5,1.2-0.8,1.9-1c0.4-0.1,0.9,0.3,0.9,0.6
			c0.1,0.4-0.3,0.8-0.7,0.9C23.4,17.5,23.3,17.4,23.1,17.4z"/>
		<path class="st5" d="M18.9,17c-0.8,0.4-1.6,0.5-2.3,0.4c-0.4,0-0.7-0.5-0.7-0.9c0.1-0.3,0.6-0.7,0.9-0.7
			C17.6,16.1,18.2,16.4,18.9,17z"/>
	</g>
</g>
<g>
	<path class="st6" d="M37,26.3V13.7c0-2.1-1.1-4.1-3-5.2L23,2.2c-1.8-1.1-4.2-1.1-6,0L6,8.5c-1.9,1.1-3,3.1-3,5.2v12.6
		c0,2.1,1.1,4.1,3,5.2l11,6.3c1.8,1.1,4.2,1.1,6,0l11-6.3C35.8,30.4,37,28.4,37,26.3z"/>
	<path class="st7" d="M34.5,25.4V14.6c0-1.8-1-3.5-2.6-4.4l-9.4-5.4c-1.6-0.9-3.5-0.9-5.1,0l-9.4,5.4c-1.6,0.9-2.6,2.6-2.6,4.4v10.7
		c0,1.8,1,3.5,2.6,4.4l9.4,5.4c1.6,0.9,3.5,0.9,5.1,0l9.4-5.4C33.5,28.9,34.5,27.2,34.5,25.4z"/>
	<g>
		<defs>
			<path id="SVGID_1_" d="M37,26.3V13.7c0-2.1-1.1-4.1-3-5.2L23,2.2c-1.8-1.1-4.2-1.1-6,0L6,8.5c-1.9,1.1-3,3.1-3,5.2v12.6
				c0,2.1,1.1,4.1,3,5.2l11,6.3c1.8,1.1,4.2,1.1,6,0l11-6.3C35.8,30.4,37,28.4,37,26.3z"/>
		</defs>
		<clipPath id="SVGID_2_">
			<use xlink:href="#SVGID_1_"  style="overflow:visible;"/>
		</clipPath>
		<g class="st8">
			<g>
				<g id="_x38_fcf1b5a-d318-4911-8775-1bdaf7f15d13">
					<polygon class="st9" points="26.2,12.7 20.7,12.7 8.2,33.4 12.5,35.9 13.7,33.9 					"/>
					<path class="st9" d="M3,30.4l3.7,2.1l12.4-19.8L17,12.6c-1.8,0-3.7,0.4-4.6,1.9l-7,10.9L3,29L3,30.4L3,30.4z"/>
					<g id="_x35_03ffc6f-936b-422e-9edd-96c1f34e6859">
						<defs>
							<path id="SVGID_3_" d="M34.5,25.4V14.6c0-1.8-1-3.5-2.6-4.4l-9.4-5.4c-1.6-0.9-3.5-0.9-5.1,0l-9.4,5.4
								c-1.6,0.9-2.6,2.6-2.6,4.4v10.7c0,1.8,1,3.5,2.6,4.4l9.4,5.4c1.6,0.9,3.5,0.9,5.1,0l9.4-5.4C33.5,28.9,34.5,27.2,34.5,25.4z"
								/>
						</defs>
						<clipPath id="SVGID_4_">
							<use xlink:href="#SVGID_3_"  style="overflow:visible;"/>
						</clipPath>
						<g class="st10">
							<polygon class="st11" points="20.1,26.1 25.3,34.4 30.2,31.6 23.3,20.7 							"/>
							<path class="st11" d="M34.6,28.3l0-2.3L27,14.3L24.2,19l7.3,11.8l2.6-1.5c0.3-0.2,0.4-0.5,0.4-0.8L34.6,28.3z"/>
						</g>
					</g>
				</g>
			</g>
		</g>
	</g>
</g>
</svg>
