<?xml version="1.0" encoding="utf-8"?>
<!-- Generator: Adobe Illustrator 22.0.0, SVG Export Plug-In . SVG Version: 6.00 Build 0)  -->
<svg version="1.1" id="Layer_1" xmlns="http://www.w3.org/2000/svg" xmlns:xlink="http://www.w3.org/1999/xlink" x="0px" y="0px"
	 viewBox="0 0 40 40" style="enable-background:new 0 0 40 40;" xml:space="preserve">
<style type="text/css">
	.st0{fill:url(#SVGID_1_);}
	.st1{fill:#311F1B;}
	.st2{fill:#F6A32B;}
	.st3{fill:#FFFFFF;}
	.st4{fill:#DDDDDD;}
	.st5{fill:#EF8105;}
	.st6{fill:#EF8005;}
	.st7{fill:#C65017;}
	.st8{fill:#FCCB5F;}
	.st9{fill:#DE6C0F;}
	.st10{fill:#EE8007;}
	.st11{fill:#F8E035;}
	.st12{fill:#B11922;}
	.st13{fill:#FDFDFB;}
	.st14{fill:#FFFDFC;}
	.st15{fill:#D11F2A;}
	.st16{fill:#D51F29;}
	.st17{fill:#DADAD9;}
	.st18{fill:#DADADA;}
	.st19{fill:#FAF9F7;}
	.st20{fill:#C4C4C3;}
	.st21{fill:#FFFFFD;}
	.st22{fill:#CCCDCE;}
	.st23{fill:#CDCFCF;}
	.st24{fill:#FAF9F9;}
	.st25{fill:#F8F8F8;}
	.st26{fill:#5B3D38;}
	.st27{fill:#EF857F;}
	.st28{fill:#F5ADA6;}
</style>
<title>babydoge</title>
<linearGradient id="SVGID_1_" gradientUnits="userSpaceOnUse" x1="654.6669" y1="-2917.1785" x2="617.3752" y2="-2917.1785" gradientTransform="matrix(0 1 -1 0 -2897.1785 -616.0419)">
	<stop  offset="0" style="stop-color:#BE5117"/>
	<stop  offset="1" style="stop-color:#F6A42C"/>
</linearGradient>
<path class="st0" d="M37,26.3V13.7c0-2.1-1.1-4.1-3-5.2L23,2.2c-1.8-1.1-4.2-1.1-6,0L6,8.5c-1.9,1.1-3,3.1-3,5.2v12.6
	c0,2.1,1.1,4.1,3,5.2l11,6.3c1.8,1.1,4.2,1.1,6,0l11-6.3C35.8,30.4,37,28.4,37,26.3z"/>
<g>
	<g>
		<path class="st1" d="M14.4,24.9c0-0.7,0.2-1.3,0.7-1.8c0.2-0.2,0.1-0.5-0.1-0.6c-1.3-0.7-2.2-1.8-2.5-3.3
			c-0.2-1.1-0.1-2.2,0.2-3.3c0.1-0.2,0.1-0.4,0-0.7c-0.4-1.6-0.4-3.3,0.1-4.9c0.4-1.2,1-1.5,2.2-0.9c0.7,0.3,1.3,0.7,1.8,1.2
			c0.2,0.1,0.3,0.2,0.5,0.1c2.1-0.8,4.2-0.8,6.3,0c0.2,0.1,0.3,0,0.4-0.1c0.5-0.4,1.1-0.8,1.7-1.2c0.3-0.1,0.5-0.2,0.8-0.3
			C27,9,27.4,9.1,27.7,9.6c0.3,0.6,0.5,1.3,0.6,1.9c0.2,1.3,0.1,2.6-0.2,3.9c0,0.1,0,0.2,0,0.3c0.3,1,0.5,1.9,0.4,3
			c-0.2,1.7-1.1,3-2.6,3.8c-0.2,0.1-0.3,0.4-0.1,0.6c0.6,0.7,0.7,1.6,0.6,2.5c0,0.1-0.1,0.2,0.1,0.3c0.8,0.5,1,1.3,1,2.1
			c0,0.5-0.2,1-0.4,1.6c-0.3,0.7-0.8,1-1.5,1c-0.2,0-0.4,0-0.5,0c-0.4,0-0.8,0-1.2,0.2c-0.5,0.3-1.1,0.2-1.7,0.1c0,0-0.1,0-0.1,0
			c-0.4-0.4-0.8-0.3-1.3-0.3c-0.2,0-0.5,0-0.7,0c-0.3,0-0.6,0.1-0.9,0.2c-0.7,0.4-1.4,0.3-2.1-0.1c-0.1-0.1-0.3-0.1-0.5-0.1
			c-0.3,0-0.7,0-1,0c-0.7,0-1.2-0.3-1.5-1c-0.2-0.4-0.4-0.9-0.4-1.4c0-0.2-0.1-0.3-0.2-0.4c-1.8-1.2-2.3-3.5-1.2-5.2
			c0,0,0.1-0.1,0.1-0.1c0.1-0.1,0.2-0.2,0.3-0.1s0.2,0.1,0.2,0.3c0.1,0.7,0.4,1.4,1,1.9C13.8,24.6,14.1,24.8,14.4,24.9z"/>
		<path class="st2" d="M12.8,18.8c-0.1-1,0-1.9,0.2-2.7c0.5-1.7,1.5-3.1,2.9-4.2c0.2-0.2,0.2-0.3,0.1-0.5c-0.2-0.4-0.6-0.7-0.8-1
			c0.1-0.1,0.2,0,0.3,0c0.4,0.2,0.7,0.5,1.1,0.8c0.2,0.1,0.4,0.2,0.7,0.1c1.5-0.7,3.1-0.8,4.7-0.5c0.5,0.1,1,0.3,1.6,0.5
			c0.2,0.1,0.3,0.1,0.5-0.1c0.3-0.3,0.7-0.6,1.1-0.8c0.1-0.1,0.3-0.2,0.4-0.1c-0.3,0.3-0.6,0.6-0.8,0.9c-0.2,0.3-0.2,0.4,0.1,0.7
			c1.9,1.5,3,3.5,3.2,5.9c0,0.3,0,0.7,0,1c-0.3,0.5-0.7,0.7-1.3,0.7c-0.7,0.1-1.4-0.2-2-0.7c-0.5-0.4-1-0.9-1.6-1.4
			c-0.3-0.3-0.7-0.6-1-0.8c-1-0.7-2.3-0.7-3.4,0c-0.5,0.4-1,0.8-1.4,1.2c-0.3,0.3-0.7,0.7-1,1c-0.7,0.5-1.3,0.8-2.1,0.7
			C13.6,19.4,13.2,19.3,12.8,18.8z"/>
		<path class="st3" d="M12.8,18.8c0.3,0.2,0.6,0.4,1,0.5c1,0.2,1.7-0.1,2.4-0.7c0.6-0.5,1.2-1.1,1.8-1.6c0.5-0.4,1-0.8,1.6-1
			c1-0.3,1.9,0,2.7,0.7c0.7,0.6,1.4,1.3,2.1,1.9c0.7,0.7,1.5,1,2.5,0.8c0.4-0.1,0.7-0.3,1-0.5c0,0.2-0.1,0.4-0.1,0.5
			c-0.2,0.3-0.4,0.7-0.6,0.9c-0.6,0.7-1.4,1.1-2.2,1.4c-1,0.3-2,0.5-3,0.6c-1.6,0.1-3.2,0.1-4.7-0.2c-1.3-0.3-2.5-0.7-3.5-1.7
			c-0.3-0.3-0.7-0.7-0.8-1.1C12.9,19.2,12.9,19,12.8,18.8z"/>
		<path class="st4" d="M13,19.3c0.3,0.2,0.4,0.5,0.7,0.8c0.5,0.5,1,0.9,1.6,1.2c1.2,0.6,2.4,0.8,3.8,0.9c1.7,0.1,3.3,0.1,4.9-0.3
			c1.2-0.3,2.3-0.8,3.2-1.7c0.2-0.2,0.3-0.4,0.5-0.7c0-0.1,0.1-0.2,0.2-0.2c-0.3,1.1-1,1.9-1.9,2.5c-1,0.7-2.2,1-3.5,1.1
			c-1.9,0.2-3.7,0.2-5.6-0.3c-1.2-0.3-2.2-0.8-3.1-1.7C13.4,20.4,13.1,19.9,13,19.3z"/>
		<path class="st2" d="M21.8,29.7c-0.1-0.2,0-0.5,0-0.8c0-0.6,0-1.1,0-1.7c0-0.1,0-0.1,0.1,0c0.1,0.1,0,0.2,0.1,0.3
			c0.7-0.7,1.4-1.2,1.9-2c0.3-0.4,0.7-0.9,0.7-1.5c0,0,0-0.1,0-0.1c0.1-0.1,0.2-0.1,0.4-0.2c0.2,0,0.2,0.2,0.2,0.3
			c0.1,0.5,0.1,0.9,0,1.4c-0.1,0.8-0.4,1.6-0.7,2.4c-0.2,0.5-0.4,1-0.7,1.4c-0.1,0.1-0.1,0.2-0.2,0.3c0,0-0.1,0-0.1,0
			c-0.4-0.1-0.9,0-1.3,0.2C21.9,29.8,21.9,29.8,21.8,29.7z"/>
		<path class="st2" d="M18.9,27.8c0,0.7,0,1.3,0,1.9c-0.1,0-0.1,0-0.2,0c-0.4-0.2-0.8-0.2-1.3-0.1c-0.1,0-0.2,0-0.3,0
			c0-0.2-0.1-0.3-0.2-0.5c-0.6-1-1-2.1-1.3-3.3c-0.1-0.5-0.2-1.1-0.1-1.7c0-0.1,0.1-0.3,0.2-0.4c0.1,0.1,0.2,0.1,0.4,0.2
			c0.1,0.1,0.1,0.1,0.1,0.2c0,0.5,0.3,0.8,0.5,1.2c0.5,0.7,1.2,1.3,1.9,2C18.8,27.5,18.9,27.6,18.9,27.8z"/>
		<path class="st4" d="M19.5,28.9c0-0.5,0-1,0-1.6c0-0.2-0.1-0.4-0.3-0.3c-0.1-0.1-0.1-0.2-0.2-0.3c-0.2-0.7-0.5-1.3-1-1.8
			c-0.1-0.2-0.2-0.3-0.4-0.4c-0.1,0-0.1,0-0.1-0.2c0.5,0.1,1.1,0.2,1.6,0.2c0.2,0,0.1,0.1,0.1,0.2c-0.2,0.5-0.1,1,0.3,1.4
			c0.4,0.4,1,0.5,1.5,0.3c0.6-0.3,1-1,0.7-1.7c-0.1-0.3,0-0.3,0.2-0.3c0.4,0,0.8-0.1,1.3-0.2c0,0.1,0,0.1-0.1,0.2
			c-0.5,0.7-1,1.4-1.2,2.2c0,0.1,0,0.1-0.1,0.2c-0.3,0-0.4,0-0.4,0.3c0,0.5,0,1,0,1.5C20.9,29.3,19.8,29.3,19.5,28.9z"/>
		<path class="st3" d="M17.5,24.3c0.7,0.2,0.9,0.8,1.2,1.4c0.2,0.4,0.4,0.8,0.5,1.3c-0.2,0.1-0.2,0.3-0.2,0.5c0,0.1,0,0.2,0,0.4
			c-0.7-0.8-1.6-1.5-2.2-2.4c-0.3-0.4-0.6-0.9-0.5-1.5C16.6,24.1,17,24.2,17.5,24.3z"/>
		<path class="st3" d="M21.7,27c0.1-0.6,0.4-1.1,0.7-1.6c0.2-0.3,0.4-0.7,0.7-1c0.5-0.1,1-0.3,1.5-0.4c0.1,0.4-0.1,0.7-0.3,1.1
			c-0.4,0.7-1,1.3-1.7,1.9c-0.3,0.3-0.5,0.5-0.8,0.8c-0.1-0.2,0-0.3-0.1-0.5C21.8,27.2,21.8,27.1,21.7,27z"/>
		<path class="st5" d="M23.4,29.5c0.7-1.2,1.3-2.4,1.6-3.8c0.1-0.7,0.2-1.3-0.1-2c0,0,0.1-0.1,0.1-0.1c0.4-0.2,0.4-0.2,0.6,0.2
			c0.3,0.7,0.2,1.4,0.1,2.1c-0.3,1.3-0.8,2.4-1.5,3.5c-0.1,0.1-0.1,0.2-0.2,0.3C23.8,29.7,23.6,29.7,23.4,29.5z"/>
		<path class="st5" d="M15.8,23.8c-0.4,1-0.1,2,0.2,3c0.3,0.9,0.7,1.8,1.2,2.5c0.1,0.1,0.1,0.2,0,0.3c-0.1,0.2-0.2,0.3-0.4,0.2
			c-0.5-0.6-0.8-1.3-1.2-2.1c-0.4-0.8-0.7-1.6-0.7-2.5c0-0.5,0-0.9,0.2-1.4c0.2-0.3,0.2-0.3,0.5-0.1C15.7,23.7,15.7,23.7,15.8,23.8z
			"/>
		<path class="st6" d="M24.6,30c0.7-1.1,1.2-2.3,1.6-3.5c0.1-0.2,0.1-0.1,0.2,0c0.4,0.4,0.5,1,0.5,1.5c0,0.4-0.2,0.9-0.4,1.3
			c-0.2,0.4-0.5,0.7-1,0.7C25.2,30,24.9,30,24.6,30z"/>
		<path class="st6" d="M15.7,30c-0.9,0-1.3-0.2-1.6-1.1c-0.2-0.6-0.3-1.2-0.1-1.8c0.1-0.2,0.2-0.4,0.4-0.6c0.1-0.1,0.2-0.2,0.2,0
			c0.3,1.2,0.8,2.3,1.5,3.3c0.1,0.1,0.1,0.2-0.1,0.2C15.9,30,15.8,30,15.7,30z"/>
		<path class="st7" d="M27.2,13.8c-0.5-0.7-1-1.4-1.7-2c-0.4-0.3-0.4-0.3,0-0.7c0.4-0.4,0.8-0.8,1.3-1.1c0.1,0.1,0.1,0.2,0.2,0.3
			c0.2,0.6,0.3,1.3,0.4,1.9c0,0.3,0.1,0.7,0,1C27.4,13.4,27.4,13.6,27.2,13.8z"/>
		<path class="st7" d="M14,10c0.6,0.3,1.1,0.8,1.5,1.3c0.1,0.1,0.1,0.2,0,0.3c-0.8,0.6-1.4,1.4-1.9,2.2c-0.1-0.1-0.2-0.2-0.2-0.3
			c0-1,0.1-2,0.3-3C13.8,10.3,13.8,10.1,14,10z"/>
		<path class="st8" d="M25.5,10.3c-0.4,0.1-0.8,0.4-1.2,0.7c-0.4,0.3-0.7,0.5-1.2,0.2c-1.1-0.5-2.3-0.6-3.6-0.5
			c-0.9,0.1-1.7,0.3-2.5,0.7c-0.1,0.1-0.2,0-0.3,0c-0.4-0.3-0.8-0.7-1.3-1c-0.1-0.1-0.2-0.1-0.3-0.1c-0.3-0.2-0.6-0.5-0.9-0.7
			c0.3,0,0.5,0.2,0.8,0.3c0.5,0.3,1,0.7,1.5,1.1c0.2,0.2,0.3,0.2,0.5,0.1c2.1-1,4.2-1,6.4,0c0.2,0.1,0.3,0.1,0.5-0.1
			c0.7-0.6,1.3-1,2-1.4c0.1,0,0.2-0.1,0.3-0.1c0,0,0,0,0.1,0C26.1,9.8,25.8,10.1,25.5,10.3z"/>
		<path class="st6" d="M12.1,23.7c0-0.2,0.1-0.3,0.2-0.5c0.2,0.6,0.5,1.1,1,1.5c0.3,0.3,0.7,0.5,1,0.7c0.3,0.1,0.3,0.3,0,0.4
			c-0.3,0.2-0.4,0.4-0.6,0.7c-0.1,0-0.2-0.1-0.3-0.1c-0.7-0.5-1.1-1.2-1.3-2C12,24.1,12,23.9,12.1,23.7z"/>
		<path class="st9" d="M14,10c-0.4,1.1-0.5,2.2-0.5,3.4c0,0.1,0,0.2,0.1,0.4c-0.1,0.3-0.3,0.5-0.4,0.8C13,14.4,13,14.1,13,13.9
			c-0.1-1.1-0.1-2.2,0.3-3.3c0-0.1,0.1-0.3,0.1-0.4C13.5,9.7,13.5,9.7,14,10z"/>
		<path class="st9" d="M27.2,13.8c0.1-1,0-2-0.2-3c-0.1-0.3-0.2-0.5-0.2-0.8l0,0c0.4-0.2,0.4-0.2,0.5,0.2c0.3,0.8,0.4,1.6,0.5,2.5
			c0,0.6,0,1.2-0.1,1.8c0,0.1,0,0.1-0.1,0.2C27.5,14.3,27.4,14.1,27.2,13.8z"/>
		<path class="st10" d="M19.5,28.9c0.6,0.3,1.2,0.3,1.8,0c0,0.3,0,0.6,0,0.9c0,0.2,0,0.2-0.2,0.2c-0.5,0-1,0-1.5,0
			c-0.1,0-0.2,0-0.2-0.2C19.5,29.5,19.5,29.2,19.5,28.9z"/>
		<path class="st4" d="M12.1,23.7c0.1,1.2,0.6,2.1,1.6,2.8c-0.1,0.2-0.1,0.3-0.2,0.5c0,0.1-0.1,0.2-0.2,0.1
			C12.3,26.3,11.7,25,12.1,23.7z"/>
		<path class="st11" d="M20.1,26.1c-0.5-0.2-0.7-0.7-0.5-1.1c0.2-0.4,0.7-0.6,1.2-0.3C21.2,25.1,20.9,26.1,20.1,26.1z"/>
		<path class="st12" d="M15.6,23c0-0.2,0-0.2,0.2-0.2c1.1,0.4,2.2,0.6,3.4,0.7c0.3,0,0.4,0,0.3,0.4c0,0.3-0.2,0.1-0.4,0.2
			c0,0-0.1,0-0.1,0c0-0.1,0.1-0.1,0.1-0.1C18,23.9,16.7,23.6,15.6,23z"/>
		<path class="st12" d="M21.7,24.1c-0.4,0.1-0.5,0.1-0.5-0.3c0-0.2,0.1-0.2,0.3-0.2c0.9,0,1.8-0.2,2.6-0.4c0.3-0.1,0.6-0.2,0.9-0.3
			c0.1,0,0.2-0.1,0.2,0.1c-0.2,0.2-0.5,0.3-0.7,0.4c-0.9,0.3-1.8,0.5-2.7,0.6C21.7,24,21.6,23.9,21.7,24.1
			C21.6,24,21.7,24.1,21.7,24.1z"/>
		<path class="st13" d="M17.4,29.5c0.5-0.1,1-0.1,1.6,0.2c0,0.3-0.1,0.5-0.4,0.6c-0.3,0-0.6,0-0.9,0l0,0c0-0.1,0.1-0.1,0.2-0.1
			c-0.1-0.1-0.3-0.2-0.4-0.4C17.4,29.7,17.3,29.6,17.4,29.5z"/>
		<path class="st14" d="M21.8,29.7c0.5-0.3,1-0.3,1.5-0.2c0.1,0.1,0,0.2,0,0.3c-0.1,0.2-0.3,0.4-0.5,0.5c-0.2,0.1-0.4,0-0.6,0
			C22,30.3,21.8,30.1,21.8,29.7z"/>
		<path class="st15" d="M21.7,24.1c-0.1,0-0.4,0.1-0.4-0.1c0-0.2,0.2-0.1,0.3-0.1c0.9-0.1,1.8-0.3,2.6-0.5c0.3-0.1,0.6-0.3,0.9-0.4
			c0,0.2-0.1,0.2-0.2,0.3c-0.8,0.4-1.8,0.7-2.7,0.8C22,24,21.8,24.1,21.7,24.1z"/>
		<path class="st16" d="M15.6,23c0.1-0.1,0.2,0,0.3,0.1c1,0.5,2,0.7,3,0.8c0.2,0,0.3,0,0.5,0.1c0.1,0,0.1,0,0.1,0.1
			c0,0.1-0.1,0.1-0.1,0.1c-0.1,0-0.2,0-0.3,0c-1.2-0.1-2.2-0.3-3.3-0.9C15.7,23.2,15.6,23.1,15.6,23z"/>
		<path class="st17" d="M22.2,30.4c0.6,0.1,0.8-0.4,1.1-0.7c0,0,0-0.1,0-0.1c0,0,0.1,0,0.1,0c0.2,0.1,0.4,0.1,0.5,0.3
			C23.6,30.4,22.9,30.5,22.2,30.4z"/>
		<path class="st18" d="M17.4,29.5c0.1,0.3,0.4,0.5,0.6,0.7c-0.1,0.1-0.3,0-0.4,0.1c-0.4,0-0.6-0.3-0.8-0.6c0.1-0.1,0.3-0.2,0.4-0.2
			C17.2,29.5,17.3,29.5,17.4,29.5z"/>
		<path class="st19" d="M20.1,26.1c0.7-0.3,0.8-0.5,0.7-1.5c0.4,0.3,0.5,0.7,0.3,1C20.9,26,20.6,26.2,20.1,26.1z"/>
		<path class="st20" d="M20.4,24c-0.2,0-0.3,0.1-0.3-0.2c0-0.3,0.1-0.2,0.3-0.2s0.3-0.1,0.3,0.2C20.7,24.1,20.5,24,20.4,24z"/>
		<path class="st18" d="M17.6,30.4c0.3,0,0.6,0,0.9,0C18.2,30.4,17.9,30.4,17.6,30.4z"/>
		<path class="st1" d="M15.3,16.2c0-0.6,0.4-1.1,1-1.1c0.6,0,1.2,0.4,1.2,1c0,0.4-0.1,0.7-0.4,0.8c-0.4,0.2-0.9,0.3-1.3,0.2
			C15.5,16.9,15.3,16.6,15.3,16.2z"/>
		<path class="st1" d="M24.5,17c-0.2,0-0.4,0-0.7-0.1c-0.5-0.2-0.7-0.6-0.5-1.2c0.2-0.5,0.7-0.8,1.3-0.7c0.5,0.1,1,0.6,0.9,1.2
			C25.5,16.8,25.2,17,24.5,17z"/>
		<path class="st21" d="M18.1,13.9c0,0.4-0.3,0.7-0.8,0.7c0,0-0.1,0-0.1,0c-0.5-0.1-0.8-0.3-0.7-0.7c0-0.4,0.5-0.8,1-0.7
			C17.8,13.1,18.1,13.4,18.1,13.9z"/>
		<path class="st21" d="M22.6,13.9c0-0.4,0.3-0.7,0.7-0.8c0.5,0,1,0.4,1,0.8c0,0.2-0.1,0.4-0.2,0.5c-0.3,0.2-0.7,0.2-1.1,0.1
			C22.7,14.3,22.6,14.1,22.6,13.9z"/>
		<path class="st1" d="M19.1,17.1c0.4-0.6,1-0.6,1.6-0.5c0.1,0,0.3,0,0.4,0.1c0.5,0.2,0.7,0.4,0.7,0.9c0,0.4-0.3,0.7-0.6,0.9
			c-0.2,0.1-0.2,0.1,0,0.4c0.4,0.2,0.7,0.2,1-0.2c0.1-0.1,0.2-0.3,0.3-0.4c0.1-0.2,0.2-0.2,0.3-0.1c0.1,0.1,0.2,0.2,0.1,0.3
			c-0.2,0.4-0.4,0.7-0.7,0.9c-0.1,0.1-0.2,0.1-0.2,0.3c-0.1,0.5-0.3,0.9-0.6,1.2c-0.5,0.5-1.2,0.5-1.7,0c-0.3-0.3-0.5-0.7-0.6-1.2
			c0-0.1-0.1-0.2-0.2-0.3c-0.3-0.2-0.5-0.5-0.7-0.8c-0.1-0.1,0-0.3,0.1-0.3c0.1-0.1,0.3,0,0.3,0.1c0.1,0.2,0.2,0.3,0.3,0.4
			c0.3,0.4,0.7,0.4,1,0.1c0.1-0.2,0-0.2-0.1-0.3C19.2,18.1,18.9,17.7,19.1,17.1z"/>
		<path class="st22" d="M19.1,17.1c-0.1,0.8,0.4,1.2,1,1.4c-0.1,0.1-0.2,0.2-0.3,0.2C19,18.3,18.9,17.8,19.1,17.1z"/>
		<path class="st23" d="M21.1,18.8c-0.1,0-0.2-0.1-0.4-0.3c0.6-0.1,0.9-0.5,1.1-1c0.1,0.2,0,0.4-0.1,0.7c-0.1,0.2-0.3,0.3-0.5,0.5
			C21.1,18.7,21,18.7,21.1,18.8z"/>
		<path class="st24" d="M16.6,15.4c0.2,0,0.3,0.1,0.3,0.3c0,0.2-0.1,0.4-0.3,0.4c-0.2,0-0.4-0.2-0.4-0.4S16.3,15.4,16.6,15.4z"/>
		<path class="st25" d="M24.6,15.8c0,0.2-0.1,0.3-0.3,0.3c-0.2,0-0.4-0.2-0.4-0.4s0.1-0.3,0.3-0.4C24.4,15.4,24.6,15.6,24.6,15.8z"
			/>
		<path class="st26" d="M20.4,17.5c-0.2,0-0.4,0-0.6-0.1c-0.3-0.1-0.3-0.3,0-0.5c0.3-0.2,1-0.2,1.3,0c0.2,0.1,0.2,0.3,0,0.4
			C20.8,17.5,20.6,17.5,20.4,17.5z"/>
		<path class="st27" d="M21,20.2c-0.3,0.5-0.9,0.5-1.2,0c0-0.1,0.1-0.1,0.2-0.2C20.3,19.9,20.8,20,21,20.2z"/>
		<path class="st28" d="M21,20.2c-0.4-0.1-0.8-0.2-1.2,0c-0.1-0.1-0.2-0.2,0-0.2c0.4-0.1,0.8-0.1,1.2,0C21.2,20,21.1,20.1,21,20.2z"
			/>
	</g>
</g>
</svg>
