<svg xmlns="http://www.w3.org/2000/svg" viewBox="0 0 40 40"><linearGradient id="a" gradientUnits="userSpaceOnUse" x1="167.417" y1="-1117.324" x2="204.709" y2="-1117.324" gradientTransform="rotate(90 -465.568 -631.61)"><stop offset=".001" stop-color="#ff5000"/><stop offset="1" stop-color="#662d91"/></linearGradient><path d="M37.1 26.3V13.7c0-2.1-1.1-4.1-3-5.2l-11-6.3c-1.9-1.1-4.1-1.1-6 0l-11 6.3c-1.9 1.1-3 3.1-3 5.2v12.6c0 2.1 1.1 4.1 3 5.2l11 6.3c1.9 1.1 4.1 1.1 6 0l11-6.3c1.8-1.1 3-3 3-5.2z" fill="url(#a)"/><path fill="#d8d8d8" d="M24.7 24.1h-8.6l-6.3 3.6 21-.1z"/><path fill="#fff" d="M20.4 16.9V9.6L9.8 27.7l6.3-3.6z"/><path fill="#f0f0f0" d="M24.7 24.1l6.1 3.5-10.4-18V17z"/></svg>