<svg version="1.1" id="Layer_1" xmlns="http://www.w3.org/2000/svg" x="0" y="0" viewBox="0 0 40 40" xml:space="preserve"><style>.st1{fill:#fff;stroke:#fff}</style><linearGradient id="SVGID_1_" gradientUnits="userSpaceOnUse" x1="-12.683" y1="-547.178" x2="24.609" y2="-547.178" gradientTransform="rotate(90 -270.568 -256.61)"><stop offset=".001" stop-color="#fef20d"/><stop offset="1" stop-color="#f3ba2f"/></linearGradient><path d="M37 26.2V13.6c0-2.1-1.1-4.1-3-5.2L23 2.1c-1.9-1.1-4.1-1.1-6 0L6 8.4c-1.9 1.1-3 3.1-3 5.2v12.6c0 2.1 1.1 4.1 3 5.2l11 6.3c1.9 1.1 4.1 1.1 6 0l11-6.3c1.8-1.1 3-3 3-5.2z" fill="url(#SVGID_1_)"/><g id="Layer_2_1_"><g id="Layer_1-2_1_"><path class="st1" d="M20 9.4l2.6 2.7-6.5 6.5-2.6-2.6L20 9.4zM23.9 13.3l2.6 2.7-10.4 10.4-2.6-2.5 10.4-10.6zM12.1 17.3l2.6 2.7-2.6 2.6L9.5 20l2.6-2.7zM27.9 17.3l2.6 2.7L20 30.4l-2.6-2.6 10.5-10.5z"/></g></g></svg>