<?xml version="1.0" encoding="utf-8"?>
<!-- Generator: Adobe Illustrator 22.0.0, SVG Export Plug-In . SVG Version: 6.00 Build 0)  -->
<svg version="1.1" id="Layer_1" xmlns="http://www.w3.org/2000/svg" xmlns:xlink="http://www.w3.org/1999/xlink" x="0px" y="0px"
	 viewBox="0 0 40 40" style="enable-background:new 0 0 40 40;" xml:space="preserve">
<style type="text/css">
	.st0{fill:url(#SVGID_1_);}
	.st1{fill:#FFFFFF;}
</style>
<linearGradient id="SVGID_1_" gradientUnits="userSpaceOnUse" x1="-92.5831" y1="-639.1784" x2="-55.2914" y2="-639.1784" gradientTransform="matrix(0 1 -1 0 -619.1784 93.9581)">
	<stop  offset="0" style="stop-color:#FEF200"/>
	<stop  offset="1" style="stop-color:#F3BA2F"/>
</linearGradient>
<path class="st0" d="M37,26.3V13.7c0-2.1-1.1-4.1-3-5.2L23,2.2c-1.9-1.1-4.1-1.1-6,0L6,8.5c-1.9,1.1-3,3.1-3,5.2v12.6
	c0,2.1,1.1,4.1,3,5.2l11,6.3c1.9,1.1,4.1,1.1,6,0l11-6.3C35.8,30.4,37,28.5,37,26.3z"/>
<path class="st1" d="M13.9,12L20,8.4l6.1,3.5l-2.3,1.3L20,11.1l-3.9,2.2L13.9,12z M26.1,16.4l-2.3-1.3L20,17.4l-3.9-2.2l-2.3,1.3
	v2.6l3.9,2.2v4.5l2.3,1.3l2.3-1.3v-4.5l3.9-2.2V16.4z M26.1,23.5v-2.6l-2.3,1.3v2.6L26.1,23.5z M27.7,24.5l-3.9,2.2v2.6l6.1-3.5
	v-7.1L27.7,20V24.5z M25.5,14.2l2.3,1.3v2.6l2.3-1.3v-2.6l-2.3-1.3L25.5,14.2z M17.7,27.6v2.6l2.3,1.3l2.3-1.3v-2.6L20,28.9
	L17.7,27.6z M13.9,23.5l2.3,1.3v-2.6l-2.3-1.3V23.5z M17.7,14.2l2.3,1.3l2.3-1.3L20,12.9L17.7,14.2z M12.3,15.5l2.3-1.3l-2.3-1.3
	L10,14.2v2.6l2.3,1.3V15.5z M12.3,20L10,18.7v7.1l6.1,3.5v-2.6l-3.9-2.2V20z"/>
</svg>
