<svg xmlns="http://www.w3.org/2000/svg" viewBox="0 0 40 40"><linearGradient id="a" gradientUnits="userSpaceOnUse" x1="-102.583" y1="679.178" x2="-65.291" y2="679.178" gradientTransform="matrix(0 1 1 0 -659.178 103.958)"><stop offset=".001" stop-color="#008dbb"/><stop offset="1" stop-color="#002a8f"/></linearGradient><path d="M37 26.3V13.7c0-2.1-1.1-4.1-3-5.2L23 2.2c-1.9-1.1-4.1-1.1-6 0L6 8.5c-1.9 1.1-3 3.1-3 5.2v12.6c0 2.1 1.1 4.1 3 5.2l11 6.3c1.9 1.1 4.1 1.1 6 0l11-6.3c1.8-1.1 3-3 3-5.2z" fill="url(#a)"/><path d="M20 9.5l-1.9 1.1-5.2 3-1.9 1.1v10.5l1.9 1.1 5.3 3 1.9 1.1 1.9-1.1 5.2-3 1.9-1.1V14.8l-1.9-1.1-5.2-3-2-1.2zM14.8 23v-6l5.2-3 5.2 3v6L20 26l-5.2-3z" fill="#fff"/></svg>