<?xml version="1.0" encoding="utf-8"?>
<!-- Generator: Adobe Illustrator 22.0.0, SVG Export Plug-In . SVG Version: 6.00 Build 0)  -->
<svg version="1.1" id="Layer_1" xmlns="http://www.w3.org/2000/svg" xmlns:xlink="http://www.w3.org/1999/xlink" x="0px" y="0px"
	 viewBox="0 0 40 40" style="enable-background:new 0 0 40 40;" xml:space="preserve">
<style type="text/css">
	.st0{fill:url(#SVGID_1_);}
	.st1{fill:#FFFFFF;}
</style>
<linearGradient id="SVGID_1_" gradientUnits="userSpaceOnUse" x1="474.5669" y1="-2347.1785" x2="437.2752" y2="-2347.1785" gradientTransform="matrix(0 1 -1 0 -2327.1785 -436.0419)">
	<stop  offset="0" style="stop-color:#0AA363"/>
	<stop  offset="1" style="stop-color:#35DDA0"/>
</linearGradient>
<path class="st0" d="M37,26.2V13.6c0-2.1-1.1-4.1-3-5.2L23,2.1c-1.9-1.1-4.1-1.1-6,0L6,8.4c-1.9,1.1-3,3.1-3,5.2v12.6
	c0,2.1,1.1,4.1,3,5.2l11,6.3c1.9,1.1,4.1,1.1,6,0l11-6.3C35.8,30.3,37,28.4,37,26.2z"/>
<title>Asset 1</title>
<path class="st1" d="M11.1,26.5H10v-2.8H9v-0.8h3v0.8h-0.9V26.5z M15.1,22.8c1.1,0,1.8,0.7,1.8,1.9c0,1.2-0.7,1.9-1.8,1.9
	c-1.1,0-1.8-0.7-1.8-1.9C13.3,23.5,14,22.8,15.1,22.8z M15.1,23.7c-0.4,0-0.7,0.4-0.7,1c0,0.6,0.3,1,0.7,1s0.7-0.4,0.7-1
	C15.9,24.1,15.6,23.7,15.1,23.7z M19.6,26.5h-1.1v-3.6h1.1v1.5h0l1.1-1.5h1.1l-1.2,1.6l1.2,2h-1.2l-0.8-1.3l-0.3,0.4V26.5z
	 M25.9,25.6v0.8h-2.5v-3.6h2.5v0.8h-1.5v0.6h1.4v0.8h-1.4v0.6H25.9z M28.6,26.5h-1v-3.6h0.8l1.4,1.9h0v-1.9h1v3.6H30l-1.4-1.9h0
	V26.5z"/>
<path class="st1" d="M10.7,19.5H9v-6.2h1.4l2.4,3.2h0v-3.2h1.7v6.2h-1.4l-2.4-3.3h0V19.5z M18.7,13.3c1.9,0,3.1,1.2,3.1,3.2
	s-1.2,3.2-3.1,3.2c-1.9,0-3.1-1.2-3.1-3.2S16.7,13.3,18.7,13.3z M18.7,14.7c-0.8,0-1.3,0.7-1.3,1.8c0,1.1,0.5,1.7,1.3,1.7
	s1.3-0.7,1.3-1.7C19.9,15.4,19.4,14.7,18.7,14.7z M26.7,16l-0.9,3.5h-1.7l-1.6-6.2h1.9l0.7,3.9h0l0.9-3.9h1.4l0.9,3.9h0l0.7-3.9H31
	l-1.6,6.2h-1.7L26.7,16L26.7,16z"/>
</svg>
