<svg xmlns="http://www.w3.org/2000/svg" viewBox="0 0 40 40"><linearGradient id="a" gradientUnits="userSpaceOnUse" x1="-12.483" y1="-547.178" x2="24.809" y2="-547.178" gradientTransform="rotate(90 -270.568 -256.61)"><stop offset="0" stop-color="#13e5a4"/><stop offset=".999" stop-color="#3d9e6e"/></linearGradient><path d="M37 26.4V13.8c0-2.1-1.1-4.1-3-5.2L23 2.3c-1.9-1.1-4.1-1.1-6 0L6 8.6c-1.9 1.1-3 3.1-3 5.2v12.6c0 2.1 1.1 4.1 3 5.2l11 6.3c1.9 1.1 4.1 1.1 6 0l11-6.3c1.8-1.1 3-3 3-5.2z" fill="url(#a)"/><path d="M12.6 25.9c-.5-.3-.9-.9-.9-1.5V21c0-.1 0-.3.1-.4.2-.3.7-.5 1-.3l7.7 4.5c.5.3.7.7.7 1.3v3.5c0 .2 0 .3-.1.5-.3.4-.8.6-1.2.3l-7.3-4.5zm11.6-6.5c.5.3.7.7.7 1.3v7.2c0 .2-.1.4-.3.5l-1.7.9h-.1v-4c0-.5-.3-1-.7-1.3l-6.8-4.1v-4.6c0-.1 0-.3.1-.4.2-.3.7-.5 1-.3l7.8 4.8zm3.3-5.3c.5.3.7.7.7 1.3v10.5c0 .2-.1.4-.3.5l-1.6.9V20c0-.5-.3-1-.7-1.3l-6.9-4.2v-4.3c0-.1 0-.3.1-.4.2-.3.7-.5 1-.3l7.7 4.6z" fill="#fff"/></svg>