<?xml version="1.0" encoding="utf-8"?>
<!-- Generator: Adobe Illustrator 22.0.0, SVG Export Plug-In . SVG Version: 6.00 Build 0)  -->
<svg version="1.1" id="Layer_1" xmlns="http://www.w3.org/2000/svg" xmlns:xlink="http://www.w3.org/1999/xlink" x="0px" y="0px"
	 viewBox="0 0 40 40" style="enable-background:new 0 0 40 40;" xml:space="preserve">
<style type="text/css">
	.st0{fill:url(#SVGID_1_);}
	.st1{fill:#FFFFFF;}
</style>
<linearGradient id="SVGID_1_" gradientUnits="userSpaceOnUse" x1="20" y1="18.625" x2="20" y2="-18.625" gradientTransform="matrix(1 0 0 1 0 20)">
	<stop  offset="0" style="stop-color:#001245"/>
	<stop  offset="0.3007" style="stop-color:#071E54"/>
	<stop  offset="0.8761" style="stop-color:#1A3E7B"/>
	<stop  offset="1" style="stop-color:#1F4684"/>
</linearGradient>
<path class="st0" d="M37,26.3V13.7c0-2.1-1.1-4.1-3-5.2L23,2.2c-1.9-1.1-4.1-1.1-6,0L6,8.5c-1.9,1.1-3,3.1-3,5.2v12.6
	c0,2.1,1.1,4.1,3,5.2l11,6.3c1.9,1.1,4.1,1.1,6,0l11-6.3C35.8,30.4,37,28.5,37,26.3z"/>
<title>Asset 1</title>
<g>
	<g>
		<path class="st1" d="M20,8L9.6,14v12L20,32l10.4-6V14L20,8z M27.3,24.2L20,28.4l-7.3-4.2v-8.4l7.3-4.2l7.3,4.2V24.2z"/>
		<path class="st1" d="M24.9,22.8L20,25.6l-4.9-2.8v-5.6l4.9-2.8l4.9,2.8l-2,1.2L20,16.7l-2.8,1.6v3.3l2.8,1.6l2.8-1.6L24.9,22.8z"
			/>
	</g>
</g>
</svg>
