<svg xmlns="http://www.w3.org/2000/svg" viewBox="0 0 40 40"><linearGradient id="a" gradientUnits="userSpaceOnUse" x1="-12.546" y1="-547.178" x2="24.746" y2="-547.178" gradientTransform="rotate(90 -270.568 -256.61)"><stop offset=".001" stop-color="#fbcb4e"/><stop offset="1" stop-color="#f38f21"/></linearGradient><path d="M37 26.3V13.7c0-2.1-1.1-4.1-3-5.2L23 2.2c-1.9-1.1-4.1-1.1-6 0L6 8.5c-1.9 1.1-3 3.1-3 5.2v12.6c0 2.1 1.1 4.1 3 5.2l11 6.3c1.9 1.1 4.1 1.1 6 0l11-6.3c1.8-1.1 3-3 3-5.2z" fill="url(#a)"/><path d="M21.7 21.1h5.8c.1 0 .2 0 .2-.2.1-.6.1-1.2 0-1.8 0-.1-.1-.2-.2-.2H15.9c-.2 0-.2.1-.2.2v1.7c0 .2 0 .2.3.2l5.7.1zm5.4-4.1c-.1-.3-.2-.5-.4-.7-.2-.4-.4-.6-.7-.9-.1-.2-.3-.3-.4-.4-.8-.7-1.8-1.3-2.9-1.4-.5-.1-1.1-.2-1.6-.2h-5.2c-.2 0-.2.1-.2.2V17c0 .2 0 .2.2.2l11.2-.2c-.1 0 0 0 0 0zm0 6.1H15.9c-.2 0-.2 0-.2.2v3.3c0 .2 0 .2.2.2h4.9c.3 0 .4 0 .7-.1.7-.1 1.4-.2 2.1-.4.3-.1.4-.2.7-.4h.1c1.1-.7 2-1.6 2.7-2.8 0 .2.1 0 0 0zm-13.3 5.4v-5.2c0-.1 0-.2-.2-.2h-2.1c-.1 0-.2 0-.2-.2v-1.8h2.2c.1 0 .2 0 .2-.2v-1.8c0-.1 0-.2-.2-.2h-2.1c-.1 0-.2 0-.2-.2V17c0-.1 0-.1.2-.1h2.1c.2 0 .2 0 .2-.2v-5.2c0-.2 0-.2.2-.2h7.2c.5 0 1.1.1 1.5.2 1.1.2 2.1.5 3 1.1.6.4 1.2.8 1.7 1.3.4.4.7.8 1 1.3.3.4.5 1 .7 1.4 0 .1.2.3.3.2H31c.2 0 .2 0 .3.2v1.6c0 .2-.1.2-.2.2h-1.3c-.1 0-.2 0-.2.2.1.6.1 1.2 0 1.8 0 .2 0 .2.2.2h1.5c.1.1 0 .2 0 .3v1.6c0 .2-.1.2-.2.2h-1.8c-.1 0-.3.1-.3.2-.4 1.2-1.2 2.1-2.1 3-.4.3-.6.5-1 .8-.4.2-.7.4-1.2.6-.7.4-1.5.5-2.2.7-.7.1-1.5.2-2.2.2l-6.5-.1z" fill="#fefefd"/></svg>