<svg version="1.1" id="Layer_1" xmlns="http://www.w3.org/2000/svg" x="0" y="0" viewBox="0 0 40 40" xml:space="preserve"><style>.st1{fill:#fff}</style><linearGradient id="SVGID_1_" gradientUnits="userSpaceOnUse" x1="177.417" y1="-1119.178" x2="214.709" y2="-1119.178" gradientTransform="rotate(90 -461.568 -637.61)"><stop offset="0" stop-color="#565a81"/><stop offset=".913" stop-color="#242447"/></linearGradient><path d="M37 26.3V13.7c0-2.1-1.1-4.1-3-5.2L23 2.2c-1.9-1.1-4.1-1.1-6 0L6 8.5c-1.9 1.1-3 3.1-3 5.2v12.6c0 2.1 1.1 4.1 3 5.2l11 6.3c1.9 1.1 4.1 1.1 6 0l11-6.3c1.8-1.1 3-3 3-5.2z" fill="url(#SVGID_1_)"/><path class="st1" d="M14.3 20.2l1 .6 5.1 3 6.2-3.6L20.4 10z"/><path class="st1" d="M26.6 21.4L20.4 25l-6.1-3.6 6.1 8.6z"/></svg>