<svg xmlns="http://www.w3.org/2000/svg" viewBox="0 0 40 40"><linearGradient id="a" gradientUnits="userSpaceOnUse" x1="-92.583" y1="681.178" x2="-55.291" y2="681.178" gradientTransform="matrix(0 1 1 0 -661.178 93.958)"><stop offset="0" stop-color="#00a5bd"/><stop offset="1" stop-color="#005e78"/></linearGradient><path d="M37 26.3V13.7c0-2.1-1.1-4.1-3-5.2L23 2.2c-1.9-1.1-4.1-1.1-6 0L6 8.5c-1.9 1.1-3 3.1-3 5.2v12.6c0 2.1 1.1 4.1 3 5.2l11 6.3c1.9 1.1 4.1 1.1 6 0l11-6.3c1.8-1.1 3-3 3-5.2z" fill="url(#a)"/><path d="M29.5 24.5c.4-.9.7-1.9.9-2.9.1-.5.1-1 .1-1.5 0-1.2-.2-2.4-.6-3.5-.5-1.3-1.2-2.5-2.1-3.6l-.1-.1c-.9-.9-2-1.7-3.2-2.3-1-.5-2.1-.8-3.2-.9-.4 0-.8-.1-1.2-.1-1.2 0-2.4.2-3.5.6-1.2.4-2.3 1.1-3.3 1.9-1.2 1-2.1 2.3-2.8 3.7-.4.9-.7 1.8-.8 2.7-.1.5-.1 1.1-.1 1.6 0 1.3.3 2.6.7 3.8 0 .1.1.2.1.3.2.4.3.7.5 1.1v.1c0 .1.1.1.1.2 1.8 3.1 5.2 5.1 9 5.1 2.2 0 4.2-.7 5.9-1.8 1.5-1.3 2.8-2.7 3.6-4.4zM10.2 20c0-5.4 4.4-9.8 9.8-9.8 1.5 0 3 .4 4.3 1-.3 0-.6-.1-.8 0-.8.2-1.3.9-1.4 1.6 0 0 0 .1.1.1s.1 0 .1-.1c.1-.3.3-.6.6-.7.4-.3.9-.3 1.3-.1.4.2.7.6.7 1.1 0 .7-.3 1.3-.7 1.8-.4.6-.9 1.1-1.4 1.6-.1.1-.1.1-.2 0-1.5-.8-3-.9-4.5-.3-1.4.6-2.3 1.7-2.5 3.2-.2 1.7.6 3.1 1.9 3.8 0 0 .1 0 .1.1l-.3.3c-.4.4-.8.7-1.1 1.2-.2.3-.4.6-.4.9-.1.4 0 .7.3 1 .2.2.5.4.7.5.1 0 .1.1 0 .2-.4.4-.8.8-1.1 1.2-3.3-1.5-5.5-4.8-5.5-8.6zm12 .4c0 .6-.1 1.2-.3 1.7-.6 1.3-2.3 1.6-3.3.5-.5-.5-.7-1.1-.8-1.8-.2-.9-.2-1.7 0-2.6.2-.7.6-1.3 1.3-1.6.8-.3 1.6 0 2.1.6s.8 1.3.9 2.1c.1.4.1.7.1 1.1zM20 29.8c-1.3 0-2.5-.2-3.6-.7.1-.3.3-.6.5-.9.1-.2.3-.4.4-.5.1-.1.1-.1.2-.1 1.5.2 3 .2 4.5.3.6 0 1.3.1 1.9.2.3.1.6.2.7.5-1.3.7-2.9 1.2-4.6 1.2zm3.3-3.8c-.8-.1-1.7-.1-2.6-.2-.8 0-1.5 0-2.3-.1-.2 0-.5-.1-.7-.2-.3-.1-.5-.4-.4-.8.1-.5.5-.8.8-1.1.1-.1.1 0 .2 0 1.1.3 2.1.3 3.2 0 1.4-.4 2.4-1.4 2.7-2.9.2-.9.1-1.8-.4-2.7 0 0-.1-.1 0-.1h1.5c.1 0 .2 0 .2-.2.1-.4.3-.9.4-1.3 0 0 .1-.1 0-.2-.1 0-.1 0-.2.1-.2.3-.5.4-.9.4h-2c.2-.3.5-.5.7-.7.4-.5.9-1 1.3-1.5.3-.4.5-.8.6-1.2.2-.7.1-1.2-.4-1.8 2.8 1.7 4.6 4.8 4.6 8.3 0 3.3-1.6 6.1-4.1 7.9-.2-1-1-1.5-2.2-1.7z" fill="#fff"/></svg>