<svg width="769" height="769" viewBox="0 0 769 769" fill="none" xmlns="http://www.w3.org/2000/svg">
<path d="M711.326 505.618V263.383C711.337 243.123 706.012 223.217 695.887 205.668C685.763 188.118 671.196 173.545 653.651 163.413L442.176 42.2953C424.729 31.9142 404.803 26.4346 384.501 26.4346C364.199 26.4346 344.273 31.9142 326.826 42.2953L115.351 163.413C97.806 173.545 83.2387 188.118 73.1142 205.668C62.9897 223.217 57.665 243.123 57.6758 263.383V505.618C57.665 525.878 62.9897 545.784 73.1142 563.333C83.2387 580.882 97.806 595.456 115.351 605.588L326.826 726.705C344.273 737.086 364.199 742.566 384.501 742.566C404.803 742.566 424.729 737.086 442.176 726.705L653.651 605.588C671.078 595.323 685.55 580.72 695.658 563.201C705.765 545.681 711.163 525.843 711.326 505.618Z" fill="url(#paint0_linear_251_134)"/>
<path d="M552.486 280.426C546.757 275.91 539.927 269.74 527.478 268.198C515.8 266.655 503.902 274.477 495.86 279.655C487.818 284.833 472.614 300.036 466.335 304.663C460.055 309.29 443.971 313.587 418.081 329.121C392.192 344.654 290.617 409.874 290.617 409.874L317.057 410.204L199.178 470.907H210.966L194 483.796C194 483.796 208.983 487.762 221.542 479.83V483.466C221.542 483.466 361.896 428.162 388.997 442.483L372.472 447.331C373.904 447.331 400.565 449.093 400.565 449.093C401.212 454.614 403.067 459.925 406 464.647C408.932 469.369 412.869 473.387 417.531 476.415C433.615 486.991 433.946 492.83 433.946 492.83C433.946 492.83 425.573 496.245 425.573 500.542C425.573 500.542 437.912 496.796 449.369 497.127C456.641 497.402 463.853 498.549 470.852 500.542C470.852 500.542 469.97 495.915 458.843 492.83C447.717 489.745 436.7 477.627 431.301 471.017C427.995 466.809 425.84 461.814 425.048 456.522C424.256 451.229 424.855 445.822 426.785 440.831C430.64 430.806 444.081 425.297 471.843 410.975C504.563 394.009 512.055 381.45 516.682 371.645C521.309 361.84 528.139 342.341 531.995 333.197C536.842 321.409 542.791 315.129 547.749 311.384C552.706 307.638 574.74 299.375 574.74 299.375C574.74 299.375 557.884 284.723 552.486 280.426Z" fill="white"/>
<defs>
<linearGradient id="paint0_linear_251_134" x1="384.501" y1="880.555" x2="384.501" y2="147.133" gradientUnits="userSpaceOnUse">
<stop/>
<stop offset="1" stop-color="#1F1B22"/>
</linearGradient>
</defs>
</svg>
