<?xml version="1.0" encoding="utf-8"?>
<!-- Generator: Adobe Illustrator 22.0.0, SVG Export Plug-In . SVG Version: 6.00 Build 0)  -->
<svg version="1.1" id="Layer_1" xmlns="http://www.w3.org/2000/svg" xmlns:xlink="http://www.w3.org/1999/xlink" x="0px" y="0px"
	 viewBox="0 0 40 40" style="enable-background:new 0 0 40 40;" xml:space="preserve">
<style type="text/css">
	.st0{fill:url(#SVGID_1_);}
	.st1{fill:#FFFFFF;}
</style>
<linearGradient id="SVGID_1_" gradientUnits="userSpaceOnUse" x1="1157.4169" y1="3787.1785" x2="1194.7087" y2="3787.1785" gradientTransform="matrix(0 1 1 0 -3767.1785 -1156.0419)">
	<stop  offset="1.198744e-03" style="stop-color:#31CB9E"/>
	<stop  offset="1" style="stop-color:#285A55"/>
</linearGradient>
<path class="st0" d="M37,26.3V13.7c0-2.1-1.1-4.1-3-5.2L23,2.2c-1.9-1.1-4.1-1.1-6,0L6,8.5c-1.9,1.1-3,3.1-3,5.2v12.6
	c0,2.1,1.1,4.1,3,5.2l11,6.3c1.9,1.1,4.1,1.1,6,0l11-6.3C35.8,30.4,37,28.5,37,26.3z"/>
<g>
	<path class="st1" d="M19.4,20l8.2,4.7c0.1,0,0.1,0.1,0.2,0.1s0.1,0,0.2-0.1c0.1,0,0.1-0.1,0.2-0.2c0-0.1,0.1-0.1,0.1-0.2v-8.7
		c0-0.1,0-0.1-0.1-0.2c0-0.1-0.1-0.1-0.2-0.2c-0.1,0-0.1-0.1-0.2-0.1s-0.1,0-0.2,0.1L19.4,20z"/>
	<path class="st1" d="M27.1,13.3l-5.4-4.2C21.6,9,21.5,9,21.5,9s-0.1,0-0.2,0s-0.1,0.1-0.2,0.1C21,9.2,21,9.3,21,9.3l-2,9.3l8-4.6
		c0.1,0,0.1-0.1,0.2-0.1c0-0.1,0.1-0.1,0.1-0.2c0-0.1,0-0.1,0-0.2C27.2,13.4,27.1,13.3,27.1,13.3z"/>
	<path class="st1" d="M21.6,30.9l5.4-4.2c0.1,0,0.1-0.1,0.1-0.2s0-0.1,0-0.2s0-0.1-0.1-0.2c0-0.1-0.1-0.1-0.1-0.1L19,21.4l2,9.3
		c0,0.1,0,0.1,0.1,0.2c0,0.1,0.1,0.1,0.2,0.1s0.1,0,0.2,0C21.5,31,21.6,31,21.6,30.9z"/>
	<path class="st1" d="M17.3,20l2.1-10c0-0.1,0-0.2,0-0.3s-0.1-0.1-0.2-0.2c-0.1,0-0.2-0.1-0.3-0.1c-0.1,0-0.2,0-0.2,0.1l-5.5,4.2
		c-0.1,0.1-0.3,0.2-0.3,0.4s-0.1,0.3-0.1,0.5v10.6c0,0.2,0,0.3,0.1,0.5s0.2,0.3,0.3,0.4l5.5,4.2c0.1,0.1,0.2,0.1,0.2,0.1
		c0.1,0,0.2,0,0.2-0.1c0.1,0,0.1-0.1,0.2-0.2c0-0.1,0-0.2,0-0.3L17.3,20z"/>
</g>
</svg>
