<svg xmlns="http://www.w3.org/2000/svg" viewBox="0 0 40 40"><linearGradient id="a" gradientUnits="userSpaceOnUse" x1="-2.583" y1="-549.178" x2="34.709" y2="-549.178" gradientTransform="rotate(90 -266.568 -262.61)"><stop offset="0" stop-color="#455df0"/><stop offset="1" stop-color="#345d9d"/></linearGradient><path d="M37 26.3V13.7c0-2.1-1.1-4.1-3-5.2L23 2.2c-1.9-1.1-4.1-1.1-6 0L6 8.5c-1.9 1.1-3 3.1-3 5.2v12.6c0 2.1 1.1 4.1 3 5.2l11 6.3c1.9 1.1 4.1 1.1 6 0l11-6.3c1.8-1.1 3-3 3-5.2z" fill="url(#a)"/><path d="M19.9 21.1l-1.6 5.4h8.5c.3 0 .4.2.4.4v.1l-.7 2.6c0 .2-.2.4-.5.4H13l2.2-7.4-2.4.7.6-1.7 2.4-.7 3.1-10.4c.1-.2.3-.4.6-.4h3.3c.3 0 .4.2.4.4v.1l-2.6 8.8 2.4-.7-.5 1.8c-.1-.1-2.6.6-2.6.6z" fill="#fff"/></svg>