<svg xmlns="http://www.w3.org/2000/svg" viewBox="0 0 40 40"><linearGradient id="a" gradientUnits="userSpaceOnUse" x1="20" y1="-2.74" x2="20" y2="35.41"><stop offset="0" stop-color="#694669"/><stop offset="1" stop-color="#340534"/></linearGradient><path d="M37 26.3V13.7c0-2.1-1.1-4.1-3-5.2L23 2.2c-1.9-1.1-4.1-1.1-6 0L6 8.5c-1.9 1.1-3 3.1-3 5.2v12.6c0 2.1 1.1 4.1 3 5.2l11 6.3c1.9 1.1 4.1 1.1 6 0l11-6.3c1.8-1.1 3-3 3-5.2z" fill="url(#a)"/><linearGradient id="b" gradientUnits="userSpaceOnUse" x1="1581.74" y1="-148.627" x2="2037.908" y2="307.541"><stop offset="0" stop-color="#455df0"/><stop offset="1" stop-color="#345d9d"/></linearGradient><path fill="none" stroke="url(#b)" stroke-miterlimit="10" d="M1661.2-227.1h297.2V386h-297.2z"/><linearGradient id="c" gradientUnits="userSpaceOnUse" x1="1297.516" y1="-458.814" x2="1708.553" y2="-47.778"><stop offset="0" stop-color="#455df0"/><stop offset="1" stop-color="#345d9d"/></linearGradient><path fill="none" stroke="url(#c)" stroke-width=".869" stroke-miterlimit="10" d="M1661.2-1.7l-454.6-276V-367h454.6z"/><path d="M20 9.5C14.2 9.5 9.5 14.2 9.5 20S14.2 30.5 20 30.5 30.5 25.8 30.5 20 25.8 9.5 20 9.5zM29.2 20c0 .9-.1 1.8-.4 2.6l-3.9-6.2 1.3-.8v-2.3c1.8 1.6 3 4 3 6.7zm-3.1-6.8L20 16.8l-6.1-3.6c1.6-1.5 3.8-2.4 6.1-2.4s4.5.9 6.1 2.4zm-12.3.1v2.3l1.3.8-3.9 6.2c-.2-.8-.4-1.7-.4-2.6 0-2.7 1.2-5.1 3-6.7zM20 29.2c-3.5 0-6.5-2-8.1-4.8h.8l4.3-6.9 2.1 1.2-.2 5.7h2.3l-.2-5.7 2.1-1.2 4.3 6.9h.8c-1.7 2.8-4.7 4.8-8.2 4.8z" fill="#fff"/></svg>