<svg width="770" height="770" viewBox="0 0 770 770" fill="none" xmlns="http://www.w3.org/2000/svg">
<path d="M711.537 505.769V263.462C711.537 223.077 690.384 184.615 653.845 163.462L442.307 42.3078C405.768 21.1539 363.461 21.1539 326.922 42.3078L115.384 163.462C78.8452 184.615 57.6914 223.077 57.6914 263.462V505.769C57.6914 546.154 78.8452 584.615 115.384 605.769L326.922 726.923C363.461 748.077 405.768 748.077 442.307 726.923L653.845 605.769C688.461 584.615 711.537 548.077 711.537 505.769Z" fill="url(#paint0_linear_93_206)"/>
<path d="M385.514 272.179C424.058 272.179 455.304 254.006 455.304 231.589C455.304 209.173 424.058 191 385.514 191C346.97 191 315.725 209.173 315.725 231.589C315.725 254.006 346.97 272.179 385.514 272.179Z" fill="white"/>
<path d="M385.514 578.008C424.058 578.008 455.304 559.836 455.304 537.419C455.304 515.002 424.058 496.83 385.514 496.83C346.97 496.83 315.725 515.002 315.725 537.419C315.725 559.836 346.97 578.008 385.514 578.008Z" fill="white"/>
<path d="M288.243 328.365C307.515 294.986 307.39 258.835 287.964 247.619C268.538 236.403 237.167 254.369 217.895 287.748C198.623 321.127 198.748 357.278 218.174 368.494C237.6 379.71 268.971 361.744 288.243 328.365Z" fill="white"/>
<path d="M553.09 481.262C572.362 447.883 572.248 411.738 552.835 400.529C533.422 389.321 502.061 407.294 482.789 440.673C463.517 474.051 463.632 510.197 483.045 521.405C502.458 532.614 533.818 514.641 553.09 481.262Z" fill="white"/>
<path d="M287.974 521.395C307.4 510.179 307.525 474.028 288.253 440.649C268.981 407.27 237.61 389.303 218.184 400.519C198.758 411.735 198.633 447.887 217.905 481.265C237.176 514.644 268.547 532.611 287.974 521.395Z" fill="white"/>
<path d="M552.85 368.504C572.263 357.296 572.378 321.151 553.106 287.772C533.834 254.393 502.474 236.42 483.061 247.629C463.648 258.837 463.533 294.982 482.805 328.361C502.077 361.74 533.437 379.713 552.85 368.504Z" fill="white"/>
<defs>
<linearGradient id="paint0_linear_93_206" x1="384.614" y1="26.9212" x2="384.614" y2="744.069" gradientUnits="userSpaceOnUse">
<stop stop-color="#FC65B1"/>
<stop offset="0.9988" stop-color="#E6007A"/>
</linearGradient>
</defs>
</svg>
