<?xml version="1.0" encoding="utf-8"?>
<!-- Generator: Adobe Illustrator 22.0.0, SVG Export Plug-In . SVG Version: 6.00 Build 0)  -->
<svg version="1.1" id="Layer_1" xmlns="http://www.w3.org/2000/svg" xmlns:xlink="http://www.w3.org/1999/xlink" x="0px" y="0px"
	 viewBox="0 0 40 40" style="enable-background:new 0 0 40 40;" xml:space="preserve">
<style type="text/css">
	.st0{fill:url(#SVGID_1_);}
	.st1{fill:#F00500;}
	.st2{fill:#FFFFFF;}
	.st3{fill:none;}
	.st4{fill:#FFA409;}
	.st5{fill:#FF9300;}
	.st6{fill:#FF8300;}
</style>
<linearGradient id="SVGID_1_" gradientUnits="userSpaceOnUse" x1="167.2169" y1="-1117.1785" x2="204.5087" y2="-1117.1785" gradientTransform="matrix(0 1 -1 0 -1097.1785 -166.0419)">
	<stop  offset="1.198744e-03" style="stop-color:#FDBA12"/>
	<stop  offset="1" style="stop-color:#DC1C14"/>
</linearGradient>
<path class="st0" d="M37,26.1V13.5c0-2.1-1.1-4.1-3-5.2L23,2c-1.9-1.1-4.1-1.1-6,0L6,8.3c-1.9,1.1-3,3.1-3,5.2v12.6
	c0,2.1,1.1,4.1,3,5.2l11,6.3c1.9,1.1,4.1,1.1,6,0l11-6.3C35.8,30.2,37,28.3,37,26.1z"/>
<g id="Group_938" transform="translate(-953.348 -232.003)">
	<g id="Group_931">
		<path id="Path_8573" class="st1" d="M978.1,243.8c-0.5,0.5-1,1.1-1.4,1.7l-0.1,0c-0.8-0.2-1.6-0.4-2.4-0.5c-0.2,0-1.1,0-1.4,0
			c-0.9,0.1-1.6,0.2-2.3,0.5c0,0-0.1,0-0.1,0c-0.4-0.6-0.9-1.1-1.5-1.7c2.6-1.3,5.6-1.5,8.2-0.4c0.3,0.1,0.6,0.2,0.8,0.4
			L978.1,243.8z"/>
		<path id="Path_8574" class="st1" d="M982.9,255.5c-0.4,1.1-1,2.1-1.7,3c-0.4,0.5-0.9,0.9-1.4,1.3c-1.1,0.9-2.5,1.6-3.9,1.9
			c-1.6,0.4-3.2,0.4-4.8,0c-1.4-0.3-2.8-1-3.9-1.9c-0.5-0.4-0.9-0.8-1.4-1.3c-2.2-2.6-2.8-6.1-1.7-9.3c0.2-0.6,0.5-1.2,0.8-1.7
			c0.1-0.2,0.3-0.5,0.4-0.6c0.3,1.3,0.7,2.4,0.8,2.8c0,0,0,0,0,0.1c-0.7,1.5-1.1,2.9-1.2,4.3c0,0,0,0,0,0.1c0,0.4,0,0.7,0.1,0.9
			c0.2,0.9,0.9,1.8,2.1,2.8c1.8,1.6,4.3,2.7,6.2,2.8c2,0.1,4.8-1,6.8-2.7c0.3-0.3,0.6-0.6,0.9-0.9c0.2-0.2,0.5-0.6,0.5-0.6
			c0,0,0,0,0,0c0,0,0,0,0,0c0,0,0,0,0,0c0,0,0,0,0,0c0,0,0,0,0,0c0,0,0,0,0,0c0,0,0,0,0,0s0,0,0,0s0,0,0,0s0,0,0,0c0,0,0,0,0-0.1
			c0-0.1,0.2-0.4,0.3-0.5c0.2-0.4,0.3-0.8,0.3-1.1c0-0.2,0-0.5,0-0.6c0,0,0,0,0-0.1c0-0.1,0-0.2,0-0.2c0-0.1,0-0.3,0-0.4
			c-0.1-1.4-0.5-2.5-1.2-3.8c0,0-0.1-0.1-0.1-0.1c0,0,0,0,0,0l0,0c0.1-0.3,0.5-1.5,0.8-2.9l0,0l0,0.1c0.1,0.1,0.3,0.4,0.4,0.6
			c0.4,0.7,0.8,1.5,1,2.3C983.6,251.5,983.5,253.6,982.9,255.5z"/>
		<path id="Path_8575" d="M978.9,251.8c0,0-0.2,0.2-0.3,0.3c-0.4,0.3-1.2,0.6-2,0.7c-0.4,0.1-0.9,0.1-1,0c-0.1,0-0.1-0.1-0.1-0.2
			c0.1-0.2,0.3-0.5,0.6-0.7c0.2-0.1,0.8-0.5,1.2-0.7c0.5-0.3,0.9-0.5,1.2-0.5c0.1,0,0.2,0,0.2,0c0.1,0,0.1,0.2,0.1,0.4
			C978.9,251.2,978.9,251.7,978.9,251.8z"/>
		<path id="Path_8576" d="M971.6,252.8c0,0-0.1,0.1-0.2,0.1c-0.1,0-0.4,0-0.6,0c-0.7-0.1-1.3-0.3-1.9-0.5c-0.3-0.1-0.5-0.3-0.6-0.4
			l-0.1-0.1l0-0.1c0-0.2,0-0.5,0-0.6c0-0.1,0-0.2,0.1-0.3c0,0,0,0,0.1,0c0.1,0,0.2,0,0.4,0.1c0.4,0.1,0.9,0.4,1.6,0.8
			c0.6,0.3,0.8,0.5,0.9,0.7C971.5,252.5,971.6,252.7,971.6,252.8z"/>
		<path id="Path_8577" d="M976,257.1c0,0,0,0.2-0.1,0.3c0,0.2-0.1,0.3-0.1,0.3c0,0-0.1,0-0.1,0h-0.1l-0.1,0.3
			c-0.1,0.2-0.1,0.3-0.2,0.4l0,0l-0.1-0.1l-0.1-0.1v-0.9l0,0c-0.1,0-0.4,0.1-0.6,0.1c-0.7,0.1-1.4,0.1-2,0c-0.1,0-0.2,0-0.2,0
			c0,0,0,0.2,0,0.4l0,0.4l-0.1,0.1c0,0-0.1,0.1-0.1,0.1c0,0,0,0-0.1-0.2c-0.1-0.1-0.1-0.3-0.2-0.5l0-0.1l-0.1,0l-0.1,0l0-0.1
			c0-0.1,0-0.2,0-0.2l0-0.1l-0.1-0.1c0,0-0.1-0.1-0.1-0.1c0,0,0,0,0-0.1v0l0.4,0l0.4,0l0,0l0,0l0.1,0c0.1,0,0.3,0,0.5,0l0.4,0
			l0.1-0.2l0.1-0.2h0.1l0-0.3l0-0.3l-0.2-0.1c-0.5-0.2-0.9-0.5-1-0.8c0-0.1,0-0.1,0-0.4c0-0.3,0-0.3,0-0.4c0-0.2,0.2-0.3,0.3-0.3
			c0.1,0,0.2,0,0.9,0l0.9,0l0.1,0c0.1,0.1,0.2,0.1,0.2,0.2c0.1,0.1,0.1,0.2,0.1,0.4c0,0.3,0,0.5,0,0.6c0,0.1-0.1,0.2-0.2,0.4
			c-0.2,0.2-0.4,0.4-0.7,0.5l-0.1,0l0,0.3l0,0.3l0.1,0l0.1,0l0.1,0.1l0.1,0.1h0.4c0.2,0,0.4,0,0.4,0c0,0,0,0,0.1,0l0-0.1h0.4
			C975.9,257.1,976,257.1,976,257.1z"/>
		<path id="Path_8578" d="M974.3,258c-0.1,0-0.1,0-0.1,0c0,0-0.1,0-0.1-0.1l-0.1-0.1L974,258c-0.2,0.2-0.2,0.2-0.2,0.2
			c-0.1,0-0.1,0-0.2-0.2c-0.1-0.1-0.1-0.1-0.1-0.1s0,0-0.1,0l-0.1,0l0,0.1l0,0.1l-0.1,0c-0.1,0-0.1,0-0.2-0.1l-0.1,0v-0.2l0.8,0
			l0.8,0l0,0.1C974.5,257.9,974.5,257.9,974.3,258z"/>
	</g>
	<path id="Path_8579" class="st2" d="M982,254.2C982,254.2,982,254.2,982,254.2c-0.7-0.1-2.9-0.2-4.8,1.4c0,0-0.6-2.9-3.6-2.9
		s-4.1,2.9-4.1,2.9c-1.7-1.8-3.9-1.7-4.7-1.5c0,0,0,0,0,0.1c0,0.4,0,0.7,0.1,0.9c0.2,0.9,0.9,1.8,2.1,2.8c1.8,1.6,4.3,2.7,6.2,2.8
		c2,0.1,4.8-1,6.8-2.7c0.3-0.3,0.6-0.6,0.9-0.9c0.2-0.2,0.5-0.6,0.5-0.6c0,0,0,0,0,0c0,0,0,0,0,0c0,0,0,0,0,0c0,0,0,0,0,0
		c0,0,0,0,0,0c0,0,0,0,0,0c0,0,0,0,0,0s0,0,0,0s0,0,0,0s0,0,0,0c0,0,0,0,0-0.1c0-0.1,0.2-0.4,0.3-0.5c0.2-0.4,0.3-0.8,0.3-1.1
		C982,254.6,982,254.3,982,254.2z M974.3,258c-0.1,0-0.1,0-0.1,0c0,0-0.1,0-0.1-0.1l-0.1-0.1L974,258c-0.2,0.2-0.2,0.2-0.2,0.2
		c-0.1,0-0.1,0-0.2-0.2c-0.1-0.1-0.1-0.1-0.1-0.1s0,0-0.1,0l-0.1,0l0,0.1l0,0.1l-0.1,0c-0.1,0-0.1,0-0.2-0.1l-0.1,0v-0.2l0.8,0
		l0.8,0l0,0.1C974.5,257.9,974.5,257.9,974.3,258z M975.9,257.4c0,0.2-0.1,0.3-0.1,0.3c0,0-0.1,0-0.1,0h-0.1l-0.1,0.3
		c-0.1,0.2-0.1,0.3-0.2,0.4l0,0l-0.1-0.1l-0.1-0.1v-0.9l0,0c-0.1,0-0.4,0.1-0.6,0.1c-0.7,0.1-1.4,0.1-2,0c-0.1,0-0.2,0-0.2,0
		c0,0,0,0.2,0,0.4l0,0.4l-0.1,0.1c0,0-0.1,0.1-0.1,0.1c0,0,0,0-0.1-0.2c-0.1-0.1-0.1-0.3-0.2-0.5l0-0.1l-0.1,0l-0.1,0l0-0.1
		c0-0.1,0-0.2,0-0.2l0-0.1l-0.1-0.1c0,0-0.1-0.1-0.1-0.1c0,0,0,0,0-0.1v0l0.4,0l0.4,0l0,0l0,0l0.1,0c0.1,0,0.3,0,0.5,0l0.4,0
		l0.1-0.2l0.1-0.2h0.1l0-0.3l0-0.3l-0.2-0.1c-0.5-0.2-0.9-0.5-1-0.8c0-0.1,0-0.1,0-0.4c0-0.3,0-0.3,0-0.4c0-0.2,0.2-0.3,0.3-0.3
		c0.1,0,0.2,0,0.9,0l0.9,0l0.1,0c0.1,0.1,0.2,0.1,0.2,0.2c0.1,0.1,0.1,0.2,0.1,0.4c0,0.3,0,0.5,0,0.6c0,0.1-0.1,0.2-0.2,0.4
		c-0.2,0.2-0.4,0.4-0.7,0.5l-0.1,0l0,0.3l0,0.3l0.1,0l0.1,0l0.1,0.1l0.1,0.1h0.4c0.2,0,0.4,0,0.4,0c0,0,0,0,0.1,0l0-0.1h0.4
		c0.3,0,0.4,0,0.4,0C976,257.1,975.9,257.2,975.9,257.4z"/>
	<path id="Path_8580" class="st3" d="M964.9,254.1c-0.2,0-0.3,0.1-0.3,0.1"/>
	<path id="Path_8581" class="st3" d="M982.3,254.2c0,0-0.1,0-0.3,0"/>
	<path id="Path_8582" class="st4" d="M982,253.9c0-0.1,0-0.3,0-0.4c-0.1-1.4-0.5-2.5-1.2-3.8c0,0-0.1-0.1-0.1-0.1c0,0,0,0,0,0l0,0
		c0.1-0.3,0.5-1.5,0.8-2.9c0.4-1.9,0.7-4-0.1-4.7c0,0-1.4-0.1-3.3,1.8c-0.5,0.5-1,1.1-1.4,1.7l-0.1,0c-0.8-0.2-1.6-0.4-2.4-0.5
		c-0.2,0-1.1,0-1.4,0c-0.9,0.1-1.6,0.2-2.3,0.5c0,0-0.1,0-0.1,0c-0.4-0.6-0.9-1.1-1.5-1.7c-2-1.9-3.4-1.8-3.4-1.8
		c-0.9,0.7-0.6,3-0.1,4.9c0.3,1.3,0.7,2.4,0.8,2.8c0,0,0,0,0,0.1c-0.7,1.5-1.1,2.9-1.2,4.3c0.8-0.1,3-0.2,4.7,1.5
		c0,0,1.1-2.9,4.1-2.9s3.6,2.9,3.6,2.9c2-1.6,4.1-1.6,4.8-1.5C982,254.1,982,254,982,253.9z M966.7,248.5c0,0-1.2-2.9-0.9-4.5l0,0
		c0-0.3,0.1-0.5,0.3-0.7c0,0,1.3,0.1,3.4,2.5c0,0-0.4,0.2-0.9,0.6c0,0,0,0,0,0C968,246.8,967.3,247.5,966.7,248.5L966.7,248.5z
		 M971.6,252.8c0,0-0.1,0.1-0.2,0.1c-0.1,0-0.4,0-0.6,0c-0.7-0.1-1.3-0.3-1.9-0.5c-0.3-0.1-0.5-0.3-0.6-0.4l-0.1-0.1l0-0.1
		c0-0.2,0-0.5,0-0.6c0-0.1,0-0.2,0.1-0.3c0,0,0,0,0.1,0c0.1,0,0.2,0,0.4,0.1c0.4,0.1,0.9,0.4,1.6,0.8c0.6,0.3,0.8,0.5,0.9,0.7
		C971.5,252.5,971.6,252.7,971.6,252.8z M978.9,251.8c0,0-0.2,0.2-0.3,0.3c-0.4,0.3-1.2,0.6-2,0.7c-0.4,0.1-0.9,0.1-1,0
		c-0.1,0-0.1-0.1-0.1-0.2c0.1-0.2,0.3-0.5,0.6-0.7c0.2-0.1,0.8-0.5,1.2-0.7c0.5-0.3,0.9-0.5,1.2-0.5c0.1,0,0.2,0,0.2,0
		c0.1,0,0.1,0.2,0.1,0.4C978.9,251.2,978.9,251.7,978.9,251.8z M978.3,246.4L978.3,246.4c-0.5-0.4-0.9-0.6-0.9-0.6
		c2-2.3,3.3-2.5,3.3-2.5c0.1,0.2,0.2,0.4,0.3,0.7l0,0c0.3,1.6-0.8,4.5-0.8,4.5C979.7,247.7,979.1,246.9,978.3,246.4L978.3,246.4z"/>
	<path id="Path_8583" class="st3" d="M976.7,245.4C976.7,245.4,976.7,245.4,976.7,245.4"/>
	<path id="Path_8584" class="st3" d="M980.7,249.5C980.7,249.6,980.7,249.6,980.7,249.5"/>
	<g id="Group_934">
		<g id="Group_933">
			<g id="Group_932">
				<path id="Path_8585" class="st5" d="M981,244c-0.2,0-1.4,0-2.7,2.4l0,0c-0.5-0.4-0.9-0.6-0.9-0.6c2-2.3,3.3-2.5,3.3-2.5
					C980.9,243.5,981,243.7,981,244z"/>
			</g>
			<path id="Path_8586" class="st6" d="M980.2,248.5c-0.5-0.8-1.1-1.6-1.8-2.2c1.3-2.4,2.4-2.4,2.7-2.4l0,0
				C981.3,245.6,980.2,248.5,980.2,248.5z"/>
			<path id="Path_8587" class="st6" d="M981.1,244C981,244,981,244,981.1,244L981.1,244z"/>
		</g>
	</g>
	<path id="Path_8588" class="st3" d="M970.4,245.5c0,0-0.1-0.1-0.1-0.1"/>
	<path id="Path_8589" class="st3" d="M966.1,249.7c0,0.1,0.1,0.2,0.1,0.2"/>
	<g id="Group_937">
		<g id="Group_936">
			<g id="Group_935">
				<path id="Path_8590" class="st5" d="M969.5,245.7c0,0-0.4,0.2-0.9,0.6c0,0,0,0,0,0c-1.3-2.4-2.5-2.4-2.8-2.4
					c0-0.3,0.1-0.5,0.3-0.7C966.1,243.3,967.4,243.4,969.5,245.7z"/>
			</g>
			<path id="Path_8591" class="st6" d="M968.6,246.4c-0.6,0.5-1.3,1.2-1.9,2.2c0,0-1.2-2.9-0.9-4.5l0,0
				C966.1,243.9,967.3,243.9,968.6,246.4z"/>
			<path id="Path_8592" class="st6" d="M965.8,244C965.8,244,965.8,244,965.8,244L965.8,244z"/>
		</g>
	</g>
	<path id="Path_8593" class="st2" d="M977.1,250.1c0,0-1,0.1-0.9-0.7c0.1-0.8,0.9-0.9,1.1-0.8c0.2,0,1.1,0.3,0.9,1
		c-0.2,0.6-0.4,0.5-0.5,0.6C977.6,250.1,977.1,250.1,977.1,250.1z"/>
	<path id="Path_8594" class="st2" d="M969.8,250.1c0,0-1,0.1-0.9-0.7s0.9-0.9,1.1-0.8c0.2,0,1.1,0.3,0.9,1s-0.4,0.5-0.5,0.6
		C970.3,250.1,969.8,250.1,969.8,250.1z"/>
</g>
</svg>
