<svg xmlns="http://www.w3.org/2000/svg" viewBox="0 0 40 40"><linearGradient id="a" gradientUnits="userSpaceOnUse" x1="20" y1="-7.872" x2="20" y2="30.277"><stop offset="0" stop-color="#23d979"/><stop offset="1" stop-color="#26a17b"/></linearGradient><path d="M37 26.3V13.7c0-2.1-1.1-4.1-3-5.2L23 2.2c-1.9-1.1-4.1-1.1-6 0L6 8.5c-1.9 1.1-3 3.1-3 5.2v12.6c0 2.1 1.1 4.1 3 5.2l11 6.3c1.9 1.1 4.1 1.1 6 0l11-6.3c1.8-1.1 3-3 3-5.2z" fill="url(#a)"/><linearGradient id="b" gradientUnits="userSpaceOnUse" x1="1581.74" y1="-148.627" x2="2037.908" y2="307.541"><stop offset="0" stop-color="#455df0"/><stop offset="1" stop-color="#345d9d"/></linearGradient><path fill="none" stroke="url(#b)" stroke-miterlimit="10" d="M1661.2-227.1h297.2V386h-297.2z"/><linearGradient id="c" gradientUnits="userSpaceOnUse" x1="1297.516" y1="-458.814" x2="1708.553" y2="-47.778"><stop offset="0" stop-color="#455df0"/><stop offset="1" stop-color="#345d9d"/></linearGradient><path fill="none" stroke="url(#c)" stroke-width=".869" stroke-miterlimit="10" d="M1661.2-1.7l-454.6-276V-367h454.6z"/><path d="M22 20.7h-4c-4-.2-7-.9-7-1.7 0-.8 3-1.5 7-1.7V20c.3 0 1 .1 2.1.1 1.2 0 1.9-.1 2-.1v-2.7c4 .2 7 .9 7 1.7-.1.8-3 1.5-7.1 1.7m0-3.7v-2.4h5.6v-3.7H12.4v3.7H18V17c-4.6.2-8 1.1-8 2.2s3.4 2 8 2.2v7.9h4v-7.9c4.5-.2 8-1.1 8-2.2s-3.4-2-8-2.2" fill="#fff"/></svg>