<svg version="1.1" id="Layer_1" xmlns="http://www.w3.org/2000/svg" x="0" y="0" viewBox="0 0 40 40" xml:space="preserve"><style>.st1{fill:#fff}</style><linearGradient id="SVGID_1_" gradientUnits="userSpaceOnUse" x1="77.319" y1="1249.179" x2="114.61" y2="1249.179" gradientTransform="matrix(0 1 1 0 -1229.178 -76.042)"><stop offset="0" stop-color="#f9cbdf"/><stop offset=".999" stop-color="#ed70aa"/></linearGradient><path d="M37 26.2V13.6c0-2.1-1.1-4.1-3-5.2L23 2.1c-1.9-1.1-4.1-1.1-6 0L6 8.4c-1.9 1.1-3 3.1-3 5.2v12.6c0 2.1 1.1 4.1 3 5.2l11 6.3c1.9 1.1 4.1 1.1 6 0l11-6.3c1.8-1.1 3-3 3-5.2z" fill="url(#SVGID_1_)"/><path class="st1" d="M16.6 11.7c-.3 0-.3 0-.1-.1.2 0 .8 0 1.1.1.9.2 1.7.7 2.5 1.7l.2.2.3-.1c1.4-.2 2.7 0 3.9.5.3.1.8.4.9.5 0 0 .1.2.1.3.1.6 0 1-.1 1.3-.1.2-.1.2 0 .4.1.1.2.2.3.2.3 0 .6-.5.7-1.1l.1-.3.1.1c.6.7 1.1 1.6 1.2 2.3v.2l-.2.1c-.2-.3-.4-.5-.6-.6-.4-.3-.8-.4-2-.4-1-.1-1.6-.1-2.2-.3-1-.3-1.5-.8-2.7-2.3-.5-.7-.9-1.1-1.2-1.4-.7-.8-1.4-1.1-2.3-1.3z"/><path class="st1" d="M25.6 13.2c0-.5.1-.8.2-1 0-.1.1-.2.1-.2v.2c-.1.3-.1.6 0 1.1.1.5.1.6.7 1.2.3.3.6.6.7.8l.2.3-.2-.2c-.3-.2-.8-.7-1-.8h-.2s-.1.1-.1.5c0 .5-.1.9-.3 1.2-.1.2-.1.1 0-.1s.1-.2.1-.7c0-1-.1-1.3-.9-1.7-.2-.1-.5-.3-.7-.3-.2-.1-.3-.2-.3-.2s.7.2 1 .3c.4.2.5.2.6.2.1-.2.1-.3.1-.6zM17.1 15c-.5-.7-.8-1.8-.8-2.6v-.2h.1c.2 0 .6.2.8.3.5.3.7.7.9 1.7.1.3.1.6.2.7.1.2.3.6.5.9.1.2 0 .3-.3.3-.4-.1-1-.5-1.4-1.1zm7.9 5.3c-2.4-1-3.3-1.8-3.3-3.2v-.4l.2.2c.5.4 1 .6 2.5.8.9.1 1.4.2 1.9.4 1.5.5 2.4 1.5 2.6 2.8.1.4 0 1.1-.1 1.5-.1.3-.3.9-.4.9v-.2c0-.5-.3-1-.7-1.4-.4-.4-1.1-.8-2.7-1.4zm-1.7.4c0-.2-.1-.4-.1-.5l-.1-.2.1.1c.2.2.3.4.4.7.1.2.1.3.1.7 0 .4 0 .4-.1.6-.1.3-.3.6-.5.8-.4.4-1 .7-1.8.8-.1 0-.6 0-.9.1-.9 0-1.5.1-2.1.3h-.2s.3-.2.7-.4c.4-.2.9-.3 1.8-.5.5-.1 1-.2 1.1-.2 1.2-.3 1.8-1.2 1.6-2.3z"/><path class="st1" d="M24.4 22.6c-.3-.7-.4-1.3-.2-2 0-.1 0-.1.1-.1 0 0 .1 0 .2.1s.4.3 1.2.7c1 .5 1.5.9 1.9 1.4.3.4.5.9.6 1.5.1.3 0 1.1-.1 1.4-.3 1-.9 1.8-1.8 2.3-.1.1-.2.1-.3.1 0 0 0-.1.1-.3.3-.6.3-1.2.1-1.9-.1-.4-.4-.9-1-1.7-.5-.9-.6-1.1-.8-1.5zm-9 3.7c.9-.7 2-1.3 3-1.4.4-.1 1.2 0 1.6.1.6.2 1.2.5 1.5 1 .3.4.4.8.6 1.6.1.3.1.7.1.7.1.4.3.8.5.9.4.3 1 .3 1.7 0 .1 0 .2-.1.2-.1s-.3.2-.5.4c-.3.2-.5.2-.9.2-.6 0-1.1-.3-1.5-.9-.1-.1-.3-.5-.4-.8-.4-1-.6-1.3-1.1-1.6-.4-.3-1-.3-1.4-.1-.6.3-.7 1-.3 1.4.2.2.5.3.7.4.4.1.8-.3.8-.7 0-.3-.1-.5-.4-.6-.4-.2-.8 0-.8.4 0 .2.1.3.2.3s.1 0 0 0c-.4-.1-.4-.5-.2-.8.3-.3 1.1-.2 1.3.3.1.2.1.6 0 .8-.2.5-.8.8-1.4.7-.4-.1-.6-.2-1.1-.7-.8-.9-1.2-1-2.4-1.2H15l.4-.3zm-4-15.5c2.8 3.4 4.8 4.8 5 5.1.2.2.1.5-.2.6-.2.1-.5.2-.7.2-.2 0-.3-.1-.3-.1-.1-.1-.2-.1-.8-1.1-.8-1.3-1.5-2.3-1.5-2.3l1.4 2.6c.2.5 0 .8 0 .8 0 .2 0 .2-.2.5-.3.4-.5.8-.6 1.6-.1 1-.5 1.6-1.4 2.8-.5.7-.6.8-.8 1.1-.2.3-.2.5-.2 1s0 .8.2 1.2c.1.4.3.6.6 1.1.3.4.4.8.4.9 0 .1 0 .1.5 0 1-.2 1.9-.6 2.4-1.2.3-.3.4-.5.4-.9 0-.3 0-.3-.1-.5-.1-.3-.4-.5-.9-.8-.7-.4-.9-.8-1-1.3-.1-.4 0-.7.4-1.4.4-.8.5-1.1.5-1.9 0-.5.1-.7.2-.9.2-.2.3-.2.7-.3.6-.1 1-.2 1.3-.5.3-.3.4-.5.4-.9v-.3l-.2-.2c-.4-.7-5.9-5.4-5.9-5.4s.2.2.4.5zm1.3 13.3c.1-.2.1-.5-.2-.7-.2-.1-.5-.1-.5.1 0 .1 0 .1.1.1.1.1.1.1 0 .3-.1.1-.1.3 0 .3.3.1.5.1.6-.1zm4.9-6.4c-.3.1-.6.4-.7.7-.1.2 0 .5.1.6.1.2.3.2.6.2.7 0 1.2-.3 1.3-.6.1-.3-.2-.7-.5-.9h-.8zm.8.6c.1-.1.1-.3-.1-.4-.3-.2-.8 0-.8.3 0 .2.3.3.5.3.1 0 .3-.1.4-.2z"/><path d="M18.4 18.3c.1-.1.1-.3-.1-.4-.3-.2-.8 0-.8.3 0 .1.2.3.5.3.1 0 .3-.1.4-.2z" fill="#f5b1d1"/><path d="M12.7 24c.1-.2.1-.5-.1-.6-.2-.1-.5-.1-.5.1 0 0 0 .1.1.1.1.1.1.1 0 .2s-.1.2 0 .3c.2.2.4.1.5-.1z" fill="#f39ec6"/></svg>