<svg width="100%" height="100%" viewBox="0 0 12 4" fill="none" xmlns="http://www.w3.org/2000/svg">
<path d="M5.84379 2.5625C6.15447 2.5625 6.40633 2.31066 6.40633 2C6.40633 1.68934 6.15447 1.4375 5.84379 1.4375C5.53311 1.4375 5.28125 1.68934 5.28125 2C5.28125 2.31066 5.53311 2.5625 5.84379 2.5625Z" fill="#fff" stroke="#fff" stroke-width="1.50005" stroke-linecap="round" stroke-linejoin="round"></path>
<path d="M9.78129 2.5625C10.092 2.5625 10.3438 2.31066 10.3438 2C10.3438 1.68934 10.092 1.4375 9.78129 1.4375C9.47061 1.4375 9.21875 1.68934 9.21875 2C9.21875 2.31066 9.47061 2.5625 9.78129 2.5625Z" fill="#fff" stroke="#fff" stroke-width="1.50005" stroke-linecap="round" stroke-linejoin="round"></path>
<path d="M1.90629 2.5625C2.21697 2.5625 2.46883 2.31066 2.46883 2C2.46883 1.68934 2.21697 1.4375 1.90629 1.4375C1.59561 1.4375 1.34375 1.68934 1.34375 2C1.34375 2.31066 1.59561 2.5625 1.90629 2.5625Z" fill="#fff" stroke="#fff" stroke-width="1.50005" stroke-linecap="round" stroke-linejoin="round"></path>
</svg>
