<svg id="discord" xmlns="http://www.w3.org/2000/svg" width="93.045" height="101.939" viewBox="0 0 93.045 101.939">
  <g id="USDC" transform="translate(0)">
    <path id="Path_446" data-name="Path 446" d="M96.045,69.585V35.1a16.423,16.423,0,0,0-8.21-14.23L57.733,3.633a16.056,16.056,0,0,0-16.42,0L11.21,20.873A16.423,16.423,0,0,0,3,35.1V69.585a16.423,16.423,0,0,0,8.21,14.23l30.1,17.241a16.056,16.056,0,0,0,16.42,0l30.1-17.241A16.671,16.671,0,0,0,96.045,69.585Z" transform="translate(-3 -1.375)" fill="#8c9eff"/>
  </g>
  <path id="surface1" d="M47.651,19.442s-5.3-4.152-11.565-4.626l-.564,1.13a22.341,22.341,0,0,1,10.973,5.809c-4.68-2.389-9.3-4.626-17.347-4.626S16.48,19.365,11.8,21.755a22.821,22.821,0,0,1,10.973-5.809l-.564-1.13a24.167,24.167,0,0,0-11.565,4.626S4.721,28.03,3.7,44.885c5.967,6.885,15.034,6.939,15.034,6.939l1.9-2.526a23.171,23.171,0,0,1-9.992-6.726c3.745,2.833,9.4,5.782,18.5,5.782s14.759-2.949,18.5-5.782A23.157,23.157,0,0,1,37.659,49.3l1.9,2.526s9.067-.054,15.034-6.939C53.573,28.03,47.651,19.442,47.651,19.442ZM21.63,40.259a4.365,4.365,0,0,1-4.048-4.626,4.365,4.365,0,0,1,4.048-4.626,4.365,4.365,0,0,1,4.048,4.626A4.365,4.365,0,0,1,21.63,40.259Zm15.034,0a4.365,4.365,0,0,1-4.048-4.626,4.365,4.365,0,0,1,4.048-4.626,4.365,4.365,0,0,1,4.048,4.626A4.365,4.365,0,0,1,36.664,40.259Z" transform="translate(17.222 17.375)" fill="#fff"/>
</svg>
