<svg id="yt" xmlns="http://www.w3.org/2000/svg" width="93.045" height="101.939" viewBox="0 0 93.045 101.939">
  <g id="USDC" transform="translate(0)">
    <path id="Path_446" data-name="Path 446" d="M96.045,69.585V35.1a16.423,16.423,0,0,0-8.21-14.23L57.733,3.633a16.056,16.056,0,0,0-16.42,0L11.21,20.873A16.423,16.423,0,0,0,3,35.1V69.585a16.423,16.423,0,0,0,8.21,14.23l30.1,17.241a16.056,16.056,0,0,0,16.42,0l30.1-17.241A16.671,16.671,0,0,0,96.045,69.585Z" transform="translate(-3 -1.375)" fill="#cd201f"/>
  </g>
  <g id="Youtube" transform="translate(24.949 36.215)">
    <path id="Path_15584" data-name="Path 15584" d="M23.333,43.861c-8.261-.152-11.083-.289-12.817-.646a5.634,5.634,0,0,1-2.941-1.529A6.19,6.19,0,0,1,6.182,39a17.569,17.569,0,0,1-.595-3.943,93.67,93.67,0,0,1,0-12.783c.266-2.361.394-5.164,2.158-6.8a5.787,5.787,0,0,1,2.89-1.461,159.584,159.584,0,0,1,16.438-.578,159.877,159.877,0,0,1,16.438.578,5.655,5.655,0,0,1,3.382,2.006c1.61,2.532,1.638,5.68,1.8,8.143.068,1.173.068,7.836,0,9.01-.254,3.892-.459,5.269-1.037,6.7a4.937,4.937,0,0,1-1.19,1.9,5.7,5.7,0,0,1-3.026,1.547c-7.149.538-13.219.654-20.109.544ZM34.281,28.223C30.3,26.1,26.5,24.126,22.6,22.086V34.292c4.1-2.227,8.415-4.267,11.7-6.086l-.017.017Z" transform="translate(-5.368 -13.434)" fill="#fff"/>
  </g>
</svg>
