<svg width="2619" height="1408" viewBox="0 0 2619 1408" fill="none" xmlns="http://www.w3.org/2000/svg">
<path d="M0 1010.1H41.2214V1334.88H0V1010.1Z" fill="white"/>
<path d="M91.1999 1099.23H121.595L132.005 1125.88C157.404 1110.48 179.888 1095.07 216.113 1095.07C265.662 1095.07 288.563 1131.71 288.563 1172.52V1334.49H247.341V1172.1C247.341 1144.62 231.935 1132.54 211.116 1132.54C178.223 1132.54 161.984 1140.87 131.588 1156.69V1334.9H90.3672V1099.23H91.1999Z" fill="white"/>
<path d="M317.705 1106.72L359.759 1099.22V1077.16C359.759 1024.69 394.735 986.385 450.113 985.969C472.181 985.969 518.815 993.464 540.05 1000.54V1026.36C539.634 1026.36 461.771 1022.19 461.771 1022.19C434.291 1020.53 400.981 1031.35 400.981 1077.99V1099.22L560.453 1103.8V1334.89H518.815V1136.28H400.564V1334.89H359.343V1136.28H317.289V1106.72H317.705Z" fill="white"/>
<path d="M608.317 1099.23H638.713L649.122 1125.88C674.521 1110.48 697.005 1095.07 733.23 1095.07C782.779 1095.07 805.68 1131.71 805.68 1172.52V1334.49H764.458V1172.1C764.458 1144.62 749.052 1132.54 728.234 1132.54C695.34 1132.54 679.101 1140.87 648.706 1156.69V1334.9H607.484V1099.23H608.317Z" fill="white"/>
<path d="M847.75 1033.84C847.75 1027.17 851.497 1022.59 858.576 1022.59H887.722C894.384 1022.59 898.132 1027.59 898.132 1033.84V1062.15C898.132 1068.81 893.968 1072.14 887.722 1072.14H858.576C852.33 1072.14 847.75 1067.98 847.75 1062.15V1033.84ZM851.497 1099.21H892.719V1334.88H851.497V1099.21Z" fill="white"/>
<path d="M926.859 1107.96L969.33 1098.8L978.074 1033.01H1010.55V1098.8H1075.51V1135.44H1010.55V1247.44C1010.55 1284.92 1020.13 1293.24 1034.7 1297.41C1034.7 1297.41 1068.84 1306.57 1071.76 1306.57V1334.05H1028.46C993.896 1334.05 969.746 1312.81 969.746 1249.94V1135.02H927.276L926.859 1107.96Z" fill="white"/>
<path d="M1209.58 1334.49L1186.68 1404.02H1232.06L1329.08 1099.23H1284.53L1222.07 1295.35C1221.24 1295.35 1201.25 1301.59 1194.17 1277.86L1141.29 1099.23H1097.16L1152.12 1282.86C1165.44 1329.49 1193.76 1334.49 1209.58 1334.49Z" fill="white"/>
<path d="M1401.1 1010.1L1490.2 1270.34L1565.15 1010.1H1610.54L1582.22 1108.37L1639.68 1272.42L1716.71 1010.1H1761.27L1662.17 1334.88H1618.45L1561.82 1177.9L1511.86 1334.88H1468.14L1356.55 1010.1H1401.1Z" fill="white"/>
<path d="M1756.69 1252.05C1756.69 1217.07 1777.92 1191.67 1818.73 1191.67C1818.73 1191.67 1909.91 1192.09 1909.91 1191.67C1909.91 1191.67 1910.33 1166.27 1909.91 1165.86C1909.91 1139.21 1896.17 1131.3 1874.52 1131.3C1845.38 1131.3 1800.82 1133.79 1764.18 1136.71V1108.81C1795.83 1099.24 1833.72 1095.07 1877.85 1094.66C1918.66 1094.24 1951.14 1113.39 1951.14 1165.02V1334.49H1919.91L1910.33 1306.59C1909.08 1307.84 1857.87 1336.99 1818.73 1336.99C1782.5 1336.57 1757.1 1313.25 1757.1 1277.44V1252.05H1756.69ZM1822.89 1299.93C1856.2 1299.93 1909.91 1278.69 1909.91 1278.69V1220.82L1822.06 1227.06C1803.74 1228.73 1797.49 1241.64 1797.49 1254.54V1273.7C1797.91 1294.52 1808.73 1299.93 1822.89 1299.93Z" fill="white"/>
<path d="M1996.95 987.203H2038.17V1247.86C2038.17 1285.33 2047.75 1293.66 2062.32 1297.4C2062.32 1297.4 2096.47 1306.56 2099.38 1306.56V1334.05H2056.91C2021.1 1334.05 1997.37 1312.81 1997.37 1250.35V987.203H1996.95Z" fill="white"/>
<path d="M2132.27 987.203H2173.49V1247.86C2173.49 1285.33 2183.07 1293.66 2197.64 1297.4C2197.64 1297.4 2231.79 1306.56 2234.7 1306.56V1334.05H2192.23C2156.42 1334.05 2132.69 1312.81 2132.69 1250.35V987.203H2132.27Z" fill="white"/>
<path d="M2349.19 1097.55C2408.31 1097.55 2442.45 1103.38 2442.45 1181.66C2442.45 1217.88 2422.88 1237.03 2380 1237.03H2286.73C2286.73 1289.08 2298.8 1299.49 2333.36 1299.49C2372.92 1299.49 2404.98 1299.91 2438.29 1294.91V1324.47C2402.9 1335.3 2360.84 1336.96 2323.79 1336.96C2263.41 1336.96 2245.51 1306.57 2245.51 1215.8C2245.51 1111.7 2275.49 1097.55 2349.19 1097.55ZM2375.83 1201.22C2393.74 1201.22 2401.65 1194.15 2401.65 1180.82C2401.65 1138.77 2394.15 1134.6 2350.85 1134.6C2305.05 1134.6 2286.73 1135.44 2287.15 1201.64L2375.83 1201.22Z" fill="white"/>
<path d="M2467.88 1107.96L2510.35 1098.8L2519.09 1033.01H2551.57V1098.8H2616.52V1135.44H2551.57V1247.44C2551.57 1284.92 2561.14 1293.24 2575.72 1297.41C2575.72 1297.41 2609.86 1306.57 2612.77 1306.57V1334.05H2569.47C2534.91 1334.05 2510.76 1312.81 2510.76 1249.94V1135.02H2468.29V1107.96H2467.88Z" fill="white"/>
<path d="M1369.46 194.864C1367.8 190.284 1364.05 189.035 1362.38 188.619C1360.72 188.202 1356.14 187.37 1351.97 191.533L1330.74 212.768L1327.41 216.099L1157.94 47.8833C1127.13 17.0714 1085.91 0 1041.77 0C998.053 0 956.832 17.0714 926.02 47.8833L684.938 289.382C653.71 320.61 637.055 361.831 637.055 405.551C637.055 449.687 653.71 490.908 684.938 522.136L926.437 762.386C957.248 793.198 998.47 810.269 1042.19 810.269C1085.91 810.269 1127.13 793.198 1157.94 762.386C1157.94 762.386 1212.49 707.84 1212.9 707.424C1219.98 700.346 1228.73 690.352 1233.31 677.445C1237.05 667.035 1238.3 656.21 1236.64 645.384C1235.39 634.558 1231.22 624.149 1224.98 614.988C1222.48 611.657 1219.98 608.326 1216.65 605.412C1190 579.18 1146.7 579.18 1120.05 605.828L1060.93 664.954C1057.18 668.701 1053.02 671.199 1048.02 672.032C1042.19 673.281 1038.86 672.865 1033.86 671.199C1029.28 669.534 1025.12 666.619 1021.37 663.288L781.537 423.455C777.79 419.708 775.292 415.128 774.459 410.131C773.21 403.469 774.459 396.807 777.79 391.394L779.039 390.145C781.954 387.23 1020.95 148.646 1023.04 146.564C1026.78 142.817 1031.78 140.319 1036.78 139.07C1038.44 138.653 1040.11 138.653 1041.77 138.653C1048.85 138.653 1055.51 141.568 1060.51 146.564L1229.56 314.364L1221.23 322.692L1204.58 339.347C1200.83 343.094 1201.25 347.675 1201.66 349.756C1202.08 351.422 1203.74 355.169 1207.91 356.835L1360.3 375.572C1366.55 375.572 1372.79 373.074 1376.96 368.493C1381.54 363.913 1384.03 358.084 1384.03 351.422L1369.46 194.864Z" fill="url(#paint0_linear_514_53154)"/>
<path opacity="0.49" d="M780.281 421.786C773.203 414.291 772.37 400.551 778.199 391.391C778.199 391.391 698.671 477.997 736.978 573.764L787.359 623.729L860.642 502.147L780.281 421.786Z" fill="url(#paint1_linear_514_53154)"/>
<path opacity="0.49" d="M1027.21 668.712C1116.73 751.154 1215 705.353 1215 705.353C1215 705.353 1227.9 693.278 1233.32 677.872C1219.99 671.21 1123.81 602.508 1123.81 602.508L1067.18 659.135C1046.78 683.285 1027.21 668.712 1027.21 668.712Z" fill="url(#paint2_linear_514_53154)"/>
<path opacity="0.49" d="M968.487 201.524C968.487 201.524 1025.95 143.648 1025.95 144.064C1025.95 144.064 1041.35 131.989 1057.18 143.232C1057.18 143.232 961.825 64.9528 860.229 114.085L830.25 144.064L968.487 201.524Z" fill="url(#paint3_linear_514_53154)"/>
<path d="M1247.05 615.405C1248.72 619.985 1252.46 621.234 1254.13 621.65C1255.79 622.067 1260.37 622.9 1264.54 618.736L1285.77 597.501L1289.1 594.169L1458.57 762.386C1489.38 793.198 1530.6 810.269 1574.74 810.269C1618.46 810.269 1659.68 793.198 1690.49 762.386L1931.57 520.887C1962.8 489.659 1979.46 448.438 1979.46 404.718C1979.46 360.582 1962.8 319.361 1931.57 288.133L1690.07 47.8833C1659.26 17.0714 1618.04 0 1574.32 0C1530.6 0 1489.38 17.0714 1458.57 47.8833C1458.57 47.8833 1404.02 102.428 1403.61 102.845C1396.53 109.923 1387.79 119.916 1383.2 132.824C1379.46 143.233 1378.21 154.059 1379.87 164.885C1381.12 175.711 1385.29 186.12 1391.53 195.281C1394.03 198.612 1396.53 201.943 1399.86 204.857C1426.51 231.089 1469.81 231.089 1496.46 204.441L1555.58 145.315C1559.33 141.568 1563.5 139.07 1568.49 138.237C1574.32 136.988 1577.65 137.404 1582.65 139.07C1587.23 140.735 1591.39 143.65 1595.14 146.981L1834.97 386.814C1838.72 390.561 1841.22 395.141 1842.05 400.138C1843.3 406.8 1842.05 413.462 1838.72 418.875L1837.47 420.124C1834.56 423.039 1595.56 661.623 1593.48 663.704C1589.73 667.452 1584.73 669.95 1579.73 671.199C1578.07 671.616 1576.4 671.616 1574.74 671.616C1567.66 671.616 1561 668.701 1556 663.704L1386.95 495.905L1395.28 487.577L1411.93 470.922C1415.68 467.175 1415.27 462.595 1414.85 460.513C1414.43 458.847 1412.77 455.1 1408.6 453.434L1256.21 434.697C1249.96 434.697 1243.72 437.196 1239.55 441.776C1234.97 446.356 1232.48 452.185 1232.48 458.847L1247.05 615.405Z" fill="url(#paint4_linear_514_53154)"/>
<path opacity="0.49" d="M1836.24 388.466C1843.31 395.961 1844.15 409.701 1838.32 418.862C1838.32 418.862 1917.85 332.255 1879.54 236.489L1829.16 186.523L1755.88 308.106L1836.24 388.466Z" fill="url(#paint5_linear_514_53154)"/>
<path opacity="0.49" d="M1589.33 141.579C1499.8 59.136 1401.54 104.937 1401.54 104.937C1401.54 104.937 1388.63 117.012 1383.22 132.418C1396.54 139.08 1492.73 207.782 1492.73 207.782L1549.77 151.155C1569.76 126.589 1589.33 141.579 1589.33 141.579Z" fill="url(#paint6_linear_514_53154)"/>
<path opacity="0.49" d="M1648.02 608.758C1648.02 608.758 1590.56 666.634 1590.56 666.218C1590.56 666.218 1575.16 678.293 1559.34 667.051C1559.34 667.051 1654.69 745.329 1756.28 696.197L1786.26 666.218L1648.02 608.758Z" fill="url(#paint7_linear_514_53154)"/>
<defs>
<linearGradient id="paint0_linear_514_53154" x1="1010.75" y1="-103.544" x2="1010.75" y2="1465.79" gradientUnits="userSpaceOnUse">
<stop offset="0.00510204" stop-color="white"/>
<stop offset="0.9651" stop-color="white"/>
</linearGradient>
<linearGradient id="paint1_linear_514_53154" x1="709.247" y1="445.883" x2="810.349" y2="530.44" gradientUnits="userSpaceOnUse">
<stop offset="0.0348857" stop-color="#D9D8E1"/>
<stop offset="1" stop-color="#63788F" stop-opacity="0"/>
</linearGradient>
<linearGradient id="paint2_linear_514_53154" x1="1101.37" y1="716.495" x2="1149.53" y2="648.194" gradientUnits="userSpaceOnUse">
<stop offset="0.0348857" stop-color="#D9D8E1"/>
<stop offset="1" stop-color="#63788F" stop-opacity="0"/>
</linearGradient>
<linearGradient id="paint3_linear_514_53154" x1="965.684" y1="89.7955" x2="929.539" y2="179.205" gradientUnits="userSpaceOnUse">
<stop offset="0.0348857" stop-color="#D9D8E1"/>
<stop offset="1" stop-color="#63788F" stop-opacity="0"/>
</linearGradient>
<linearGradient id="paint4_linear_514_53154" x1="1606.17" y1="-103.544" x2="1606.17" y2="1465.79" gradientUnits="userSpaceOnUse">
<stop offset="0.00510204" stop-color="white"/>
<stop offset="0.9651" stop-color="white"/>
</linearGradient>
<linearGradient id="paint5_linear_514_53154" x1="1907.59" y1="364.279" x2="1806.48" y2="279.721" gradientUnits="userSpaceOnUse">
<stop offset="0.0348857" stop-color="#D9D8E1"/>
<stop offset="1" stop-color="#63788F" stop-opacity="0"/>
</linearGradient>
<linearGradient id="paint6_linear_514_53154" x1="1515.67" y1="93.6573" x2="1467.51" y2="161.958" gradientUnits="userSpaceOnUse">
<stop offset="0.0348857" stop-color="#D9D8E1"/>
<stop offset="1" stop-color="#63788F" stop-opacity="0"/>
</linearGradient>
<linearGradient id="paint7_linear_514_53154" x1="1651.3" y1="720.313" x2="1687.44" y2="630.903" gradientUnits="userSpaceOnUse">
<stop offset="0.0348857" stop-color="#D9D8E1"/>
<stop offset="1" stop-color="#63788F" stop-opacity="0"/>
</linearGradient>
</defs>
</svg>
