<svg width="608" height="267" viewBox="0 0 608 267" fill="none" xmlns="http://www.w3.org/2000/svg">
<g clip-path="url(#clip0_362_57804)">
<path d="M576 187L32 187" stroke="url(#paint0_linear_362_57804)"/>
<path d="M576 81L32 81" stroke="url(#paint1_linear_362_57804)"/>
<path d="M32 15V252" stroke="url(#paint2_linear_362_57804)" stroke-dasharray="8 8"/>
<path d="M140.797 15V252" stroke="url(#paint3_linear_362_57804)" stroke-dasharray="8 8"/>
<path d="M249.602 15V252" stroke="url(#paint4_linear_362_57804)" stroke-dasharray="8 8"/>
<path d="M358.398 15V252" stroke="url(#paint5_linear_362_57804)" stroke-dasharray="8 8"/>
<path d="M467.203 15V252" stroke="url(#paint6_linear_362_57804)" stroke-dasharray="8 8"/>
<path d="M576 15V252" stroke="url(#paint7_linear_362_57804)" stroke-dasharray="8 8"/>
<rect x="-33" y="111" width="145" height="45" rx="22.5" fill="#0D2137"/>
<path opacity="0.9" d="M17.62 130.594C17.5076 130.23 17.3524 129.904 17.1545 129.616C16.9611 129.324 16.7272 129.074 16.4528 128.867C16.1829 128.66 15.8725 128.505 15.5217 128.402C15.1708 128.294 14.7885 128.24 14.3746 128.24C13.6325 128.24 12.9712 128.426 12.391 128.8C11.8107 129.173 11.3542 129.722 11.0213 130.446C10.6929 131.166 10.5288 132.043 10.5288 133.077C10.5288 134.121 10.6929 135.005 11.0213 135.729C11.3497 136.453 11.8062 137.004 12.391 137.382C12.9757 137.755 13.6549 137.942 14.4286 137.942C15.1303 137.942 15.7376 137.807 16.2504 137.537C16.7676 137.267 17.1657 136.885 17.4446 136.39C17.7235 135.891 17.8629 135.306 17.8629 134.636L18.4297 134.724H14.6783V132.767H20.2852V134.427C20.2852 135.61 20.0333 136.633 19.5295 137.497C19.0257 138.36 18.333 139.026 17.4514 139.494C16.5697 139.957 15.5576 140.189 14.4151 140.189C13.1422 140.189 12.0244 139.903 11.0618 139.332C10.1037 138.756 9.35476 137.94 8.81499 136.883C8.27971 135.821 8.01207 134.562 8.01207 133.104C8.01207 131.989 8.16951 130.993 8.48438 130.115C8.80374 129.238 9.24905 128.494 9.82031 127.882C10.3916 127.266 11.0618 126.798 11.831 126.479C12.6001 126.155 13.4368 125.993 14.3409 125.993C15.1056 125.993 15.8185 126.105 16.4798 126.33C17.141 126.551 17.728 126.866 18.2408 127.275C18.758 127.684 19.1831 128.17 19.516 128.732C19.8488 129.295 20.067 129.915 20.1705 130.594H17.62ZM29.2032 135.641V129.636H31.6457V140H29.2774V138.158H29.1695C28.9356 138.738 28.551 139.213 28.0157 139.582C27.4849 139.951 26.8305 140.135 26.0523 140.135C25.3731 140.135 24.7726 139.984 24.2508 139.683C23.7335 139.377 23.3287 138.934 23.0363 138.354C22.7439 137.769 22.5977 137.063 22.5977 136.235V129.636H25.0402V135.857C25.0402 136.514 25.2201 137.036 25.58 137.423C25.9398 137.809 26.4121 138.003 26.9969 138.003C27.3567 138.003 27.7053 137.915 28.0427 137.74C28.3801 137.564 28.6567 137.303 28.8726 136.957C29.093 136.606 29.2032 136.168 29.2032 135.641ZM34.1573 140V129.636H36.5998V140H34.1573ZM35.3853 128.165C34.9985 128.165 34.6656 128.037 34.3867 127.781C34.1078 127.52 33.9684 127.207 33.9684 126.843C33.9684 126.474 34.1078 126.162 34.3867 125.905C34.6656 125.644 34.9985 125.514 35.3853 125.514C35.7766 125.514 36.1095 125.644 36.3839 125.905C36.6628 126.162 36.8022 126.474 36.8022 126.843C36.8022 127.207 36.6628 127.52 36.3839 127.781C36.1095 128.037 35.7766 128.165 35.3853 128.165ZM42.9573 140.182C42.1431 140.182 41.4144 139.973 40.7712 139.555C40.128 139.136 39.6197 138.529 39.2464 137.733C38.873 136.937 38.6863 135.97 38.6863 134.832C38.6863 133.68 38.8753 132.709 39.2531 131.917C39.6354 131.121 40.1505 130.52 40.7982 130.115C41.4459 129.706 42.1679 129.501 42.964 129.501C43.5713 129.501 44.0706 129.605 44.4619 129.812C44.8532 130.014 45.1636 130.259 45.393 130.547C45.6224 130.831 45.8001 131.098 45.926 131.35H46.0273V126.182H48.4765V140H46.0745V138.367H45.926C45.8001 138.619 45.6179 138.887 45.3795 139.17C45.1411 139.449 44.8263 139.687 44.4349 139.885C44.0436 140.083 43.551 140.182 42.9573 140.182ZM43.6388 138.178C44.156 138.178 44.5969 138.039 44.9612 137.76C45.3256 137.477 45.6022 137.083 45.7911 136.579C45.98 136.075 46.0745 135.488 46.0745 134.818C46.0745 134.148 45.98 133.565 45.7911 133.071C45.6067 132.576 45.3323 132.191 44.968 131.917C44.6081 131.643 44.165 131.505 43.6388 131.505C43.0945 131.505 42.6402 131.647 42.2758 131.93C41.9115 132.214 41.6371 132.605 41.4527 133.104C41.2683 133.604 41.176 134.175 41.176 134.818C41.176 135.466 41.2683 136.044 41.4527 136.552C41.6416 137.056 41.9182 137.454 42.2826 137.746C42.6514 138.034 43.1035 138.178 43.6388 138.178ZM55.6673 140.202C54.6282 140.202 53.7308 139.987 52.9751 139.555C52.224 139.118 51.646 138.502 51.2411 137.706C50.8363 136.905 50.6339 135.963 50.6339 134.879C50.6339 133.813 50.8363 132.877 51.2411 132.072C51.6504 131.262 52.2217 130.633 52.9549 130.183C53.6881 129.729 54.5495 129.501 55.5391 129.501C56.1778 129.501 56.7805 129.605 57.3473 129.812C57.9186 130.014 58.4223 130.329 58.8587 130.756C59.2995 131.184 59.6458 131.728 59.8977 132.389C60.1496 133.046 60.2756 133.829 60.2756 134.737V135.486H51.7809V133.84H57.9343C57.9298 133.372 57.8286 132.956 57.6307 132.592C57.4328 132.223 57.1561 131.933 56.8008 131.721C56.4499 131.51 56.0406 131.404 55.5728 131.404C55.0735 131.404 54.6349 131.526 54.2571 131.768C53.8793 132.007 53.5846 132.322 53.3732 132.713C53.1663 133.1 53.0606 133.525 53.0561 133.988V135.425C53.0561 136.028 53.1663 136.545 53.3867 136.977C53.6071 137.405 53.9152 137.733 54.3111 137.962C54.7069 138.187 55.1702 138.3 55.701 138.3C56.0563 138.3 56.378 138.25 56.6658 138.151C56.9537 138.048 57.2034 137.897 57.4148 137.699C57.6262 137.501 57.7859 137.256 57.8938 136.964L60.1744 137.22C60.0304 137.823 59.756 138.349 59.3512 138.799C58.9509 139.244 58.4381 139.591 57.8129 139.838C57.1876 140.081 56.4724 140.202 55.6673 140.202ZM70.5329 132.376L68.3064 132.619C68.2434 132.394 68.1332 132.182 67.9758 131.984C67.8228 131.786 67.6159 131.627 67.355 131.505C67.0941 131.384 66.7748 131.323 66.3969 131.323C65.8886 131.323 65.4613 131.433 65.115 131.654C64.7731 131.874 64.6044 132.16 64.6089 132.511C64.6044 132.812 64.7146 133.057 64.9395 133.246C65.1689 133.435 65.5468 133.59 66.0731 133.712L67.8408 134.089C68.8214 134.301 69.5501 134.636 70.0269 135.095C70.5082 135.554 70.7511 136.154 70.7556 136.896C70.7511 137.549 70.5599 138.124 70.1821 138.624C69.8087 139.118 69.2892 139.505 68.6235 139.784C67.9578 140.063 67.1931 140.202 66.3295 140.202C65.061 140.202 64.0399 139.937 63.2662 139.406C62.4926 138.871 62.0315 138.127 61.8831 137.173L64.2648 136.944C64.3728 137.411 64.6022 137.764 64.953 138.003C65.3039 138.241 65.7604 138.36 66.3227 138.36C66.903 138.36 67.3685 138.241 67.7194 138.003C68.0747 137.764 68.2524 137.47 68.2524 137.119C68.2524 136.822 68.1377 136.577 67.9083 136.384C67.6834 136.19 67.3325 136.042 66.8557 135.938L65.088 135.567C64.0939 135.36 63.3585 135.012 62.8817 134.521C62.4049 134.027 62.1687 133.401 62.1732 132.646C62.1687 132.007 62.3419 131.454 62.6927 130.986C63.0481 130.513 63.5406 130.149 64.1704 129.893C64.8046 129.632 65.5355 129.501 66.3632 129.501C67.5777 129.501 68.5335 129.76 69.2307 130.277C69.9324 130.795 70.3665 131.494 70.5329 132.376Z" fill="#05A4FD"/>
<rect x="130" y="111" width="174" height="45" rx="22.5" fill="#2A2415"/>
<path opacity="0.9" d="M176.511 135.358H178.778L180.121 137.099L181.079 138.232L183.38 141.188H180.951L179.385 139.204L178.717 138.259L176.511 135.358ZM183.71 133.091C183.71 134.58 183.431 135.855 182.874 136.917C182.32 137.974 181.565 138.783 180.607 139.346C179.653 139.908 178.571 140.189 177.361 140.189C176.151 140.189 175.067 139.908 174.109 139.346C173.155 138.779 172.4 137.967 171.842 136.91C171.289 135.848 171.012 134.575 171.012 133.091C171.012 131.602 171.289 130.329 171.842 129.272C172.4 128.21 173.155 127.399 174.109 126.836C175.067 126.274 176.151 125.993 177.361 125.993C178.571 125.993 179.653 126.274 180.607 126.836C181.565 127.399 182.32 128.21 182.874 129.272C183.431 130.329 183.71 131.602 183.71 133.091ZM181.194 133.091C181.194 132.043 181.029 131.159 180.701 130.439C180.377 129.715 179.927 129.169 179.352 128.8C178.776 128.426 178.112 128.24 177.361 128.24C176.61 128.24 175.946 128.426 175.371 128.8C174.795 129.169 174.343 129.715 174.015 130.439C173.691 131.159 173.529 132.043 173.529 133.091C173.529 134.139 173.691 135.025 174.015 135.749C174.343 136.469 174.795 137.016 175.371 137.389C175.946 137.758 176.61 137.942 177.361 137.942C178.112 137.942 178.776 137.758 179.352 137.389C179.927 137.016 180.377 136.469 180.701 135.749C181.029 135.025 181.194 134.139 181.194 133.091ZM192.593 135.641V129.636H195.035V140H192.667V138.158H192.559C192.325 138.738 191.941 139.213 191.405 139.582C190.875 139.951 190.22 140.135 189.442 140.135C188.763 140.135 188.162 139.984 187.64 139.683C187.123 139.377 186.718 138.934 186.426 138.354C186.134 137.769 185.987 137.063 185.987 136.235V129.636H188.43V135.857C188.43 136.514 188.61 137.036 188.97 137.423C189.329 137.809 189.802 138.003 190.387 138.003C190.746 138.003 191.095 137.915 191.432 137.74C191.77 137.564 192.046 137.303 192.262 136.957C192.483 136.606 192.593 136.168 192.593 135.641ZM202.135 140.202C201.096 140.202 200.199 139.987 199.443 139.555C198.692 139.118 198.114 138.502 197.709 137.706C197.304 136.905 197.102 135.963 197.102 134.879C197.102 133.813 197.304 132.877 197.709 132.072C198.118 131.262 198.689 130.633 199.423 130.183C200.156 129.729 201.017 129.501 202.007 129.501C202.646 129.501 203.248 129.605 203.815 129.812C204.386 130.014 204.89 130.329 205.326 130.756C205.767 131.184 206.114 131.728 206.366 132.389C206.617 133.046 206.743 133.829 206.743 134.737V135.486H198.249V133.84H204.402C204.398 133.372 204.296 132.956 204.098 132.592C203.901 132.223 203.624 131.933 203.269 131.721C202.918 131.51 202.508 131.404 202.041 131.404C201.541 131.404 201.103 131.526 200.725 131.768C200.347 132.007 200.052 132.322 199.841 132.713C199.634 133.1 199.528 133.525 199.524 133.988V135.425C199.524 136.028 199.634 136.545 199.854 136.977C200.075 137.405 200.383 137.733 200.779 137.962C201.175 138.187 201.638 138.3 202.169 138.3C202.524 138.3 202.846 138.25 203.134 138.151C203.421 138.048 203.671 137.897 203.883 137.699C204.094 137.501 204.254 137.256 204.362 136.964L206.642 137.22C206.498 137.823 206.224 138.349 205.819 138.799C205.419 139.244 204.906 139.591 204.281 139.838C203.655 140.081 202.94 140.202 202.135 140.202ZM217.001 132.376L214.774 132.619C214.711 132.394 214.601 132.182 214.444 131.984C214.291 131.786 214.084 131.627 213.823 131.505C213.562 131.384 213.243 131.323 212.865 131.323C212.356 131.323 211.929 131.433 211.583 131.654C211.241 131.874 211.072 132.16 211.077 132.511C211.072 132.812 211.182 133.057 211.407 133.246C211.637 133.435 212.015 133.59 212.541 133.712L214.309 134.089C215.289 134.301 216.018 134.636 216.495 135.095C216.976 135.554 217.219 136.154 217.223 136.896C217.219 137.549 217.028 138.124 216.65 138.624C216.277 139.118 215.757 139.505 215.091 139.784C214.426 140.063 213.661 140.202 212.797 140.202C211.529 140.202 210.508 139.937 209.734 139.406C208.96 138.871 208.499 138.127 208.351 137.173L210.733 136.944C210.841 137.411 211.07 137.764 211.421 138.003C211.772 138.241 212.228 138.36 212.79 138.36C213.371 138.36 213.836 138.241 214.187 138.003C214.542 137.764 214.72 137.47 214.72 137.119C214.72 136.822 214.605 136.577 214.376 136.384C214.151 136.19 213.8 136.042 213.324 135.938L211.556 135.567C210.562 135.36 209.826 135.012 209.349 134.521C208.873 134.027 208.636 133.401 208.641 132.646C208.636 132.007 208.81 131.454 209.161 130.986C209.516 130.513 210.008 130.149 210.638 129.893C211.272 129.632 212.003 129.501 212.831 129.501C214.045 129.501 215.001 129.76 215.699 130.277C216.4 130.795 216.834 131.494 217.001 132.376ZM224.412 129.636V131.526H218.455V129.636H224.412ZM219.926 127.153H222.368V136.883C222.368 137.211 222.418 137.463 222.517 137.638C222.62 137.809 222.755 137.926 222.921 137.989C223.088 138.052 223.272 138.084 223.475 138.084C223.628 138.084 223.767 138.073 223.893 138.05C224.023 138.028 224.122 138.007 224.19 137.989L224.601 139.899C224.471 139.944 224.284 139.993 224.041 140.047C223.803 140.101 223.511 140.133 223.164 140.142C222.552 140.16 222.001 140.067 221.511 139.865C221.021 139.658 220.632 139.339 220.344 138.907C220.061 138.475 219.921 137.935 219.926 137.288V127.153ZM226.455 140V129.636H228.898V140H226.455ZM227.683 128.165C227.296 128.165 226.963 128.037 226.685 127.781C226.406 127.52 226.266 127.207 226.266 126.843C226.266 126.474 226.406 126.162 226.685 125.905C226.963 125.644 227.296 125.514 227.683 125.514C228.074 125.514 228.407 125.644 228.682 125.905C228.961 126.162 229.1 126.474 229.1 126.843C229.1 127.207 228.961 127.52 228.682 127.781C228.407 128.037 228.074 128.165 227.683 128.165ZM235.93 140.202C234.918 140.202 234.041 139.98 233.298 139.534C232.556 139.089 231.981 138.466 231.571 137.665C231.166 136.865 230.964 135.929 230.964 134.859C230.964 133.788 231.166 132.85 231.571 132.045C231.981 131.24 232.556 130.615 233.298 130.169C234.041 129.724 234.918 129.501 235.93 129.501C236.942 129.501 237.819 129.724 238.561 130.169C239.303 130.615 239.877 131.24 240.282 132.045C240.691 132.85 240.896 133.788 240.896 134.859C240.896 135.929 240.691 136.865 240.282 137.665C239.877 138.466 239.303 139.089 238.561 139.534C237.819 139.98 236.942 140.202 235.93 140.202ZM235.943 138.246C236.492 138.246 236.951 138.095 237.32 137.794C237.689 137.488 237.963 137.078 238.143 136.566C238.327 136.053 238.42 135.482 238.42 134.852C238.42 134.218 238.327 133.644 238.143 133.131C237.963 132.614 237.689 132.203 237.32 131.897C236.951 131.591 236.492 131.438 235.943 131.438C235.381 131.438 234.913 131.591 234.54 131.897C234.171 132.203 233.894 132.614 233.71 133.131C233.53 133.644 233.44 134.218 233.44 134.852C233.44 135.482 233.53 136.053 233.71 136.566C233.894 137.078 234.171 137.488 234.54 137.794C234.913 138.095 235.381 138.246 235.943 138.246ZM245.411 133.928V140H242.969V129.636H245.303V131.397H245.425C245.663 130.817 246.043 130.356 246.565 130.014C247.091 129.672 247.741 129.501 248.515 129.501C249.23 129.501 249.853 129.654 250.384 129.96C250.919 130.266 251.333 130.709 251.625 131.289C251.922 131.87 252.069 132.574 252.064 133.401V140H249.622V133.779C249.622 133.086 249.442 132.544 249.082 132.153C248.726 131.762 248.234 131.566 247.604 131.566C247.177 131.566 246.797 131.661 246.464 131.849C246.136 132.034 245.877 132.301 245.688 132.652C245.504 133.003 245.411 133.428 245.411 133.928ZM262.738 132.376L260.511 132.619C260.448 132.394 260.338 132.182 260.181 131.984C260.028 131.786 259.821 131.627 259.56 131.505C259.299 131.384 258.98 131.323 258.602 131.323C258.094 131.323 257.666 131.433 257.32 131.654C256.978 131.874 256.81 132.16 256.814 132.511C256.81 132.812 256.92 133.057 257.145 133.246C257.374 133.435 257.752 133.59 258.278 133.712L260.046 134.089C261.026 134.301 261.755 134.636 262.232 135.095C262.713 135.554 262.956 136.154 262.961 136.896C262.956 137.549 262.765 138.124 262.387 138.624C262.014 139.118 261.494 139.505 260.829 139.784C260.163 140.063 259.398 140.202 258.535 140.202C257.266 140.202 256.245 139.937 255.471 139.406C254.698 138.871 254.237 138.127 254.088 137.173L256.47 136.944C256.578 137.411 256.807 137.764 257.158 138.003C257.509 138.241 257.966 138.36 258.528 138.36C259.108 138.36 259.574 138.241 259.924 138.003C260.28 137.764 260.457 137.47 260.457 137.119C260.457 136.822 260.343 136.577 260.113 136.384C259.888 136.19 259.538 136.042 259.061 135.938L257.293 135.567C256.299 135.36 255.564 135.012 255.087 134.521C254.61 134.027 254.374 133.401 254.378 132.646C254.374 132.007 254.547 131.454 254.898 130.986C255.253 130.513 255.746 130.149 256.375 129.893C257.01 129.632 257.741 129.501 258.568 129.501C259.783 129.501 260.739 129.76 261.436 130.277C262.138 130.795 262.572 131.494 262.738 132.376Z" fill="#FDC605"/>
<rect x="322" y="111" width="161" height="45" rx="22.5" fill="#2F181F"/>
<path opacity="0.9" d="M365.137 140H362.466L367.33 126.182H370.42L375.292 140H372.62L368.929 129.016H368.821L365.137 140ZM365.225 134.582H372.512V136.593H365.225V134.582ZM379.446 133.928V140H377.004V129.636H379.339V131.397H379.46C379.698 130.817 380.078 130.356 380.6 130.014C381.127 129.672 381.776 129.501 382.55 129.501C383.265 129.501 383.888 129.654 384.419 129.96C384.954 130.266 385.368 130.709 385.661 131.289C385.957 131.87 386.104 132.574 386.099 133.401V140H383.657V133.779C383.657 133.086 383.477 132.544 383.117 132.153C382.762 131.762 382.269 131.566 381.639 131.566C381.212 131.566 380.832 131.661 380.499 131.849C380.171 132.034 379.912 132.301 379.723 132.652C379.539 133.003 379.446 133.428 379.446 133.928ZM396.773 132.376L394.547 132.619C394.484 132.394 394.373 132.182 394.216 131.984C394.063 131.786 393.856 131.627 393.595 131.505C393.334 131.384 393.015 131.323 392.637 131.323C392.129 131.323 391.702 131.433 391.355 131.654C391.013 131.874 390.845 132.16 390.849 132.511C390.845 132.812 390.955 133.057 391.18 133.246C391.409 133.435 391.787 133.59 392.313 133.712L394.081 134.089C395.062 134.301 395.79 134.636 396.267 135.095C396.748 135.554 396.991 136.154 396.996 136.896C396.991 137.549 396.8 138.124 396.422 138.624C396.049 139.118 395.529 139.505 394.864 139.784C394.198 140.063 393.433 140.202 392.57 140.202C391.301 140.202 390.28 139.937 389.506 139.406C388.733 138.871 388.272 138.127 388.123 137.173L390.505 136.944C390.613 137.411 390.842 137.764 391.193 138.003C391.544 138.241 392.001 138.36 392.563 138.36C393.143 138.36 393.609 138.241 393.96 138.003C394.315 137.764 394.493 137.47 394.493 137.119C394.493 136.822 394.378 136.577 394.149 136.384C393.924 136.19 393.573 136.042 393.096 135.938L391.328 135.567C390.334 135.36 389.599 135.012 389.122 134.521C388.645 134.027 388.409 133.401 388.413 132.646C388.409 132.007 388.582 131.454 388.933 130.986C389.288 130.513 389.781 130.149 390.411 129.893C391.045 129.632 391.776 129.501 392.603 129.501C393.818 129.501 394.774 129.76 395.471 130.277C396.173 130.795 396.607 131.494 396.773 132.376ZM401.149 140L398.22 129.636H400.71L402.532 136.923H402.626L404.489 129.636H406.951L408.813 136.883H408.915L410.709 129.636H413.206L410.271 140H407.727L405.784 132.996H405.642L403.699 140H401.149ZM419.202 140.202C418.163 140.202 417.266 139.987 416.51 139.555C415.759 139.118 415.181 138.502 414.776 137.706C414.371 136.905 414.169 135.963 414.169 134.879C414.169 133.813 414.371 132.877 414.776 132.072C415.186 131.262 415.757 130.633 416.49 130.183C417.223 129.729 418.085 129.501 419.074 129.501C419.713 129.501 420.316 129.605 420.882 129.812C421.454 130.014 421.958 130.329 422.394 130.756C422.835 131.184 423.181 131.728 423.433 132.389C423.685 133.046 423.811 133.829 423.811 134.737V135.486H415.316V133.84H421.469C421.465 133.372 421.364 132.956 421.166 132.592C420.968 132.223 420.691 131.933 420.336 131.721C419.985 131.51 419.576 131.404 419.108 131.404C418.609 131.404 418.17 131.526 417.792 131.768C417.414 132.007 417.12 132.322 416.908 132.713C416.701 133.1 416.596 133.525 416.591 133.988V135.425C416.591 136.028 416.701 136.545 416.922 136.977C417.142 137.405 417.45 137.733 417.846 137.962C418.242 138.187 418.705 138.3 419.236 138.3C419.592 138.3 419.913 138.25 420.201 138.151C420.489 138.048 420.739 137.897 420.95 137.699C421.161 137.501 421.321 137.256 421.429 136.964L423.71 137.22C423.566 137.823 423.291 138.349 422.886 138.799C422.486 139.244 421.973 139.591 421.348 139.838C420.723 140.081 420.008 140.202 419.202 140.202ZM425.877 140V129.636H428.245V131.364H428.353C428.542 130.765 428.866 130.304 429.325 129.98C429.788 129.652 430.317 129.488 430.91 129.488C431.045 129.488 431.196 129.495 431.362 129.508C431.533 129.517 431.675 129.533 431.788 129.555V131.802C431.684 131.766 431.52 131.735 431.295 131.708C431.075 131.676 430.861 131.661 430.654 131.661C430.209 131.661 429.808 131.757 429.453 131.951C429.102 132.14 428.826 132.403 428.623 132.74C428.421 133.077 428.32 133.467 428.32 133.907V140H425.877ZM441.601 132.376L439.375 132.619C439.312 132.394 439.202 132.182 439.044 131.984C438.891 131.786 438.684 131.627 438.423 131.505C438.162 131.384 437.843 131.323 437.465 131.323C436.957 131.323 436.53 131.433 436.183 131.654C435.841 131.874 435.673 132.16 435.677 132.511C435.673 132.812 435.783 133.057 436.008 133.246C436.237 133.435 436.615 133.59 437.141 133.712L438.909 134.089C439.89 134.301 440.618 134.636 441.095 135.095C441.577 135.554 441.819 136.154 441.824 136.896C441.819 137.549 441.628 138.124 441.25 138.624C440.877 139.118 440.358 139.505 439.692 139.784C439.026 140.063 438.261 140.202 437.398 140.202C436.129 140.202 435.108 139.937 434.335 139.406C433.561 138.871 433.1 138.127 432.951 137.173L435.333 136.944C435.441 137.411 435.671 137.764 436.021 138.003C436.372 138.241 436.829 138.36 437.391 138.36C437.971 138.36 438.437 138.241 438.788 138.003C439.143 137.764 439.321 137.47 439.321 137.119C439.321 136.822 439.206 136.577 438.977 136.384C438.752 136.19 438.401 136.042 437.924 135.938L436.156 135.567C435.162 135.36 434.427 135.012 433.95 134.521C433.473 134.027 433.237 133.401 433.242 132.646C433.237 132.007 433.41 131.454 433.761 130.986C434.116 130.513 434.609 130.149 435.239 129.893C435.873 129.632 436.604 129.501 437.432 129.501C438.646 129.501 439.602 129.76 440.299 130.277C441.001 130.795 441.435 131.494 441.601 132.376Z" fill="#E64F49"/>
<rect x="501" y="111" width="140" height="45" rx="22.5" fill="#10432B"/>
<path opacity="0.9" d="M549.873 129.98C549.81 129.391 549.544 128.932 549.076 128.604C548.613 128.276 548.01 128.112 547.268 128.112C546.746 128.112 546.299 128.19 545.925 128.348C545.552 128.505 545.266 128.719 545.069 128.989C544.871 129.259 544.769 129.567 544.765 129.913C544.765 130.201 544.83 130.451 544.961 130.662C545.096 130.873 545.278 131.053 545.507 131.202C545.737 131.346 545.991 131.467 546.27 131.566C546.548 131.665 546.83 131.748 547.113 131.816L548.408 132.14C548.93 132.261 549.432 132.425 549.913 132.632C550.399 132.839 550.833 133.1 551.215 133.415C551.602 133.73 551.908 134.11 552.133 134.555C552.358 135 552.47 135.522 552.47 136.12C552.47 136.93 552.263 137.643 551.849 138.259C551.436 138.871 550.837 139.35 550.055 139.696C549.277 140.038 548.334 140.209 547.228 140.209C546.153 140.209 545.219 140.043 544.428 139.71C543.64 139.377 543.024 138.891 542.579 138.252C542.138 137.614 541.9 136.836 541.864 135.918H544.326C544.362 136.399 544.511 136.8 544.772 137.119C545.033 137.438 545.372 137.677 545.79 137.834C546.213 137.992 546.686 138.07 547.207 138.07C547.752 138.07 548.228 137.989 548.638 137.827C549.052 137.661 549.375 137.432 549.609 137.139C549.843 136.842 549.962 136.496 549.967 136.1C549.962 135.74 549.857 135.443 549.65 135.21C549.443 134.971 549.153 134.773 548.779 134.616C548.411 134.454 547.979 134.31 547.484 134.184L545.912 133.779C544.774 133.487 543.874 133.044 543.213 132.45C542.556 131.852 542.228 131.058 542.228 130.068C542.228 129.254 542.448 128.541 542.889 127.929C543.335 127.318 543.94 126.843 544.704 126.506C545.469 126.164 546.335 125.993 547.302 125.993C548.282 125.993 549.142 126.164 549.879 126.506C550.621 126.843 551.204 127.313 551.627 127.916C552.05 128.514 552.268 129.202 552.281 129.98H549.873ZM557.576 140.209C556.919 140.209 556.328 140.092 555.802 139.858C555.28 139.62 554.866 139.269 554.56 138.806C554.259 138.342 554.108 137.771 554.108 137.092C554.108 136.507 554.216 136.024 554.432 135.641C554.648 135.259 554.942 134.953 555.316 134.724C555.689 134.494 556.11 134.321 556.578 134.204C557.05 134.083 557.538 133.995 558.042 133.941C558.649 133.878 559.141 133.822 559.519 133.772C559.897 133.718 560.171 133.637 560.342 133.529C560.518 133.417 560.606 133.244 560.606 133.01V132.969C560.606 132.461 560.455 132.068 560.153 131.789C559.852 131.51 559.418 131.37 558.851 131.37C558.253 131.37 557.778 131.501 557.428 131.762C557.081 132.023 556.847 132.331 556.726 132.686L554.445 132.362C554.625 131.732 554.922 131.206 555.336 130.783C555.75 130.356 556.256 130.037 556.854 129.825C557.452 129.609 558.114 129.501 558.838 129.501C559.337 129.501 559.834 129.56 560.329 129.677C560.824 129.794 561.276 129.987 561.685 130.257C562.094 130.522 562.423 130.885 562.67 131.343C562.922 131.802 563.048 132.376 563.048 133.064V140H560.7V138.576H560.619C560.471 138.864 560.261 139.134 559.992 139.386C559.726 139.633 559.391 139.834 558.986 139.987C558.586 140.135 558.116 140.209 557.576 140.209ZM558.21 138.414C558.701 138.414 559.126 138.318 559.486 138.124C559.845 137.926 560.122 137.665 560.315 137.342C560.513 137.018 560.612 136.665 560.612 136.282V135.061C560.536 135.124 560.405 135.183 560.221 135.237C560.041 135.29 559.839 135.338 559.614 135.378C559.389 135.419 559.166 135.455 558.946 135.486C558.725 135.518 558.534 135.545 558.372 135.567C558.008 135.617 557.682 135.698 557.394 135.81C557.106 135.922 556.879 136.08 556.712 136.282C556.546 136.48 556.463 136.737 556.463 137.051C556.463 137.501 556.627 137.841 556.955 138.07C557.284 138.3 557.702 138.414 558.21 138.414ZM570.753 129.636V131.526H564.627V129.636H570.753ZM566.158 140V128.658C566.158 127.961 566.302 127.381 566.59 126.917C566.883 126.454 567.274 126.108 567.764 125.878C568.255 125.649 568.799 125.534 569.397 125.534C569.82 125.534 570.196 125.568 570.524 125.635C570.852 125.703 571.095 125.763 571.253 125.817L570.767 127.707C570.663 127.675 570.533 127.644 570.375 127.612C570.218 127.576 570.043 127.558 569.849 127.558C569.395 127.558 569.073 127.668 568.884 127.889C568.7 128.105 568.608 128.415 568.608 128.82V140H566.158ZM577.841 129.636V131.526H571.883V129.636H577.841ZM573.354 127.153H575.797V136.883C575.797 137.211 575.846 137.463 575.945 137.638C576.049 137.809 576.184 137.926 576.35 137.989C576.516 138.052 576.701 138.084 576.903 138.084C577.056 138.084 577.196 138.073 577.322 138.05C577.452 138.028 577.551 138.007 577.619 137.989L578.03 139.899C577.9 139.944 577.713 139.993 577.47 140.047C577.232 140.101 576.939 140.133 576.593 140.142C575.981 140.16 575.43 140.067 574.94 139.865C574.45 139.658 574.061 139.339 573.773 138.907C573.489 138.475 573.35 137.935 573.354 137.288V127.153ZM584.361 140.202C583.322 140.202 582.424 139.987 581.669 139.555C580.917 139.118 580.339 138.502 579.934 137.706C579.53 136.905 579.327 135.963 579.327 134.879C579.327 133.813 579.53 132.877 579.934 132.072C580.344 131.262 580.915 130.633 581.648 130.183C582.381 129.729 583.243 129.501 584.232 129.501C584.871 129.501 585.474 129.605 586.041 129.812C586.612 130.014 587.116 130.329 587.552 130.756C587.993 131.184 588.339 131.728 588.591 132.389C588.843 133.046 588.969 133.829 588.969 134.737V135.486H580.474V133.84H586.628C586.623 133.372 586.522 132.956 586.324 132.592C586.126 132.223 585.849 131.933 585.494 131.721C585.143 131.51 584.734 131.404 584.266 131.404C583.767 131.404 583.328 131.526 582.95 131.768C582.573 132.007 582.278 132.322 582.067 132.713C581.86 133.1 581.754 133.525 581.749 133.988V135.425C581.749 136.028 581.86 136.545 582.08 136.977C582.3 137.405 582.609 137.733 583.004 137.962C583.4 138.187 583.864 138.3 584.394 138.3C584.75 138.3 585.071 138.25 585.359 138.151C585.647 138.048 585.897 137.897 586.108 137.699C586.32 137.501 586.479 137.256 586.587 136.964L588.868 137.22C588.724 137.823 588.449 138.349 588.045 138.799C587.644 139.244 587.131 139.591 586.506 139.838C585.881 140.081 585.166 140.202 584.361 140.202ZM592.256 143.886C591.924 143.886 591.616 143.859 591.332 143.805C591.053 143.756 590.831 143.697 590.664 143.63L591.231 141.727C591.586 141.831 591.903 141.88 592.182 141.876C592.461 141.871 592.706 141.783 592.918 141.613C593.134 141.446 593.316 141.167 593.464 140.776L593.673 140.216L589.915 129.636H592.506L594.895 137.463H595.003L597.398 129.636H599.995L595.846 141.255C595.653 141.804 595.396 142.274 595.077 142.665C594.757 143.061 594.366 143.362 593.903 143.569C593.444 143.781 592.895 143.886 592.256 143.886Z" fill="#46D880"/>
</g>
<defs>
<linearGradient id="paint0_linear_362_57804" x1="576" y1="187" x2="575.995" y2="188.609" gradientUnits="userSpaceOnUse">
<stop stop-color="#182C48" stop-opacity="0"/>
<stop offset="0.130208" stop-color="#161E30"/>
<stop offset="0.494792" stop-color="#161E30"/>
<stop offset="0.869792" stop-color="#161E30"/>
<stop offset="1" stop-color="#182C48" stop-opacity="0"/>
</linearGradient>
<linearGradient id="paint1_linear_362_57804" x1="576" y1="81" x2="575.995" y2="82.602" gradientUnits="userSpaceOnUse">
<stop stop-color="#182C48" stop-opacity="0"/>
<stop offset="0.130208" stop-color="#161E30"/>
<stop offset="0.494792" stop-color="#161E30"/>
<stop offset="0.869792" stop-color="#161E30"/>
<stop offset="1" stop-color="#182C48" stop-opacity="0"/>
</linearGradient>
<linearGradient id="paint2_linear_362_57804" x1="32.3359" y1="26" x2="128.188" y2="180.554" gradientUnits="userSpaceOnUse">
<stop stop-color="#182C48" stop-opacity="0.2"/>
<stop offset="0.171875" stop-color="#182C48"/>
<stop offset="0.301595" stop-color="#182943"/>
<stop offset="0.828125" stop-color="#161E30"/>
<stop offset="1" stop-color="#161E30" stop-opacity="0.2"/>
</linearGradient>
<linearGradient id="paint3_linear_362_57804" x1="141.133" y1="26" x2="236.985" y2="180.554" gradientUnits="userSpaceOnUse">
<stop stop-color="#182C48" stop-opacity="0.2"/>
<stop offset="0.171875" stop-color="#182C48"/>
<stop offset="0.301595" stop-color="#182943"/>
<stop offset="0.828125" stop-color="#161E30"/>
<stop offset="1" stop-color="#161E30" stop-opacity="0.2"/>
</linearGradient>
<linearGradient id="paint4_linear_362_57804" x1="249.938" y1="26" x2="345.79" y2="180.554" gradientUnits="userSpaceOnUse">
<stop stop-color="#182C48" stop-opacity="0.2"/>
<stop offset="0.171875" stop-color="#182C48"/>
<stop offset="0.301595" stop-color="#182943"/>
<stop offset="0.828125" stop-color="#161E30"/>
<stop offset="1" stop-color="#161E30" stop-opacity="0.2"/>
</linearGradient>
<linearGradient id="paint5_linear_362_57804" x1="358.734" y1="26" x2="454.587" y2="180.554" gradientUnits="userSpaceOnUse">
<stop stop-color="#182C48" stop-opacity="0.2"/>
<stop offset="0.171875" stop-color="#182C48"/>
<stop offset="0.301595" stop-color="#182943"/>
<stop offset="0.828125" stop-color="#161E30"/>
<stop offset="1" stop-color="#161E30" stop-opacity="0.2"/>
</linearGradient>
<linearGradient id="paint6_linear_362_57804" x1="467.539" y1="26" x2="563.391" y2="180.554" gradientUnits="userSpaceOnUse">
<stop stop-color="#182C48" stop-opacity="0.2"/>
<stop offset="0.171875" stop-color="#182C48"/>
<stop offset="0.301595" stop-color="#182943"/>
<stop offset="0.828125" stop-color="#161E30"/>
<stop offset="1" stop-color="#161E30" stop-opacity="0.2"/>
</linearGradient>
<linearGradient id="paint7_linear_362_57804" x1="576.336" y1="26" x2="672.188" y2="180.554" gradientUnits="userSpaceOnUse">
<stop stop-color="#182C48" stop-opacity="0.2"/>
<stop offset="0.171875" stop-color="#182C48"/>
<stop offset="0.301595" stop-color="#182943"/>
<stop offset="0.828125" stop-color="#161E30"/>
<stop offset="1" stop-color="#161E30" stop-opacity="0.2"/>
</linearGradient>
<clipPath id="clip0_362_57804">
<rect width="608" height="267" fill="white"/>
</clipPath>
</defs>
</svg>
