<svg width="26" height="16" viewBox="0 0 26 16" fill="none" xmlns="http://www.w3.org/2000/svg">
<path d="M14.1882 3.79743C14.1771 3.76814 14.159 3.74203 14.1355 3.72139C14.1121 3.70076 14.0839 3.68622 14.0535 3.67905C14.018 3.66761 13.98 3.66686 13.944 3.67688C13.9082 3.6869 13.8759 3.70726 13.8514 3.73543L13.4361 4.14689L13.3743 4.21453L10.0854 0.934036C9.48756 0.340614 8.68089 0.0078125 7.84033 0.0078125C6.99976 0.0078125 6.1931 0.340614 5.5953 0.934036L0.92003 5.6406C0.330472 6.24167 0 7.05151 0 7.89522C0 8.73893 0.330472 9.54878 0.92003 10.1498L5.60091 14.8338C6.19728 15.43 7.00449 15.7647 7.84594 15.7647C8.6874 15.7647 9.4946 15.43 10.091 14.8338L11.1574 13.7629C11.3293 13.6062 11.4653 13.4139 11.5559 13.1992C11.6294 12.9994 11.6507 12.784 11.6176 12.5736C11.5859 12.3711 11.5092 12.1785 11.3931 12.0099C11.3452 11.9427 11.2907 11.8803 11.2303 11.8239C10.9812 11.5754 10.6443 11.4359 10.293 11.4359C9.94184 11.4359 9.60492 11.5754 9.35573 11.8239L8.23322 12.9512C8.16598 13.0227 8.07727 13.0703 7.98064 13.0864C7.89163 13.1178 7.79465 13.1178 7.70563 13.0864C7.6156 13.053 7.53343 13.0012 7.46429 12.9343L2.81147 8.26158C2.73981 8.19207 2.69251 8.10111 2.67674 8.00232C2.65349 7.87853 2.67543 7.75046 2.7385 7.64156V7.6134C2.79463 7.55703 7.43062 2.91251 7.46991 2.86741C7.54462 2.79887 7.63534 2.7504 7.73369 2.72649C7.76713 2.72093 7.80127 2.72093 7.83471 2.72649C7.96977 2.72753 8.09893 2.78223 8.19393 2.87867L11.4773 6.14786L11.3145 6.31135L10.989 6.63825C10.9638 6.66184 10.9452 6.6915 10.9347 6.72439C10.9242 6.75727 10.9222 6.79232 10.9289 6.82618C10.9357 6.86005 10.9509 6.8916 10.9733 6.91791C10.9956 6.9442 11.0242 6.96437 11.0563 6.97646L14.0086 7.34282C14.0696 7.34342 14.1302 7.3312 14.1862 7.30694C14.2423 7.28266 14.2927 7.24689 14.3341 7.2019C14.3783 7.15889 14.4131 7.10713 14.4363 7.04988C14.4595 6.99262 14.4705 6.93114 14.4688 6.86936L14.1882 3.79743Z" fill="url(#paint0_linear_1208_57784)"/>
<path opacity="0.49" d="M2.76112 8.21991C2.70101 8.13983 2.66529 8.04394 2.65832 7.94389C2.65135 7.84385 2.6734 7.74396 2.72183 7.65625C2.72183 7.65625 1.17837 9.34721 1.91923 11.2073L2.90144 12.1768L4.32144 9.80939L2.76112 8.21991Z" fill="url(#paint1_linear_1208_57784)"/>
<path opacity="0.49" d="M7.54944 13.03C8.02329 13.4892 8.61953 13.8008 9.266 13.9268C9.91247 14.0529 10.5815 13.988 11.192 13.7402C11.3524 13.5817 11.4751 13.3891 11.5512 13.1766C11.293 13.0469 9.42402 11.7109 9.42402 11.7109L8.30151 12.8382C8.22483 12.9613 8.10384 13.05 7.96373 13.0857C7.82364 13.1214 7.67526 13.1014 7.54944 13.03Z" fill="url(#paint2_linear_1208_57784)"/>
<path opacity="0.49" d="M6.41256 3.91624L7.53507 2.78893C7.62321 2.72476 7.72928 2.69023 7.83814 2.69023C7.947 2.69023 8.0531 2.72476 8.14124 2.78893C8.14124 2.78893 6.28909 1.26142 4.31907 2.22527L3.75781 2.78893L6.41256 3.91624Z" fill="url(#paint3_linear_1208_57784)"/>
<path d="M11.8107 11.9898C11.8223 12.0198 11.8412 12.0463 11.8657 12.067C11.8903 12.0877 11.9196 12.1018 11.951 12.1082C11.9855 12.1199 12.0229 12.1209 12.058 12.1108C12.0931 12.1007 12.1243 12.0801 12.1474 12.0519L12.5628 11.6403L12.6245 11.5727L15.9135 14.8532C16.5113 15.4465 17.318 15.7793 18.1585 15.7793C18.9991 15.7793 19.8058 15.4465 20.4036 14.8532L25.0845 10.1466C25.6713 9.54416 26 8.73485 26 7.89202C26 7.04919 25.6713 6.23987 25.0845 5.63739L20.4036 0.930841C19.8072 0.334684 19 0 18.1585 0C17.3171 0 16.5099 0.334684 15.9135 0.930841L14.8471 2.0018C14.6768 2.15875 14.5428 2.3511 14.4542 2.56546C14.3788 2.76478 14.3556 2.9802 14.3869 3.19111C14.4145 3.40334 14.4914 3.60608 14.6114 3.78294C14.661 3.84886 14.7154 3.91103 14.7741 3.96895C15.0233 4.21747 15.3603 4.35695 15.7114 4.35695C16.0626 4.35695 16.3995 4.21747 16.6488 3.96895L17.7712 2.84164C17.8393 2.77105 17.9275 2.72372 18.0239 2.70637C18.1129 2.675 18.2099 2.675 18.2988 2.70637C18.3895 2.73857 18.4719 2.79056 18.5402 2.85857L23.193 7.53127C23.2646 7.60078 23.312 7.69178 23.3278 7.79056C23.351 7.91435 23.3291 8.04239 23.266 8.15128V8.17948C23.2098 8.23585 18.5739 12.8804 18.5345 12.9254C18.4599 12.994 18.3691 13.0424 18.2707 13.0664C18.2374 13.0719 18.2033 13.0719 18.1698 13.0664C18.0347 13.0653 17.9056 13.0106 17.8105 12.9142L14.5328 9.64498L14.6899 9.48154L15.0155 9.1546C15.0406 9.131 15.0592 9.10135 15.0698 9.06846C15.0803 9.03558 15.0822 9.00055 15.0755 8.9667C15.0688 8.93282 15.0535 8.90124 15.0313 8.87494C15.009 8.84864 14.9804 8.82851 14.9481 8.81642L11.9959 8.45003C11.8729 8.45298 11.7558 8.50416 11.6698 8.59263C11.5837 8.68111 11.5356 8.79988 11.5356 8.92352L11.8107 11.9898Z" fill="url(#paint4_linear_1208_57784)"/>
<path opacity="0.49" d="M23.2437 7.56625C23.3038 7.64633 23.3395 7.74219 23.3465 7.84223C23.3534 7.94227 23.3314 8.04221 23.283 8.12991C23.283 8.12991 24.8264 6.43895 24.0855 4.57888L23.109 3.60938L21.6833 5.97674L23.2437 7.56625Z" fill="url(#paint5_linear_1208_57784)"/>
<path opacity="0.49" d="M18.4517 2.75643C17.9779 2.29716 17.3816 1.98563 16.7351 1.85958C16.0887 1.73354 15.4196 1.79838 14.8092 2.04622C14.6528 2.19588 14.5319 2.37887 14.4556 2.58169C14.7137 2.71134 16.577 4.04719 16.577 4.04719L17.6996 2.91988C17.7806 2.80153 17.9036 2.71872 18.0433 2.68834C18.1832 2.65797 18.3292 2.68232 18.4517 2.75643Z" fill="url(#paint6_linear_1208_57784)"/>
<path opacity="0.49" d="M19.5949 11.8516L18.4723 12.9789C18.3843 13.043 18.2782 13.0776 18.1693 13.0776C18.0604 13.0776 17.9543 13.043 17.8662 12.9789C17.8662 12.9789 19.7184 14.5063 21.6884 13.5425L22.2496 12.9789L19.5949 11.8516Z" fill="url(#paint7_linear_1208_57784)"/>
<defs>
<linearGradient id="paint0_linear_1208_57784" x1="7.23449" y1="0.0078125" x2="7.23449" y2="15.7647" gradientUnits="userSpaceOnUse">
<stop stop-color="#1C98EC"/>
<stop offset="1" stop-color="#145BD1"/>
</linearGradient>
<linearGradient id="paint1_linear_1208_57784" x1="1.38042" y1="8.68773" x2="3.34608" y2="10.3254" gradientUnits="userSpaceOnUse">
<stop offset="0.03" stop-color="#1B1464"/>
<stop offset="1" stop-color="#1B1464" stop-opacity="0"/>
</linearGradient>
<linearGradient id="paint2_linear_1208_57784" x1="8.98625" y1="13.9544" x2="9.92327" y2="12.6279" gradientUnits="userSpaceOnUse">
<stop offset="0.03" stop-color="#1B1464"/>
<stop offset="1" stop-color="#1B1464" stop-opacity="0"/>
</linearGradient>
<linearGradient id="paint3_linear_1208_57784" x1="6.35644" y1="1.74053" x2="5.64971" y2="3.48013" gradientUnits="userSpaceOnUse">
<stop offset="0.03" stop-color="#1B1464"/>
<stop offset="1" stop-color="#1B1464" stop-opacity="0"/>
</linearGradient>
<linearGradient id="paint4_linear_1208_57784" x1="18.7678" y1="0" x2="18.7678" y2="15.7793" gradientUnits="userSpaceOnUse">
<stop stop-color="#1C98EC"/>
<stop offset="1" stop-color="#145BD1"/>
</linearGradient>
<linearGradient id="paint5_linear_1208_57784" x1="24.6243" y1="7.09842" x2="22.6587" y2="5.4608" gradientUnits="userSpaceOnUse">
<stop offset="0.03" stop-color="#1B1464"/>
<stop offset="1" stop-color="#1B1464" stop-opacity="0"/>
</linearGradient>
<linearGradient id="paint6_linear_1208_57784" x1="16.4536" y1="1.79687" x2="16.4536" y2="4.04719" gradientUnits="userSpaceOnUse">
<stop stop-color="#1C98EC"/>
<stop offset="1" stop-color="#145BD1"/>
</linearGradient>
<linearGradient id="paint7_linear_1208_57784" x1="19.651" y1="14.0216" x2="20.3577" y2="12.282" gradientUnits="userSpaceOnUse">
<stop offset="0.03" stop-color="#1B1464"/>
<stop offset="1" stop-color="#1B1464" stop-opacity="0"/>
</linearGradient>
</defs>
</svg>
