<svg width="24" height="25" viewBox="0 0 24 25" fill="none" xmlns="http://www.w3.org/2000/svg">
<path d="M9.43776 6.20783C10.578 4.16303 11.1477 3.14062 12 3.14062C12.8523 3.14062 13.422 4.16303 14.5622 6.20783L14.8574 6.73704C15.1814 7.31844 15.3434 7.60914 15.5954 7.80084C15.8474 7.99254 16.1624 8.06364 16.7924 8.20584L17.3648 8.33544C19.5787 8.83674 20.6848 9.08694 20.9485 9.93385C21.2113 10.7798 20.4571 11.6628 18.9478 13.4277L18.5572 13.884C18.1289 14.3853 17.9138 14.6364 17.8175 14.946C17.7212 15.2565 17.7536 15.5913 17.8184 16.26L17.8778 16.8693C18.1055 19.2246 18.2198 20.4018 17.5304 20.9247C16.841 21.4485 15.8042 20.9706 13.7325 20.0166L13.1952 19.77C12.6066 19.4982 12.3123 19.3632 12 19.3632C11.6877 19.3632 11.3934 19.4982 10.8039 19.77L10.2684 20.0166C8.19579 20.9706 7.15901 21.4476 6.47053 20.9256C5.78025 20.4018 5.89454 19.2246 6.12224 16.8693L6.18164 16.2609C6.24644 15.5913 6.27883 15.2565 6.18164 14.9469C6.08624 14.6364 5.87114 14.3853 5.44275 13.8849L5.05216 13.4277C3.5429 11.6637 2.78872 10.7807 3.05151 9.93385C3.3152 9.08694 4.42218 8.83584 6.63613 8.33544L7.20851 8.20584C7.8376 8.06364 8.15169 7.99254 8.40458 7.80084C8.65658 7.60914 8.81857 7.31844 9.14257 6.73704L9.43776 6.20783Z" stroke="white" stroke-width="1.5"/>
</svg>
