<svg width="26" height="25" viewBox="0 0 26 25" fill="none" xmlns="http://www.w3.org/2000/svg">
<path d="M1 20.2814V13.4227L7.00047 10.8516L13.0009 13.4245V20.2814L7.00047 22.8506L1 20.2814Z" stroke="white" stroke-linecap="round" stroke-linejoin="round"/>
<path d="M1 13.4076L7.00001 15.9785L13 13.4076M7.00001 4.03906L12.9981 6.61185L18.9981 4.04096" stroke="white" stroke-linecap="round" stroke-linejoin="round"/>
<path d="M12.9961 13.4141L18.9966 15.9852L24.997 13.4141" stroke="white" stroke-linecap="round" stroke-linejoin="round"/>
<path d="M7 15.9871V22.8548M19.0019 15.9871V22.8548M12.9981 6.61671V13.4825M7.00379 10.851V3.99277L13.0019 1.42188L19.0019 3.99277V10.851L13.0019 13.4219L7.00379 10.851ZM12.9981 20.2839V13.4257L18.9981 10.8548L24.9981 13.4276V20.2839L18.9981 22.8529L12.9981 20.282V20.2839Z" stroke="white" stroke-linecap="round" stroke-linejoin="round"/>
</svg>
