<svg version="1.1" id="Layer_1" xmlns="http://www.w3.org/2000/svg" x="0" y="0" viewBox="0 0 2026.9 540.6" xml:space="preserve"><style>.st0{fill:#fff}</style><path class="st0" d="M321.3 251.4c-.5-59.7 48.9-88.8 51.2-90.1-28-40.8-71.4-46.4-86.7-46.8-36.5-3.8-71.8 21.8-90.4 21.8-18.9 0-47.5-21.4-78.4-20.8-39.6.5-76.7 23.5-97.1 59.1C-22 247.3 9.3 354.1 49.5 412.9c20.1 28.8 43.7 60.9 74.4 59.8 30.1-1.2 41.4-19.2 77.7-19.2 36 0 46.6 19.2 78 18.5 32.3-.5 52.7-28.9 72.1-57.9 23.3-33 32.6-65.5 33-67.1-.7-.4-62.7-24.1-63.4-95.6zM262 75.8C278.2 55.5 289.3 28 286.2 0c-23.5 1-52.8 16.2-69.6 36-14.9 17.5-28.3 46.1-24.8 73 26.3 2 53.3-13.3 70.2-33.2zM757.5 468.5h-42.1l-23.1-72.4h-80.1l-22 72.4h-41L628.7 222h49l79.8 246.5zm-72.1-102.8l-20.8-64.4c-2.2-6.6-6.3-22.1-12.4-46.4h-.7c-2.4 10.5-6.4 26-11.7 46.4l-20.5 64.4h66.1zm276 11.8c0 30.2-8.2 54.1-24.7 71.7-14.7 15.6-33 23.4-54.8 23.4-23.6 0-40.5-8.4-50.8-25.2v93.3h-39.5V349.2c0-19-.5-38.5-1.5-58.4h34.8l2.2 28.2h.7c13.2-21.2 33.2-31.9 60-31.9 21 0 38.5 8.3 52.5 24.9s21 38.3 21.1 65.5zm-40.3 1.4c0-17.3-3.9-31.6-11.7-42.8-8.5-11.7-20-17.5-34.4-17.6-9.7 0-19.1 3.4-26.5 9.7-7.9 6.5-13.4 15.4-15.5 25.4-1.1 3.9-1.7 7.9-1.8 12v29.7c0 12.9 4 23.8 11.9 32.8 7.9 8.9 18.2 13.4 30.9 13.4 14.9 0 26.5-5.8 34.8-17.2s12.3-26.6 12.3-45.4zm244.8-1.4c0 30.2-8.2 54.1-24.6 71.7-14.7 15.6-33 23.4-54.8 23.4-23.6 0-40.5-8.4-50.8-25.2v93.3h-39.5V349.2c0-19-.5-38.5-1.5-58.4h34.7l2.2 28.2h.7c13.2-21.2 33.2-31.9 60-31.9 21 0 38.5 8.3 52.5 24.9s21.1 38.3 21.1 65.5zm-40.3 1.4c0-17.3-3.9-31.6-11.7-42.8-8.5-11.7-20-17.5-34.4-17.5-9.7 0-19.1 3.4-26.6 9.7-7.9 6.5-13.4 15.4-15.5 25.4-1.1 3.9-1.7 7.9-1.8 12v29.7c0 12.9 4 23.8 11.9 32.8 7.9 8.9 18.2 13.4 31 13.4 14.9 0 26.5-5.8 34.8-17.2s12.3-26.7 12.3-45.5zm269 20.5c0 21-7.3 38.1-21.9 51.2-16.1 14.4-38.4 21.6-67.2 21.6-26.5 0-47.8-5.1-63.9-15.4l9.1-32.9c17.3 10.2 37 15.6 57.1 15.4 14.9 0 26.5-3.4 34.8-10.1 8.3-6.7 12.5-15.7 12.5-26.9.2-9.5-3.5-18.6-10.3-25.3-6.8-6.8-18.2-13.2-34-19-43.2-16.1-64.8-39.7-64.8-70.6 0-20.2 7.6-36.8 22.9-49.8 15.2-12.9 35.4-19.4 60.6-19.4 22.4 0 41.1 3.9 56 11.7l-9.9 32.2c-14-7.6-29.8-11.3-47.4-11.3-13.9 0-24.9 3.4-32.7 10.2-6.4 5.7-10 13.8-9.9 22.4-.2 9.4 4 18.3 11.4 24.1 6.6 5.8 18.5 12.2 35.8 19 21.2 8.6 36.8 18.6 46.8 30 10 11.6 15 25.9 15 42.9zm131-79H1482v86.3c0 22 7.7 32.9 23.1 32.9 5.9.1 11.8-.5 17.6-1.8l1.1 30c-7.8 2.9-18 4.4-30.7 4.4-15.6 0-27.8-4.8-36.6-14.3s-13.2-25.5-13.2-47.9v-89.6h-26v-29.6h26v-32.6l38.8-11.7v44.3h43.6l-.1 29.6zm196.2 57.8c0 27.3-7.8 49.8-23.4 67.3-16.3 18.1-38 27.1-65.1 27.1-26.1 0-46.9-8.6-62.4-25.9-15.5-17.3-23.2-39.1-23.2-65.5 0-27.6 8-50.1 24-67.7s37.5-26.3 64.6-26.4c26.1 0 47.1 8.7 62.9 26 15.1 16.8 22.6 38.5 22.6 65.1zm-41 .9c0-16.3-3.5-30.3-10.6-42-8.3-14.1-20.1-21.1-35.5-21.1-15.8 0-28 7.1-36.2 21.2-7.1 11.7-10.6 25.9-10.6 42.7 0 16.3 3.5 30.3 10.6 42 8.5 14.1 20.5 21.2 35.9 21.2 15.1 0 27-7.2 35.5-21.5 7.3-12 10.9-26 10.9-42.4v-.1zm169.4-53.6c-4.1-.7-8.3-1.1-12.5-1.1-13.9 0-24.7 5.2-32.2 15.8-6.6 9.3-9.8 21-9.9 35.1v93.3h-39.5V346.7c0-18.7-.4-37.3-1.2-56h34.4l1.4 34h1.1c4.2-11.7 10.7-21.1 19.8-28.2 8.2-6.2 18.3-9.5 28.6-9.5 3.3 0 6.6.2 9.9.7l.1 37.8zm176.7 45.7c.1 6-.4 12-1.4 17.9H1907c.4 17.6 6.2 31 17.2 40.3 10 8.3 22.9 12.4 38.8 12.4 17.5 0 33.5-2.8 48-8.4l6.2 27.4c-16.8 7.3-36.7 11-59.6 11-27.6 0-49.2-8.1-65-24.3s-23.6-38-23.6-65.3c0-26.8 7.3-49.1 22-66.9 15.3-19 36.1-28.5 62.2-28.5 25.6 0 45 9.5 58.2 28.5 10.3 15.1 15.6 33.7 15.5 55.9zm-37.7-10.2c.3-11.7-2.3-21.8-7.7-30.4-6.8-11-17.4-16.5-31.5-16.5-12.9 0-23.4 5.4-31.4 16.1-6.6 8.5-10.5 18.7-11.6 30.7l82.2.1zM915.3 51.9l-37.2 47.5-39.5-51.3v81.1h-20.9V17c13.2-3 26.3-3.8 34.7 11.3 8.1 12.4 16.9 24.3 26.3 35.7 8.4-11.3 17.1-21.2 23.8-32.4 6.2-14 22.5-20.5 36.6-14.5V129h-20.8V52.6l-3-.7zm108.2 2.9c19.3 24.6 35.5 45.9 52.6 66.5 5.8 4.8 12.2 8.8 19.1 11.8V16.5h-22v67.9c-17.4-21.7-32.6-39.5-46.7-59-4.9-8.8-15.6-12.5-24.9-8.6v112.7h21.2l.7-74.7zm638.4 3.7c16.3 20.8 32.2 41.7 49.2 62 6.1 5.2 12.8 9.6 20 13.2V16.8h-21.6v67.9c-17.2-21.6-32.2-39.5-46.3-58.4-4.9-9.6-16.5-13.6-26.3-9.2v111.6h21.2V59.9l3.8-1.4zM800.5 73.1c1.5-32.5-23.5-60-56-61.6-32.5-1.5-60 23.5-61.6 56-.1 1.9-.1 3.7 0 5.6-1.8 32.4 23.1 60.2 55.5 62s60.2-23.1 62-55.5c.1-1.8.1-3.7 0-5.5v-1zm-58.8 39.5c-19.9.5-36.5-15.2-37-35.1 0-1.5 0-2.9.2-4.4-2.5-20.1 11.8-38.5 32-40.9 1.4-.2 2.9-.3 4.4-.3 20-.7 36.9 14.9 37.6 35 .1 1.5 0 3-.1 4.5 2.8 19.7-10.8 38-30.5 40.9-2.3.2-4.4.4-6.6.3zM1490 73.1c1.8-32.4-23.1-60.2-55.5-62-32.4-1.8-60.2 23.1-62 55.5-.1 1.8-.1 3.7 0 5.5-1.8 32.4 23.1 60.2 55.5 62 32.4 1.8 60.2-23.1 62-55.5v-5.5zm-60 39.5c-20-.2-36-16.6-35.8-36.6 0-1 .1-1.9.1-2.9-1.8-20.4 13.3-38.4 33.7-40.2 20.4-1.8 38.4 13.3 40.2 33.7.2 2.5.2 5.1-.1 7.6 1.3 19.9-13.7 37.1-33.5 38.4-1.6.1-3.1.1-4.6 0zm190.3-39.5c1.5-32.5-23.5-60-56-61.5s-60 23.5-61.5 56c-.1 1.9-.1 3.7 0 5.6-1.5 32.5 23.5 60 56 61.6 32.5 1.5 60-23.5 61.6-56 0-2 0-3.8-.1-5.7zm-59 39.5c-19.9.5-36.4-15.3-36.9-35.2 0-1.4 0-2.8.2-4.3-2-20.3 12.9-38.4 33.2-40.4 20.3-2 38.4 12.9 40.4 33.2.2 2 .2 4.1.1 6.1 2.6 19.7-11.3 37.7-31 40.3-2 .3-4 .4-6 .3zm437-39.5c1.5-32.5-23.5-60-56-61.5s-60 23.5-61.6 56c-.1 1.9-.1 3.7 0 5.6-1.5 32.5 23.5 60 56 61.6 32.5 1.5 60-23.5 61.6-56 .1-2 .1-3.8 0-5.7zm-59.5 39.5c-20 .2-36.3-15.9-36.5-35.9 0-1.2 0-2.4.1-3.6-2.1-20.4 12.7-38.6 33.1-40.7 20.4-2.1 38.6 12.7 40.7 33.1.3 2.5.3 5.1 0 7.6 1.9 19.8-12.6 37.4-32.4 39.4-1.6.1-3.3.2-5 .1zm-809.1-84.9c-21.9 23.8-24 59.8-5 85.9 21.8 22.5 56.6 26.1 82.5 8.4 4.8-3 8.4-7.7 10-13.2 1.2-14.9 0-30 0-45h-48.6l.8 18.6h26.3c2.9 22.6-4.7 31.2-26.3 30.1-15.4.6-29.3-9.2-33.8-24-6.5-15.6-2.9-33.6 9-45.7 11.3-11.1 28.4-14 42.8-7.4 4.8 2.1 9.5 4.5 14.1 7.1l12-13.2c-23.3-22.1-59.6-22.8-83.7-1.6h-.1zM1332 130.5c16.3-2.9 28-17.3 27.6-33.8.9-16.7-11.4-31.2-28-33.2-10.3-2.6-21.1-3.2-30.9-6.6-4.5-1.4-10.4-7.4-10.3-11.2.1-3.8 5.7-9.9 10.1-12 15-6.7 27.5 0 39.5 9.7l16.1-8.8c-13.2-19.6-37.7-28-60.2-20.7-19.3 5.3-28.8 16.5-28.3 33s9.9 26.3 28.8 30.7c8.9 1 17.7 2.6 26.3 5 5.8 2.5 13.2 9.1 13.2 14.2s-7.2 12.2-13.2 14.5c-16.5 6-35-.4-44.2-15.4l-16.6 9c13.2 25.3 43.5 36.5 70 25.8l.1-.2zM589.2 29.1c-22.8 25.5-22.2 64.3 1.3 89.1 23.4 21.6 65.8 19.9 84.4-2.4l-11-14.8c-25.5 14.3-46.7 14-59.9 0-12.1-15.3-12.7-36.7-1.6-52.6 12-16.3 30.1-17.9 60.3-5.1l13.2-11.5c-23.2-24.7-62-25.9-86.7-2.7zm1188.9 7.1h36.6v92.1h22v-93h34.9v-19h-93.3l-.2 19.9zM977.4 16.4h-20v112.8h20V16.4z"/></svg>